<svg width="40" height="40" viewBox="0 0 40 40" fill="none" xmlns="http://www.w3.org/2000/svg">
<path d="M21.6667 10.0007C21.6667 9.55862 21.8423 9.1347 22.1548 8.82214C22.4674 8.50958 22.8913 8.33398 23.3333 8.33398H30.2667L28.2167 5.96732C28.0766 5.8304 27.9665 5.66593 27.8933 5.4843C27.82 5.30267 27.7852 5.10782 27.7911 4.91206C27.7969 4.7163 27.8433 4.52388 27.9273 4.34695C28.0112 4.17002 28.131 4.01243 28.279 3.88412C28.4269 3.75581 28.5999 3.65957 28.7869 3.60148C28.9739 3.54339 29.171 3.52472 29.3656 3.54663C29.5602 3.56855 29.7482 3.63057 29.9176 3.7288C30.0871 3.82703 30.2343 3.95932 30.35 4.11732L34.65 9.11732C34.6894 9.16903 34.7229 9.22492 34.75 9.28398C34.8043 9.36168 34.8491 9.44561 34.8833 9.53398C34.8909 9.61715 34.8909 9.70082 34.8833 9.78398C34.9278 9.95898 34.9278 10.1423 34.8833 10.3173C34.8909 10.4005 34.8909 10.4842 34.8833 10.5673C34.8491 10.6557 34.8043 10.7396 34.75 10.8173C34.7229 10.8764 34.6894 10.9323 34.65 10.984L30.35 15.984C30.2343 16.142 30.0871 16.2743 29.9176 16.3725C29.7482 16.4707 29.5602 16.5328 29.3656 16.5547C29.171 16.5766 28.9739 16.5579 28.7869 16.4998C28.5999 16.4417 28.4269 16.3455 28.279 16.2172C28.131 16.0889 28.0112 15.9313 27.9273 15.7543C27.8433 15.5774 27.7969 15.385 27.7911 15.1892C27.7852 14.9935 27.82 14.7986 27.8933 14.617C27.9665 14.4354 28.0766 14.2709 28.2167 14.134L30.2667 11.6673H23.3333C22.8913 11.6673 22.4674 11.4917 22.1548 11.1792C21.8423 10.8666 21.6667 10.4427 21.6667 10.0007ZM18.3333 7.50065V12.5007C18.3333 13.6057 17.8943 14.6655 17.1129 15.4469C16.3315 16.2283 15.2717 16.6673 14.1667 16.6673H9.16667C8.0616 16.6673 7.00179 16.2283 6.22039 15.4469C5.43899 14.6655 5 13.6057 5 12.5007V7.50065C5 6.39558 5.43899 5.33577 6.22039 4.55437C7.00179 3.77297 8.0616 3.33398 9.16667 3.33398H14.1667C15.2717 3.33398 16.3315 3.77297 17.1129 4.55437C17.8943 5.33577 18.3333 6.39558 18.3333 7.50065ZM15 7.50065C15 7.27964 14.9122 7.06768 14.7559 6.9114C14.5996 6.75512 14.3877 6.66732 14.1667 6.66732H9.16667C8.94565 6.66732 8.73369 6.75512 8.57741 6.9114C8.42113 7.06768 8.33333 7.27964 8.33333 7.50065V12.5007C8.33333 12.7217 8.42113 12.9336 8.57741 13.0899C8.73369 13.2462 8.94565 13.334 9.16667 13.334H14.1667C14.3877 13.334 14.5996 13.2462 14.7559 13.0899C14.9122 12.9336 15 12.7217 15 12.5007V7.50065ZM16.6667 26.6673H9.73333L11.7833 24.3007C11.9234 24.1637 12.0335 23.9993 12.1067 23.8176C12.18 23.636 12.2148 23.4412 12.2089 23.2454C12.2031 23.0496 12.1567 22.8572 12.0727 22.6803C11.9888 22.5034 11.869 22.3458 11.721 22.2175C11.5731 22.0891 11.4001 21.9929 11.2131 21.9348C11.0261 21.8767 10.829 21.8581 10.6344 21.88C10.4398 21.9019 10.2518 21.9639 10.0824 22.0621C9.91295 22.1604 9.76572 22.2927 9.65 22.4507L5.35 27.4506C5.31064 27.5024 5.2771 27.5583 5.25 27.6173C5.1957 27.695 5.15094 27.7789 5.11667 27.8673C5.10912 27.9505 5.10912 28.0342 5.11667 28.1173C5.07222 28.2923 5.07222 28.4757 5.11667 28.6507C5.10912 28.7338 5.10912 28.8175 5.11667 28.9007C5.15094 28.989 5.1957 29.073 5.25 29.1507C5.2771 29.2097 5.31064 29.2656 5.35 29.3173L9.65 34.3173C9.76572 34.4753 9.91295 34.6076 10.0824 34.7058C10.2518 34.8041 10.4398 34.8661 10.6344 34.888C10.829 34.9099 11.0261 34.8912 11.2131 34.8332C11.4001 34.7751 11.5731 34.6788 11.721 34.5505C11.869 34.4222 11.9888 34.2646 12.0727 34.0877C12.1567 33.9108 12.2031 33.7183 12.2089 33.5226C12.2148 33.3268 12.18 33.132 12.1067 32.9503C12.0335 32.7687 11.9234 32.6042 11.7833 32.4673L9.73333 30.0007H16.6667C17.1087 30.0007 17.5326 29.8251 17.8452 29.5125C18.1577 29.1999 18.3333 28.776 18.3333 28.334C18.3333 27.892 18.1577 27.468 17.8452 27.1555C17.5326 26.8429 17.1087 26.6673 16.6667 26.6673ZM35 25.834V30.834C35 31.9391 34.561 32.9989 33.7796 33.7803C32.9982 34.5617 31.9384 35.0007 30.8333 35.0007H25.8333C24.7283 35.0007 23.6685 34.5617 22.8871 33.7803C22.1057 32.9989 21.6667 31.9391 21.6667 30.834V25.834C21.6667 24.7289 22.1057 23.6691 22.8871 22.8877C23.6685 22.1063 24.7283 21.6673 25.8333 21.6673H30.8333C31.9384 21.6673 32.9982 22.1063 33.7796 22.8877C34.561 23.6691 35 24.7289 35 25.834ZM31.6667 25.834C31.6667 25.613 31.5789 25.401 31.4226 25.2447C31.2663 25.0884 31.0543 25.0007 30.8333 25.0007H25.8333C25.6123 25.0007 25.4004 25.0884 25.2441 25.2447C25.0878 25.401 25 25.613 25 25.834V30.834C25 31.055 25.0878 31.267 25.2441 31.4232C25.4004 31.5795 25.6123 31.6673 25.8333 31.6673H30.8333C31.0543 31.6673 31.2663 31.5795 31.4226 31.4232C31.5789 31.267 31.6667 31.055 31.6667 30.834V25.834Z" fill="black"/>
</svg>
