<svg width="40" height="40" viewBox="0 0 40 40" fill="none" xmlns="http://www.w3.org/2000/svg">
<path d="M6.69998 9.94992C4.58331 12.7499 3.33331 16.2333 3.33331 19.9999C3.33331 29.1999 10.8 36.6666 20 36.6666C29.2 36.6666 36.6666 29.1999 36.6666 19.9999C36.6666 10.7999 29.2 3.33325 20 3.33325" stroke="#292D32" stroke-width="1.5" stroke-linecap="round" stroke-linejoin="round"/>
<path d="M8.33331 19.9999C8.33331 26.4499 13.55 31.6666 20 31.6666C26.45 31.6666 31.6666 26.4499 31.6666 19.9999C31.6666 13.5499 26.45 8.33325 20 8.33325" stroke="#292D32" stroke-width="1.5" stroke-linecap="round" stroke-linejoin="round"/>
<path d="M20 26.6666C23.6833 26.6666 26.6667 23.6833 26.6667 19.9999C26.6667 16.3166 23.6833 13.3333 20 13.3333" stroke="#292D32" stroke-width="1.5" stroke-linecap="round" stroke-linejoin="round"/>
</svg>
