<svg width="40" height="40" viewBox="0 0 40 40" fill="none" xmlns="http://www.w3.org/2000/svg">
<path d="M31.6667 26.6667V10.8333C31.6667 9 30.1667 7.5 28.3334 7.5H19.1667" stroke="#292D32" stroke-width="1.5" stroke-linecap="round" stroke-linejoin="round"/>
<path d="M23.3333 3.33325L18.3333 7.49992L23.3333 11.6666" stroke="#292D32" stroke-width="1.5" stroke-linecap="round" stroke-linejoin="round"/>
<path d="M31.6667 36.6667C34.4281 36.6667 36.6667 34.4282 36.6667 31.6667C36.6667 28.9053 34.4281 26.6667 31.6667 26.6667C28.9053 26.6667 26.6667 28.9053 26.6667 31.6667C26.6667 34.4282 28.9053 36.6667 31.6667 36.6667Z" stroke="#292D32" stroke-width="1.5" stroke-linecap="round" stroke-linejoin="round"/>
<path d="M8.33331 13.3333V29.1666C8.33331 30.9999 9.83331 32.4999 11.6666 32.4999H20.8333" stroke="#292D32" stroke-width="1.5" stroke-linecap="round" stroke-linejoin="round"/>
<path d="M16.6667 36.6666L21.6667 32.4999L16.6667 28.3333" stroke="#292D32" stroke-width="1.5" stroke-linecap="round" stroke-linejoin="round"/>
<path d="M8.33331 13.3333C11.0947 13.3333 13.3333 11.0947 13.3333 8.33325C13.3333 5.57183 11.0947 3.33325 8.33331 3.33325C5.57189 3.33325 3.33331 5.57183 3.33331 8.33325C3.33331 11.0947 5.57189 13.3333 8.33331 13.3333Z" stroke="#292D32" stroke-width="1.5" stroke-linecap="round" stroke-linejoin="round"/>
</svg>
