<svg width="40" height="40" viewBox="0 0 40 40" fill="none" xmlns="http://www.w3.org/2000/svg">
<path d="M15 21.6667C13.9 22.2167 12.9833 23.0334 12.3 24.0501C11.9167 24.6334 11.9167 25.3667 12.3 25.9501C12.9833 26.9667 13.9 27.7834 15 28.3334" stroke="#292D32" stroke-width="1.5" stroke-linecap="round" stroke-linejoin="round"/>
<path d="M25.35 21.6667C26.45 22.2167 27.3666 23.0334 28.05 24.0501C28.4333 24.6334 28.4333 25.3667 28.05 25.9501C27.3666 26.9667 26.45 27.7834 25.35 28.3334" stroke="#292D32" stroke-width="1.5" stroke-linecap="round" stroke-linejoin="round"/>
<path d="M15 36.6666H25C33.3333 36.6666 36.6666 33.3333 36.6666 24.9999V14.9999C36.6666 6.66659 33.3333 3.33325 25 3.33325H15C6.66665 3.33325 3.33331 6.66659 3.33331 14.9999V24.9999C3.33331 33.3333 6.66665 36.6666 15 36.6666Z" stroke="#292D32" stroke-width="1.5" stroke-linecap="round" stroke-linejoin="round"/>
<path d="M3.71667 13.3499L35.75 13.3333" stroke="#292D32" stroke-width="1.5" stroke-linecap="round" stroke-linejoin="round"/>
</svg>
