<svg width="54" height="56" viewBox="0 0 54 56" fill="none" xmlns="http://www.w3.org/2000/svg">
<path d="M38.7257 33.6679C38.6293 33.6582 38.5136 33.6582 38.4075 33.6679C36.1125 33.5907 34.29 31.7079 34.29 29.3907C34.29 27.0251 36.1993 25.1038 38.5714 25.1038C40.9339 25.1038 42.8529 27.0251 42.8529 29.3907C42.8432 31.7079 41.0207 33.5907 38.7257 33.6679Z" stroke="#292D32" stroke-width="1.5" stroke-linecap="round" stroke-linejoin="round"/>
<path d="M33.9043 37.2304C31.5707 38.7946 31.5707 41.3435 33.9043 42.898C36.5561 44.6746 40.905 44.6746 43.5568 42.898C45.8904 41.3339 45.8904 38.7849 43.5568 37.2304C40.9147 35.4635 36.5657 35.4635 33.9043 37.2304Z" stroke="#292D32" stroke-width="1.5" stroke-linecap="round" stroke-linejoin="round"/>
<path d="M21.2143 7.17378V12.9669C21.2143 14.4152 20.7321 15.6221 19.8836 16.4717C19.0446 17.3117 17.8393 17.7945 16.3928 17.7945V19.851C16.3928 20.6234 15.5346 21.0869 14.8982 20.6621L10.6071 17.7945H8.56285C8.63999 17.5048 8.67856 17.2055 8.67856 16.8965C8.67856 15.9117 8.30249 15.0041 7.68534 14.3186C6.99106 13.5269 5.95927 13.0345 4.82142 13.0345C3.74142 13.0345 2.75785 13.4786 2.05392 14.2028C1.96713 13.8166 1.92856 13.4014 1.92856 12.9669V7.17378C1.92856 4.27723 3.85713 2.34619 6.74999 2.34619H16.3928C19.2857 2.34619 21.2143 4.27723 21.2143 7.17378Z" stroke="#292D32" stroke-width="1.5" stroke-miterlimit="10" stroke-linecap="round" stroke-linejoin="round"/>
<path d="M8.67858 16.8965C8.67858 17.2055 8.64001 17.5048 8.56287 17.7944C8.47608 18.1806 8.32181 18.5572 8.11931 18.8855C7.45395 20.0055 6.22929 20.7586 4.82144 20.7586C3.82822 20.7586 2.93143 20.382 2.25643 19.7641C1.96715 19.513 1.71642 19.2137 1.52357 18.8855C1.16678 18.3061 0.964294 17.6206 0.964294 16.8965C0.964294 15.8537 1.37894 14.8979 2.05394 14.2027C2.75787 13.4786 3.74144 13.0344 4.82144 13.0344C5.95929 13.0344 6.99108 13.5269 7.68537 14.3186C8.30251 15.0041 8.67858 15.9117 8.67858 16.8965Z" stroke="#292D32" stroke-width="1.5" stroke-miterlimit="10" stroke-linecap="round" stroke-linejoin="round"/>
<path d="M6.2582 16.8772H3.38464" stroke="#292D32" stroke-width="1.5" stroke-miterlimit="10" stroke-linecap="round" stroke-linejoin="round"/>
<path d="M4.82141 15.4675V18.3544" stroke="#292D32" stroke-width="1.5" stroke-miterlimit="10" stroke-linecap="round" stroke-linejoin="round"/>
<path d="M8.19644 10.1379H14.9464" stroke="#292D32" stroke-width="1.5" stroke-miterlimit="10" stroke-linecap="round" stroke-linejoin="round"/>
<path d="M45.8903 13.9036V17.8332C45.8903 18.1808 45.8518 18.5091 45.765 18.8084C45.4082 20.2277 44.2318 21.116 42.6118 21.116H39.9889L37.0768 23.0567C36.6428 23.356 36.0643 23.0374 36.0643 22.516V21.116C35.0807 21.116 34.2611 20.7877 33.6921 20.2181C33.1136 19.6388 32.7857 18.8181 32.7857 17.8332V13.9036C32.7857 12.0691 33.9236 10.8043 35.6786 10.6402C35.8039 10.6305 35.9293 10.6208 36.0643 10.6208H42.6118C44.5789 10.6208 45.8903 11.934 45.8903 13.9036Z" stroke="#292D32" stroke-width="1.5" stroke-miterlimit="10" stroke-linecap="round" stroke-linejoin="round"/>
<path d="M22.4357 34.8715C22.275 34.8554 22.0822 34.8554 21.9054 34.8715C18.0804 34.7427 15.0429 31.6048 15.0429 27.7427C15.0429 23.8002 18.225 20.5979 22.1786 20.5979C26.1161 20.5979 29.3143 23.8002 29.3143 27.7427C29.2982 31.6048 26.2607 34.7427 22.4357 34.8715Z" stroke="#292D32" stroke-width="1.5" stroke-linecap="round" stroke-linejoin="round"/>
<path d="M14.4 40.8092C10.5107 43.4161 10.5107 47.6644 14.4 50.2552C18.8196 53.2161 26.0679 53.2161 30.4875 50.2552C34.3768 47.6483 34.3768 43.4 30.4875 40.8092C26.0839 37.8644 18.8357 37.8644 14.4 40.8092Z" stroke="#292D32" stroke-width="1.5" stroke-linecap="round" stroke-linejoin="round"/>
</svg>
