<svg width="850" height="161" viewBox="0 0 850 161" fill="none" xmlns="http://www.w3.org/2000/svg">
<g clip-path="url(#clip0_10_23)">
<path d="M806.529 161.498C537.686 161.498 268.988 161.498 0.289867 161.498C0.289831 107.832 0.289831 54.1653 0.289795 0.498674C283.623 0.498604 566.956 0.498604 850.289 0.498535C850.29 54.1649 850.29 107.831 850.29 161.498C835.751 161.498 821.213 161.498 806.529 161.498ZM174.347 34.8618C174.343 65.6113 174.338 96.3608 174.337 127.11C174.337 127.602 174.391 128.093 174.373 128.852C174.393 128.939 174.413 129.025 174.555 129.499C180.133 129.499 185.712 129.499 191.405 129.499C191.405 117.114 191.405 105.015 191.405 92.7125C193.538 92.7125 195.56 92.6001 197.573 92.7742C198.266 92.8341 199.078 93.3282 199.599 94.0987C207.245 105.417 214.839 116.839 222.489 128.15C223.042 128.966 223.925 129.505 224.658 129.516C231.755 129.616 238.854 129.578 245.952 129.571C246.352 129.57 246.752 129.489 247.428 129.414C236.129 112.974 225.054 96.8593 213.901 80.6309C223.922 65.0566 233.818 49.6764 243.989 33.8677C243.16 33.8677 242.699 33.8677 242.239 33.8677C235.576 33.8678 228.912 33.9031 222.249 33.831C221.214 33.8198 220.459 34.2738 219.697 35.5302C213.252 46.1626 206.77 56.7275 200.282 67.2822C199.886 67.926 199.356 68.718 198.874 68.7473C196.425 68.896 193.971 68.8159 191.37 68.8159C191.37 57.1048 191.37 45.6084 191.37 33.9597C185.728 33.9597 180.237 33.9597 174.567 33.929C174.518 34.0896 174.469 34.2503 174.347 34.8618ZM513.661 33.9256C513.627 34.0787 513.593 34.2317 513.507 34.8455C513.507 66.3685 513.507 97.8914 513.507 129.453C519.245 129.453 524.822 129.453 530.563 129.453C530.563 117.183 530.563 105.034 530.563 92.7146C532.938 92.7146 535.151 92.6829 537.363 92.748C537.703 92.758 538.098 93.0933 538.367 93.4832C539.915 95.7295 541.433 98.0381 542.962 100.324C549.153 109.58 555.326 118.87 561.561 128.036C562.178 128.942 563.174 129.498 563.998 129.511C571.046 129.625 578.096 129.579 585.145 129.571C585.538 129.57 585.932 129.481 586.538 129.408C575.275 112.999 564.208 96.8746 553.055 80.6263C563.074 65.0479 572.971 49.6567 583.125 33.8671C582.349 33.8671 581.892 33.8671 581.435 33.8671C574.773 33.8672 568.109 33.9121 561.447 33.8232C560.343 33.8085 559.55 34.3708 558.769 35.6551C552.351 46.2106 545.907 56.7193 539.461 67.2246C539.09 67.8286 538.643 68.7064 538.217 68.7302C535.68 68.8721 533.139 68.8004 530.462 68.8004C530.462 56.973 530.462 45.4782 530.462 33.9594C524.819 33.9594 519.319 33.9594 513.661 33.9256ZM255.692 77.0108C255.692 94.4975 255.692 111.984 255.692 129.576C256.438 129.576 256.967 129.576 257.496 129.576C274.977 129.576 292.458 129.612 309.939 129.532C312.187 129.522 314.466 129.209 316.677 128.527C321.45 127.054 324.897 122.656 326.212 114.275C327.287 107.425 327.263 100.507 326.227 93.6594C325.33 87.7332 323.086 83.9291 319.653 82.2471C318.782 81.8202 317.899 81.4636 316.864 81.0045C317.485 80.6243 317.93 80.3395 318.38 80.0786C321.733 78.1332 323.86 74.2219 324.387 68.1936C324.736 64.2018 325.005 60.0962 324.862 56.0887C324.537 46.9785 322.497 39.4804 316.213 36.4676C313.059 34.9556 309.703 34.0552 306.432 34.0055C289.967 33.7553 273.5 33.8758 257.033 33.8737C256.618 33.8737 256.203 33.9602 255.692 34.017C255.692 48.3015 255.692 62.4069 255.692 77.0108ZM441.466 115.392C441.466 97.1726 441.466 78.9535 441.466 60.7344C442.353 61.8186 442.931 63.0168 443.493 64.2368C453.286 85.4854 463.083 106.727 472.848 128.012C473.39 129.193 473.925 129.613 474.776 129.607C482.745 129.556 490.713 129.579 498.682 129.573C499.104 129.572 499.527 129.505 500.006 129.464C500.006 97.565 500.006 65.7989 500.006 33.9826C494.333 33.9826 488.75 33.9826 483.027 33.9826C483.027 57.0413 483.027 79.9859 483.027 103.607C482.422 102.396 482.049 101.7 481.708 100.958C471.702 79.1616 461.695 57.3659 451.705 35.5469C451.154 34.3427 450.582 33.8152 449.65 33.824C441.682 33.8992 433.713 33.865 425.744 33.8729C425.328 33.8733 424.911 33.958 424.492 34.0036C424.492 65.9363 424.492 97.6963 424.492 129.438C430.185 129.438 435.769 129.438 441.466 129.438C441.466 124.831 441.466 120.361 441.466 115.392ZM126.79 112.651C131.472 112.651 136.155 112.685 140.837 112.62C141.697 112.608 142.193 112.927 142.617 114.381C143.933 118.893 145.416 123.259 146.759 127.748C147.163 129.101 147.605 129.63 148.515 129.617C154.066 129.536 159.617 129.58 165.169 129.568C165.517 129.567 165.866 129.448 166.238 129.379C166.173 128.997 166.162 128.829 166.118 128.692C156.209 97.6365 146.292 66.5879 136.404 35.512C135.992 34.218 135.52 33.8337 134.704 33.8398C128.09 33.8893 121.477 33.9061 114.864 33.8248C113.908 33.813 113.434 34.3167 112.981 35.7649C104.021 64.3607 95.0239 92.9211 86.0387 121.493C85.2284 124.07 84.4487 126.675 83.561 129.573C89.8845 129.573 95.9554 129.602 102.026 129.502C102.39 129.496 102.878 128.586 103.088 127.897C104.426 123.497 105.723 119.059 106.986 114.594C107.382 113.194 107.84 112.578 108.833 112.597C114.721 112.706 120.611 112.651 126.79 112.651ZM360.113 112.65C370.398 112.65 380.683 112.678 390.968 112.605C391.934 112.598 392.409 113.124 392.835 114.559C394.186 119.12 395.606 123.623 397.054 128.095C397.262 128.738 397.772 129.508 398.146 129.513C404.172 129.602 410.198 129.576 416.358 129.576C416.174 128.879 416.06 128.355 415.905 127.87C406.094 97.0847 396.276 66.3065 386.48 35.5071C386.083 34.2588 385.63 33.8254 384.802 33.8333C378.187 33.8956 371.571 33.9064 364.956 33.8259C363.982 33.8141 363.54 34.4216 363.094 35.8438C354.344 63.763 345.556 91.647 336.782 119.544C335.765 122.776 334.783 126.041 333.698 129.576C339.986 129.576 346.015 129.609 352.043 129.503C352.453 129.495 353.01 128.581 353.237 127.848C354.451 123.916 355.687 119.985 356.703 115.897C357.348 113.304 358.213 112.09 360.113 112.65ZM751.442 43.5169C757.454 45.0448 758.864 52.1727 758.513 61.3302C761.004 61.3302 763.294 61.3302 765.705 61.3302C765.705 59.5701 765.721 57.9264 765.702 56.2838C765.587 46.2354 762.471 38.5915 757.034 34.8841C753.487 32.4662 749.769 31.7411 746.011 31.6825C736.981 31.5417 727.951 31.4773 718.922 31.5432C716.132 31.5635 713.309 31.7226 710.562 32.4795C703.354 34.4662 699.393 40.0983 697.687 52.0974C697.076 56.3962 696.764 60.9264 696.756 65.3535C696.731 78.2946 696.64 91.2691 697.13 104.168C697.504 114.036 699.91 122.651 705.735 126.467C708.379 128.199 711.308 129.398 714.121 129.479C725.806 129.817 737.496 129.686 749.183 129.596C751.09 129.581 753.032 129.184 754.896 128.482C760.079 126.532 763.82 121.575 765.16 112.396C765.741 108.414 766.215 104.31 766.343 100.226C766.54 93.9568 766.395 87.6566 766.395 81.3129C754.398 81.3129 742.416 81.3129 730.456 81.3129C730.456 84.8868 730.456 88.2463 730.456 91.7161C735.287 91.7161 740.017 91.7161 744.746 91.7161C749.464 91.7161 754.181 91.7161 758.951 91.7161C758.951 95.5362 759.05 99.0979 758.931 102.638C758.678 110.206 756.716 115.776 752.261 117.868C750.7 118.602 749.043 119.056 747.428 119.074C737.817 119.184 728.206 119.148 718.595 119.108C717.105 119.102 715.61 118.931 714.129 118.654C707.873 117.482 704.322 110.814 704.275 99.9705C704.22 87.2617 704.225 74.5512 704.269 61.8422C704.316 48.4734 708.98 42.6954 715.166 42.5591C727.173 42.2946 739.202 41.3512 751.442 43.5169ZM634.529 108.769C646.263 108.769 657.997 108.788 669.731 108.733C670.708 108.729 671.296 109.163 671.797 110.685C673.697 116.455 675.675 122.148 677.652 127.841C677.88 128.498 678.277 129.444 678.609 129.46C681.319 129.592 684.033 129.534 686.9 129.534C686.593 128.521 686.413 127.851 686.196 127.22C680.816 111.602 675.434 95.9873 670.047 80.3763C664.732 64.9702 659.392 49.5888 654.118 34.1406C653.475 32.2575 652.794 31.4697 651.503 31.5938C649.336 31.802 647.157 31.7348 644.986 31.6125C644.002 31.5571 643.422 32.0687 642.907 33.5661C632.18 64.7565 621.421 95.9149 610.672 127.083C610.422 127.807 610.211 128.571 609.909 129.553C612.587 129.553 615.001 129.476 617.413 129.593C618.318 129.636 618.801 129.061 619.233 127.768C621.179 121.947 623.197 116.198 625.133 110.369C625.553 109.106 626.035 108.707 626.852 108.737C629.314 108.826 631.777 108.769 634.529 108.769Z" fill="none"/>
<path d="M255.692 76.7616C255.692 62.4069 255.692 48.3015 255.692 34.0171C256.203 33.9602 256.618 33.8737 257.033 33.8737C273.5 33.8759 289.967 33.7554 306.432 34.0055C309.703 34.0552 313.059 34.9556 316.213 36.4676C322.497 39.4804 324.537 46.9785 324.862 56.0887C325.005 60.0962 324.736 64.2018 324.387 68.1936C323.86 74.2219 321.733 78.1332 318.38 80.0786C317.93 80.3396 317.485 80.6243 316.864 81.0045C317.899 81.4636 318.782 81.8202 319.653 82.2471C323.086 83.9291 325.33 87.7332 326.227 93.6594C327.263 100.507 327.287 107.425 326.212 114.275C324.897 122.656 321.45 127.054 316.677 128.527C314.466 129.209 312.187 129.522 309.939 129.532C292.458 129.612 274.977 129.576 257.496 129.576C256.967 129.576 256.438 129.576 255.692 129.576C255.692 111.984 255.692 94.4975 255.692 76.7616ZM272.78 103.817C272.78 104.623 272.78 105.43 272.78 106.376C273.248 106.433 273.574 106.507 273.9 106.507C283.751 106.513 293.602 106.521 303.453 106.495C304.318 106.493 305.191 106.352 306.045 106.114C308.189 105.517 309.329 103.306 309.398 99.7576C309.48 95.5881 308.476 93.0661 306.311 92.218C305.52 91.9081 304.693 91.7344 303.882 91.7317C294.031 91.6994 284.179 91.7106 274.328 91.7105C273.859 91.7105 273.389 91.7105 272.78 91.7105C272.78 95.7452 272.78 99.5445 272.78 103.817ZM272.814 57.2869C272.814 62.0678 272.814 66.8487 272.814 71.6737C273.196 71.7197 273.432 71.773 273.668 71.7731C283.506 71.7775 293.344 71.7829 303.182 71.7607C303.704 71.7596 304.233 71.5772 304.746 71.3813C307.095 70.4844 307.855 68.5769 307.817 63.7506C307.788 59.9784 306.817 57.6707 304.637 57.3289C301.816 56.8866 298.967 56.8549 296.13 56.8449C288.416 56.8176 280.702 56.8949 272.814 57.2869Z" fill="#ED1D25"/>
<path d="M441.466 115.641C441.466 120.361 441.466 124.831 441.466 129.438C435.77 129.438 430.185 129.438 424.492 129.438C424.492 97.6963 424.492 65.9363 424.492 34.0036C424.911 33.9579 425.328 33.8732 425.745 33.8728C433.713 33.865 441.682 33.8991 449.65 33.824C450.582 33.8152 451.154 34.3427 451.705 35.5468C461.695 57.3658 471.702 79.1616 481.708 100.958C482.049 101.7 482.423 102.396 483.027 103.607C483.027 79.9858 483.027 57.0412 483.027 33.9826C488.75 33.9826 494.333 33.9826 500.006 33.9826C500.006 65.7989 500.006 97.5649 500.006 129.463C499.527 129.505 499.104 129.572 498.682 129.573C490.713 129.579 482.745 129.556 474.776 129.607C473.925 129.613 473.39 129.192 472.848 128.012C463.083 106.727 453.286 85.4853 443.493 64.2368C442.931 63.0167 442.353 61.8185 441.466 60.7344C441.466 78.9535 441.466 97.1725 441.466 115.641Z" fill="#ED1D25"/>
<path d="M126.645 112.651C120.611 112.651 114.721 112.706 108.833 112.597C107.84 112.578 107.382 113.194 106.986 114.594C105.723 119.059 104.426 123.497 103.088 127.897C102.878 128.586 102.39 129.496 102.026 129.502C95.9554 129.602 89.8846 129.573 83.561 129.573C84.4487 126.675 85.2285 124.07 86.0388 121.493C95.024 92.9211 104.021 64.3607 112.981 35.7649C113.434 34.3167 113.908 33.813 114.864 33.8248C121.477 33.9061 128.09 33.8893 134.704 33.8398C135.52 33.8337 135.992 34.218 136.404 35.512C146.292 66.5879 156.209 97.6365 166.118 128.692C166.162 128.829 166.173 128.997 166.238 129.379C165.866 129.448 165.517 129.567 165.169 129.568C159.617 129.58 154.066 129.536 148.515 129.617C147.605 129.63 147.163 129.101 146.759 127.748C145.416 123.259 143.933 118.893 142.617 114.381C142.193 112.927 141.697 112.608 140.837 112.62C136.155 112.685 131.472 112.651 126.645 112.651ZM116.14 84.8334C115.444 87.1307 114.748 89.4281 114.004 91.8848C121.357 91.8848 128.42 91.8848 135.666 91.8848C131.99 79.9005 128.396 68.1846 124.707 56.1609C121.802 65.834 119.002 75.1566 116.14 84.8334Z" fill="#ED1D25"/>
<path d="M359.974 112.65C358.213 112.09 357.348 113.304 356.703 115.897C355.687 119.985 354.451 123.916 353.237 127.848C353.011 128.581 352.453 129.495 352.043 129.503C346.015 129.609 339.986 129.576 333.698 129.576C334.783 126.041 335.765 122.776 336.782 119.544C345.556 91.647 354.344 63.7631 363.094 35.8438C363.54 34.4217 363.982 33.8141 364.956 33.826C371.571 33.9064 378.187 33.8956 384.802 33.8333C385.63 33.8255 386.083 34.2588 386.48 35.5071C396.276 66.3065 406.094 97.0848 415.905 127.87C416.06 128.355 416.174 128.879 416.358 129.576C410.198 129.576 404.172 129.602 398.147 129.513C397.773 129.508 397.262 128.738 397.054 128.095C395.606 123.623 394.186 119.12 392.835 114.559C392.41 113.124 391.934 112.598 390.968 112.605C380.683 112.678 370.398 112.65 359.974 112.65ZM376.852 62.8674C376.195 60.7447 375.538 58.622 374.779 56.1676C371.18 68.2392 367.689 79.9464 364.135 91.8652C371.475 91.8652 378.566 91.8652 385.792 91.8652C382.8 82.1376 379.884 72.6581 376.852 62.8674Z" fill="#ED1D25"/>
<path d="M513.819 33.9593C519.319 33.9593 524.819 33.9593 530.462 33.9593C530.462 45.4781 530.462 56.973 530.462 68.8004C533.139 68.8004 535.68 68.8721 538.217 68.7302C538.643 68.7064 539.09 67.8286 539.461 67.2246C545.907 56.7193 552.351 46.2106 558.769 35.655C559.55 34.3708 560.343 33.8084 561.447 33.8232C568.109 33.912 574.773 33.8672 581.435 33.8671C581.892 33.8671 582.349 33.8671 583.125 33.8671C572.971 49.6567 563.074 65.0479 553.055 80.6263C564.208 96.8746 575.275 112.999 586.538 129.408C585.932 129.481 585.538 129.57 585.145 129.571C578.096 129.579 571.046 129.625 563.998 129.511C563.174 129.498 562.178 128.942 561.562 128.036C555.326 118.87 549.153 109.58 542.962 100.324C541.433 98.0381 539.915 95.7294 538.367 93.4832C538.098 93.0933 537.703 92.758 537.363 92.748C535.151 92.6829 532.938 92.7146 530.563 92.7146C530.563 105.034 530.563 117.183 530.563 129.453C524.822 129.453 519.245 129.453 513.507 129.453C513.507 97.8914 513.507 66.3685 513.59 34.5709C513.743 34.2118 513.792 34.0995 513.819 33.9593Z" fill="#ED1D25"/>
<path d="M174.421 128.584C174.392 128.093 174.337 127.602 174.337 127.11C174.338 96.3607 174.343 65.6113 174.451 34.5901C174.643 34.2382 174.707 34.1186 174.746 33.9596C180.237 33.9596 185.728 33.9596 191.37 33.9596C191.37 45.6084 191.37 57.1048 191.37 68.8158C193.971 68.8158 196.425 68.896 198.874 68.7473C199.356 68.718 199.886 67.926 200.282 67.2821C206.77 56.7275 213.253 46.1626 219.698 35.5302C220.459 34.2738 221.214 33.8198 222.249 33.831C228.912 33.903 235.576 33.8677 242.239 33.8677C242.7 33.8677 243.16 33.8677 243.989 33.8677C233.818 49.6763 223.922 65.0565 213.901 80.6309C225.054 96.8592 236.129 112.974 247.428 129.414C246.752 129.489 246.352 129.57 245.952 129.571C238.854 129.578 231.755 129.616 224.658 129.516C223.925 129.505 223.042 128.966 222.49 128.15C214.84 116.839 207.245 105.417 199.599 94.0986C199.078 93.3282 198.266 92.8341 197.573 92.7741C195.56 92.6 193.538 92.7124 191.405 92.7124C191.405 105.015 191.405 117.114 191.405 129.499C185.712 129.499 180.133 129.499 174.546 129.255C174.499 128.869 174.46 128.727 174.421 128.584Z" fill="#ED1D25"/>
<path d="M751.319 43.4734C739.203 41.3512 727.173 42.2946 715.167 42.5591C708.98 42.6954 704.316 48.4733 704.269 61.8421C704.225 74.5512 704.22 87.2616 704.275 99.9705C704.322 110.814 707.873 117.482 714.129 118.654C715.61 118.931 717.106 119.102 718.595 119.108C728.206 119.148 737.817 119.184 747.428 119.074C749.043 119.056 750.7 118.602 752.261 117.868C756.716 115.776 758.678 110.206 758.931 102.638C759.05 99.0978 758.951 95.5361 758.951 91.716C754.181 91.716 749.464 91.716 744.747 91.716C740.017 91.716 735.287 91.716 730.456 91.716C730.456 88.2463 730.456 84.8867 730.456 81.3129C742.417 81.3129 754.398 81.3129 766.395 81.3129C766.395 87.6565 766.54 93.9568 766.343 100.225C766.216 104.31 765.741 108.414 765.16 112.396C763.82 121.575 760.079 126.532 754.896 128.482C753.032 129.184 751.091 129.581 749.183 129.596C737.496 129.686 725.806 129.817 714.122 129.479C711.309 129.398 708.379 128.199 705.735 126.467C699.91 122.651 697.504 114.036 697.13 104.168C696.641 91.2691 696.731 78.2946 696.756 65.3535C696.764 60.9264 697.076 56.3962 697.687 52.0974C699.393 40.0982 703.354 34.4662 710.563 32.4794C713.309 31.7225 716.132 31.5635 718.922 31.5432C727.951 31.4773 736.982 31.5417 746.011 31.6824C749.77 31.7411 753.488 32.4662 757.034 34.8841C762.471 38.5915 765.587 46.2354 765.702 56.2838C765.721 57.9263 765.705 59.57 765.705 61.3302C763.294 61.3302 761.004 61.3302 758.514 61.3302C758.864 52.1727 757.455 45.0448 751.319 43.4734Z" fill="#ED1E26"/>
<path d="M634.385 108.769C631.777 108.769 629.314 108.826 626.852 108.737C626.035 108.707 625.553 109.106 625.134 110.369C623.197 116.198 621.179 121.947 619.233 127.768C618.801 129.061 618.318 129.636 617.413 129.593C615.001 129.476 612.587 129.553 609.909 129.553C610.211 128.571 610.422 127.807 610.672 127.083C621.421 95.9149 632.18 64.7565 642.907 33.5661C643.422 32.0687 644.002 31.5571 644.986 31.6125C647.157 31.7348 649.336 31.802 651.503 31.5938C652.794 31.4697 653.476 32.2575 654.118 34.1406C659.392 49.5888 664.732 64.9702 670.047 80.3763C675.434 95.9873 680.816 111.602 686.196 127.22C686.413 127.851 686.593 128.521 686.9 129.534C684.033 129.534 681.319 129.592 678.609 129.46C678.277 129.444 677.88 128.498 677.652 127.841C675.675 122.148 673.697 116.455 671.797 110.685C671.296 109.163 670.708 108.729 669.731 108.733C657.997 108.788 646.263 108.769 634.385 108.769ZM662.155 82.6023C657.605 69.3552 653.055 56.108 648.404 42.5659C642.051 61.0688 635.816 79.2298 629.469 97.7169C642.195 97.7169 654.647 97.7169 667.331 97.7169C665.573 92.577 663.92 87.7451 662.155 82.6023Z" fill="#ED1F27"/>
<path d="M513.74 33.9425C513.792 34.0995 513.743 34.2119 513.616 34.3406C513.593 34.2317 513.627 34.0787 513.74 33.9425Z" fill="#EC0D16"/>
<path d="M174.656 33.9443C174.707 34.1187 174.643 34.2383 174.488 34.3647C174.469 34.2503 174.518 34.0896 174.656 33.9443Z" fill="#EC0E17"/>
<path d="M174.397 128.718C174.46 128.727 174.499 128.869 174.486 129.062C174.414 129.025 174.393 128.939 174.397 128.718Z" fill="#EC0E17"/>
<path d="M272.78 103.58C272.78 99.5444 272.78 95.7451 272.78 91.7104C273.389 91.7104 273.858 91.7104 274.328 91.7104C284.179 91.7105 294.03 91.6993 303.882 91.7317C304.692 91.7343 305.52 91.9081 306.311 92.2179C308.476 93.066 309.48 95.5881 309.398 99.7576C309.329 103.306 308.189 105.517 306.045 106.114C305.191 106.351 304.318 106.493 303.453 106.495C293.602 106.521 283.751 106.513 273.9 106.507C273.574 106.507 273.248 106.433 272.78 106.376C272.78 105.43 272.78 104.623 272.78 103.58Z" fill="#none"/>
<path d="M272.901 57.1088C280.702 56.8949 288.416 56.8176 296.13 56.8449C298.967 56.8549 301.816 56.8866 304.637 57.3289C306.817 57.6706 307.788 59.9784 307.817 63.7506C307.855 68.5769 307.095 70.4844 304.746 71.3812C304.233 71.5771 303.704 71.7595 303.182 71.7607C293.344 71.7829 283.506 71.7774 273.668 71.7731C273.432 71.773 273.196 71.7197 272.814 71.6736C272.814 66.8486 272.814 62.0677 272.901 57.1088Z" fill="#none"/>
<path d="M116.171 84.6562C119.002 75.1565 121.802 65.834 124.707 56.1609C128.396 68.1846 131.99 79.9005 135.666 91.8848C128.42 91.8848 121.357 91.8848 114.003 91.8848C114.748 89.428 115.444 87.1307 116.171 84.6562Z" fill="#none"/>
<path d="M376.91 63.0229C379.884 72.658 382.8 82.1375 385.792 91.8652C378.566 91.8652 371.475 91.8652 364.135 91.8652C367.689 79.9464 371.179 68.2392 374.779 56.1676C375.538 58.6219 376.195 60.7446 376.91 63.0229Z" fill="#none"/>
<path d="M662.211 82.7578C663.92 87.7451 665.573 92.577 667.331 97.7169C654.646 97.7169 642.195 97.7169 629.469 97.7169C635.816 79.2298 642.051 61.0688 648.404 42.5659C653.055 56.108 657.605 69.3552 662.211 82.7578Z" fill="#none"/>
</g>
<defs>
<clipPath id="clip0_10_23">
<rect width="850" height="161" fill="white"/>
</clipPath>
</defs>
</svg>
