<svg width="850" height="280" viewBox="0 0 850 280" fill="none" xmlns="http://www.w3.org/2000/svg">
<g clip-path="url(#clip0_10_41)">
<path d="M851 140.659C851 187.424 851 234.188 851 281C603.066 281 355.133 281 106.634 280.787C106.419 280.285 106.727 279.816 107.122 279.733C121.414 276.743 134.507 270.875 147.051 263.898C168.385 252.032 187.237 237.008 204.981 220.668C209.381 216.616 213.496 212.263 217.569 207.898C224.43 200.546 231.608 193.409 237.835 185.581C250.144 170.105 261.379 153.936 269.76 136.054C276.981 120.646 282.454 104.931 281.509 87.7184C281.124 80.705 279.636 73.9903 275.202 68.2655C272.495 64.7718 269.352 61.5881 266.357 58.3054C257.727 48.8469 249.063 39.4169 240.432 29.9595C235.738 24.8166 231.119 19.6107 226.398 14.4915C223.826 11.7031 221.111 9.03662 218.461 6.31514C221.614 11.6105 222.766 17.5153 222.354 23.0373C221.765 30.9291 219.987 38.861 217.684 46.4873C212.635 63.2077 203.12 77.907 193.693 92.5788C177.803 117.309 157.864 138.884 136.779 159.527C131.865 164.337 126.578 168.825 121.199 173.159C112.739 179.976 104.291 186.841 95.4155 193.136C80.0433 204.037 64.1026 214.215 46.217 220.929C38.112 223.971 29.5298 226.093 20.9739 227.688C14.1723 228.956 7.36389 227.249 1 224.455C1 150.026 1 75.597 1 1C57.9197 1 114.84 1 172.21 1.25485C169.287 2.57859 165.87 3.53441 162.548 4.73542C145.784 10.796 130.059 18.7921 115.843 29.259C102.707 38.9301 89.4501 48.5465 77.1957 59.1973C66.2264 68.7311 56.5498 79.6411 46.306 89.9467C44.6833 91.5792 44.9686 92.908 46.7158 94.4144C54.7434 101.336 62.7358 108.297 70.6349 115.354C79.0695 122.889 87.4094 130.524 95.734 138.172C97.5356 139.827 98.843 139.984 100.5 137.943C103.015 134.845 105.617 131.78 108.475 128.976C120.651 117.033 133.016 105.298 146.654 94.8391C159.657 84.8676 173.235 75.6632 188.692 69.8119C195.522 67.2264 198.875 63.2692 200.763 57.1598C200.961 56.5189 201.251 55.9032 201.518 55.2833C206.038 44.7604 209.598 33.9795 209.188 22.4477C208.858 13.1597 205.225 5.66437 195.316 2.29723C194.896 2.15447 194.684 1.4453 194.375 1C413.25 1 632.125 1 851 1C851 24.9132 851 48.7476 850.668 72.8983C845.198 73.2146 840.06 73.2146 834.544 73.2146C834.544 88.3695 834.544 103.009 834.544 118.51C825.151 105.867 815.81 94.288 807.697 81.9618C803.548 75.657 799.135 72.8129 791.479 73.7878C786.898 74.3713 782.17 73.8949 777.985 73.8949C777.985 96.2493 777.985 118.034 777.985 139.743C784.49 139.743 790.333 139.743 796.553 139.743C796.553 124.408 796.553 109.303 796.553 93.7243C797.379 94.3595 797.808 94.5671 798.057 94.8992C808.876 109.308 819.688 123.721 830.473 138.153C831.807 139.939 833.376 140.795 835.786 140.712C840.851 140.536 845.928 140.659 851 140.659ZM366.141 163.831C351.919 163.831 337.697 163.831 323.546 163.831C323.546 186.386 323.546 208.355 323.546 230.314C324.13 230.429 324.468 230.557 324.804 230.553C343.535 230.342 362.274 230.379 380.989 229.749C387.013 229.547 392.996 227.384 396.899 222.409C402.214 215.634 401.529 202.499 390.088 196.73C390.961 196.109 391.73 195.413 392.63 194.947C399.603 191.337 402.651 180.54 397.908 173.152C394.881 168.437 390.135 166.223 384.978 165.324C379.035 164.288 372.899 164.284 366.141 163.831ZM375.971 73.8952C358.461 73.8952 340.951 73.8952 323.54 73.8952C323.54 96.2382 323.54 117.972 323.54 139.978C325.652 139.978 327.519 139.978 329.386 139.978C342.6 139.978 355.82 139.73 369.023 140.081C375.809 140.262 382.407 140.094 388.845 137.92C396.1 135.469 401.143 128.72 400.362 121.705C399.639 115.216 396.917 109.684 389.794 106.905C391.224 105.995 392.407 105.31 393.515 104.528C400.66 99.4798 403.355 88.1126 396.086 80.8947C390.761 75.6072 383.857 74.3609 375.971 73.8952ZM648.71 127.715C642.143 127.487 635.548 127.536 629.018 126.937C624.27 126.501 620.306 124.32 617.853 119.977C614.72 114.431 614.728 108.438 615.222 102.522C616.103 91.9707 623.896 85.8382 633.958 86.0892C645.753 86.3834 657.562 86.1633 669.365 86.1515C670.602 86.1503 671.839 86.0495 672.947 86.0006C672.947 81.5173 672.947 77.4838 672.947 73.8803C655.631 73.8803 638.537 73.1758 621.539 74.1058C608.21 74.8351 599.043 82.6521 595.45 95.0486C593.795 100.761 593.623 107.126 594.12 113.091C594.636 119.29 596.967 125.163 601.558 130.106C608.772 137.873 618.218 139.983 628.284 140.583C632.227 140.818 636.223 140.047 640.198 140.01C650.111 139.915 660.026 139.978 669.941 139.978C671.186 139.978 672.431 139.978 673.707 139.978C673.707 126.354 673.707 113.24 673.707 100.053C659.305 100.053 645.114 100.053 630.938 100.053C630.938 104.359 630.938 108.39 630.938 112.862C638.748 112.862 646.336 112.862 653.835 112.862C653.835 118.024 653.835 122.738 653.835 127.715C652.192 127.715 650.797 127.715 648.71 127.715ZM573.333 194.82C573.333 184.319 573.333 173.819 573.333 163.374C567.133 163.374 561.523 163.374 555.613 163.374C555.613 178.404 555.613 193.204 555.613 208.617C554.413 207.314 553.573 206.561 552.925 205.677C543.147 192.325 533.411 178.944 523.591 165.621C522.991 164.807 521.78 163.927 520.836 163.909C513.436 163.768 506.032 163.831 498.831 163.831C498.831 185.997 498.831 207.796 498.831 229.616C505.111 229.616 510.805 229.616 516.91 229.616C516.91 214.026 516.91 198.722 516.91 182.674C528.894 198.464 540.351 213.575 551.842 228.66C552.408 229.404 553.263 230.463 554.006 230.48C560.337 230.626 566.673 230.564 573.333 230.564C573.333 218.609 573.333 207.055 573.333 194.82ZM546.062 73.8953C533.256 73.8953 520.45 73.8953 507.694 73.8953C507.694 96.4272 507.694 118.397 507.694 140.363C513.864 140.363 519.794 140.363 526.049 140.363C526.049 131.719 526.049 123.368 526.049 114.779C532.738 114.779 539.094 114.735 545.448 114.839C546.163 114.85 547.07 115.546 547.54 116.168C551.914 121.953 556.695 127.525 560.391 133.694C563.737 139.278 567.806 141.666 574.48 140.758C578.445 140.219 582.554 140.66 587.242 140.66C579.881 131.101 573.055 122.237 566.16 113.282C566.823 112.874 567.259 112.469 567.777 112.306C576.46 109.584 581.255 104.051 581.927 95.1096C582.712 84.6546 577.974 76.9023 566.081 74.746C559.811 73.6093 553.218 74.1255 546.062 73.8953ZM647.355 212.192C641.688 206.641 636.021 201.091 631.285 196.452C642.178 185.039 652.634 174.085 663.08 163.141C657.409 163.141 651.421 163.31 645.45 163.073C642.189 162.944 639.875 164.18 637.732 166.249C629.319 174.371 620.885 182.472 612.449 190.57C611.661 191.327 610.798 192.01 609.395 193.226C609.395 182.828 609.395 173.143 609.395 163.422C602.613 163.422 596.212 163.422 590.17 163.422C590.17 185.876 590.17 208.043 590.17 230.318C596.881 230.318 603.042 230.318 609.622 230.318C609.622 219.947 609.622 209.838 609.622 201.395C615.972 206.989 623.05 213.123 630.001 219.388C633.749 222.766 636.69 227.745 641.075 229.48C645.52 231.239 651.295 229.894 656.488 229.904C659.073 229.91 661.658 229.905 664.936 229.905C658.75 223.666 653.229 218.099 647.355 212.192ZM481.611 229.906C485.311 229.906 489.011 229.906 493.367 229.906C491.64 226.867 490.229 224.444 488.876 221.992C478.45 203.103 468.062 184.194 457.543 165.353C456.974 164.333 455.36 163.291 454.188 163.241C448.891 163.015 443.574 163.034 438.276 163.235C437.229 163.274 435.789 164.277 435.277 165.214C427.949 178.607 420.757 192.07 413.513 205.505C411.906 208.485 410.159 211.396 408.583 214.39C405.818 219.638 403.135 224.926 400.224 230.575C406.874 230.575 412.885 230.657 418.889 230.491C419.845 230.465 421.168 229.523 421.636 228.66C423.681 224.89 425.569 221.032 427.314 217.124C428.075 215.419 429.057 214.845 430.987 214.871C439.24 214.98 447.545 215.45 455.736 214.753C462.625 214.167 466.761 216.083 468.573 222.576C470.266 228.647 474.313 231.329 481.611 229.906ZM731.547 73.2139C727.419 73.2141 723.282 73.066 719.17 73.3079C717.987 73.3775 716.376 74.3085 715.815 75.294C712.231 81.582 708.858 87.9823 705.466 94.3704C698.465 107.556 691.506 120.761 684.503 133.945C683.372 136.075 682.104 138.137 680.655 140.654C687.458 140.654 693.582 140.723 699.701 140.579C700.605 140.558 701.881 139.731 702.305 138.94C704.281 135.262 706.266 131.552 707.741 127.675C708.536 125.584 709.488 124.929 711.702 124.949C721.843 125.045 731.989 125.116 742.126 124.908C744.814 124.852 745.808 126.011 746.714 127.999C748.254 131.38 749.895 134.72 751.594 138.03C751.97 138.764 752.752 139.833 753.367 139.846C759.875 139.978 766.387 139.928 773.502 139.928C769.519 132.782 765.861 126.311 762.292 119.796C754.526 105.622 746.697 91.4783 739.151 77.1972C737.544 74.1574 735.796 72.522 731.547 73.2139ZM467.975 126.286C466.18 126.994 464.418 128.198 462.582 128.314C457.972 128.604 453.293 128.752 448.707 128.317C441.478 127.632 434.931 123.407 435.139 114.201C435.418 101.835 435.208 89.4586 435.208 77.0866C435.208 75.8846 435.208 74.6825 435.208 73.3997C428.869 73.3997 423.025 73.3997 416.964 73.3997C416.901 74.6767 416.799 75.7812 416.799 76.8858C416.788 91.0739 416.769 105.262 416.801 119.45C416.818 126.941 420.694 132.516 427.318 135.766C443.462 143.687 460.311 143.019 476.901 137.479C486.146 134.392 492.224 127.091 491.947 115.876C491.634 103.171 491.875 90.453 491.875 77.7405C491.875 76.5412 491.875 75.3418 491.875 74.0907C485.279 74.0907 479.199 74.0907 472.75 74.0907C472.75 75.5 472.75 76.7179 472.75 77.9358C472.75 90.3078 472.73 102.68 472.761 115.052C472.771 119.262 471.444 122.94 467.975 126.286ZM270.224 248.647C271.615 244.117 273.648 239.661 274.223 235.038C274.841 230.07 273.747 225.055 269.878 221.101C264.187 215.283 257.074 214.979 249.701 216.605C236.513 219.512 226.901 227.37 219.283 237.756C213.576 245.537 210.624 254.093 211.336 263.743C211.695 268.61 216.075 274.551 220.768 276.238C229.111 279.237 237.037 277.463 244.493 273.863C255.8 268.403 264.103 259.816 270.224 248.647Z" fill="none"/>
<path d="M0.708253 224.307C7.07215 226.93 13.8806 228.637 20.6821 227.369C29.2381 225.774 37.8203 223.653 45.9252 220.61C63.8108 213.896 79.7516 203.718 95.1237 192.817C103.999 186.523 112.448 179.657 120.907 172.84C126.286 168.507 131.573 164.019 136.487 159.208C157.572 138.565 177.512 116.99 193.401 92.26C202.828 77.5882 212.344 62.8889 217.392 46.1685C219.695 38.5422 221.473 30.6103 222.062 22.7185C222.474 17.1965 221.323 11.2917 218.169 5.99634C220.82 8.71783 223.534 11.3843 226.106 14.1727C230.827 19.2919 235.447 24.4978 240.14 29.6407C248.771 39.0981 257.435 48.5281 266.065 57.9866C269.06 61.2693 272.204 64.453 274.91 67.9467C279.345 73.6715 280.832 80.3862 281.217 87.3996C282.162 104.612 276.689 120.327 269.468 135.735C261.087 153.617 249.853 169.786 237.543 185.262C231.316 193.091 224.138 200.227 217.277 207.579C213.205 211.944 209.089 216.297 204.689 220.349C186.945 236.689 168.093 251.713 146.759 263.579C134.216 270.556 121.123 276.424 106.83 279.414C106.435 279.497 106.127 279.966 106.014 280.468C96.5546 280.681 86.8592 280.681 77.0606 280.479C74.8865 279.371 72.6025 278.754 70.7825 277.509C63.527 272.545 56.2637 267.571 49.2819 262.262C33.005 249.885 16.8893 237.311 0.708252 224.817C0.708252 224.817 0.708253 224.477 0.708253 224.307Z" fill="#1093CF"/>
<path d="M193.751 0.681274C194.392 1.12657 194.604 1.83574 195.024 1.9785C204.933 5.34565 208.566 12.841 208.896 22.129C209.306 33.6608 205.746 44.4417 201.226 54.9646C200.96 55.5845 200.669 56.2002 200.471 56.8411C198.584 62.9505 195.23 66.9077 188.4 69.4932C172.944 75.3444 159.365 84.5489 146.363 94.5204C132.725 104.979 120.359 116.714 108.183 128.658C105.325 131.461 102.723 134.526 100.208 137.625C98.5513 139.666 97.2439 139.508 95.4423 137.853C87.1178 130.205 78.7779 122.571 70.3432 115.035C62.4442 107.979 54.4517 101.017 46.4241 94.0957C44.6769 92.5892 44.3917 91.2605 46.0143 89.628C56.2582 79.3224 65.9347 68.4124 76.9041 58.8785C89.1585 48.2278 102.416 38.6113 115.551 28.9403C129.768 18.4733 145.492 10.4773 162.256 4.4167C165.578 3.21569 168.996 2.25986 172.247 0.936124C179.223 0.681277 186.321 0.681277 193.751 0.681274Z" fill="#086AAC"/>
<path d="M850.708 140.021C845.636 140.34 840.56 140.218 835.494 140.393C833.085 140.477 831.515 139.62 830.181 137.835C819.396 123.402 808.584 108.989 797.765 94.5805C797.516 94.2483 797.087 94.0408 796.262 93.4056C796.262 108.985 796.262 124.089 796.262 139.425C790.041 139.425 784.198 139.425 777.693 139.425C777.693 117.715 777.693 95.9305 777.693 73.5762C781.878 73.5762 786.606 74.0526 791.188 73.4691C798.843 72.4942 803.256 75.3383 807.406 81.6431C815.519 93.9693 824.859 105.548 834.253 118.192C834.253 102.69 834.253 88.0507 834.253 72.8959C839.768 72.8959 844.906 72.8959 850.376 72.8956C850.708 95.1643 850.708 117.433 850.708 140.021Z" fill="#086AAC"/>
<path d="M0.708252 225.137C16.8893 237.311 33.005 249.885 49.2819 262.262C56.2637 267.571 63.527 272.545 70.7825 277.509C72.6025 278.754 74.8865 279.371 76.7286 280.479C51.2946 280.681 26.0894 280.681 0.708253 280.681C0.708253 262.273 0.708253 243.865 0.708252 225.137Z" fill="none"/>
<path d="M366.202 163.513C372.607 163.965 378.744 163.969 384.686 165.005C389.844 165.904 394.589 168.118 397.617 172.834C402.359 180.221 399.312 191.018 392.338 194.628C391.439 195.094 390.669 195.791 389.796 196.411C401.237 202.18 401.922 215.315 396.608 222.09C392.705 227.065 386.721 229.228 380.698 229.431C361.982 230.06 343.243 230.023 324.513 230.234C324.176 230.238 323.838 230.11 323.255 229.995C323.255 208.036 323.255 186.067 323.255 163.513C337.406 163.513 351.627 163.513 366.202 163.513ZM378.658 212.482C378.845 211.326 379.337 210.127 379.166 209.022C378.56 205.11 375.736 203.082 370.863 203.036C363.55 202.968 356.236 203.018 348.923 203.017C346.733 203.017 344.542 203.017 342.337 203.017C342.337 207.791 342.337 212.048 342.337 216.642C344.284 216.642 346.024 216.64 347.764 216.643C354.959 216.654 362.176 216.345 369.34 216.804C373.391 217.063 376.345 216.364 378.658 212.482ZM377.537 178.85C375.401 176.743 372.905 175.673 369.744 175.728C362.797 175.851 355.847 175.767 348.897 175.767C346.712 175.767 344.527 175.767 342.334 175.767C342.334 180.548 342.334 184.801 342.334 189.401C344.977 189.401 347.424 189.346 349.867 189.411C356.888 189.597 363.909 189.982 370.93 189.973C373.812 189.969 376.745 189.103 378.224 186.303C379.461 183.961 379.973 181.49 377.537 178.85Z" fill="#086AAC"/>
<path d="M376.019 73.5765C383.565 74.0422 390.469 75.2884 395.794 80.576C403.064 87.7939 400.369 99.1611 393.223 104.209C392.115 104.992 390.932 105.677 389.502 106.586C396.625 109.365 399.347 114.897 400.07 121.386C400.852 128.401 395.808 135.151 388.553 137.601C382.115 139.775 375.518 139.943 368.732 139.763C355.528 139.412 342.308 139.66 329.095 139.659C327.227 139.659 325.36 139.659 323.249 139.659C323.249 117.653 323.249 95.9194 323.249 73.5764C340.659 73.5764 358.169 73.5764 376.019 73.5765ZM354.522 126.715C359.585 126.741 364.68 126.442 369.704 126.886C374.582 127.318 378.653 124.896 379.522 120.204C380.115 117.003 376.772 113.766 372.164 113.132C371.355 113.021 370.518 113.092 369.694 113.092C361.802 113.089 353.91 113.09 346.018 113.09C344.783 113.09 343.548 113.09 342.355 113.09C342.355 117.908 342.355 122.161 342.355 126.715C346.324 126.715 350.069 126.715 354.522 126.715ZM369.241 85.8399C360.55 85.8399 351.86 85.8399 343.111 85.8399C343.111 90.5962 343.111 94.9336 343.111 99.4598C353.296 99.4598 363.197 99.5894 373.091 99.3847C376.262 99.3191 378.46 97.3376 378.949 94.1368C379.711 89.1492 376.192 85.9594 369.241 85.8399Z" fill="#086AAC"/>
<path d="M648.764 127.397C650.505 127.397 651.901 127.397 653.543 127.397C653.543 122.419 653.543 117.705 653.543 112.543C646.044 112.543 638.456 112.543 630.646 112.543C630.646 108.071 630.646 104.04 630.646 99.7347C644.822 99.7347 659.013 99.7347 673.415 99.7347C673.415 112.921 673.415 126.035 673.415 139.66C672.139 139.66 670.894 139.66 669.649 139.66C659.735 139.66 649.819 139.597 639.906 139.691C635.931 139.729 631.936 140.499 627.993 140.264C617.927 139.665 608.48 137.554 601.267 129.787C596.675 124.844 594.344 118.971 593.828 112.773C593.331 106.807 593.503 100.443 595.159 94.7298C598.751 82.3334 607.918 74.5164 621.247 73.787C638.245 72.857 655.339 73.5616 672.655 73.5616C672.655 77.165 672.655 81.1986 672.655 85.6819C671.548 85.7308 670.31 85.8316 669.073 85.8328C657.27 85.8446 645.461 86.0646 633.666 85.7704C623.604 85.5194 615.811 91.652 614.93 102.204C614.436 108.119 614.428 114.113 617.561 119.658C620.014 124.001 623.978 126.183 628.726 126.618C635.257 127.218 641.851 127.168 648.764 127.397Z" fill="#086AAC"/>
<path d="M573.042 194.842C573.042 206.736 573.042 218.29 573.042 230.245C566.381 230.245 560.045 230.307 553.715 230.162C552.972 230.145 552.117 229.085 551.55 228.342C540.059 213.256 528.602 198.146 516.619 182.355C516.619 198.403 516.619 213.707 516.619 229.298C510.513 229.298 504.819 229.298 498.54 229.298C498.54 207.477 498.54 185.678 498.54 163.512C505.741 163.512 513.145 163.45 520.545 163.59C521.489 163.608 522.7 164.489 523.299 165.302C533.12 178.626 542.855 192.007 552.634 205.358C553.281 206.242 554.121 206.996 555.322 208.298C555.322 192.886 555.322 178.085 555.322 163.055C561.232 163.055 566.842 163.055 573.042 163.055C573.042 173.5 573.042 184.001 573.042 194.842Z" fill="#086AAC"/>
<path d="M546.125 73.5765C552.926 73.8067 559.52 73.2905 565.789 74.4272C577.682 76.5835 582.42 84.3358 581.635 94.7908C580.964 103.732 576.169 109.266 567.485 111.987C566.967 112.15 566.531 112.555 565.868 112.964C572.764 121.918 579.59 130.783 586.95 140.341C582.263 140.341 578.154 139.9 574.189 140.44C567.515 141.348 563.445 138.959 560.099 133.375C556.403 127.206 551.623 121.634 547.248 115.849C546.778 115.227 545.872 114.531 545.156 114.52C538.802 114.417 532.446 114.46 525.758 114.46C525.758 123.05 525.758 131.4 525.758 140.044C519.502 140.044 513.572 140.044 507.402 140.044C507.402 118.078 507.402 96.1084 507.402 73.5765C520.159 73.5765 532.965 73.5765 546.125 73.5765ZM535.858 85.8384C532.493 85.8384 529.128 85.8384 525.813 85.8384C525.813 91.1092 525.813 95.8206 525.813 100.836C527.312 100.836 528.585 100.806 529.855 100.841C537.482 101.053 545.11 101.225 552.734 101.519C558.264 101.732 562.496 98.2362 562.426 93.3309C562.361 88.8064 559.018 85.9272 553.547 85.8565C547.888 85.7834 542.226 85.839 535.858 85.8384Z" fill="#086AAC"/>
<path d="M647.24 212.043C652.938 217.781 658.458 223.347 664.645 229.587C661.367 229.587 658.781 229.591 656.196 229.586C651.003 229.575 645.229 230.92 640.783 229.161C636.399 227.426 633.457 222.447 629.709 219.069C622.758 212.805 615.681 206.67 609.33 201.076C609.33 209.519 609.33 219.628 609.33 229.999C602.751 229.999 596.589 229.999 589.879 229.999C589.879 207.724 589.879 185.558 589.879 163.103C595.921 163.103 602.321 163.103 609.103 163.103C609.103 172.824 609.103 182.509 609.103 192.907C610.506 191.692 611.369 191.008 612.157 190.252C620.594 182.153 629.028 174.052 637.44 165.931C639.584 163.861 641.897 162.625 645.158 162.754C651.129 162.991 657.118 162.822 662.789 162.822C652.342 173.766 641.887 184.72 630.993 196.133C635.729 200.772 641.396 206.322 647.24 212.043Z" fill="#086AAC"/>
<path d="M480.969 229.587C474.022 231.011 469.975 228.328 468.281 222.257C466.469 215.764 462.334 213.848 455.444 214.434C447.254 215.131 438.949 214.661 430.695 214.552C428.765 214.527 427.784 215.1 427.023 216.805C425.277 220.713 423.39 224.571 421.345 228.341C420.877 229.204 419.553 230.146 418.597 230.172C412.593 230.339 406.582 230.256 399.932 230.256C402.844 224.608 405.527 219.319 408.291 214.071C409.868 211.077 411.614 208.166 413.221 205.186C420.466 191.751 427.657 178.289 434.985 164.895C435.497 163.959 436.938 162.956 437.984 162.916C443.283 162.716 448.6 162.696 453.896 162.922C455.069 162.973 456.682 164.014 457.251 165.034C467.77 183.875 478.158 202.784 488.584 221.673C489.938 224.125 491.349 226.548 493.075 229.587C488.719 229.587 485.02 229.587 480.969 229.587ZM445.897 201.654C449.604 201.654 453.311 201.654 457.487 201.654C453.546 193.725 449.845 186.28 445.873 178.289C441.947 186.358 438.338 193.774 434.503 201.654C438.616 201.654 441.904 201.654 445.897 201.654Z" fill="#086AAC"/>
<path d="M731.592 72.8951C735.504 72.2032 737.252 73.8386 738.859 76.8784C746.406 91.1595 754.234 105.304 762 119.477C765.57 125.992 769.228 132.463 773.211 139.609C766.095 139.609 759.583 139.659 753.076 139.527C752.461 139.515 751.679 138.446 751.302 137.711C749.603 134.402 747.962 131.061 746.422 127.68C745.516 125.692 744.522 124.534 741.835 124.589C731.697 124.797 721.551 124.726 711.41 124.631C709.196 124.61 708.244 125.265 707.449 127.356C705.975 131.233 703.989 134.943 702.014 138.622C701.589 139.413 700.313 140.239 699.41 140.26C693.291 140.404 687.166 140.335 680.364 140.335C681.812 137.818 683.08 135.756 684.211 133.627C691.214 120.442 698.173 107.237 705.174 94.0517C708.566 87.6636 711.939 81.2632 715.523 74.9753C716.085 73.9897 717.696 73.0587 718.878 72.9892C722.99 72.7472 727.127 72.8953 731.592 72.8951ZM730.599 111.727C732.905 111.727 735.211 111.727 738.018 111.727C734.197 103.932 730.609 96.6104 726.682 88.5968C722.711 96.6044 719.053 103.98 715.211 111.727C720.487 111.727 725.195 111.727 730.599 111.727Z" fill="#086AAC"/>
<path d="M467.915 125.839C471.152 122.622 472.48 118.944 472.469 114.733C472.438 102.361 472.458 89.989 472.458 77.617C472.458 76.3991 472.458 75.1812 472.458 73.7719C478.907 73.7719 484.987 73.7719 491.583 73.7719C491.583 75.023 491.583 76.2224 491.583 77.4217C491.583 90.1342 491.342 102.852 491.656 115.558C491.933 126.772 485.854 134.074 476.609 137.16C460.019 142.7 443.17 143.368 427.026 135.447C420.402 132.197 416.526 126.622 416.509 119.131C416.477 104.943 416.496 90.7551 416.507 76.567C416.508 75.4624 416.609 74.3579 416.672 73.0809C422.733 73.0809 428.577 73.0809 434.917 73.0809C434.917 74.3637 434.917 75.5658 434.917 76.7678C434.917 89.1398 435.127 101.516 434.847 113.882C434.639 123.089 441.186 127.313 448.416 127.998C453.001 128.433 457.681 128.285 462.29 127.995C464.126 127.879 465.888 126.675 467.915 125.839Z" fill="#086AAC"/>
<path d="M269.886 248.587C263.811 259.497 255.508 268.084 244.201 273.544C236.746 277.144 228.819 278.918 220.477 275.919C215.784 274.232 211.403 268.291 211.044 263.424C210.332 253.774 213.284 245.218 218.991 237.438C226.609 227.051 236.221 219.193 249.409 216.286C256.782 214.661 263.895 214.965 269.587 220.782C273.455 224.737 274.549 229.751 273.931 234.719C273.357 239.342 271.323 243.798 269.886 248.587Z" fill="#F78E20"/>
<path d="M378.496 212.689C376.345 216.364 373.391 217.063 369.341 216.803C362.176 216.345 354.959 216.654 347.764 216.642C346.024 216.64 344.284 216.642 342.337 216.642C342.337 212.048 342.337 207.791 342.337 203.017C344.542 203.017 346.733 203.017 348.923 203.017C356.237 203.018 363.55 202.968 370.863 203.036C375.737 203.082 378.56 205.11 379.166 209.022C379.337 210.127 378.846 211.326 378.496 212.689Z" fill="none"/>
<path d="M377.727 179.027C379.973 181.49 379.461 183.961 378.224 186.303C376.745 189.103 373.812 189.969 370.93 189.973C363.909 189.982 356.889 189.597 349.867 189.411C347.424 189.346 344.977 189.401 342.334 189.401C342.334 184.801 342.334 180.548 342.334 175.767C344.527 175.767 346.712 175.767 348.898 175.767C355.847 175.767 362.797 175.851 369.744 175.729C372.905 175.673 375.402 176.743 377.727 179.027Z" fill="none"/>
<path d="M354.168 126.715C350.069 126.715 346.324 126.715 342.354 126.715C342.354 122.161 342.354 117.908 342.354 113.09C343.547 113.09 344.782 113.09 346.017 113.09C353.909 113.09 361.801 113.09 369.693 113.092C370.518 113.092 371.355 113.021 372.164 113.132C376.772 113.766 380.115 117.003 379.522 120.204C378.653 124.896 374.581 127.318 369.703 126.886C364.68 126.442 359.585 126.741 354.168 126.715Z" fill="none"/>
<path d="M369.572 85.84C376.192 85.9595 379.711 89.1492 378.949 94.1369C378.46 97.3377 376.262 99.3192 373.091 99.3848C363.197 99.5895 353.296 99.4598 343.111 99.4598C343.111 94.9337 343.111 90.5963 343.111 85.84C351.86 85.84 360.55 85.84 369.572 85.84Z" fill="none"/>
<path d="M536.212 85.8384C542.226 85.839 547.888 85.7834 553.547 85.8565C559.018 85.9272 562.361 88.8065 562.426 93.3309C562.496 98.2362 558.264 101.732 552.734 101.519C545.11 101.225 537.482 101.053 529.855 100.841C528.585 100.806 527.312 100.836 525.813 100.836C525.813 95.8206 525.813 91.1092 525.813 85.8384C529.128 85.8384 532.493 85.8384 536.212 85.8384Z" fill="none"/>
<path d="M445.545 201.654C441.904 201.654 438.616 201.654 434.503 201.654C438.338 193.774 441.946 186.358 445.873 178.289C449.845 186.28 453.546 193.726 457.487 201.654C453.311 201.654 449.604 201.654 445.545 201.654Z" fill="none"/>
<path d="M730.252 111.727C725.195 111.727 720.486 111.727 715.211 111.727C719.053 103.98 722.711 96.6043 726.682 88.5968C730.609 96.6103 734.197 103.932 738.018 111.727C735.211 111.727 732.905 111.727 730.252 111.727Z" fill="none"/>
</g>
<defs>
<clipPath id="clip0_10_41">
<rect width="850" height="280" fill="none"/>
</clipPath>
</defs>
</svg>
