<svg width="850" height="230" viewBox="0 0 850 230" fill="none" xmlns="http://www.w3.org/2000/svg">
<g clip-path="url(#clip0_10_64)">
<path d="M0.332031 63.3214C0.332031 42.3539 0.332031 21.3864 0.332031 0.408447C251.026 0.408447 501.721 0.408447 752.661 0.529935C752.758 0.835965 752.632 1.07005 752.456 1.19783C747.775 4.5954 745.437 9.50141 745.71 16.3141C745.879 20.5135 745.742 24.7314 745.742 28.9577C735.223 31.1438 725.707 35.9995 716.921 43.2605C714.673 40.3286 712.488 37.3783 710.213 34.5377C707.616 31.2961 704.365 29.4319 700.718 29.5051C697.181 29.5761 693.989 31.0974 691.335 34.3794C686.386 40.4986 686.424 50.8848 691.412 57.1295C693.892 60.2354 696.43 63.273 698.847 66.2266C697.648 68.6442 696.414 70.8829 695.383 73.2553C691.77 81.5737 688.905 90.2382 687.621 99.6044C687.489 100.572 687.017 100.947 686.145 100.934C681.83 100.87 677.514 100.862 673.199 100.922C670.755 100.956 668.564 102.188 666.737 104.015C663.272 107.481 661.609 111.976 661.685 117.64C661.792 125.515 667.62 132.852 674.004 132.78C677.932 132.736 681.861 132.796 685.789 132.755C686.765 132.744 687.182 132.982 687.362 134.382C687.712 137.093 688.361 139.751 688.953 142.409C691.042 151.798 694.468 160.42 699.096 168.594C696.748 171.522 694.465 174.45 692.109 177.285C689.823 180.036 688.802 183.51 688.682 187.248C688.481 193.494 690.406 198.469 694.852 202.01C699.409 205.641 706.691 204.834 710.378 200.187C712.773 197.167 715.203 194.19 717.27 191.625C721.981 194.563 726.37 197.706 731.018 200.085C735.651 202.456 740.543 204.062 745.41 206.039C745.41 209.962 745.414 214.112 745.408 218.262C745.403 222.601 746.379 226.474 748.917 229.629C749.046 229.79 749.017 230.144 749.062 230.408C499.486 230.408 249.909 230.408 0.332031 230.408C0.332031 221.241 0.332031 212.119 0.48764 202.813C11.5935 202.63 22.5441 202.693 33.4937 202.593C36.9435 202.561 40.4086 202.278 43.8351 201.78C50.6513 200.79 56.6352 197.266 61.7563 191.739C66.8466 186.246 70.6059 179.522 73.3217 171.846C77.2065 160.866 78.7825 149.292 78.9251 137.483C79.0143 130.101 78.3716 122.668 77.6477 115.318C76.7289 105.991 74.4346 97.1317 70.5216 88.9687C66.8586 81.3273 62.0202 75.0768 55.7695 70.6933C48.6503 65.7006 40.864 63.405 32.6849 63.3419C21.901 63.2588 11.1164 63.3214 0.332031 63.3214ZM197.573 154.727C197.586 155.034 197.599 155.341 197.572 156.029C197.585 171.153 197.599 186.278 197.577 201.751C198.019 202.044 198.458 202.583 198.903 202.591C202.655 202.659 206.408 202.63 210.161 202.63C214.907 202.63 219.653 202.636 224.399 202.622C225.057 202.62 225.981 202.954 225.768 201.023C225.772 192.465 225.785 183.908 225.779 175.35C225.771 162.514 225.749 149.679 225.724 136.638C225.636 136.557 225.548 136.477 225.452 136.034C225.353 134.669 225.254 133.303 225.126 131.584C225.116 130.754 225.105 129.924 225.1 128.872C225.005 128.788 224.909 128.705 224.793 128.299C224.662 127.474 224.531 126.649 224.438 125.548C224.336 125.223 224.234 124.899 224.124 124.28C224.024 123.836 223.925 123.393 223.798 122.651C223.706 122.197 223.615 121.743 223.471 120.983C223.122 119.738 222.773 118.493 222.402 116.994C222.206 116.657 222.011 116.32 221.794 115.738C221.69 115.547 221.586 115.355 221.459 114.897C221.251 114.448 221.044 113.999 220.797 113.348C220.782 113.281 220.767 113.214 220.745 112.943C220.658 112.863 220.571 112.783 220.383 112.455C219.648 111.322 218.912 110.189 218.087 108.829C217.786 108.497 217.484 108.164 217.081 107.588C216.445 106.981 215.809 106.374 215.067 105.518C213.898 104.784 212.73 104.05 211.493 103.114C211.389 103.069 211.284 103.024 210.922 102.955C210.341 102.838 209.76 102.722 208.965 102.554C208.821 102.535 208.677 102.517 208.377 102.252C207.87 102.234 207.363 102.216 206.636 102.153C206.488 102.168 206.34 102.183 205.917 102.148C205.455 102.164 204.993 102.181 204.284 102.15C204.034 102.166 203.785 102.181 203.318 102.159C203.059 102.308 202.8 102.457 202.3 102.558C201.933 102.673 201.565 102.788 200.944 102.94C199.923 103.472 198.901 104.004 197.666 104.581C197.398 104.847 197.13 105.113 196.654 105.406C196.396 105.662 196.139 105.919 195.678 106.3C194.417 107.893 193.157 109.487 191.7 111.201C191.539 111.575 191.378 111.949 191.027 112.44C190.868 112.81 190.71 113.181 190.364 113.665C190.21 114.029 190.057 114.393 189.7 114.888C188.79 116.485 187.88 118.082 186.971 119.678C186.881 119.63 186.791 119.581 186.701 119.532C186.783 117.419 186.866 115.306 187.143 113.013C187.166 112.519 187.189 112.024 187.251 111.179C187.277 110.357 187.303 109.534 187.547 108.491C187.547 107.095 187.547 105.699 187.547 104.302C178.292 104.302 169.245 104.302 160.174 104.302C160.174 137.127 160.174 169.822 160.174 202.629C169.269 202.629 178.229 202.611 187.188 202.651C188.286 202.656 188.359 202.003 188.248 200.614C188.363 183.12 188.448 165.626 188.611 148.133C188.665 142.355 191.196 140.009 195.308 142.028C195.965 143.708 196.623 145.387 197.241 147.406C197.254 147.975 197.267 148.544 197.241 149.416C197.365 149.995 197.488 150.573 197.587 151.365C197.595 151.436 197.603 151.507 197.572 151.913C197.585 152.477 197.599 153.042 197.574 153.877C197.587 154.059 197.599 154.24 197.573 154.727ZM502.525 202.518C502.799 202.555 503.072 202.624 503.345 202.625C512.862 202.63 522.379 202.63 531.896 202.622C532.208 202.622 532.519 202.532 532.91 202.472C532.91 201.618 532.91 200.877 532.91 200.137C532.91 183.73 532.9 167.323 532.926 150.916C532.928 149.242 533.055 147.548 533.289 145.899C533.698 143.013 535.38 140.966 537.185 140.943C539.255 140.916 540.724 142.595 541.181 145.883C541.539 148.458 541.835 151.082 541.845 153.686C541.906 169.14 541.875 184.594 541.875 200.048C541.875 200.842 541.875 201.636 541.875 202.462C551.388 202.462 560.695 202.462 570.098 202.462C570.098 201.484 570.098 200.672 570.098 199.861C570.098 180.254 570.059 160.647 570.121 141.041C570.139 134.997 569.591 129.066 568.419 123.221C567.196 117.12 565.183 111.425 561.333 107.161C554.921 100.061 544.558 100.016 538.175 108.213C535.787 111.278 534.051 115.11 532.016 118.591C531.802 118.958 531.576 119.314 531.092 120.107C531.407 114.463 531.688 109.437 531.975 104.307C531.477 104.244 531.213 104.181 530.949 104.181C521.764 104.175 512.579 104.171 503.394 104.19C503.044 104.191 502.695 104.428 502.121 104.771C502.091 105.176 502.035 105.58 502.035 105.985C502.031 137.508 502.03 169.032 502.044 200.556C502.045 201.12 502.24 201.684 502.525 202.518ZM401.767 71.6841C400.803 70.9174 399.868 70.0886 398.871 69.3945C393.703 65.7974 388.242 63.3432 382.22 63.3302C369.052 63.3018 355.885 63.3214 342.717 63.3214C342.076 63.3214 341.435 63.3214 340.556 63.3214C340.556 109.901 340.556 156.193 340.556 202.63C341.214 202.63 341.869 202.63 342.525 202.63C356.412 202.63 370.299 202.714 384.185 202.582C388.713 202.538 393.261 202.336 397.672 200.621C403.42 198.386 408.297 194.727 411.789 188.538C414.919 182.989 416.596 176.857 417.076 170.132C417.604 162.75 417.745 155.474 415.382 148.433C414.002 144.319 412 140.665 409.445 137.666C407.157 134.981 404.34 132.979 401.871 130.776C403.372 129.516 405.174 128.211 406.781 126.608C410.018 123.381 412.859 119.624 413.947 114.555C415.173 108.844 415.445 102.959 414.676 97.0924C413.291 86.5294 409.04 78.1033 401.767 71.6841ZM606.289 97.0248C606.289 86.0992 606.289 75.1736 606.289 64.2772C596.745 64.2772 587.476 64.2772 578.21 64.2772C578.21 110.455 578.21 156.493 578.21 202.495C587.845 202.495 597.337 202.495 606.986 202.495C606.986 186.791 606.986 171.22 606.986 155.65C607.053 155.645 607.12 155.639 607.187 155.634C611.479 171.267 615.77 186.901 620.06 202.528C631.424 202.528 642.688 202.528 654.087 202.528C653.673 201.22 653.362 200.016 652.924 198.887C649.002 188.788 645.057 178.703 641.12 168.613C638.585 162.115 636.023 155.632 633.56 149.092C633.305 148.417 633.443 147.269 633.748 146.57C634.803 144.147 636.033 141.841 637.158 139.463C642.157 128.898 647.145 118.324 652.129 107.748C652.629 106.688 653.08 105.592 653.702 104.174C649.38 104.174 645.459 104.174 641.539 104.174C635.009 104.174 628.48 104.149 621.951 104.218C621.376 104.224 620.453 104.674 620.286 105.203C616.9 115.9 613.604 126.639 610.284 137.367C609.544 139.758 608.78 142.137 608.027 144.521C607.775 144.507 607.523 144.493 607.272 144.479C606.944 142.209 606.348 139.942 606.333 137.668C606.244 124.258 606.289 110.845 606.289 97.0248ZM457.084 199.815C459.539 196.518 461.993 193.222 464.453 189.919C464.181 194.12 463.91 198.307 463.641 202.46C473.781 202.46 483.872 202.46 493.951 202.46C493.951 169.643 493.951 136.997 493.951 104.339C483.759 104.339 473.68 104.339 463.655 104.339C463.944 108.208 464.221 111.919 464.504 115.7C463.058 113.242 461.952 110.658 460.33 108.734C454.352 101.645 446.271 100.165 438.727 104.316C432.562 107.708 429.247 114.233 426.677 121.472C423.57 130.226 422.464 139.556 422.097 148.96C421.868 154.808 422.107 160.765 422.77 166.564C423.696 174.668 425.491 182.556 428.905 189.727C432.399 197.068 436.746 203.039 444.087 204.378C448.905 205.257 453.19 203.958 457.084 199.815ZM92.2991 116.242C92.2004 116.404 92.1036 116.569 92.0028 116.73C85.9069 126.462 83.4024 137.775 82.7336 149.762C82.3841 156.026 82.6072 162.327 83.6584 168.544C85.4409 179.086 88.8753 188.428 95.867 195.395C103.268 202.769 111.677 205.581 121.092 204.29C127.449 203.419 133.085 200.596 138.061 195.61C143.831 189.828 147.68 182.606 149.44 173.704C149.673 172.523 149.911 171.344 150.17 170.049C140.665 170.049 131.499 170.049 122.547 170.049C121.942 171.766 121.5 173.366 120.843 174.82C119.256 178.329 114.695 178.846 112.817 175.74C110.237 171.471 110.314 166.498 110.249 161.33C123.948 161.33 137.422 161.33 150.94 161.33C150.998 160.895 151.055 160.639 151.064 160.381C151.373 151.627 150.784 142.984 148.637 134.597C146.78 127.342 144.001 120.659 139.781 115.012C134.89 108.469 128.907 104.249 121.766 102.712C115.641 101.393 109.649 101.934 103.93 105.194C99.4501 107.747 95.5234 111.195 92.2991 116.242ZM279.736 202.63C296.583 202.63 313.43 202.63 330.262 202.63C330.262 191.847 330.262 181.396 330.262 170.717C323.054 171.062 315.929 169.964 308.837 172.001C308.837 171.476 308.784 171.247 308.845 171.078C312.756 160.198 316.563 149.259 320.631 138.469C324.024 129.471 327.687 120.625 331.316 111.765C332.334 109.28 331.949 106.819 331.968 104.303C311.985 104.303 292.204 104.303 272.403 104.303C272.403 114.796 272.403 125.158 272.403 135.92C279.059 135.572 285.563 135.232 292.097 134.891C291.906 135.4 291.637 136.117 291.366 136.834C289.245 142.446 287.11 148.051 285.005 153.672C280.568 165.528 276.218 177.434 271.68 189.232C270.042 193.492 269.002 197.725 269.852 202.63C273.011 202.63 276.208 202.63 279.736 202.63ZM235.41 171.785C235.41 182.027 235.41 192.269 235.41 202.493C244.962 202.493 254.229 202.493 263.496 202.493C263.496 169.666 263.496 136.977 263.496 104.31C254.091 104.31 244.823 104.31 235.41 104.31C235.41 126.755 235.41 149.066 235.41 171.785ZM245.205 65.364C242.522 65.364 239.838 65.364 237.178 65.364C237.178 75.6037 237.178 85.5065 237.178 95.4268C245.595 95.4268 253.904 95.4268 262.197 95.4268C262.197 85.3552 262.197 75.4524 262.197 65.364C256.573 65.364 251.055 65.364 245.205 65.364Z" fill="none"/>
<path d="M0.332031 63.5128C11.1164 63.3214 21.901 63.2587 32.6849 63.3419C40.864 63.4049 48.6503 65.7006 55.7695 70.6932C62.0202 75.0768 66.8586 81.3272 70.5216 88.9686C74.4346 97.1317 76.7289 105.991 77.6477 115.318C78.3716 122.668 79.0143 130.101 78.9251 137.483C78.7825 149.292 77.2065 160.866 73.3217 171.846C70.6059 179.522 66.8466 186.246 61.7563 191.739C56.6352 197.266 50.6513 200.79 43.8351 201.78C40.4086 202.278 36.9435 202.561 33.4937 202.593C22.5441 202.693 11.5935 202.63 0.48764 202.629C0.332031 156.321 0.332031 110.012 0.332031 63.5128ZM30.2147 159.121C30.2147 162.017 30.2147 164.913 30.2147 167.819C35.8822 168.193 39.8999 164.936 42.9996 159.999C46.9824 153.655 48.6473 146.13 49.1055 138.252C49.5025 131.425 48.9323 124.634 47.4522 118.032C45.9551 111.354 43.7609 105.103 39.1355 100.646C36.5407 98.1461 33.6324 97.0402 30.2147 97.3261C30.2147 117.918 30.2147 138.315 30.2147 159.121Z" fill="#004C91"/>
<path d="M749.218 230.409C749.017 230.144 749.046 229.79 748.917 229.629C746.379 226.474 745.403 222.602 745.409 218.262C745.414 214.112 745.41 209.962 745.41 206.039C740.543 204.062 735.651 202.456 731.018 200.085C726.37 197.706 721.981 194.563 717.27 191.626C715.203 194.19 712.773 197.167 710.378 200.187C706.691 204.834 699.409 205.641 694.852 202.01C690.406 198.469 688.481 193.494 688.682 187.248C688.802 183.51 689.823 180.036 692.109 177.285C694.466 174.45 696.748 171.522 699.096 168.594C694.468 160.42 691.042 151.798 688.953 142.409C688.362 139.751 687.712 137.093 687.362 134.382C687.182 132.982 686.765 132.744 685.789 132.755C681.861 132.796 677.932 132.736 674.004 132.78C667.62 132.852 661.792 125.515 661.685 117.64C661.609 111.976 663.272 107.481 666.737 104.016C668.565 102.188 670.755 100.956 673.199 100.922C677.514 100.862 681.83 100.87 686.145 100.934C687.017 100.947 687.489 100.572 687.621 99.6045C688.905 90.2384 691.77 81.5738 695.383 73.2554C696.414 70.883 697.648 68.6444 698.847 66.2267C696.43 63.2732 693.892 60.2356 691.412 57.1296C686.424 50.8849 686.386 40.4987 691.335 34.3796C693.989 31.0975 697.181 29.5762 700.718 29.5052C704.365 29.432 707.616 31.2962 710.213 34.5379C712.488 37.3784 714.673 40.3287 716.921 43.2606C725.707 35.9996 735.223 31.1439 745.742 28.9578C745.742 24.7315 745.879 20.5136 745.71 16.3142C745.437 9.50153 747.775 4.59552 752.456 1.19795C752.633 1.07017 752.758 0.836084 752.811 0.530054C756.485 0.408566 760.255 0.408566 764.084 0.530268C764.962 1.38514 765.784 2.1111 766.596 2.85272C770.07 6.0226 771.431 10.5612 771.572 15.5913C771.692 19.8807 771.319 24.191 771.167 28.4043C782.052 30.8209 791.746 35.8648 800.602 43.4918C802.819 40.7383 805.018 38.2371 807.001 35.4981C812.034 28.5451 821.859 29.0814 826.578 36.6929C830.625 43.2206 830.169 52.1041 825.688 57.871C823.44 60.7648 821.079 63.5273 818.824 66.2825C820.358 69.4822 821.958 72.4498 823.257 75.6057C826.423 83.3033 828.842 91.3453 830.084 99.8759C830.218 100.795 830.491 101.388 831.459 101.348C833.946 101.245 836.44 101.224 838.927 101.334C843.212 101.523 846.911 103.26 849.482 107.775C849.637 108.047 850.043 108.103 850.332 108.259C850.332 114.26 850.332 120.26 850.237 126.334C849.968 126.574 849.749 126.7 849.627 126.912C846.945 131.562 843.184 133.527 838.665 133.583C836.23 133.614 833.794 133.525 831.363 133.647C830.922 133.669 830.248 134.36 830.122 134.899C829.474 137.673 829.049 140.526 828.398 143.299C827.035 149.098 825.296 154.718 822.815 159.959C821.348 163.059 819.921 166.189 818.479 169.3C820.222 171.601 821.848 173.994 823.678 176.121C829.611 183.019 829.05 194.907 822.714 200.886C818.544 204.821 812.24 205.557 807.889 201.574C804.827 198.771 802.121 195.378 799.255 192.248C797.693 193.372 795.984 194.569 794.301 195.819C787.606 200.793 780.34 203.94 772.713 205.826C771.534 206.117 771.275 206.544 771.293 207.847C771.341 211.318 771.305 214.79 771.31 218.262C771.316 222.601 770.34 226.474 767.802 229.629C767.673 229.79 767.701 230.144 767.656 230.409C761.562 230.409 755.468 230.409 749.218 230.409ZM817.037 154.492C820.798 145.541 823.077 136.019 824.101 125.955C824.88 125.955 825.484 125.955 826.087 125.955C829.961 125.957 833.836 126.037 837.707 125.939C841.601 125.84 844.988 122.035 845.329 117.577C845.616 113.81 842.663 109.443 839.098 108.456C838.354 108.251 837.562 108.255 836.792 108.252C832.596 108.234 828.4 108.243 824.141 108.243C822.664 92.6877 818.064 78.833 810.326 66.565C810.845 65.8853 811.252 65.3353 811.673 64.8018C814.564 61.139 817.491 57.5175 820.341 53.8072C822.598 50.8696 823.069 47.3804 822.089 43.5746C821.239 40.2737 819.134 38.9421 816.566 38.5794C813.995 38.2162 811.818 39.3461 809.973 41.5959C806.643 45.6582 803.266 49.6637 799.865 53.7465C789.945 43.9324 778.503 38.1561 765.817 36.3268C765.817 30.0731 765.63 24.0784 765.874 18.1104C766.084 12.9757 763.229 8.39401 759.145 8.12615C754.732 7.83675 751.311 11.8196 751.345 17.1842C751.38 22.9024 751.399 28.6207 751.425 34.339C751.428 34.9968 751.425 35.6547 751.425 36.3463C738.579 38.1407 727.254 43.9267 717.09 53.8712C716.663 53.2288 716.347 52.6671 715.962 52.1873C712.777 48.211 709.604 44.2194 706.378 40.2945C704.081 37.5013 701.319 36.8754 698.257 37.9679C695.547 38.9352 694.407 41.4703 694.059 44.6247C693.695 47.933 694.596 50.7922 696.527 53.1394C700.105 57.4879 703.69 61.8269 707.283 66.1828C699.345 78.7493 694.783 92.6947 693.342 108.222C687.762 108.222 682.343 108.175 676.925 108.238C673.232 108.28 669.875 111.908 669.372 116.228C668.927 120.041 671.532 124.341 675.091 125.531C675.929 125.812 676.836 125.863 677.711 125.869C682.47 125.897 687.229 125.911 691.988 125.851C693.073 125.837 693.51 126.168 693.656 127.612C694.725 138.192 697.386 148.158 701.723 157.386C703.536 161.245 705.654 164.888 707.672 168.702C707.293 169.189 706.881 169.734 706.455 170.263C703.379 174.085 700.277 177.875 697.23 181.732C694.696 184.94 694.224 189.571 695.949 193.417C697.199 196.204 700.219 197.814 703.322 196.821C704.844 196.334 706.389 195.213 707.547 193.882C711.133 189.759 714.538 185.397 718.073 181.055C727.94 190.566 739.044 196.169 751.346 198.082C751.346 204.56 751.349 210.816 751.345 217.073C751.342 222.165 754.603 226.114 758.75 226.027C762.777 225.942 765.993 221.803 765.912 216.912C765.815 211.131 765.808 205.347 765.701 199.567C765.678 198.281 765.981 197.842 767.059 197.686C773.916 196.693 780.531 194.473 786.673 190.612C791.124 187.815 795.333 184.438 799.51 181.421C802.615 185.095 806.011 188.807 809.109 192.865C812.402 197.178 817.046 197.782 820.197 193.891C823.324 190.03 822.937 184.334 819.462 180.383C816.1 176.56 812.888 172.535 809.822 168.854C812.329 163.86 814.616 159.304 817.037 154.492Z" fill="#FFFEFE"/>
<path d="M850.332 108.068C850.043 108.103 849.637 108.047 849.482 107.775C846.911 103.26 843.212 101.523 838.927 101.334C836.44 101.223 833.946 101.245 831.458 101.348C830.491 101.388 830.218 100.795 830.084 99.8757C828.842 91.3452 826.423 83.3032 823.256 75.6056C821.958 72.4496 820.357 69.4821 818.824 66.2824C821.079 63.5272 823.439 60.7646 825.688 57.8709C830.169 52.1039 830.624 43.2205 826.577 36.6927C821.859 29.0813 812.033 28.545 807.001 35.4979C805.018 38.237 802.819 40.7382 800.602 43.4917C791.746 35.8647 782.052 30.8208 771.167 28.4042C771.319 24.1908 771.691 19.8806 771.572 15.5911C771.431 10.561 770.07 6.02248 766.596 2.8526C765.784 2.11098 764.962 1.38502 764.24 0.530149C792.977 0.408447 821.619 0.408447 850.332 0.408447C850.332 36.231 850.332 72.0537 850.332 108.068Z" fill="none"/>
<path d="M767.812 230.409C767.701 230.144 767.672 229.79 767.802 229.629C770.34 226.474 771.316 222.601 771.31 218.262C771.305 214.79 771.341 211.318 771.293 207.847C771.275 206.544 771.534 206.117 772.713 205.826C780.339 203.94 787.606 200.793 794.301 195.819C795.984 194.569 797.693 193.372 799.255 192.248C802.121 195.378 804.826 198.771 807.888 201.574C812.24 205.557 818.544 204.821 822.714 200.886C829.05 194.907 829.61 183.019 823.677 176.121C821.848 173.994 820.222 171.601 818.479 169.3C819.921 166.189 821.347 163.059 822.815 159.959C825.296 154.718 827.035 149.098 828.397 143.299C829.049 140.526 829.474 137.673 830.122 134.899C830.248 134.36 830.922 133.669 831.363 133.647C833.794 133.525 836.23 133.614 838.664 133.583C843.184 133.527 846.945 131.562 849.627 126.912C849.748 126.7 849.968 126.574 850.237 126.526C850.332 161.201 850.332 195.76 850.332 230.409C822.877 230.409 795.422 230.409 767.812 230.409Z" fill="none"/>
<path d="M401.868 71.7673C409.04 78.1034 413.291 86.5296 414.676 97.0926C415.445 102.959 415.172 108.845 413.947 114.555C412.859 119.624 410.018 123.381 406.781 126.608C405.174 128.211 403.372 129.516 401.871 130.777C404.34 132.979 407.157 134.981 409.445 137.666C411.999 140.665 414.002 144.319 415.382 148.433C417.745 155.474 417.604 162.75 417.076 170.132C416.596 176.857 414.919 182.99 411.789 188.538C408.297 194.727 403.42 198.386 397.672 200.621C393.261 202.336 388.713 202.538 384.185 202.582C370.299 202.714 356.411 202.63 342.525 202.63C341.869 202.63 341.214 202.63 340.556 202.63C340.556 156.193 340.556 109.901 340.556 63.3215C341.435 63.3215 342.076 63.3215 342.717 63.3215C355.885 63.3215 369.052 63.3019 382.22 63.3304C388.242 63.3434 393.703 65.7975 398.871 69.3947C399.868 70.0888 400.803 70.9175 401.868 71.7673ZM384.214 164.466C384.727 162.792 385.389 161.162 385.724 159.435C386.594 154.955 384.599 149.214 381.634 147.587C378.2 145.704 374.578 146.255 370.858 146.329C370.987 153.915 370.682 161.269 371.048 168.72C373.508 168.72 375.56 168.9 377.582 168.674C380.119 168.39 382.511 167.473 384.214 164.466ZM379.23 98.0643C376.534 96.6734 373.751 97.3818 370.879 97.258C370.879 100.664 370.879 103.786 370.879 106.908C370.879 110.016 370.879 113.123 370.879 116.423C372.666 116.423 374.285 116.659 375.841 116.375C379.161 115.768 381.059 114.85 382.012 110.207C382.158 109.494 382.276 108.772 382.407 108.055C383.038 104.614 381.591 99.7745 379.23 98.0643Z" fill="#004C91"/>
<path d="M606.289 97.2292C606.289 110.845 606.244 124.258 606.333 137.669C606.348 139.942 606.944 142.209 607.272 144.479C607.523 144.493 607.775 144.507 608.027 144.521C608.78 142.137 609.544 139.758 610.284 137.367C613.604 126.639 616.9 115.9 620.286 105.203C620.453 104.675 621.376 104.224 621.951 104.218C628.48 104.149 635.009 104.174 641.539 104.174C645.459 104.174 649.38 104.174 653.702 104.174C653.08 105.592 652.629 106.688 652.13 107.749C647.145 118.324 642.157 128.898 637.158 139.463C636.033 141.841 634.803 144.147 633.748 146.57C633.443 147.269 633.305 148.417 633.56 149.093C636.023 155.632 638.585 162.115 641.12 168.613C645.057 178.703 649.002 188.788 652.924 198.887C653.362 200.016 653.673 201.22 654.087 202.529C642.688 202.529 631.424 202.529 620.06 202.529C615.77 186.901 611.479 171.267 607.187 155.634C607.12 155.639 607.053 155.645 606.986 155.65C606.986 171.221 606.986 186.791 606.986 202.495C597.337 202.495 587.845 202.495 578.21 202.495C578.21 156.493 578.21 110.455 578.21 64.2773C587.476 64.2773 596.745 64.2773 606.289 64.2773C606.289 75.1738 606.289 86.0994 606.289 97.2292Z" fill="#004C91"/>
<path d="M456.985 199.898C453.19 203.958 448.905 205.257 444.086 204.378C436.746 203.039 432.398 197.068 428.905 189.727C425.491 182.556 423.696 174.668 422.77 166.564C422.107 160.765 421.868 154.808 422.097 148.96C422.464 139.556 423.57 130.226 426.677 121.472C429.247 114.233 432.562 107.708 438.727 104.316C446.271 100.165 454.352 101.645 460.33 108.734C461.952 110.658 463.058 113.242 464.504 115.7C464.221 111.919 463.944 108.208 463.655 104.339C473.68 104.339 483.759 104.339 493.951 104.339C493.951 136.997 493.951 169.643 493.951 202.46C483.872 202.46 473.781 202.46 463.641 202.46C463.91 198.307 464.181 194.12 464.453 189.919C461.993 193.222 459.539 196.518 456.985 199.898ZM452.595 167.151C453.07 168.054 453.471 169.033 454.033 169.846C456.402 173.279 458.807 173.755 460.803 170.907C461.87 169.383 462.693 167.372 463.098 165.416C464.404 159.124 465.058 152.735 463.846 146.263C463.101 142.287 462.061 138.485 459.613 135.543C458.323 133.992 456.768 133.573 455.627 134.612C454.752 135.409 453.855 136.37 453.326 137.51C451.006 142.502 449.816 147.998 449.987 153.685C450.123 158.192 450.833 162.717 452.595 167.151Z" fill="#004C91"/>
<path d="M502.345 104.555C502.695 104.428 503.044 104.191 503.394 104.191C512.579 104.171 521.764 104.175 530.949 104.181C531.213 104.181 531.477 104.244 531.975 104.307C531.688 109.437 531.407 114.463 531.092 120.108C531.576 119.314 531.802 118.958 532.016 118.591C534.051 115.11 535.787 111.278 538.175 108.213C544.558 100.016 554.921 100.061 561.333 107.162C565.183 111.426 567.196 117.12 568.419 123.221C569.591 129.067 570.139 134.997 570.12 141.041C570.059 160.647 570.098 180.254 570.098 199.861C570.098 200.673 570.098 201.484 570.098 202.462C560.695 202.462 551.388 202.462 541.875 202.462C541.875 201.636 541.875 200.842 541.875 200.048C541.875 184.594 541.906 169.14 541.845 153.686C541.835 151.082 541.539 148.458 541.181 145.884C540.724 142.595 539.255 140.916 537.185 140.943C535.38 140.967 533.698 143.013 533.289 145.899C533.055 147.548 532.928 149.242 532.926 150.916C532.9 167.323 532.91 183.73 532.91 200.137C532.91 200.877 532.91 201.618 532.91 202.472C532.519 202.533 532.208 202.622 531.896 202.623C522.379 202.63 512.862 202.63 503.345 202.625C503.072 202.625 502.798 202.555 502.441 202.19C502.353 169.427 502.349 136.991 502.345 104.555Z" fill="#004C91"/>
<path d="M197.28 149.113C197.267 148.544 197.254 147.975 197.378 147.215C199.302 145.581 197.338 144.333 197.306 142.977C197.273 141.561 196.087 141.73 195.199 141.775C191.196 140.009 188.665 142.355 188.611 148.133C188.448 165.626 188.363 183.12 188.077 200.804C179.609 200.995 171.312 200.956 163.016 201.03C161.508 201.044 161.003 200.513 161.006 198.601C161.048 168.386 161.046 138.171 161.007 107.955C161.005 106.273 161.373 105.756 162.765 105.771C170.286 105.85 177.809 105.806 185.331 105.813C185.812 105.814 186.292 105.886 186.559 105.908C186.859 107 187.093 107.856 187.328 108.712C187.303 109.534 187.277 110.357 187.125 111.378C186.982 112.116 186.965 112.655 186.948 113.194C186.866 115.306 186.783 117.419 186.701 119.532C186.791 119.581 186.881 119.63 186.971 119.678C187.88 118.082 188.79 116.485 189.876 114.937C190.423 114.916 190.794 114.845 191.165 114.775C190.96 114.367 190.756 113.959 190.552 113.551C190.71 113.181 190.868 112.81 191.231 112.44C191.767 112.455 192.1 112.47 192.433 112.485C192.254 112.017 192.075 111.549 191.896 111.08C193.157 109.487 194.417 107.893 195.842 106.351C196.46 106.456 196.915 106.509 197.37 106.562C197.2 106.168 197.031 105.773 196.861 105.379C197.13 105.113 197.398 104.847 197.788 104.708C198.365 105.078 198.933 105.659 199.253 105.497C200.173 105.032 201.496 104.819 201.198 102.903C201.565 102.788 201.933 102.673 202.442 102.715C202.797 102.997 203.011 103.122 203.224 103.246C203.328 102.897 203.432 102.547 203.535 102.197C203.785 102.181 204.034 102.166 204.41 102.322C204.824 102.901 205.112 103.307 205.399 103.713C205.663 103.208 205.927 102.703 206.191 102.197C206.34 102.183 206.488 102.168 206.762 102.315C207.32 102.771 207.752 103.064 208.244 103.454C208.596 103.236 208.887 102.921 209.179 102.606C209.76 102.722 210.341 102.838 211.094 103.053C211.347 103.256 211.445 103.31 211.561 103.316C212.73 104.05 213.898 104.784 215.077 105.768C215.442 106.765 215.797 107.512 216.166 108.406C216.638 109.973 217.414 109.471 218.177 109.055C218.912 110.189 219.648 111.322 220.456 112.672C220.577 113.009 220.652 113.095 220.752 113.148C220.767 113.214 220.782 113.281 220.712 113.513C220.463 114.187 220.3 114.696 220.147 115.324C220.372 115.5 220.586 115.556 220.904 115.602C221.165 115.449 221.324 115.306 221.482 115.164C221.586 115.355 221.69 115.547 221.742 115.975C221.5 116.57 221.309 116.928 220.934 117.631C221.711 117.431 222.067 117.34 222.423 117.248C222.773 118.493 223.122 119.738 223.372 121.163C223.027 121.716 222.781 122.09 222.535 122.463C222.965 122.625 223.395 122.788 223.825 122.95C223.925 123.393 224.025 123.836 224.089 124.543C224.169 125.146 224.284 125.485 224.4 125.824C224.531 126.649 224.662 127.474 224.792 128.574C224.79 128.924 224.787 129 224.667 129.108C223.738 130.405 224.19 131.256 225.155 131.938C225.254 133.303 225.353 134.669 225.48 136.308C225.557 136.703 225.632 136.79 225.733 136.843C225.749 149.679 225.771 162.514 225.779 175.35C225.785 183.908 225.772 192.465 225.596 201.213C216.468 201.403 207.511 201.403 198.551 201.23C198.44 199.853 198.239 198.648 198.237 197.443C198.215 183.512 198.223 169.58 198.313 155.554C198.454 154.977 198.504 154.496 198.643 153.923C199.244 152.414 198.338 152.064 197.612 151.578C197.603 151.507 197.595 151.436 197.71 151.229C198.537 150.058 198.244 149.444 197.28 149.113Z" fill="#004C91"/>
<path d="M92.3819 116.135C95.5235 111.195 99.4502 107.747 103.93 105.194C109.649 101.934 115.641 101.393 121.766 102.712C128.907 104.249 134.89 108.469 139.781 115.012C144.001 120.659 146.781 127.342 148.637 134.597C150.784 142.984 151.373 151.627 151.064 160.381C151.055 160.639 150.998 160.895 150.94 161.33C137.422 161.33 123.948 161.33 110.249 161.33C110.314 166.498 110.237 171.471 112.817 175.74C114.695 178.846 119.256 178.329 120.843 174.82C121.5 173.366 121.943 171.766 122.547 170.049C131.5 170.049 140.665 170.049 150.17 170.049C149.911 171.344 149.673 172.524 149.44 173.704C147.681 182.606 143.831 189.828 138.061 195.61C133.085 200.597 127.449 203.419 121.092 204.291C111.677 205.581 103.268 202.769 95.8671 195.395C88.8754 188.428 85.441 179.086 83.6585 168.544C82.6073 162.327 82.3842 156.026 82.7337 149.762C83.4026 137.775 85.907 126.462 92.0029 116.73C92.1037 116.569 92.2005 116.405 92.3819 116.135ZM120.974 140.941C121.67 140.941 122.367 140.941 123.501 140.941C122.689 137.904 122.21 135.124 121.225 132.65C119.446 128.178 115.256 127.249 112.821 130.655C110.782 133.506 110.363 137.059 110.219 140.941C113.828 140.941 117.24 140.941 120.974 140.941Z" fill="#004C91"/>
<path d="M279.57 202.63C276.208 202.63 273.012 202.63 269.852 202.63C269.002 197.725 270.042 193.492 271.68 189.232C276.218 177.434 280.568 165.528 285.005 153.673C287.11 148.051 289.245 142.446 291.366 136.834C291.637 136.117 291.906 135.4 292.098 134.891C285.563 135.232 279.059 135.573 272.403 135.92C272.403 125.159 272.403 114.796 272.403 104.303C292.204 104.303 311.985 104.303 331.968 104.303C331.949 106.819 332.334 109.28 331.316 111.765C327.687 120.625 324.025 129.471 320.631 138.469C316.563 149.259 312.756 160.199 308.845 171.078C308.784 171.247 308.837 171.477 308.837 172.001C315.929 169.964 323.054 171.062 330.262 170.717C330.262 181.397 330.262 191.847 330.262 202.63C313.43 202.63 296.583 202.63 279.57 202.63Z" fill="#004C91"/>
<path d="M235.41 171.581C235.41 149.066 235.41 126.755 235.41 104.31C244.823 104.31 254.091 104.31 263.496 104.31C263.496 136.977 263.496 169.666 263.496 202.493C254.229 202.493 244.962 202.493 235.41 202.493C235.41 192.269 235.41 182.027 235.41 171.581Z" fill="#004C91"/>
<path d="M245.371 65.364C251.055 65.364 256.573 65.364 262.197 65.364C262.197 75.4524 262.197 85.3552 262.197 95.4267C253.904 95.4267 245.595 95.4267 237.178 95.4267C237.178 85.5064 237.178 75.6037 237.178 65.364C239.838 65.364 242.522 65.364 245.371 65.364Z" fill="#004C91"/>
<path d="M187.438 108.601C187.094 107.856 186.859 107 186.559 105.908C186.292 105.886 185.812 105.814 185.331 105.813C177.809 105.806 170.286 105.85 162.765 105.771C161.373 105.756 161.005 106.273 161.008 107.956C161.046 138.171 161.048 168.386 161.006 198.601C161.003 200.513 161.508 201.044 163.016 201.03C171.312 200.956 179.609 200.995 188.057 200.994C188.359 202.003 188.286 202.656 187.189 202.651C178.229 202.611 169.269 202.629 160.174 202.629C160.174 169.822 160.174 137.127 160.174 104.302C169.245 104.302 178.292 104.302 187.547 104.302C187.547 105.699 187.547 107.095 187.438 108.601Z" fill="#004C91"/>
<path d="M198.555 201.403C207.511 201.403 216.468 201.403 225.576 201.403C225.981 202.954 225.057 202.62 224.399 202.622C219.653 202.636 214.907 202.63 210.161 202.63C206.408 202.63 202.655 202.659 198.903 202.591C198.458 202.583 198.019 202.044 197.712 201.577C198.083 201.403 198.319 201.403 198.555 201.403Z" fill="#004C91"/>
<path d="M502.233 104.663C502.349 136.991 502.353 169.427 502.351 202.056C502.24 201.685 502.044 201.12 502.044 200.556C502.03 169.032 502.031 137.508 502.035 105.985C502.035 105.58 502.091 105.176 502.233 104.663Z" fill="#008080"/>
<path d="M198.551 201.23C198.319 201.403 198.083 201.403 197.729 201.403C197.599 186.278 197.585 171.153 197.694 155.838C197.951 155.648 198.087 155.648 198.223 155.648C198.223 169.58 198.215 183.512 198.237 197.443C198.239 198.648 198.44 199.853 198.551 201.23Z" fill="#004C91"/>
<path d="M195.253 141.901C196.087 141.73 197.273 141.561 197.306 142.977C197.337 144.333 199.302 145.581 197.398 147.046C196.623 145.387 195.965 143.708 195.253 141.901Z" fill="#004C91"/>
<path d="M201.071 102.922C201.496 104.819 200.173 105.032 199.253 105.497C198.933 105.659 198.365 105.078 197.895 104.686C198.901 104.004 199.923 103.472 201.071 102.922Z" fill="#004C91"/>
<path d="M216.152 108.259C215.797 107.512 215.442 106.765 215.13 105.893C215.809 106.374 216.445 106.981 217.03 107.762C216.704 108.044 216.428 108.152 216.152 108.259Z" fill="#004C91"/>
<path d="M197.592 151.746C198.338 152.064 199.244 152.415 198.56 153.923C198.389 154.014 198.223 154.014 198.173 153.918C197.953 153.75 197.782 153.678 197.612 153.606C197.598 153.042 197.585 152.478 197.592 151.746Z" fill="#004C91"/>
<path d="M206.054 102.173C205.927 102.703 205.663 103.208 205.4 103.713C205.112 103.307 204.824 102.901 204.534 102.346C204.993 102.181 205.455 102.164 206.054 102.173Z" fill="#004C91"/>
<path d="M225.14 131.761C224.19 131.256 223.738 130.405 224.744 129.116C224.939 129.091 225.094 129.094 225.094 129.094C225.105 129.924 225.116 130.754 225.14 131.761Z" fill="#004C91"/>
<path d="M216.167 108.406C216.428 108.152 216.704 108.044 217.081 107.884C217.484 108.164 217.786 108.497 218.132 108.942C217.414 109.471 216.638 109.973 216.167 108.406Z" fill="#004C91"/>
<path d="M220.137 115.204C220.3 114.696 220.463 114.187 220.731 113.615C221.044 113.999 221.251 114.448 221.471 115.03C221.324 115.306 221.165 115.449 220.848 115.502C220.505 115.343 220.321 115.274 220.137 115.204Z" fill="#004C91"/>
<path d="M196.757 105.392C197.031 105.773 197.2 106.168 197.37 106.563C196.915 106.51 196.46 106.457 195.943 106.29C196.139 105.919 196.396 105.662 196.757 105.392Z" fill="#004C91"/>
<path d="M223.812 122.801C223.395 122.788 222.965 122.625 222.535 122.463C222.781 122.09 223.026 121.717 223.397 121.316C223.614 121.743 223.706 122.197 223.812 122.801Z" fill="#004C91"/>
<path d="M190.458 113.608C190.756 113.959 190.96 114.367 191.165 114.775C190.794 114.845 190.423 114.916 189.978 114.871C190.057 114.393 190.211 114.029 190.458 113.608Z" fill="#004C91"/>
<path d="M208.184 103.357C207.752 103.064 207.32 102.771 206.872 102.337C207.363 102.216 207.87 102.234 208.417 102.486C208.366 102.933 208.275 103.145 208.184 103.357Z" fill="#004C91"/>
<path d="M191.798 111.141C192.075 111.549 192.254 112.017 192.433 112.486C192.1 112.47 191.767 112.455 191.326 112.382C191.378 111.95 191.539 111.575 191.798 111.141Z" fill="#004C91"/>
<path d="M197.26 149.265C198.244 149.444 198.537 150.058 197.723 151.123C197.488 150.573 197.365 149.995 197.26 149.265Z" fill="#004C91"/>
<path d="M198.223 154.014C198.223 154.014 198.389 154.014 198.472 154.014C198.504 154.496 198.454 154.977 198.313 155.554C198.087 155.648 197.951 155.648 197.714 155.648C197.599 155.341 197.586 155.034 197.685 154.565C197.939 154.273 198.081 154.143 198.223 154.014Z" fill="#004C91"/>
<path d="M222.412 117.121C222.067 117.34 221.711 117.431 220.934 117.632C221.309 116.928 221.5 116.57 221.753 116.098C222.011 116.32 222.206 116.657 222.412 117.121Z" fill="#004C91"/>
<path d="M203.427 102.178C203.431 102.547 203.328 102.897 203.224 103.246C203.011 103.122 202.797 102.997 202.562 102.739C202.8 102.457 203.059 102.308 203.427 102.178Z" fill="#004C91"/>
<path d="M208.244 103.454C208.275 103.145 208.366 102.933 208.495 102.609C208.677 102.517 208.821 102.536 209.072 102.58C208.887 102.921 208.596 103.237 208.244 103.454Z" fill="#004C91"/>
<path d="M187.045 113.104C186.965 112.655 186.982 112.116 187.105 111.553C187.189 112.024 187.166 112.519 187.045 113.104Z" fill="#004C91"/>
<path d="M224.419 125.686C224.284 125.485 224.169 125.146 224.093 124.691C224.234 124.899 224.336 125.223 224.419 125.686Z" fill="#004C91"/>
<path d="M198.173 153.918C198.081 154.144 197.939 154.273 197.704 154.412C197.599 154.241 197.587 154.059 197.593 153.742C197.782 153.678 197.953 153.75 198.173 153.918Z" fill="#004C91"/>
<path d="M211.527 103.215C211.445 103.31 211.347 103.256 211.223 103.066C211.284 103.025 211.389 103.069 211.527 103.215Z" fill="#004C91"/>
<path d="M225.728 136.741C225.632 136.79 225.557 136.703 225.484 136.49C225.548 136.477 225.636 136.557 225.728 136.741Z" fill="#004C91"/>
<path d="M225.097 128.983C225.094 129.094 224.94 129.091 224.862 129.083C224.787 129 224.79 128.924 224.803 128.735C224.91 128.705 225.005 128.789 225.097 128.983Z" fill="#004C91"/>
<path d="M220.749 113.045C220.652 113.095 220.577 113.009 220.506 112.796C220.571 112.783 220.658 112.863 220.749 113.045Z" fill="#004C91"/>
<path d="M30.2146 158.917C30.2146 138.315 30.2146 117.918 30.2146 97.3263C33.6323 97.0404 36.5406 98.1463 39.1354 100.647C43.7608 105.104 45.955 111.354 47.4521 118.032C48.9322 124.634 49.5024 131.425 49.1054 138.252C48.6472 146.13 46.9823 153.656 42.9995 159.999C39.8998 164.937 35.8821 168.193 30.2146 167.82C30.2146 164.913 30.2146 162.017 30.2146 158.917Z" fill="none"/>
<path d="M816.97 154.62C814.616 159.304 812.329 163.86 809.822 168.854C812.888 172.535 816.099 176.56 819.462 180.383C822.936 184.334 823.323 190.03 820.197 193.891C817.046 197.782 812.402 197.178 809.109 192.865C806.011 188.807 802.615 185.095 799.51 181.421C795.333 184.438 791.123 187.815 786.673 190.612C780.53 194.474 773.916 196.693 767.059 197.686C765.981 197.842 765.678 198.281 765.701 199.567C765.807 205.347 765.815 211.131 765.911 216.912C765.993 221.803 762.777 225.942 758.75 226.027C754.603 226.114 751.342 222.165 751.345 217.073C751.349 210.816 751.346 204.56 751.346 198.082C739.044 196.169 727.939 190.566 718.073 181.055C714.538 185.397 711.133 189.759 707.547 193.882C706.389 195.213 704.844 196.334 703.322 196.821C700.219 197.814 697.199 196.204 695.949 193.417C694.223 189.571 694.696 184.94 697.23 181.732C700.277 177.875 703.379 174.085 706.455 170.263C706.881 169.734 707.293 169.189 707.672 168.702C705.653 164.888 703.536 161.245 701.723 157.386C697.386 148.158 694.725 138.192 693.656 127.613C693.51 126.168 693.073 125.837 691.988 125.851C687.229 125.911 682.47 125.897 677.711 125.869C676.836 125.863 675.928 125.812 675.091 125.531C671.532 124.341 668.927 120.041 669.371 116.228C669.875 111.908 673.232 108.28 676.925 108.238C682.343 108.175 687.762 108.222 693.342 108.222C694.783 92.6948 699.345 78.7493 707.283 66.1828C703.69 61.8269 700.105 57.4879 696.527 53.1394C694.596 50.7922 693.695 47.933 694.059 44.6247C694.406 41.4703 695.547 38.9352 698.257 37.9679C701.319 36.8754 704.081 37.5013 706.378 40.2945C709.604 44.2194 712.777 48.211 715.962 52.1873C716.346 52.6671 716.663 53.2288 717.09 53.8712C727.254 43.9267 738.579 38.1407 751.425 36.3463C751.425 35.6547 751.428 34.9968 751.425 34.339C751.399 28.6207 751.38 22.9024 751.345 17.1842C751.311 11.8196 754.732 7.83675 759.145 8.12614C763.229 8.39401 766.083 12.9757 765.874 18.1104C765.63 24.0784 765.817 30.0731 765.817 36.3268C778.503 38.1561 789.945 43.9324 799.864 53.7465C803.266 49.6637 806.643 45.6582 809.973 41.5959C811.818 39.3461 813.995 38.2162 816.566 38.5794C819.134 38.9421 821.239 40.2737 822.089 43.5746C823.069 47.3804 822.598 50.8696 820.341 53.8072C817.491 57.5175 814.564 61.139 811.673 64.8018C811.252 65.3353 810.845 65.8853 810.326 66.565C818.064 78.833 822.664 92.6877 824.141 108.243C828.4 108.243 832.596 108.234 836.792 108.252C837.562 108.255 838.354 108.251 839.098 108.456C842.663 109.443 845.616 113.81 845.329 117.577C844.988 122.035 841.601 125.84 837.707 125.939C833.835 126.037 829.961 125.957 826.087 125.955C825.484 125.955 824.88 125.955 824.101 125.955C823.077 136.019 820.798 145.541 816.97 154.62ZM763.121 90.6664C765.534 91.7417 767.946 92.8169 770.087 93.7714C775.091 87.6233 780.147 81.4109 785.236 75.1572C778.766 68.8165 771.267 64.9509 762.665 63.8281C762.665 64.6043 762.665 65.2729 762.665 65.9415C762.665 73.4837 762.661 81.0259 762.673 88.5681C762.674 89.2324 762.785 89.8964 763.121 90.6664ZM775.039 146.77C773.248 144.474 771.457 142.178 769.872 140.147C767.719 141.181 766.017 142.21 764.22 142.789C763.018 143.176 762.653 143.71 762.667 145.22C762.731 152.702 762.696 160.185 762.696 167.668C762.696 168.302 762.696 168.937 762.696 169.725C771.089 168.638 778.308 164.986 784.696 158.877C781.469 154.831 778.337 150.902 775.039 146.77ZM717.216 131.293C718.859 138.174 721.363 144.494 724.984 149.904C730.157 143.569 735.202 137.39 740.176 131.298C739.471 129.288 738.642 127.282 738.074 125.17C737.709 123.813 737.186 123.456 736.075 123.469C729.829 123.536 723.583 123.499 717.337 123.507C716.919 123.508 716.502 123.594 715.874 123.663C716.326 126.217 716.746 128.592 717.216 131.293ZM720.601 92.6516C718.281 98.4045 716.681 104.415 716.171 110.982C723.392 110.982 730.5 110.982 737.536 110.982C738.358 108.439 739.165 105.942 740.02 103.294C734.95 97.201 729.831 91.0493 724.667 84.8441C724.411 85.2557 724.045 85.7585 723.758 86.3226C722.735 88.3352 721.738 90.3687 720.601 92.6516ZM779.725 100.847C777.677 102.544 777.144 104.6 778.629 107.249C778.961 107.842 779.159 108.628 779.225 109.351C779.355 110.776 779.981 111.028 781.026 111.019C787.278 110.967 793.53 110.996 799.782 110.988C800.208 110.988 800.635 110.915 801.164 110.867C800.216 101.179 797.471 92.5385 792.975 85.1251C788.568 90.3517 784.229 95.4962 779.725 100.847ZM785.752 123.684C783.66 123.684 781.569 123.684 779.59 123.684C778.676 126.224 777.836 128.559 777.103 130.598C782.223 136.887 787.284 143.103 792.408 149.396C797.06 141.931 799.983 133.421 801.017 123.684C795.89 123.684 790.987 123.684 785.752 123.684ZM745.78 66.0453C740.685 67.9695 736.059 70.9387 731.92 75.1935C737.149 81.5304 742.223 87.6786 747.299 93.8291C748.498 93.1365 749.75 92.2221 751.101 91.6931C752.185 91.2691 752.377 90.5813 752.37 89.3348C752.329 81.5777 752.351 73.8201 752.346 66.0627C752.345 65.4733 752.298 64.8839 752.263 64.0558C750.085 64.7018 748.053 65.3043 745.78 66.0453ZM735.424 161.608C740.588 165.678 746.178 168.325 752.381 169.404C752.381 160.577 752.388 151.891 752.355 143.205C752.353 142.864 752.029 142.366 751.755 142.213C750.467 141.493 749.143 140.868 748.25 140.42C742.966 146.76 737.834 152.916 732.616 159.176C733.521 159.96 734.374 160.699 735.424 161.608Z" fill="#CE173B"/>
<path d="M384.174 164.608C382.511 167.473 380.119 168.39 377.582 168.674C375.56 168.9 373.508 168.719 371.048 168.719C370.682 161.269 370.987 153.915 370.858 146.329C374.578 146.254 378.2 145.704 381.634 147.587C384.599 149.213 386.594 154.955 385.724 159.435C385.389 161.161 384.727 162.792 384.174 164.608Z" fill="none"/>
<path d="M379.346 98.1353C381.591 99.7744 383.038 104.614 382.407 108.054C382.276 108.772 382.158 109.494 382.012 110.207C381.059 114.85 379.161 115.767 375.841 116.375C374.285 116.659 372.666 116.423 370.879 116.423C370.879 113.123 370.879 110.015 370.879 106.908C370.879 103.786 370.879 100.664 370.879 97.2579C373.751 97.3817 376.534 96.6732 379.346 98.1353Z" fill="none"/>
<path d="M452.58 166.997C450.833 162.717 450.123 158.192 449.987 153.686C449.816 147.998 451.006 142.502 453.326 137.51C453.856 136.37 454.752 135.409 455.627 134.612C456.768 133.574 458.323 133.992 459.614 135.543C462.061 138.485 463.101 142.287 463.846 146.263C465.058 152.735 464.404 159.124 463.099 165.416C462.693 167.373 461.87 169.384 460.803 170.907C458.808 173.755 456.402 173.279 454.033 169.846C453.472 169.033 453.07 168.054 452.58 166.997Z" fill="none"/>
<path d="M220.147 115.324C220.321 115.274 220.505 115.343 220.745 115.513C220.586 115.556 220.372 115.5 220.147 115.324Z" fill="#004C91"/>
<path d="M120.813 140.941C117.24 140.941 113.828 140.941 110.219 140.941C110.363 137.059 110.782 133.506 112.821 130.655C115.256 127.249 119.446 128.178 121.225 132.649C122.21 135.124 122.689 137.904 123.501 140.941C122.367 140.941 121.67 140.941 120.813 140.941Z" fill="white"/>
<path d="M762.983 90.6135C762.785 89.8964 762.674 89.2325 762.673 88.5682C762.661 81.026 762.665 73.4838 762.665 65.9415C762.665 65.2729 762.665 64.6043 762.665 63.8281C771.267 64.951 778.766 68.8165 785.237 75.1573C780.147 81.411 775.091 87.6234 770.087 93.7715C767.946 92.817 765.534 91.7417 762.983 90.6135Z" fill="#FFFEFE"/>
<path d="M775.122 146.871C778.337 150.902 781.469 154.831 784.696 158.877C778.308 164.986 771.089 168.638 762.696 169.725C762.696 168.937 762.696 168.302 762.696 167.668C762.696 160.185 762.732 152.701 762.667 145.219C762.654 143.709 763.018 143.176 764.22 142.789C766.018 142.21 767.719 141.181 769.872 140.147C771.457 142.178 773.248 144.474 775.122 146.871Z" fill="#FFFDFD"/>
<path d="M717.191 131.13C716.746 128.592 716.326 126.217 715.875 123.663C716.502 123.594 716.92 123.508 717.337 123.507C723.583 123.499 729.83 123.536 736.075 123.469C737.186 123.456 737.71 123.813 738.074 125.169C738.642 127.282 739.472 129.288 740.176 131.298C735.202 137.39 730.157 143.569 724.985 149.904C721.363 144.494 718.86 138.174 717.191 131.13Z" fill="#FEFCFC"/>
<path d="M720.666 92.5228C721.738 90.3685 722.735 88.3351 723.758 86.3225C724.045 85.7584 724.411 85.2556 724.667 84.844C729.831 91.0491 734.95 97.2008 740.02 103.294C739.165 105.941 738.358 108.439 737.536 110.982C730.5 110.982 723.392 110.982 716.171 110.982C716.681 104.415 718.281 98.4043 720.666 92.5228Z" fill="#FFFDFD"/>
<path d="M779.808 100.744C784.229 95.4961 788.568 90.3516 792.975 85.125C797.471 92.5384 800.216 101.178 801.164 110.867C800.635 110.915 800.208 110.988 799.782 110.988C793.53 110.996 787.277 110.967 781.026 111.019C779.981 111.028 779.355 110.776 779.225 109.351C779.159 108.627 778.961 107.842 778.628 107.249C777.144 104.6 777.677 102.544 779.808 100.744Z" fill="#FEFBFC"/>
<path d="M785.918 123.684C790.987 123.684 795.89 123.684 801.017 123.684C799.983 133.421 797.06 141.931 792.408 149.396C787.284 143.103 782.223 136.887 777.103 130.598C777.836 128.559 778.676 126.223 779.59 123.684C781.569 123.684 783.66 123.684 785.918 123.684Z" fill="#FFFEFE"/>
<path d="M745.901 65.976C748.053 65.3042 750.085 64.7016 752.263 64.0557C752.298 64.8838 752.346 65.4731 752.346 66.0626C752.351 73.82 752.329 81.5776 752.37 89.3346C752.377 90.5811 752.185 91.269 751.102 91.693C749.75 92.222 748.498 93.1363 747.299 93.829C742.224 87.6785 737.15 81.5303 731.92 75.1933C736.06 70.9386 740.685 67.9694 745.901 65.976Z" fill="#FEFCFD"/>
<path d="M735.325 161.523C734.374 160.699 733.522 159.96 732.616 159.176C737.834 152.916 742.966 146.76 748.25 140.42C749.144 140.868 750.467 141.493 751.755 142.213C752.029 142.366 752.354 142.864 752.355 143.205C752.388 151.891 752.381 160.577 752.381 169.404C746.179 168.325 740.588 165.678 735.325 161.523Z" fill="#FFFDFE"/>
</g>
<defs>
<clipPath id="clip0_10_64">
<rect width="850" height="230" fill="none"/>
</clipPath>
</defs>
</svg>
