<svg width="850" height="200" viewBox="0 0 850 200" fill="none" xmlns="http://www.w3.org/2000/svg">
<g clip-path="url(#clip0_10_194)">
<rect width="850" height="200" fill="none"/>
<path d="M57.0208 50.1548L-0.354248 100.31L56.8083 150.279C88.2583 177.771 114.183 200.124 114.396 199.938C114.608 199.752 114.679 154.675 114.608 99.8142L114.396 -5.09089e-05L57.0208 50.1548Z" fill="#DB0011"/>
<path d="M126.792 10.3405C133.237 16.0991 158.879 38.6378 183.812 60.5573L229.146 100.31L172.125 150.155L115.104 200H229.146H343.187L286.167 150.155L229.146 100.31L243.667 87.4922C251.671 80.3715 277.312 57.8328 300.687 37.2755L343.187 -1.84774e-05H229.146H115.104L126.792 10.3405Z" fill="#DB0011"/>
<path d="M343.542 99.8762C343.542 154.923 343.754 200 344.108 200C344.533 200 366.704 180.619 433.642 121.672L458.292 100L400.917 49.8452L343.542 -0.309604V99.8762Z" fill="#DB0011"/>
<path d="M621.421 56.9041C608.033 58.8236 599.25 63.5914 595 71.3933C590.042 80.3716 592.167 90.8979 600.1 96.9041C605.483 100.929 609.804 102.539 631.833 108.359C635.942 109.412 640.475 110.96 641.892 111.827C649.046 115.851 647.842 123.901 639.483 127.864C634.667 130.155 626.379 130.774 621.562 129.164C616.25 127.368 612 122.105 612 117.152C612 115.79 611.929 115.79 601.304 115.79H590.537L590.962 120.248C591.529 126.006 595.142 132.632 599.462 135.975C606.121 141.053 615.825 143.653 628.433 143.653C644.512 143.653 657.05 139.381 663.85 131.579C667.604 127.245 668.95 123.344 668.95 116.966C668.95 112.198 668.737 111.208 666.612 107.492C662.717 100.557 657.333 97.8329 636.437 91.9505C617.312 86.6255 614.408 84.9536 614.55 79.5047C614.692 73.9939 619.933 70.093 628.008 69.4738C636.083 68.9165 642.246 72.3221 643.946 78.3282L644.725 81.1146H655.421H666.046L665.55 77.3375C664.417 67.4923 657.475 60.7431 645.646 57.8948C640.758 56.7803 626.804 56.1611 621.421 56.9041Z" fill="black"/>
<path d="M799 57.3375C787.029 59.5666 776.546 66.7493 771.375 76.223C767.833 82.7864 766.487 87.3065 765.779 94.7369C764.008 114.985 770.525 130.464 784.196 138.142C795.954 144.706 819.117 145.573 832.717 139.938C838.029 137.709 843.058 133.87 845.467 130.279C847.521 127.183 850 120.805 850 118.514V117.028H839.021H828.112L827.404 119.319C826.271 123.034 823.579 125.882 819.471 127.802C816.354 129.35 814.937 129.598 810.617 129.598C796.025 129.598 787.454 118.885 787.525 100.619C787.596 89.7214 790.429 81.9815 796.379 76.3468C800.912 72.0124 803.887 70.8979 811.042 70.8979C815.575 70.8979 817.771 71.2075 819.825 72.0744C823.154 73.5604 826.483 77.4613 827.05 80.6192L827.546 82.9722H838.737H850V81.548C850 79.0093 847.875 72.8174 845.962 70.031C841.783 63.8391 833.567 59.1951 823.437 57.2756C817.275 56.161 805.092 56.161 799 57.3375Z" fill="black"/>
<path d="M495.833 100V142.415H506.458H517.083V124.458V106.502H537.271H557.458V124.458V142.477L568.296 142.291L579.062 142.105V100V57.8948L568.296 57.709L557.458 57.5232V74.9226V92.2601H537.271H517.083V74.9226V57.5852H506.458H495.833V100Z" fill="black"/>
<path d="M680 100.371V142.539L704.296 142.229C731.071 141.919 734.896 141.486 742.971 138.018C752.321 133.994 756.642 127.802 756.642 118.514C756.642 108.607 750.762 102.105 738.933 99.0092L735.887 98.2661L739.217 97.1516C745.592 94.9844 750.054 91.3311 752.321 86.3776C752.746 85.325 753.1 82.2909 753.171 79.5045C753.171 75.4797 752.817 73.8698 751.4 71.1454C749.275 67.0587 745.379 63.5912 740.633 61.4859C734.187 58.6376 729.725 58.2042 703.942 58.2042H680V100.371ZM722.925 72.1361C727.954 73.4364 731.071 76.4085 731.567 80.4333C731.992 84.3962 731.425 86.1299 729.158 88.5448C726.042 91.7027 723.279 92.3838 711.733 92.7553L701.25 93.003V82.1051V71.2073H710.317C716.267 71.2073 720.658 71.5169 722.925 72.1361ZM728.096 107.121C732.487 109.288 734.117 111.888 734.117 116.966C734.187 121.981 732.275 125.077 728.025 126.997C724.837 128.421 716.479 129.412 707.129 129.412H700.542V117.275V105.139L712.796 105.387C724.271 105.573 725.192 105.696 728.096 107.121Z" fill="black"/>
</g>
<defs>
<clipPath id="clip0_10_194">
<rect width="850" height="200" fill="none"/>
</clipPath>
</defs>
</svg>
