<svg width="850" height="260" viewBox="0 0 850 260" fill="none" xmlns="http://www.w3.org/2000/svg">
<g clip-path="url(#clip0_10_14)">
<path d="M82.6253 217.399C82.5604 233.697 71.9663 241.912 58.2218 241.88C42.0016 241.839 33.8756 233.449 33.95 216.981C33.9989 200.531 46.3218 193.456 58.8306 193.48C75.2483 193.523 82.6763 201.929 82.6253 217.399ZM111.466 216.35C111.571 188.799 91.7149 176.16 60.8366 176.095C27.8173 176.022 5.19556 194.017 5.09144 219.019C4.99156 247.571 24.872 259.395 55.7206 259.457C88.3383 259.534 111.366 241.496 111.466 216.35ZM188.812 216.441C188.763 230.099 179.976 242.646 165.358 242.623C152.7 242.582 146.798 234.858 146.852 219.873C146.921 200.085 158.34 192.711 174.284 192.744C179.128 192.744 183.92 193.236 188.897 194.095L188.812 216.441ZM191.767 258.16L216.717 258.214L217.141 140.506L189.081 140.437L188.949 177C184.205 176.498 179.854 176.347 175.216 176.347C139.203 176.269 117.719 194.873 117.616 221.936C117.534 244.787 130.516 259.626 157.014 259.674C173.603 259.716 185.653 253.464 191.363 244.606L191.822 244.621L191.767 258.16ZM294.849 207.649L254.871 207.574C256.401 197.911 264.541 191.633 276.132 191.658C287.895 191.683 295.324 197.656 294.849 207.649ZM321.667 221.725C322.328 218.331 322.582 215.098 322.598 212.374C322.665 192.552 308.751 176.629 277.07 176.562C244.487 176.488 226.081 194.456 225.976 218.928C225.878 247.073 245.067 259.867 279.565 259.941C293.146 259.969 306.914 258.195 318.448 254.871L315.918 238.904C306.534 242.113 294.947 243.86 284.253 243.839C264.131 243.793 254.105 236.533 254.409 221.578L321.667 221.725ZM392.822 225.077C392.79 234.749 383.358 244.368 369.573 244.347C361.503 244.314 356.745 240.924 356.761 235.782C356.778 229.335 363.353 223.071 392.821 223.138V225.077H392.822ZM396.018 258.589L420.732 258.637C420.732 257.018 420.713 242.869 420.713 242.869L420.86 204.673C420.915 187.154 411.143 176.841 376.199 176.767C362.226 176.744 348.222 178.764 337.279 181.637L339.625 198.882C348.801 195.045 361.958 192.645 371.743 192.657C387.468 192.698 392.922 197.069 392.888 205.451L392.871 209.776C355.974 209.695 330.137 219.794 330.07 238.945C330.02 251.816 341.374 260.075 360.968 260.116C377.201 260.154 390.523 253.912 395.807 244.877H396.063L396.018 258.589ZM507.202 216.804C507.137 236.593 495.748 243.998 479.811 243.954C473.925 243.946 469.343 243.437 465.36 242.471L465.448 219.926C465.496 206.56 474.282 194.198 488.697 194.222C501.409 194.263 507.256 201.822 507.202 216.804ZM536.723 214.745C536.832 191.093 522.874 177.093 496.879 177.024C482.847 177 471.597 181.56 465.567 188.98L465.611 175.642L465.7 151.079L465.732 141.028L437.686 140.965L437.261 256.407C449.686 258.995 462.027 260.33 477.746 260.368C515.14 260.454 536.644 241.791 536.723 214.745ZM603.978 225.547C603.943 235.202 594.517 244.824 580.765 244.8C572.675 244.776 567.86 241.394 567.881 236.236C567.896 229.806 574.506 223.524 603.978 223.59V225.547ZM607.124 259.04L631.868 259.095C631.868 257.472 631.812 243.32 631.812 243.32L631.963 205.125C632.019 187.607 622.3 177.302 587.344 177.225C573.384 177.196 559.346 179.218 548.367 182.094L550.748 199.338C559.959 195.494 573.039 193.097 582.89 193.122C598.625 193.146 604.079 197.528 604.043 205.9L604.028 210.226C567.128 210.148 541.264 220.245 541.192 239.399C541.145 252.266 552.464 260.525 572.119 260.563C588.3 260.608 601.677 254.366 606.964 245.335H607.166L607.124 259.04ZM711.759 259.274L739.835 259.326L740.037 203.121C740.092 189.135 731.963 177.533 707.499 177.484C689.816 177.443 677.099 183.984 670.495 193.483L670.292 193.301L670.341 178.971L645.53 178.928L645.372 259.13L673.404 259.18L673.539 220.534C673.588 206.535 684.47 194.651 698.655 194.674C708.923 194.698 711.98 199.687 711.948 208.043L711.759 259.274ZM809.092 216.001L847.586 179.356L813.546 179.282L781.543 212.744L781.792 141.723L753.805 141.657L753.377 259.36L781.369 259.419L781.51 219.785L815.02 259.492L850 259.573L809.092 216.001Z" fill="black"/>
<path d="M429.262 56.2116C429.111 42.0594 436.433 28.7084 449.809 18.624C454.312 15.2315 459.344 12.3597 464.738 9.98659C453.952 5.43064 441.547 2.81273 428.259 2.88094C415.479 2.94233 403.494 5.45489 393.095 9.80544C393.455 9.94718 393.724 10.0662 394.047 10.1912L362.762 34.5232C358.764 41.2166 356.588 48.5822 356.627 56.3548C356.644 59.4464 357.103 62.4888 357.814 65.4592L412.762 22.6759C418.301 27.9345 422.532 33.9245 425.187 40.467L368.177 84.7873C372.804 90.0595 378.669 94.6677 385.429 98.4248L426.726 66.2724C422.636 81.397 409.923 94.2137 392.449 101.853C403.257 106.49 415.804 109.141 429.245 109.093C442.302 109.027 454.571 106.384 465.087 101.814C443.821 92.6842 429.45 75.6829 429.262 56.2116Z" fill="black"/>
<path d="M457.746 56.082C457.898 70.2865 470.528 82.302 487.728 86.432C496.058 77.6885 500.902 67.0865 500.802 55.6409C500.711 44.34 495.803 33.9146 487.559 25.3431C481.067 26.9083 475.16 29.602 470.189 33.3166C462.096 39.4036 457.716 47.4688 457.746 56.082Z" fill="black"/>
<path d="M500.665 2.78847H500.303C487.603 2.86427 475.441 5.36242 464.734 9.98735C473.774 13.846 481.54 19.0924 487.556 25.3446C491.687 24.3722 496.036 23.8182 500.537 23.7916H500.741C524.348 23.7666 543.64 38.0461 543.794 55.6575C543.998 73.3531 524.841 87.8183 501.136 87.96H500.935C496.328 87.96 491.907 87.4249 487.731 86.4335C481.798 92.6728 474.098 97.939 465.088 101.816C475.663 106.373 487.896 108.982 500.989 108.971L501.291 108.95C540.79 108.765 572.62 84.7865 572.333 55.5128C572.074 26.3914 539.923 2.72102 500.665 2.78847Z" fill="black"/>
<path d="M393.095 9.80691C385.939 6.57962 378.002 4.21107 369.505 2.94153L284.243 69.2753C286.569 75.7094 290.428 81.6547 295.526 86.8958L362.763 34.5247C369.063 24.0993 379.753 15.4149 393.095 9.80691Z" fill="black"/>
<path d="M313.507 99.9088C320.953 103.674 329.331 106.448 338.403 107.994L368.179 84.7895C363.115 79.0261 359.514 72.4617 357.814 65.4561L313.507 99.9088Z" fill="black"/>
<path d="M284.173 42.3702L332.896 4.4082C308.968 9.97524 290.407 24.3359 284.173 42.3702Z" fill="black"/>
<path d="M373.501 107.718C380.252 106.409 386.623 104.429 392.45 101.853C390.006 100.821 387.642 99.6776 385.437 98.4202L373.501 107.718Z" fill="black"/>
</g>
<defs>
<clipPath id="clip0_10_14">
<rect width="850" height="260" fill="white"/>
</clipPath>
</defs>
</svg>
