<svg width="472" height="268" viewBox="0 0 472 268" fill="none" xmlns="http://www.w3.org/2000/svg">
<rect width="472" height="268" rx="20" fill="#F33E33"/>
<g clip-path="url(#clip0_1_873)">
<path opacity="0.6" d="M123.937 71.002C126.915 70.284 129.956 69.6993 133.019 69.3816L133.593 69.3195C133.784 69.2998 133.975 69.2866 134.167 69.2698L135.314 69.1748L136.46 69.1071C136.651 69.0969 136.842 69.0822 137.033 69.0757L137.604 69.0552C139.13 68.9883 140.645 68.9935 142.155 69.0076L143.353 69.0366L143.952 69.0519L144.548 69.0761L145.742 69.1243L146.936 69.1952L147.533 69.2319L148.125 69.2823C148.519 69.3172 148.915 69.3461 149.308 69.3854C150.09 69.472 150.877 69.5441 151.649 69.6495C152.516 69.7512 153.369 69.8849 154.225 70.0121L155.498 70.2242C155.923 70.2938 156.341 70.3774 156.762 70.4534C158.443 70.7684 160.103 71.1223 161.748 71.4978C162.162 71.5885 162.569 71.688 162.979 71.7839C163.389 71.8802 163.799 71.9766 164.205 72.0779L166.651 72.6729C167.465 72.8722 168.286 73.0619 169.095 73.2672L171.526 73.8773C171.639 73.9057 171.738 73.9539 171.815 74.0181C171.892 74.0822 171.945 74.1605 171.97 74.2467C171.995 74.3329 171.991 74.4245 171.959 74.5141C171.926 74.6038 171.866 74.689 171.783 74.763L171.744 74.7969C170.26 76.1037 168.814 77.4304 167.526 78.8347L167.465 78.9003L167.45 78.9167C167.45 78.9167 167.442 78.9252 167.446 78.9218L167.457 78.9097C167.497 78.8622 167.524 78.8105 167.537 78.7576C167.55 78.7046 167.549 78.6515 167.534 78.6012C167.51 78.5241 167.453 78.4571 167.371 78.4096C167.282 78.359 167.17 78.3327 167.051 78.3347C167.022 78.3342 166.993 78.3363 166.965 78.3409C166.939 78.3434 166.914 78.348 166.889 78.3546L166.98 78.332L167.187 78.2811L167.603 78.1783C168.157 78.0431 168.712 77.9118 169.268 77.7844C170.381 77.5301 171.498 77.2927 172.62 77.0721C173.741 76.8495 174.865 76.6438 175.993 76.455C177.119 76.2594 178.249 76.0816 179.381 75.9215C180.535 75.7445 181.695 75.6192 182.854 75.5465C184.075 75.4661 185.284 75.5273 186.435 75.7277L185.306 76.8047L183.82 75.1034C183.154 74.3568 182.53 73.5887 181.891 72.8285L180.933 71.6874L180.455 71.1167L179.96 70.5543C178.634 69.0579 177.257 67.5876 175.932 66.0908L173.936 63.8497L172.938 62.7291L172.439 62.1687L172.408 62.1337L172.392 62.1162L172.388 62.1118C172.407 63.1371 175.052 61.0558 174.061 61.4262L174.065 61.4368L174.103 61.5224L174.178 61.6935C174.231 61.807 174.273 61.9234 174.318 62.0391C174.502 62.5006 174.647 62.9729 174.753 63.4535C174.862 63.9341 174.926 64.4231 174.944 64.9173C174.973 65.9082 174.841 66.9116 174.55 67.9068C174.515 68.024 174.442 68.1363 174.337 68.2339C174.232 68.3314 174.098 68.4111 173.948 68.4658C173.797 68.5205 173.635 68.5485 173.474 68.5473C173.314 68.5461 173.162 68.5158 173.03 68.459L173.019 68.4537C172.484 68.2194 171.959 67.9733 171.413 67.7509C171.142 67.6379 170.873 67.522 170.599 67.4113L170.392 67.3303C170.402 67.3153 170.391 67.3245 170.392 67.3205L170.385 67.3176L170.373 67.312L170.348 67.3007L170.298 67.2781L170.199 67.2328L169.8 67.0517C169.273 66.8052 168.716 66.592 168.159 66.3798C167.6 66.1692 167.028 65.9753 166.447 65.7935C165.294 65.4177 164.113 65.08 162.926 64.7538C162.327 64.5985 161.734 64.4353 161.128 64.292C160.825 64.2189 160.525 64.1429 160.222 64.0721L159.309 63.8635C159.006 63.7911 158.7 63.725 158.394 63.6597L157.475 63.4623L156.549 63.2783L156.086 63.1862L155.619 63.1012L154.686 62.9311L153.748 62.7715C153.124 62.6605 152.491 62.5715 151.862 62.4722C149.335 62.1011 146.768 61.8291 144.171 61.6573C141.094 61.4586 137.982 61.3992 134.851 61.4797C131.887 61.571 129.957 61.6476 128.746 61.6309C127.864 61.6177 127.853 61.5023 128.605 61.3117C129.16 61.1767 129.723 61.0691 130.289 60.9896C130.475 60.9621 130.672 60.9331 130.879 60.9024C131.086 60.8722 131.304 60.8502 131.533 60.821C131.99 60.771 132.489 60.714 133.027 60.6755C134.389 60.5575 135.813 60.4968 137.245 60.4607C138.676 60.4302 140.112 60.4465 141.502 60.4878C144.42 60.5876 147.31 60.8054 150.158 61.1402L150.692 61.2019L151.223 61.2715L152.284 61.4118C152.987 61.5157 153.693 61.6133 154.39 61.7308C155.789 61.9533 157.169 62.2181 158.538 62.5033C161.273 63.0787 163.941 63.7751 166.528 64.5888C167.172 64.7965 167.816 65.0033 168.452 65.2222C168.774 65.3262 169.098 65.4278 169.414 65.5391L169.653 65.6209C169.692 65.6355 169.733 65.6484 169.774 65.6597L169.892 65.7023C170.053 65.7552 170.217 65.8043 170.379 65.8555L171.342 66.1758L171.358 66.1808C171.362 66.179 171.358 66.1884 171.37 66.1774L171.377 66.1802L171.407 66.1913L171.465 66.2136L171.582 66.2579C171.661 66.2867 171.737 66.3179 171.814 66.3486L172.277 66.5332C172.897 66.7743 173.5 67.0371 174.108 67.293L172.757 67.7757C172.855 67.3945 172.935 67.0126 172.987 66.6307C173.037 66.2488 173.058 65.8676 173.058 65.4886C173.053 64.879 172.991 64.2751 172.872 63.681C172.837 63.533 172.809 63.3831 172.765 63.2366L172.704 63.0157L172.634 62.7972L172.561 62.579L172.477 62.3643C172.45 62.2923 172.416 62.2227 172.385 62.1518L172.339 62.0459L172.316 61.993L172.31 61.9797C172.346 61.9262 172.251 62.1661 172.3 61.5954C172.341 61.489 172.415 61.3885 172.517 61.3023C172.619 61.2161 172.745 61.1468 172.884 61.1004C173.024 61.054 173.174 61.0317 173.32 61.0356C173.466 61.0394 173.604 61.0692 173.724 61.1225C174.212 61.4724 173.86 61.2203 173.969 61.2988L173.971 61.3003L173.976 61.3064L173.998 61.3307C174.918 62.3669 175.822 63.4019 176.669 64.4153C178.322 66.3633 179.928 68.341 181.621 70.2763C182.483 71.2358 183.364 72.1865 184.239 73.1406L184.57 73.497L184.891 73.8586L185.533 74.5813L186.819 76.0265C186.906 76.1246 186.946 76.2436 186.934 76.3672C186.921 76.4908 186.857 76.613 186.75 76.7171C186.642 76.8212 186.497 76.9021 186.334 76.9487C186.17 76.9953 185.997 77.0054 185.837 76.9775L185.824 76.9752C184.871 76.8164 183.875 76.7637 182.868 76.8187C181.813 76.8768 180.756 76.9791 179.703 77.1253C178.627 77.2642 177.553 77.4182 176.48 77.5871C175.408 77.7571 174.34 77.9486 173.274 78.1503C172.144 78.3646 171.017 78.6019 169.894 78.8548C169.332 78.981 168.772 79.1123 168.213 79.2485C167.933 79.3155 167.654 79.3861 167.375 79.4559L167.271 79.4816C167.271 79.4816 167.193 79.5001 167.141 79.5091C167.083 79.5197 167.025 79.5267 166.966 79.5298C166.722 79.5446 166.487 79.4994 166.299 79.4015C166.118 79.3061 165.99 79.1671 165.935 79.0048C165.878 78.8372 165.902 78.6539 166.004 78.4842C166.028 78.4443 166.056 78.4055 166.088 78.3682L166.111 78.3406L166.121 78.33L166.137 78.3125L166.202 78.2426L166.332 78.1026L166.595 77.8237C166.771 77.6384 166.95 77.454 167.131 77.2706C167.492 76.9038 167.863 76.5413 168.242 76.183C168.432 76.004 168.624 75.826 168.817 75.649L169.11 75.3847L169.413 75.1261C169.818 74.7825 170.232 74.444 170.653 74.1105L170.847 74.928L166.105 73.5396L164.913 73.2047C164.515 73.0942 164.111 72.9927 163.711 72.8863C163.311 72.7796 162.908 72.6781 162.505 72.5765C162.102 72.4753 161.7 72.3704 161.295 72.2745C159.642 71.8624 157.961 71.5028 156.267 71.1739C155.422 71.0056 154.565 70.8622 153.71 70.716L152.418 70.5178C151.988 70.451 151.551 70.4006 151.118 70.3412C150.901 70.3135 150.685 70.2815 150.466 70.2574L149.81 70.1858C149.373 70.1392 148.936 70.0875 148.494 70.0554C148.053 70.0203 147.613 69.9794 147.171 69.949L145.84 69.8726C145.396 69.8478 144.945 69.8374 144.498 69.8191L143.826 69.7943L143.153 69.7795C142.704 69.7716 142.255 69.7585 141.806 69.7548L140.455 69.7521C138.654 69.7647 136.846 69.8306 135.038 69.9713L133.682 70.0906L132.328 70.2433C131.426 70.36 130.523 70.476 129.625 70.628C127.827 70.9213 126.038 71.2834 124.263 71.7032C123.377 71.9185 122.49 72.1329 121.613 72.3801C120.732 72.6141 119.859 72.8713 118.984 73.1228C118.939 73.1358 118.894 73.1489 118.85 73.1613C118.751 73.1898 118.644 73.1899 118.554 73.1609C118.464 73.132 118.398 73.0767 118.37 73.0072C118.353 72.9629 118.352 72.9148 118.366 72.8674C118.381 72.8199 118.412 72.7746 118.455 72.7355C120.36 71.0415 121.886 69.2189 123.201 67.4269C123.859 66.5299 124.457 65.6357 125.027 64.7584L125.448 64.1031L125.654 63.7779C125.719 63.6693 125.777 63.56 125.839 63.4516L126.204 62.8043C126.262 62.6949 126.329 62.5877 126.406 62.4834C126.487 62.3815 126.582 62.2851 126.689 62.196C126.859 62.0562 127.063 61.9404 127.287 61.8557C127.438 61.798 127.599 61.759 127.762 61.7406C127.852 61.7275 127.942 61.7284 128.027 61.7431C128.078 61.7544 128.095 61.7716 128.079 61.7934C128.048 61.838 127.886 61.8927 127.649 62.0113C127.324 62.176 127.067 62.4052 126.914 62.667C126.858 62.7608 126.775 62.9609 126.7 63.1229L126.468 63.6317L126.352 63.8872C126.309 63.9709 126.264 64.053 126.22 64.1361L125.949 64.6344C125.582 65.2999 125.193 65.9691 124.771 66.6352C123.928 67.9829 122.957 69.2949 121.866 70.5606C121.075 71.4752 120.198 72.3534 119.243 73.188L118.554 72.4451C119.441 72.1996 120.325 71.9433 121.223 71.7137C121.672 71.5977 122.116 71.474 122.568 71.3668C123.017 71.2517 123.465 71.1367 123.912 71.0218C123.92 71.0153 123.927 71.0092 123.937 71.002Z" fill="black"/>
<g clip-path="url(#clip1_1_873)">
<path d="M270.949 41.6877H213.424C210.99 41.6877 208.999 43.3514 208.999 45.3847V76.809H209.112H275.374V45.3847C275.374 43.3514 273.387 41.6877 270.949 41.6877Z" fill="#E6E9ED"/>
<path d="M252.143 84.2029L254.355 93.4453H230.018L232.23 84.2029H252.143Z" fill="#545C66"/>
<path d="M209.112 76.809H275.374V80.5059C275.374 82.5393 273.387 84.2029 270.949 84.2029H251.037H233.337H213.424C210.99 84.2029 208.999 82.5393 208.999 80.5059V76.809H209.112Z" fill="#656D78"/>
<path d="M270.954 86.0551H213.437C209.778 86.0551 206.8 83.567 206.8 80.5096V45.394C206.8 42.3366 209.778 39.8485 213.437 39.8485H270.954C274.613 39.8485 277.591 42.3366 277.591 45.394V80.5096C277.591 83.567 274.613 86.0551 270.954 86.0551ZM213.437 43.5455C212.214 43.5455 211.225 44.3736 211.225 45.394V80.5096C211.225 81.53 212.214 82.3581 213.437 82.3581H270.954C272.173 82.3581 273.166 81.53 273.166 80.5096V45.394C273.166 44.3736 272.173 43.5455 270.954 43.5455H213.437Z" fill="#656D78"/>
<path d="M257.679 95.2976H226.704C225.48 95.2976 224.491 94.4713 224.491 93.4491C224.491 92.4269 225.48 91.6006 226.704 91.6006H257.679C258.902 91.6006 259.891 92.4269 259.891 93.4491C259.891 94.4713 258.902 95.2976 257.679 95.2976Z" fill="#656D78"/>
<path d="M248.846 67.5646H235.576C234.352 67.5646 233.363 66.7384 233.363 65.7162C233.363 64.6939 234.352 63.8677 235.576 63.8677H248.846C250.07 63.8677 251.059 64.6939 251.059 65.7162C251.059 66.7384 250.07 67.5646 248.846 67.5646Z" fill="#CCD1D9"/>
<path d="M242.26 83.2824C241.036 83.2824 240.034 82.4561 240.034 81.4339C240.034 80.4117 241.014 79.5854 242.233 79.5854H242.26C243.479 79.5854 244.472 80.4117 244.472 81.4339C244.472 82.4561 243.479 83.2824 242.26 83.2824Z" fill="#545C66"/>
<path d="M242.191 54.6309C240.972 54.6309 238.981 54.6309 237.766 54.6309H222.287C221.068 54.6309 220.075 55.4627 220.075 56.4793V58.326C220.075 59.3427 221.068 60.1745 222.287 60.1745H244.404C245.618 60.1745 254.256 60.1745 255.471 60.1745H262.095C263.314 60.1745 264.307 59.3427 264.307 58.326V56.4793C264.307 55.4627 263.314 54.6309 262.095 54.6309H242.191Z" fill="#CCD1D9"/>
<path d="M237.766 54.6309H222.287C221.068 54.6309 220.075 55.4627 220.075 56.4793V58.326C220.075 59.3427 221.068 60.1745 222.287 60.1745H244.404C245.012 60.1745 245.813 60.1745 246.616 60.1745L239.979 54.6309C239.175 54.6309 238.372 54.6309 237.766 54.6309Z" fill="#5D9CEC"/>
</g>
<path d="M296.631 69.7H268V94H296.631V69.7Z" fill="#656D78"/>
<path d="M296.631 69.7H268L271.368 67H293.262L296.631 69.7Z" fill="#545C66"/>
<path d="M273.053 80.5C273.987 80.5 274.737 81.1008 274.737 81.85C274.737 82.5925 273.987 83.2 273.053 83.2C272.126 83.2 271.368 82.5925 271.368 81.85C271.368 81.1008 272.126 80.5 273.053 80.5Z" fill="#5D9CEC"/>
<path d="M273.053 72.3999C273.987 72.3999 274.737 73.0007 274.737 73.7499C274.737 74.4924 273.987 75.0999 273.053 75.0999C272.126 75.0999 271.368 74.4924 271.368 73.7499C271.368 73.0007 272.126 72.3999 273.053 72.3999Z" fill="#5D9CEC"/>
<path d="M273.053 88.6001C273.987 88.6001 274.737 89.2008 274.737 89.9501C274.737 90.6926 273.987 91.3001 273.053 91.3001C272.126 91.3001 271.368 90.6926 271.368 89.9501C271.368 89.2008 272.126 88.6001 273.053 88.6001Z" fill="#5D9CEC"/>
<path d="M296.631 81.85V85.9H268.842H268V77.8H296.631V81.85ZM274.737 81.85C274.737 81.1008 273.987 80.5 273.052 80.5C272.126 80.5 271.368 81.1008 271.368 81.85C271.368 82.5925 272.126 83.2 273.052 83.2C273.987 83.2 274.737 82.5925 274.737 81.85Z" fill="#545C66"/>
<path d="M285.684 75.0986C285.557 75.0986 285.428 75.0757 285.308 75.0278C284.892 74.861 284.724 74.4554 284.932 74.1219L285.774 72.7719C285.983 72.4385 286.487 72.3041 286.904 72.4702C287.32 72.6369 287.488 73.0426 287.28 73.376L286.438 74.726C286.29 74.9623 285.993 75.0986 285.684 75.0986Z" fill="#545C66"/>
<path d="M289.052 75.0986C288.926 75.0986 288.797 75.0757 288.677 75.0278C288.261 74.861 288.092 74.4554 288.3 74.1219L289.142 72.7719C289.351 72.4385 289.857 72.3041 290.272 72.4702C290.688 72.6369 290.857 73.0426 290.649 73.376L289.807 74.726C289.658 74.9623 289.361 75.0986 289.052 75.0986Z" fill="#545C66"/>
<path d="M292.42 75.0986C292.294 75.0986 292.165 75.0757 292.044 75.0278C291.628 74.861 291.46 74.4554 291.668 74.1219L292.51 72.7719C292.718 72.4385 293.224 72.3041 293.64 72.4702C294.056 72.6369 294.225 73.0426 294.017 73.376L293.175 74.726C293.026 74.9623 292.729 75.0986 292.42 75.0986Z" fill="#545C66"/>
<path d="M285.684 83.1986C285.557 83.1986 285.428 83.1757 285.308 83.1277C284.892 82.961 284.724 82.5553 284.932 82.2219L285.774 80.8719C285.983 80.5384 286.487 80.4041 286.904 80.5702C287.32 80.7369 287.488 81.1426 287.28 81.476L286.438 82.826C286.29 83.0623 285.993 83.1986 285.684 83.1986Z" fill="#434A54"/>
<path d="M289.052 83.1986C288.926 83.1986 288.797 83.1757 288.677 83.1277C288.261 82.961 288.092 82.5553 288.3 82.2219L289.142 80.8719C289.351 80.5384 289.857 80.4041 290.272 80.5702C290.688 80.7369 290.857 81.1426 290.649 81.476L289.807 82.826C289.658 83.0623 289.361 83.1986 289.052 83.1986Z" fill="#434A54"/>
<path d="M292.42 83.1986C292.294 83.1986 292.165 83.1757 292.044 83.1277C291.628 82.961 291.46 82.5553 291.668 82.2219L292.51 80.8719C292.718 80.5384 293.224 80.4041 293.64 80.5702C294.056 80.7369 294.225 81.1426 294.017 81.476L293.175 82.826C293.026 83.0623 292.729 83.1986 292.42 83.1986Z" fill="#434A54"/>
<path d="M285.684 91.2986C285.557 91.2986 285.428 91.2756 285.308 91.2277C284.892 91.061 284.724 90.6553 284.932 90.3219L285.774 88.9719C285.983 88.6384 286.487 88.5041 286.904 88.6701C287.32 88.8369 287.488 89.2425 287.28 89.576L286.438 90.926C286.29 91.1622 285.993 91.2986 285.684 91.2986Z" fill="#545C66"/>
<path d="M289.052 91.2986C288.926 91.2986 288.797 91.2756 288.677 91.2277C288.261 91.061 288.092 90.6553 288.3 90.3219L289.142 88.9719C289.351 88.6384 289.857 88.5041 290.272 88.6701C290.688 88.8369 290.857 89.2425 290.649 89.576L289.807 90.926C289.658 91.1622 289.361 91.2986 289.052 91.2986Z" fill="#545C66"/>
<path d="M292.42 91.2986C292.294 91.2986 292.165 91.2756 292.044 91.2277C291.628 91.061 291.46 90.6553 291.668 90.3219L292.51 88.9719C292.718 88.6384 293.224 88.5041 293.64 88.6701C294.056 88.8369 294.225 89.2425 294.017 89.576L293.175 90.926C293.026 91.1622 292.729 91.2986 292.42 91.2986Z" fill="#545C66"/>
<path d="M304.781 48.8125H286.219C285.771 48.8125 285.342 48.931 285.026 49.142C284.709 49.353 284.531 49.6391 284.531 49.9375V60.0625C284.531 60.3609 284.709 60.647 285.026 60.858C285.342 61.069 285.771 61.1875 286.219 61.1875H304.781C305.229 61.1875 305.658 61.069 305.974 60.858C306.291 60.647 306.469 60.3609 306.469 60.0625V49.9375C306.469 49.6391 306.291 49.353 305.974 49.142C305.658 48.931 305.229 48.8125 304.781 48.8125ZM291.788 56.2375C291.967 56.327 292.085 56.4603 292.117 56.6079C292.148 56.7556 292.091 56.9057 291.956 57.025C291.822 57.1443 291.622 57.2232 291.401 57.2443C291.179 57.2654 290.954 57.227 290.775 57.1375L287.4 55.45C287.295 55.3976 287.21 55.3297 287.152 55.2516C287.093 55.1735 287.062 55.0873 287.062 55C287.062 54.9127 287.093 54.8265 287.152 54.7484C287.21 54.6703 287.295 54.6024 287.4 54.55L290.775 52.8625C290.954 52.773 291.179 52.7346 291.401 52.7557C291.622 52.7768 291.822 52.8557 291.956 52.975C292.091 53.0943 292.148 53.2444 292.117 53.392C292.085 53.5397 291.967 53.673 291.788 53.7625L289.312 55L291.788 56.2375ZM297.999 51.2172L294.624 59.0922C294.595 59.1645 294.545 59.2322 294.476 59.2914C294.408 59.3506 294.322 59.4002 294.225 59.4371C294.127 59.474 294.019 59.4976 293.908 59.5065C293.797 59.5154 293.684 59.5093 293.576 59.4888C293.468 59.4682 293.367 59.4335 293.28 59.3867C293.192 59.3399 293.12 59.2819 293.066 59.2162C293.013 59.1505 292.98 59.0783 292.968 59.0039C292.957 58.9294 292.969 58.8543 293.001 58.7828L296.376 50.9078C296.441 50.767 296.586 50.6488 296.781 50.5785C296.975 50.5083 297.203 50.4916 297.415 50.5321C297.628 50.5727 297.808 50.6671 297.917 50.7952C298.026 50.9233 298.055 51.0748 297.999 51.2172ZM303.6 55.45L300.225 57.1375C300.046 57.227 299.821 57.2654 299.599 57.2443C299.378 57.2232 299.178 57.1443 299.044 57.025C298.909 56.9057 298.852 56.7556 298.883 56.6079C298.915 56.4603 299.033 56.327 299.212 56.2375L301.688 55L299.212 53.7625C299.124 53.7182 299.049 53.6627 298.993 53.5991C298.936 53.5355 298.899 53.4652 298.883 53.392C298.868 53.3189 298.874 53.2445 298.901 53.1729C298.929 53.1013 298.977 53.0341 299.044 52.975C299.11 52.9159 299.194 52.8661 299.289 52.8285C299.384 52.7908 299.49 52.7661 299.599 52.7557C299.709 52.7452 299.821 52.7493 299.928 52.7676C300.035 52.7859 300.136 52.8182 300.225 52.8625L303.6 54.55C303.705 54.6024 303.79 54.6703 303.848 54.7484C303.907 54.8265 303.938 54.9127 303.938 55C303.938 55.0873 303.907 55.1735 303.848 55.2516C303.79 55.3297 303.705 55.3976 303.6 55.45Z" fill="#343330"/>
<path d="M189.75 51.375V52.625C189.75 52.9565 189.566 53.2745 189.237 53.5089C188.909 53.7433 188.464 53.875 188 53.875V50.125C188.464 50.125 188.909 50.2567 189.237 50.4911C189.566 50.7255 189.75 51.0435 189.75 51.375ZM208.125 47.625V56.375C208.125 56.7065 207.941 57.0245 207.612 57.2589C207.284 57.4933 206.839 57.625 206.375 57.625H183.625C183.161 57.625 182.716 57.4933 182.388 57.2589C182.059 57.0245 181.875 56.7065 181.875 56.375V47.625C181.875 47.2935 182.059 46.9755 182.388 46.7411C182.716 46.5067 183.161 46.375 183.625 46.375H206.375C206.839 46.375 207.284 46.5067 207.612 46.7411C207.941 46.9755 208.125 47.2935 208.125 47.625ZM191.5 51.375C191.5 50.712 191.131 50.0761 190.475 49.6072C189.818 49.1384 188.928 48.875 188 48.875H187.125C186.893 48.875 186.67 48.9408 186.506 49.0581C186.342 49.1753 186.25 49.3342 186.25 49.5V54.5C186.25 54.6658 186.342 54.8247 186.506 54.9419C186.67 55.0592 186.893 55.125 187.125 55.125H188C188.928 55.125 189.818 54.8616 190.475 54.3928C191.131 53.9239 191.5 53.288 191.5 52.625V51.375ZM195 51.375V50.125H196.75C196.982 50.125 197.205 50.0592 197.369 49.9419C197.533 49.8247 197.625 49.6658 197.625 49.5C197.625 49.3342 197.533 49.1753 197.369 49.0581C197.205 48.9408 196.982 48.875 196.75 48.875H194.125C193.893 48.875 193.67 48.9408 193.506 49.0581C193.342 49.1753 193.25 49.3342 193.25 49.5V54.5C193.25 54.6658 193.342 54.8247 193.506 54.9419C193.67 55.0592 193.893 55.125 194.125 55.125H196.75C196.982 55.125 197.205 55.0592 197.369 54.9419C197.533 54.8247 197.625 54.6658 197.625 54.5C197.625 54.3342 197.533 54.1753 197.369 54.0581C197.205 53.9408 196.982 53.875 196.75 53.875H195V52.625H195.875C196.107 52.625 196.33 52.5592 196.494 52.4419C196.658 52.3247 196.75 52.1658 196.75 52C196.75 51.8342 196.658 51.6753 196.494 51.5581C196.33 51.4408 196.107 51.375 195.875 51.375H195ZM203.987 48.8984C203.764 48.8535 203.525 48.8737 203.322 48.9548C203.12 49.0358 202.971 49.1709 202.908 49.3305L201.781 52.1914L200.655 49.3305C200.591 49.1715 200.442 49.0371 200.24 48.9566C200.037 48.8761 199.799 48.8561 199.576 48.9009C199.353 48.9458 199.165 49.0518 199.051 49.1959C198.937 49.3399 198.908 49.5102 198.97 49.6695L200.939 54.6695C200.991 54.8006 201.101 54.9161 201.253 54.9983C201.405 55.0805 201.591 55.125 201.781 55.125C201.972 55.125 202.157 55.0805 202.309 54.9983C202.461 54.9161 202.572 54.8006 202.623 54.6695L204.592 49.6695C204.655 49.51 204.627 49.3391 204.513 49.1945C204.4 49.0499 204.211 48.9434 203.987 48.8984Z" fill="#343330"/>
<path d="M203 81.5938C199.636 81.5938 197 83.2273 197 85.3125V91.6875C197 93.7727 199.636 95.4062 203 95.4062C206.364 95.4062 209 93.7727 209 91.6875V85.3125C209 83.2273 206.364 81.5938 203 81.5938ZM208 88.5C208 89.1388 207.507 89.7903 206.649 90.2877C205.683 90.8475 204.387 91.1562 203 91.1562C201.613 91.1562 200.317 90.8475 199.351 90.2877C198.493 89.7903 198 89.1388 198 88.5V87.395C199.066 88.3911 200.889 89.0312 203 89.0312C205.111 89.0312 206.934 88.3884 208 87.395V88.5ZM206.649 93.4752C205.683 94.035 204.387 94.3438 203 94.3438C201.613 94.3438 200.317 94.035 199.351 93.4752C198.493 92.9778 198 92.3263 198 91.6875V90.5825C199.066 91.5786 200.889 92.2188 203 92.2188C205.111 92.2188 206.934 91.5759 208 90.5825V91.6875C208 92.3263 207.507 92.9778 206.649 93.4752Z" fill="#343330"/>
<circle cx="81" cy="71" r="25" fill="#F5F3F3"/>
<path d="M73.015 72.4749C73.0184 72.5427 73.008 72.6104 72.9844 72.674C72.9608 72.7376 72.9245 72.7957 72.8777 72.8448C72.8309 72.8939 72.7747 72.933 72.7123 72.9596C72.65 72.9863 72.5828 73 72.515 72.9999H67C66.7743 73.0003 66.5551 72.9243 66.3781 72.7842C66.2011 72.6442 66.0766 72.4484 66.025 72.2287C65.9929 72.0783 65.9943 71.9227 66.0294 71.7729C66.0644 71.6232 66.132 71.483 66.2275 71.3624C67.1098 70.1924 68.2804 69.2712 69.625 68.6887C69.0347 68.1505 68.5819 67.4786 68.3046 66.7294C68.0273 65.9802 67.9336 65.1754 68.0313 64.3825C68.129 63.5896 68.4152 62.8317 68.8661 62.1722C69.3169 61.5127 69.9192 60.9708 70.6226 60.5919C71.3259 60.2131 72.1098 60.0082 72.9085 59.9946C73.7073 59.981 74.4977 60.159 75.2135 60.5136C75.9294 60.8683 76.5498 61.3893 77.0229 62.0331C77.4959 62.6769 77.8079 63.4246 77.9325 64.2137C77.9486 64.3198 77.9296 64.4283 77.8784 64.5226C77.8272 64.6169 77.7465 64.6919 77.6488 64.7362C76.2618 65.3774 75.0871 66.402 74.2634 67.689C73.4397 68.9761 73.0013 70.4719 73 71.9999C73 72.1599 73 72.3174 73.015 72.4749ZM95.765 71.3612C94.8848 70.1925 93.7169 69.2718 92.375 68.6887C92.9654 68.1505 93.4181 67.4786 93.6954 66.7294C93.9727 65.9802 94.0664 65.1754 93.9687 64.3825C93.8711 63.5896 93.5848 62.8317 93.134 62.1722C92.6831 61.5127 92.0808 60.9708 91.3775 60.5919C90.6741 60.2131 89.8903 60.0082 89.0915 59.9946C88.2927 59.981 87.5023 60.159 86.7865 60.5136C86.0707 60.8683 85.4502 61.3893 84.9772 62.0331C84.5041 62.6769 84.1922 63.4246 84.0675 64.2137C84.0514 64.3198 84.0704 64.4283 84.1216 64.5226C84.1729 64.6169 84.2535 64.6919 84.3513 64.7362C85.7383 65.3774 86.9129 66.402 87.7366 67.689C88.5603 68.9761 88.9987 70.4719 89 71.9999C89 72.1599 89 72.3174 88.985 72.4749C88.9816 72.5427 88.992 72.6104 89.0157 72.674C89.0393 72.7376 89.0755 72.7957 89.1223 72.8448C89.1691 72.8939 89.2254 72.933 89.2877 72.9596C89.3501 72.9863 89.4172 73 89.485 72.9999H95C95.2257 73.0003 95.4449 72.9243 95.6219 72.7842C95.7989 72.6442 95.9234 72.4484 95.975 72.2287C96.0074 72.078 96.0059 71.9221 95.9706 71.772C95.9354 71.622 95.8673 71.4817 95.7713 71.3612H95.765ZM84.64 76.7587C85.6357 75.9962 86.3674 74.9408 86.7323 73.7409C87.0972 72.541 87.0769 71.257 86.6744 70.0692C86.2718 68.8814 85.5071 67.8497 84.4879 67.1189C83.4686 66.3882 82.246 65.9952 80.9919 65.9952C79.7377 65.9952 78.5151 66.3882 77.4959 67.1189C76.4766 67.8497 75.712 68.8814 75.3094 70.0692C74.9068 71.257 74.8866 72.541 75.2515 73.7409C75.6164 74.9408 76.3481 75.9962 77.3438 76.7587C75.5769 77.5242 74.1016 78.8353 73.1338 80.4999C73.046 80.652 72.9998 80.8244 72.9998 81C72.9998 81.1756 73.046 81.348 73.1338 81.5C73.2216 81.6521 73.3479 81.7783 73.4999 81.8661C73.652 81.9538 73.8245 82 74 81.9999H88C88.1756 82 88.348 81.9538 88.5001 81.8661C88.6521 81.7783 88.7784 81.6521 88.8662 81.5C88.954 81.348 89.0002 81.1756 89.0002 81C89.0002 80.8244 88.954 80.652 88.8663 80.4999C87.8964 78.8342 86.4183 77.523 84.6488 76.7587H84.64Z" fill="#343330"/>
</g>
<path d="M23.616 147H21.184V135.512H28.608V137.624H23.616V140.52H27.824V142.616H23.616V147ZM37.8298 144.888V147H30.1018V135.512H37.7178V137.624H32.5338V140.04H37.2378V142.136H32.5338V144.888H37.8298ZM47.2151 147L46.3511 144.536H41.8871L41.0071 147H38.5591L42.8791 135.512H45.5351L49.8231 147H47.2151ZM44.1431 138.168L42.5751 142.6H45.6791L44.1431 138.168ZM55.1983 147H52.7663V137.704H49.1503V135.512H58.8303V137.704H55.1983V147ZM69.529 135.512V142.632C69.529 145.352 67.801 147.24 64.809 147.24C61.769 147.24 60.073 145.352 60.073 142.632V135.512H62.505V142.68C62.505 144.104 63.193 145.064 64.809 145.064C66.409 145.064 67.097 144.104 67.097 142.68V135.512H69.529ZM74.111 147H71.679V135.512H76.175C79.071 135.512 80.751 136.856 80.751 139.24C80.751 140.792 79.791 142.024 78.159 142.568L81.119 147H78.223L75.631 142.936H74.111V147ZM74.111 137.528V140.936H76.063C77.535 140.936 78.319 140.36 78.319 139.24C78.319 138.104 77.535 137.528 76.063 137.528H74.111ZM90.1841 144.888V147H82.4561V135.512H90.0721V137.624H84.8881V140.04H89.5921V142.136H84.8881V144.888H90.1841Z" fill="white"/>
<path d="M25.016 162.96V167.16H30.656V169.824H25.016V174.264H31.376V177H21.656V160.224H31.376V162.96H25.016ZM40.5254 166.464H38.1974V177H34.7894V166.464H33.2774V163.704H34.7894V163.032C34.7894 161.4 35.2534 160.2 36.1814 159.432C37.1094 158.664 38.5094 158.304 40.3814 158.352V161.184C39.5654 161.168 38.9974 161.304 38.6774 161.592C38.3574 161.88 38.1974 162.4 38.1974 163.152V163.704H40.5254V166.464ZM48.7989 166.464H46.4709V177H43.0629V166.464H41.5509V163.704H43.0629V163.032C43.0629 161.4 43.5269 160.2 44.4549 159.432C45.3829 158.664 46.7829 158.304 48.6549 158.352V161.184C47.8389 161.168 47.2709 161.304 46.9509 161.592C46.6309 161.88 46.4709 162.4 46.4709 163.152V163.704H48.7989V166.464ZM56.8803 177.216C55.6003 177.216 54.4483 176.936 53.4243 176.376C52.4003 175.8 51.5923 174.992 51.0003 173.952C50.4243 172.912 50.1363 171.712 50.1363 170.352C50.1363 168.992 50.4323 167.792 51.0243 166.752C51.6323 165.712 52.4563 164.912 53.4963 164.352C54.5363 163.776 55.6963 163.488 56.9763 163.488C58.2563 163.488 59.4163 163.776 60.4563 164.352C61.4963 164.912 62.3123 165.712 62.9043 166.752C63.5123 167.792 63.8163 168.992 63.8163 170.352C63.8163 171.712 63.5043 172.912 62.8803 173.952C62.2723 174.992 61.4403 175.8 60.3843 176.376C59.3443 176.936 58.1763 177.216 56.8803 177.216ZM56.8803 174.288C57.4883 174.288 58.0563 174.144 58.5843 173.856C59.1283 173.552 59.5603 173.104 59.8803 172.512C60.2003 171.92 60.3603 171.2 60.3603 170.352C60.3603 169.088 60.0243 168.12 59.3523 167.448C58.6963 166.76 57.8883 166.416 56.9283 166.416C55.9683 166.416 55.1603 166.76 54.5043 167.448C53.8643 168.12 53.5443 169.088 53.5443 170.352C53.5443 171.616 53.8563 172.592 54.4803 173.28C55.1203 173.952 55.9203 174.288 56.8803 174.288ZM69.641 165.768C70.073 165.064 70.633 164.512 71.321 164.112C72.025 163.712 72.825 163.512 73.721 163.512V167.04H72.833C71.777 167.04 70.977 167.288 70.433 167.784C69.905 168.28 69.641 169.144 69.641 170.376V177H66.281V163.704H69.641V165.768ZM79.8961 166.464V172.896C79.8961 173.344 80.0001 173.672 80.2081 173.88C80.4321 174.072 80.8001 174.168 81.3121 174.168H82.8721V177H80.7601C77.9281 177 76.5121 175.624 76.5121 172.872V166.464H74.9281V163.704H76.5121V160.416H79.8961V163.704H82.8721V166.464H79.8961ZM88.6488 159.24V177H85.2888V159.24H88.6488ZM104.329 170.064C104.329 170.544 104.297 170.976 104.233 171.36H94.5125C94.5925 172.32 94.9285 173.072 95.5205 173.616C96.1125 174.16 96.8405 174.432 97.7045 174.432C98.9525 174.432 99.8405 173.896 100.369 172.824H103.993C103.609 174.104 102.873 175.16 101.785 175.992C100.697 176.808 99.3605 177.216 97.7765 177.216C96.4965 177.216 95.3445 176.936 94.3205 176.376C93.3125 175.8 92.5205 174.992 91.9445 173.952C91.3845 172.912 91.1045 171.712 91.1045 170.352C91.1045 168.976 91.3845 167.768 91.9445 166.728C92.5045 165.688 93.2885 164.888 94.2965 164.328C95.3045 163.768 96.4645 163.488 97.7765 163.488C99.0405 163.488 100.169 163.76 101.161 164.304C102.169 164.848 102.945 165.624 103.489 166.632C104.049 167.624 104.329 168.768 104.329 170.064ZM100.849 169.104C100.833 168.24 100.521 167.552 99.9125 167.04C99.3045 166.512 98.5605 166.248 97.6805 166.248C96.8485 166.248 96.1445 166.504 95.5685 167.016C95.0085 167.512 94.6645 168.208 94.5365 169.104H100.849ZM111.869 177.216C110.781 177.216 109.805 177.024 108.941 176.64C108.077 176.24 107.389 175.704 106.877 175.032C106.381 174.36 106.109 173.616 106.061 172.8H109.445C109.509 173.312 109.757 173.736 110.189 174.072C110.637 174.408 111.189 174.576 111.845 174.576C112.485 174.576 112.981 174.448 113.333 174.192C113.701 173.936 113.885 173.608 113.885 173.208C113.885 172.776 113.661 172.456 113.213 172.248C112.781 172.024 112.085 171.784 111.125 171.528C110.133 171.288 109.317 171.04 108.677 170.784C108.053 170.528 107.509 170.136 107.045 169.608C106.597 169.08 106.373 168.368 106.373 167.472C106.373 166.736 106.581 166.064 106.997 165.456C107.429 164.848 108.037 164.368 108.821 164.016C109.621 163.664 110.557 163.488 111.629 163.488C113.213 163.488 114.477 163.888 115.421 164.688C116.365 165.472 116.885 166.536 116.981 167.88H113.765C113.717 167.352 113.493 166.936 113.093 166.632C112.709 166.312 112.189 166.152 111.533 166.152C110.925 166.152 110.453 166.264 110.117 166.488C109.797 166.712 109.637 167.024 109.637 167.424C109.637 167.872 109.861 168.216 110.309 168.456C110.757 168.68 111.453 168.912 112.397 169.152C113.357 169.392 114.149 169.64 114.773 169.896C115.397 170.152 115.933 170.552 116.381 171.096C116.845 171.624 117.085 172.328 117.101 173.208C117.101 173.976 116.885 174.664 116.453 175.272C116.037 175.88 115.429 176.36 114.629 176.712C113.845 177.048 112.925 177.216 111.869 177.216ZM124.947 177.216C123.859 177.216 122.883 177.024 122.019 176.64C121.155 176.24 120.467 175.704 119.955 175.032C119.459 174.36 119.187 173.616 119.139 172.8H122.523C122.587 173.312 122.835 173.736 123.267 174.072C123.715 174.408 124.267 174.576 124.923 174.576C125.563 174.576 126.059 174.448 126.411 174.192C126.779 173.936 126.963 173.608 126.963 173.208C126.963 172.776 126.739 172.456 126.291 172.248C125.859 172.024 125.163 171.784 124.203 171.528C123.211 171.288 122.395 171.04 121.755 170.784C121.131 170.528 120.587 170.136 120.123 169.608C119.675 169.08 119.451 168.368 119.451 167.472C119.451 166.736 119.659 166.064 120.075 165.456C120.507 164.848 121.115 164.368 121.899 164.016C122.699 163.664 123.635 163.488 124.707 163.488C126.291 163.488 127.555 163.888 128.499 164.688C129.443 165.472 129.963 166.536 130.059 167.88H126.843C126.795 167.352 126.571 166.936 126.171 166.632C125.787 166.312 125.267 166.152 124.611 166.152C124.003 166.152 123.531 166.264 123.195 166.488C122.875 166.712 122.715 167.024 122.715 167.424C122.715 167.872 122.939 168.216 123.387 168.456C123.835 168.68 124.531 168.912 125.475 169.152C126.435 169.392 127.227 169.64 127.851 169.896C128.475 170.152 129.011 170.552 129.459 171.096C129.923 171.624 130.163 172.328 130.179 173.208C130.179 173.976 129.963 174.664 129.531 175.272C129.115 175.88 128.507 176.36 127.707 176.712C126.923 177.048 126.003 177.216 124.947 177.216ZM136.297 159.24V177H132.937V159.24H136.297ZM152.337 163.704L144.105 183.288H140.529L143.409 176.664L138.081 163.704H141.849L145.281 172.992L148.761 163.704H152.337ZM165.771 177.216C164.491 177.216 163.339 176.936 162.315 176.376C161.291 175.8 160.483 174.992 159.891 173.952C159.315 172.912 159.027 171.712 159.027 170.352C159.027 168.992 159.323 167.792 159.915 166.752C160.523 165.712 161.347 164.912 162.387 164.352C163.427 163.776 164.587 163.488 165.867 163.488C167.147 163.488 168.307 163.776 169.347 164.352C170.387 164.912 171.203 165.712 171.795 166.752C172.403 167.792 172.707 168.992 172.707 170.352C172.707 171.712 172.395 172.912 171.771 173.952C171.163 174.992 170.331 175.8 169.275 176.376C168.235 176.936 167.067 177.216 165.771 177.216ZM165.771 174.288C166.379 174.288 166.947 174.144 167.475 173.856C168.019 173.552 168.451 173.104 168.771 172.512C169.091 171.92 169.251 171.2 169.251 170.352C169.251 169.088 168.915 168.12 168.243 167.448C167.587 166.76 166.779 166.416 165.819 166.416C164.859 166.416 164.051 166.76 163.395 167.448C162.755 168.12 162.435 169.088 162.435 170.352C162.435 171.616 162.747 172.592 163.371 173.28C164.011 173.952 164.811 174.288 165.771 174.288ZM178.532 165.624C178.964 165.016 179.556 164.512 180.308 164.112C181.076 163.696 181.948 163.488 182.924 163.488C184.06 163.488 185.084 163.768 185.996 164.328C186.924 164.888 187.652 165.688 188.18 166.728C188.724 167.752 188.996 168.944 188.996 170.304C188.996 171.664 188.724 172.872 188.18 173.928C187.652 174.968 186.924 175.776 185.996 176.352C185.084 176.928 184.06 177.216 182.924 177.216C181.948 177.216 181.084 177.016 180.332 176.616C179.596 176.216 178.996 175.712 178.532 175.104V183.336H175.172V163.704H178.532V165.624ZM185.564 170.304C185.564 169.504 185.396 168.816 185.06 168.24C184.74 167.648 184.308 167.2 183.764 166.896C183.236 166.592 182.66 166.44 182.036 166.44C181.428 166.44 180.852 166.6 180.308 166.92C179.78 167.224 179.348 167.672 179.012 168.264C178.692 168.856 178.532 169.552 178.532 170.352C178.532 171.152 178.692 171.848 179.012 172.44C179.348 173.032 179.78 173.488 180.308 173.808C180.852 174.112 181.428 174.264 182.036 174.264C182.66 174.264 183.236 174.104 183.764 173.784C184.308 173.464 184.74 173.008 185.06 172.416C185.396 171.824 185.564 171.12 185.564 170.304ZM195.349 166.464V172.896C195.349 173.344 195.453 173.672 195.661 173.88C195.885 174.072 196.253 174.168 196.765 174.168H198.325V177H196.213C193.381 177 191.965 175.624 191.965 172.872V166.464H190.381V163.704H191.965V160.416H195.349V163.704H198.325V166.464H195.349ZM202.446 162.12C201.854 162.12 201.358 161.936 200.958 161.568C200.574 161.184 200.382 160.712 200.382 160.152C200.382 159.592 200.574 159.128 200.958 158.76C201.358 158.376 201.854 158.184 202.446 158.184C203.038 158.184 203.526 158.376 203.91 158.76C204.31 159.128 204.51 159.592 204.51 160.152C204.51 160.712 204.31 161.184 203.91 161.568C203.526 161.936 203.038 162.12 202.446 162.12ZM204.102 163.704V177H200.742V163.704H204.102ZM223.934 163.512C225.566 163.512 226.878 164.016 227.87 165.024C228.878 166.016 229.382 167.408 229.382 169.2V177H226.022V169.656C226.022 168.616 225.758 167.824 225.23 167.28C224.702 166.72 223.982 166.44 223.07 166.44C222.158 166.44 221.43 166.72 220.886 167.28C220.358 167.824 220.094 168.616 220.094 169.656V177H216.734V169.656C216.734 168.616 216.47 167.824 215.942 167.28C215.414 166.72 214.694 166.44 213.782 166.44C212.854 166.44 212.118 166.72 211.574 167.28C211.046 167.824 210.782 168.616 210.782 169.656V177H207.422V163.704H210.782V165.312C211.214 164.752 211.766 164.312 212.438 163.992C213.126 163.672 213.878 163.512 214.694 163.512C215.734 163.512 216.662 163.736 217.478 164.184C218.294 164.616 218.926 165.24 219.374 166.056C219.806 165.288 220.43 164.672 221.246 164.208C222.078 163.744 222.974 163.512 223.934 163.512ZM234.274 162.12C233.682 162.12 233.186 161.936 232.786 161.568C232.402 161.184 232.21 160.712 232.21 160.152C232.21 159.592 232.402 159.128 232.786 158.76C233.186 158.376 233.682 158.184 234.274 158.184C234.866 158.184 235.354 158.376 235.738 158.76C236.138 159.128 236.338 159.592 236.338 160.152C236.338 160.712 236.138 161.184 235.738 161.568C235.354 161.936 234.866 162.12 234.274 162.12ZM235.93 163.704V177H232.57V163.704H235.93ZM242.322 174.24H248.25V177H238.506V174.288L244.314 166.464H238.53V163.704H248.178V166.416L242.322 174.24ZM263.211 170.064C263.211 170.544 263.179 170.976 263.115 171.36H253.395C253.475 172.32 253.811 173.072 254.403 173.616C254.995 174.16 255.723 174.432 256.587 174.432C257.835 174.432 258.723 173.896 259.251 172.824H262.875C262.491 174.104 261.755 175.16 260.667 175.992C259.579 176.808 258.243 177.216 256.659 177.216C255.379 177.216 254.227 176.936 253.203 176.376C252.195 175.8 251.403 174.992 250.827 173.952C250.267 172.912 249.987 171.712 249.987 170.352C249.987 168.976 250.267 167.768 250.827 166.728C251.387 165.688 252.171 164.888 253.179 164.328C254.187 163.768 255.347 163.488 256.659 163.488C257.923 163.488 259.051 163.76 260.043 164.304C261.051 164.848 261.827 165.624 262.371 166.632C262.931 167.624 263.211 168.768 263.211 170.064ZM259.731 169.104C259.715 168.24 259.403 167.552 258.795 167.04C258.187 166.512 257.443 166.248 256.563 166.248C255.731 166.248 255.027 166.504 254.451 167.016C253.891 167.512 253.547 168.208 253.419 169.104H259.731ZM275.295 166.464V172.896C275.295 173.344 275.399 173.672 275.607 173.88C275.831 174.072 276.199 174.168 276.711 174.168H278.271V177H276.159C273.327 177 271.911 175.624 271.911 172.872V166.464H270.327V163.704H271.911V160.416H275.295V163.704H278.271V166.464H275.295ZM293.047 170.064C293.047 170.544 293.015 170.976 292.951 171.36H283.231C283.311 172.32 283.647 173.072 284.239 173.616C284.831 174.16 285.559 174.432 286.423 174.432C287.671 174.432 288.559 173.896 289.087 172.824H292.711C292.327 174.104 291.591 175.16 290.503 175.992C289.415 176.808 288.079 177.216 286.495 177.216C285.215 177.216 284.063 176.936 283.039 176.376C282.031 175.8 281.239 174.992 280.663 173.952C280.103 172.912 279.823 171.712 279.823 170.352C279.823 168.976 280.103 167.768 280.663 166.728C281.223 165.688 282.007 164.888 283.015 164.328C284.023 163.768 285.183 163.488 286.495 163.488C287.759 163.488 288.887 163.76 289.879 164.304C290.887 164.848 291.663 165.624 292.207 166.632C292.767 167.624 293.047 168.768 293.047 170.064ZM289.567 169.104C289.551 168.24 289.239 167.552 288.631 167.04C288.023 166.512 287.279 166.248 286.399 166.248C285.567 166.248 284.863 166.504 284.287 167.016C283.727 167.512 283.383 168.208 283.255 169.104H289.567ZM294.636 170.304C294.636 168.96 294.9 167.768 295.428 166.728C295.972 165.688 296.7 164.888 297.612 164.328C298.54 163.768 299.572 163.488 300.708 163.488C301.7 163.488 302.564 163.688 303.3 164.088C304.052 164.488 304.652 164.992 305.1 165.6V163.704H308.484V177H305.1V175.056C304.668 175.68 304.068 176.2 303.3 176.616C302.548 177.016 301.676 177.216 300.684 177.216C299.564 177.216 298.54 176.928 297.612 176.352C296.7 175.776 295.972 174.968 295.428 173.928C294.9 172.872 294.636 171.664 294.636 170.304ZM305.1 170.352C305.1 169.536 304.94 168.84 304.62 168.264C304.3 167.672 303.868 167.224 303.324 166.92C302.78 166.6 302.196 166.44 301.572 166.44C300.948 166.44 300.372 166.592 299.844 166.896C299.316 167.2 298.884 167.648 298.548 168.24C298.228 168.816 298.068 169.504 298.068 170.304C298.068 171.104 298.228 171.808 298.548 172.416C298.884 173.008 299.316 173.464 299.844 173.784C300.388 174.104 300.964 174.264 301.572 174.264C302.196 174.264 302.78 174.112 303.324 173.808C303.868 173.488 304.3 173.04 304.62 172.464C304.94 171.872 305.1 171.168 305.1 170.352ZM328.277 163.512C329.909 163.512 331.221 164.016 332.213 165.024C333.221 166.016 333.725 167.408 333.725 169.2V177H330.365V169.656C330.365 168.616 330.101 167.824 329.573 167.28C329.045 166.72 328.325 166.44 327.413 166.44C326.501 166.44 325.773 166.72 325.229 167.28C324.701 167.824 324.437 168.616 324.437 169.656V177H321.077V169.656C321.077 168.616 320.813 167.824 320.285 167.28C319.757 166.72 319.037 166.44 318.125 166.44C317.197 166.44 316.461 166.72 315.917 167.28C315.389 167.824 315.125 168.616 315.125 169.656V177H311.765V163.704H315.125V165.312C315.557 164.752 316.109 164.312 316.781 163.992C317.469 163.672 318.221 163.512 319.037 163.512C320.077 163.512 321.005 163.736 321.821 164.184C322.637 164.616 323.269 165.24 323.717 166.056C324.149 165.288 324.773 164.672 325.589 164.208C326.421 163.744 327.317 163.512 328.277 163.512ZM355.346 163.704L351.458 177H347.834L345.41 167.712L342.986 177H339.338L335.426 163.704H338.834L341.186 173.832L343.73 163.704H347.282L349.778 173.808L352.13 163.704H355.346ZM363.068 177.216C361.788 177.216 360.636 176.936 359.612 176.376C358.588 175.8 357.78 174.992 357.188 173.952C356.612 172.912 356.324 171.712 356.324 170.352C356.324 168.992 356.62 167.792 357.212 166.752C357.82 165.712 358.644 164.912 359.684 164.352C360.724 163.776 361.884 163.488 363.164 163.488C364.444 163.488 365.604 163.776 366.644 164.352C367.684 164.912 368.5 165.712 369.092 166.752C369.7 167.792 370.004 168.992 370.004 170.352C370.004 171.712 369.692 172.912 369.068 173.952C368.46 174.992 367.628 175.8 366.572 176.376C365.532 176.936 364.364 177.216 363.068 177.216ZM363.068 174.288C363.676 174.288 364.244 174.144 364.772 173.856C365.316 173.552 365.748 173.104 366.068 172.512C366.388 171.92 366.548 171.2 366.548 170.352C366.548 169.088 366.212 168.12 365.54 167.448C364.884 166.76 364.076 166.416 363.116 166.416C362.156 166.416 361.348 166.76 360.692 167.448C360.052 168.12 359.732 169.088 359.732 170.352C359.732 171.616 360.044 172.592 360.668 173.28C361.308 173.952 362.108 174.288 363.068 174.288ZM375.829 165.768C376.261 165.064 376.821 164.512 377.509 164.112C378.213 163.712 379.013 163.512 379.909 163.512V167.04H379.021C377.965 167.04 377.165 167.288 376.621 167.784C376.093 168.28 375.829 169.144 375.829 170.376V177H372.469V163.704H375.829V165.768ZM390.044 177L385.532 171.336V177H382.172V159.24H385.532V169.344L389.996 163.704H394.364L388.508 170.376L394.412 177H390.044ZM399.859 173.472L397.051 180.216H394.891L396.451 173.472H399.859ZM23.36 186.12C22.768 186.12 22.272 185.936 21.872 185.568C21.488 185.184 21.296 184.712 21.296 184.152C21.296 183.592 21.488 183.128 21.872 182.76C22.272 182.376 22.768 182.184 23.36 182.184C23.952 182.184 24.44 182.376 24.824 182.76C25.224 183.128 25.424 183.592 25.424 184.152C25.424 184.712 25.224 185.184 24.824 185.568C24.44 185.936 23.952 186.12 23.36 186.12ZM25.016 187.704V201H21.656V187.704H25.016ZM35.7037 187.512C37.2877 187.512 38.5677 188.016 39.5437 189.024C40.5197 190.016 41.0077 191.408 41.0077 193.2V201H37.6477V193.656C37.6477 192.6 37.3837 191.792 36.8557 191.232C36.3277 190.656 35.6077 190.368 34.6957 190.368C33.7677 190.368 33.0317 190.656 32.4877 191.232C31.9597 191.792 31.6957 192.6 31.6957 193.656V201H28.3357V187.704H31.6957V189.36C32.1437 188.784 32.7117 188.336 33.3997 188.016C34.1037 187.68 34.8717 187.512 35.7037 187.512ZM43.3389 194.352C43.3389 192.976 43.6189 191.776 44.1789 190.752C44.7389 189.712 45.5149 188.912 46.5069 188.352C47.4989 187.776 48.6349 187.488 49.9149 187.488C51.5629 187.488 52.9229 187.904 53.9949 188.736C55.0829 189.552 55.8109 190.704 56.1789 192.192H52.5549C52.3629 191.616 52.0349 191.168 51.5709 190.848C51.1229 190.512 50.5629 190.344 49.8909 190.344C48.9309 190.344 48.1709 190.696 47.6109 191.4C47.0509 192.088 46.7709 193.072 46.7709 194.352C46.7709 195.616 47.0509 196.6 47.6109 197.304C48.1709 197.992 48.9309 198.336 49.8909 198.336C51.2509 198.336 52.1389 197.728 52.5549 196.512H56.1789C55.8109 197.952 55.0829 199.096 53.9949 199.944C52.9069 200.792 51.5469 201.216 49.9149 201.216C48.6349 201.216 47.4989 200.936 46.5069 200.376C45.5149 199.8 44.7389 199 44.1789 197.976C43.6189 196.936 43.3389 195.728 43.3389 194.352ZM62.0004 189.768C62.4324 189.064 62.9924 188.512 63.6804 188.112C64.3844 187.712 65.1844 187.512 66.0804 187.512V191.04H65.1924C64.1364 191.04 63.3364 191.288 62.7924 191.784C62.2644 192.28 62.0004 193.144 62.0004 194.376V201H58.6404V187.704H62.0004V189.768ZM80.7035 194.064C80.7035 194.544 80.6715 194.976 80.6075 195.36H70.8875C70.9675 196.32 71.3035 197.072 71.8955 197.616C72.4875 198.16 73.2155 198.432 74.0795 198.432C75.3275 198.432 76.2155 197.896 76.7435 196.824H80.3675C79.9835 198.104 79.2475 199.16 78.1595 199.992C77.0715 200.808 75.7355 201.216 74.1515 201.216C72.8715 201.216 71.7195 200.936 70.6955 200.376C69.6875 199.8 68.8955 198.992 68.3195 197.952C67.7595 196.912 67.4795 195.712 67.4795 194.352C67.4795 192.976 67.7595 191.768 68.3195 190.728C68.8795 189.688 69.6635 188.888 70.6715 188.328C71.6795 187.768 72.8395 187.488 74.1515 187.488C75.4155 187.488 76.5435 187.76 77.5355 188.304C78.5435 188.848 79.3195 189.624 79.8635 190.632C80.4235 191.624 80.7035 192.768 80.7035 194.064ZM77.2235 193.104C77.2075 192.24 76.8955 191.552 76.2875 191.04C75.6795 190.512 74.9355 190.248 74.0555 190.248C73.2235 190.248 72.5195 190.504 71.9435 191.016C71.3835 191.512 71.0395 192.208 70.9115 193.104H77.2235ZM82.292 194.304C82.292 192.96 82.556 191.768 83.084 190.728C83.628 189.688 84.356 188.888 85.268 188.328C86.196 187.768 87.228 187.488 88.364 187.488C89.356 187.488 90.22 187.688 90.956 188.088C91.708 188.488 92.308 188.992 92.756 189.6V187.704H96.14V201H92.756V199.056C92.324 199.68 91.724 200.2 90.956 200.616C90.204 201.016 89.332 201.216 88.34 201.216C87.22 201.216 86.196 200.928 85.268 200.352C84.356 199.776 83.628 198.968 83.084 197.928C82.556 196.872 82.292 195.664 82.292 194.304ZM92.756 194.352C92.756 193.536 92.596 192.84 92.276 192.264C91.956 191.672 91.524 191.224 90.98 190.92C90.436 190.6 89.852 190.44 89.228 190.44C88.604 190.44 88.028 190.592 87.5 190.896C86.972 191.2 86.54 191.648 86.204 192.24C85.884 192.816 85.724 193.504 85.724 194.304C85.724 195.104 85.884 195.808 86.204 196.416C86.54 197.008 86.972 197.464 87.5 197.784C88.044 198.104 88.62 198.264 89.228 198.264C89.852 198.264 90.436 198.112 90.98 197.808C91.524 197.488 91.956 197.04 92.276 196.464C92.596 195.872 92.756 195.168 92.756 194.352ZM104.51 201.216C103.422 201.216 102.446 201.024 101.582 200.64C100.718 200.24 100.03 199.704 99.5176 199.032C99.0216 198.36 98.7496 197.616 98.7016 196.8H102.086C102.15 197.312 102.398 197.736 102.83 198.072C103.278 198.408 103.83 198.576 104.486 198.576C105.126 198.576 105.622 198.448 105.974 198.192C106.342 197.936 106.526 197.608 106.526 197.208C106.526 196.776 106.302 196.456 105.854 196.248C105.422 196.024 104.726 195.784 103.766 195.528C102.774 195.288 101.958 195.04 101.318 194.784C100.694 194.528 100.15 194.136 99.6856 193.608C99.2376 193.08 99.0136 192.368 99.0136 191.472C99.0136 190.736 99.2216 190.064 99.6376 189.456C100.07 188.848 100.678 188.368 101.462 188.016C102.262 187.664 103.198 187.488 104.27 187.488C105.854 187.488 107.118 187.888 108.062 188.688C109.006 189.472 109.526 190.536 109.622 191.88H106.406C106.358 191.352 106.134 190.936 105.734 190.632C105.35 190.312 104.83 190.152 104.174 190.152C103.566 190.152 103.094 190.264 102.758 190.488C102.438 190.712 102.278 191.024 102.278 191.424C102.278 191.872 102.502 192.216 102.95 192.456C103.398 192.68 104.094 192.912 105.038 193.152C105.998 193.392 106.79 193.64 107.414 193.896C108.038 194.152 108.574 194.552 109.022 195.096C109.486 195.624 109.726 196.328 109.742 197.208C109.742 197.976 109.526 198.664 109.094 199.272C108.678 199.88 108.07 200.36 107.27 200.712C106.486 201.048 105.566 201.216 104.51 201.216ZM124.86 194.064C124.86 194.544 124.828 194.976 124.764 195.36H115.044C115.124 196.32 115.46 197.072 116.052 197.616C116.644 198.16 117.372 198.432 118.236 198.432C119.484 198.432 120.372 197.896 120.9 196.824H124.524C124.14 198.104 123.404 199.16 122.316 199.992C121.228 200.808 119.892 201.216 118.308 201.216C117.028 201.216 115.876 200.936 114.852 200.376C113.844 199.8 113.052 198.992 112.476 197.952C111.916 196.912 111.636 195.712 111.636 194.352C111.636 192.976 111.916 191.768 112.476 190.728C113.036 189.688 113.82 188.888 114.828 188.328C115.836 187.768 116.996 187.488 118.308 187.488C119.572 187.488 120.7 187.76 121.692 188.304C122.7 188.848 123.476 189.624 124.02 190.632C124.58 191.624 124.86 192.768 124.86 194.064ZM121.38 193.104C121.364 192.24 121.052 191.552 120.444 191.04C119.836 190.512 119.092 190.248 118.212 190.248C117.38 190.248 116.676 190.504 116.1 191.016C115.54 191.512 115.196 192.208 115.068 193.104H121.38ZM136.391 189.624C136.823 189.016 137.415 188.512 138.167 188.112C138.935 187.696 139.807 187.488 140.783 187.488C141.919 187.488 142.943 187.768 143.855 188.328C144.783 188.888 145.511 189.688 146.039 190.728C146.583 191.752 146.855 192.944 146.855 194.304C146.855 195.664 146.583 196.872 146.039 197.928C145.511 198.968 144.783 199.776 143.855 200.352C142.943 200.928 141.919 201.216 140.783 201.216C139.807 201.216 138.943 201.016 138.191 200.616C137.455 200.216 136.855 199.712 136.391 199.104V207.336H133.031V187.704H136.391V189.624ZM143.423 194.304C143.423 193.504 143.255 192.816 142.919 192.24C142.599 191.648 142.167 191.2 141.623 190.896C141.095 190.592 140.519 190.44 139.895 190.44C139.287 190.44 138.711 190.6 138.167 190.92C137.639 191.224 137.207 191.672 136.871 192.264C136.551 192.856 136.391 193.552 136.391 194.352C136.391 195.152 136.551 195.848 136.871 196.44C137.207 197.032 137.639 197.488 138.167 197.808C138.711 198.112 139.287 198.264 139.895 198.264C140.519 198.264 141.095 198.104 141.623 197.784C142.167 197.464 142.599 197.008 142.919 196.416C143.255 195.824 143.423 195.12 143.423 194.304ZM152.657 189.768C153.089 189.064 153.649 188.512 154.337 188.112C155.041 187.712 155.841 187.512 156.737 187.512V191.04H155.849C154.793 191.04 153.993 191.288 153.449 191.784C152.921 192.28 152.657 193.144 152.657 194.376V201H149.297V187.704H152.657V189.768ZM164.904 201.216C163.624 201.216 162.472 200.936 161.448 200.376C160.424 199.8 159.616 198.992 159.024 197.952C158.448 196.912 158.16 195.712 158.16 194.352C158.16 192.992 158.456 191.792 159.048 190.752C159.656 189.712 160.48 188.912 161.52 188.352C162.56 187.776 163.72 187.488 165 187.488C166.28 187.488 167.44 187.776 168.48 188.352C169.52 188.912 170.336 189.712 170.928 190.752C171.536 191.792 171.84 192.992 171.84 194.352C171.84 195.712 171.528 196.912 170.904 197.952C170.296 198.992 169.464 199.8 168.408 200.376C167.368 200.936 166.2 201.216 164.904 201.216ZM164.904 198.288C165.512 198.288 166.08 198.144 166.608 197.856C167.152 197.552 167.584 197.104 167.904 196.512C168.224 195.92 168.384 195.2 168.384 194.352C168.384 193.088 168.048 192.12 167.376 191.448C166.72 190.76 165.912 190.416 164.952 190.416C163.992 190.416 163.184 190.76 162.528 191.448C161.888 192.12 161.568 193.088 161.568 194.352C161.568 195.616 161.88 196.592 162.504 197.28C163.144 197.952 163.944 198.288 164.904 198.288ZM173.44 194.304C173.44 192.96 173.704 191.768 174.232 190.728C174.776 189.688 175.512 188.888 176.44 188.328C177.368 187.768 178.4 187.488 179.536 187.488C180.4 187.488 181.224 187.68 182.008 188.064C182.792 188.432 183.416 188.928 183.88 189.552V183.24H187.288V201H183.88V199.032C183.464 199.688 182.88 200.216 182.128 200.616C181.376 201.016 180.504 201.216 179.512 201.216C178.392 201.216 177.368 200.928 176.44 200.352C175.512 199.776 174.776 198.968 174.232 197.928C173.704 196.872 173.44 195.664 173.44 194.304ZM183.904 194.352C183.904 193.536 183.744 192.84 183.424 192.264C183.104 191.672 182.672 191.224 182.128 190.92C181.584 190.6 181 190.44 180.376 190.44C179.752 190.44 179.176 190.592 178.648 190.896C178.12 191.2 177.688 191.648 177.352 192.24C177.032 192.816 176.872 193.504 176.872 194.304C176.872 195.104 177.032 195.808 177.352 196.416C177.688 197.008 178.12 197.464 178.648 197.784C179.192 198.104 179.768 198.264 180.376 198.264C181 198.264 181.584 198.112 182.128 197.808C182.672 197.488 183.104 197.04 183.424 196.464C183.744 195.872 183.904 195.168 183.904 194.352ZM203.122 187.704V201H199.738V199.32C199.306 199.896 198.738 200.352 198.034 200.688C197.346 201.008 196.594 201.168 195.778 201.168C194.738 201.168 193.818 200.952 193.018 200.52C192.218 200.072 191.586 199.424 191.122 198.576C190.674 197.712 190.45 196.688 190.45 195.504V187.704H193.81V195.024C193.81 196.08 194.074 196.896 194.602 197.472C195.13 198.032 195.85 198.312 196.762 198.312C197.69 198.312 198.418 198.032 198.946 197.472C199.474 196.896 199.738 196.08 199.738 195.024V187.704H203.122ZM205.573 194.352C205.573 192.976 205.853 191.776 206.413 190.752C206.973 189.712 207.749 188.912 208.741 188.352C209.733 187.776 210.869 187.488 212.149 187.488C213.797 187.488 215.157 187.904 216.229 188.736C217.317 189.552 218.045 190.704 218.413 192.192H214.789C214.597 191.616 214.269 191.168 213.805 190.848C213.357 190.512 212.797 190.344 212.125 190.344C211.165 190.344 210.405 190.696 209.845 191.4C209.285 192.088 209.005 193.072 209.005 194.352C209.005 195.616 209.285 196.6 209.845 197.304C210.405 197.992 211.165 198.336 212.125 198.336C213.485 198.336 214.373 197.728 214.789 196.512H218.413C218.045 197.952 217.317 199.096 216.229 199.944C215.141 200.792 213.781 201.216 212.149 201.216C210.869 201.216 209.733 200.936 208.741 200.376C207.749 199.8 206.973 199 206.413 197.976C205.853 196.936 205.573 195.728 205.573 194.352ZM224.787 190.464V196.896C224.787 197.344 224.891 197.672 225.099 197.88C225.323 198.072 225.691 198.168 226.203 198.168H227.763V201H225.651C222.819 201 221.403 199.624 221.403 196.872V190.464H219.819V187.704H221.403V184.416H224.787V187.704H227.763V190.464H224.787ZM231.883 186.12C231.291 186.12 230.795 185.936 230.395 185.568C230.011 185.184 229.819 184.712 229.819 184.152C229.819 183.592 230.011 183.128 230.395 182.76C230.795 182.376 231.291 182.184 231.883 182.184C232.475 182.184 232.963 182.376 233.347 182.76C233.747 183.128 233.947 183.592 233.947 184.152C233.947 184.712 233.747 185.184 233.347 185.568C232.963 185.936 232.475 186.12 231.883 186.12ZM233.539 187.704V201H230.179V187.704H233.539ZM242.403 197.904L245.763 187.704H249.339L244.419 201H240.339L235.443 187.704H239.043L242.403 197.904ZM252.93 186.12C252.338 186.12 251.842 185.936 251.442 185.568C251.058 185.184 250.866 184.712 250.866 184.152C250.866 183.592 251.058 183.128 251.442 182.76C251.842 182.376 252.338 182.184 252.93 182.184C253.522 182.184 254.01 182.376 254.394 182.76C254.794 183.128 254.994 183.592 254.994 184.152C254.994 184.712 254.794 185.184 254.394 185.568C254.01 185.936 253.522 186.12 252.93 186.12ZM254.586 187.704V201H251.226V187.704H254.586ZM261.818 190.464V196.896C261.818 197.344 261.922 197.672 262.13 197.88C262.354 198.072 262.722 198.168 263.234 198.168H264.794V201H262.682C259.85 201 258.434 199.624 258.434 196.872V190.464H256.85V187.704H258.434V184.416H261.818V187.704H264.794V190.464H261.818ZM279.931 187.704L271.699 207.288H268.123L271.003 200.664L265.675 187.704H269.443L272.875 196.992L276.355 187.704H279.931ZM285.414 197.472L282.606 204.216H280.446L282.006 197.472H285.414ZM292.69 194.304C292.69 192.96 292.954 191.768 293.482 190.728C294.026 189.688 294.754 188.888 295.666 188.328C296.594 187.768 297.626 187.488 298.762 187.488C299.754 187.488 300.618 187.688 301.354 188.088C302.106 188.488 302.706 188.992 303.154 189.6V187.704H306.538V201H303.154V199.056C302.722 199.68 302.122 200.2 301.354 200.616C300.602 201.016 299.73 201.216 298.738 201.216C297.618 201.216 296.594 200.928 295.666 200.352C294.754 199.776 294.026 198.968 293.482 197.928C292.954 196.872 292.69 195.664 292.69 194.304ZM303.154 194.352C303.154 193.536 302.994 192.84 302.674 192.264C302.354 191.672 301.922 191.224 301.378 190.92C300.834 190.6 300.25 190.44 299.626 190.44C299.002 190.44 298.426 190.592 297.898 190.896C297.37 191.2 296.938 191.648 296.602 192.24C296.282 192.816 296.122 193.504 296.122 194.304C296.122 195.104 296.282 195.808 296.602 196.416C296.938 197.008 297.37 197.464 297.898 197.784C298.442 198.104 299.018 198.264 299.626 198.264C300.25 198.264 300.834 198.112 301.378 197.808C301.922 197.488 302.354 197.04 302.674 196.464C302.994 195.872 303.154 195.168 303.154 194.352ZM317.188 187.512C318.772 187.512 320.052 188.016 321.028 189.024C322.004 190.016 322.492 191.408 322.492 193.2V201H319.132V193.656C319.132 192.6 318.868 191.792 318.34 191.232C317.812 190.656 317.092 190.368 316.18 190.368C315.252 190.368 314.516 190.656 313.972 191.232C313.444 191.792 313.18 192.6 313.18 193.656V201H309.82V187.704H313.18V189.36C313.628 188.784 314.196 188.336 314.884 188.016C315.588 187.68 316.356 187.512 317.188 187.512ZM324.823 194.304C324.823 192.96 325.087 191.768 325.615 190.728C326.159 189.688 326.895 188.888 327.823 188.328C328.751 187.768 329.783 187.488 330.919 187.488C331.783 187.488 332.607 187.68 333.391 188.064C334.175 188.432 334.799 188.928 335.263 189.552V183.24H338.671V201H335.263V199.032C334.847 199.688 334.263 200.216 333.511 200.616C332.759 201.016 331.887 201.216 330.895 201.216C329.775 201.216 328.751 200.928 327.823 200.352C326.895 199.776 326.159 198.968 325.615 197.928C325.087 196.872 324.823 195.664 324.823 194.304ZM335.287 194.352C335.287 193.536 335.127 192.84 334.807 192.264C334.487 191.672 334.055 191.224 333.511 190.92C332.967 190.6 332.383 190.44 331.759 190.44C331.135 190.44 330.559 190.592 330.031 190.896C329.503 191.2 329.071 191.648 328.735 192.24C328.415 192.816 328.255 193.504 328.255 194.304C328.255 195.104 328.415 195.808 328.735 196.416C329.071 197.008 329.503 197.464 330.031 197.784C330.575 198.104 331.151 198.264 331.759 198.264C332.383 198.264 332.967 198.112 333.511 197.808C334.055 197.488 334.487 197.04 334.807 196.464C335.127 195.872 335.287 195.168 335.287 194.352ZM360.032 194.064C360.032 194.544 360 194.976 359.936 195.36H350.216C350.296 196.32 350.632 197.072 351.224 197.616C351.816 198.16 352.544 198.432 353.408 198.432C354.656 198.432 355.544 197.896 356.072 196.824H359.696C359.312 198.104 358.576 199.16 357.488 199.992C356.4 200.808 355.064 201.216 353.48 201.216C352.2 201.216 351.048 200.936 350.024 200.376C349.016 199.8 348.224 198.992 347.648 197.952C347.088 196.912 346.808 195.712 346.808 194.352C346.808 192.976 347.088 191.768 347.648 190.728C348.208 189.688 348.992 188.888 350 188.328C351.008 187.768 352.168 187.488 353.48 187.488C354.744 187.488 355.872 187.76 356.864 188.304C357.872 188.848 358.648 189.624 359.192 190.632C359.752 191.624 360.032 192.768 360.032 194.064ZM356.552 193.104C356.536 192.24 356.224 191.552 355.616 191.04C355.008 190.512 354.264 190.248 353.384 190.248C352.552 190.248 351.848 190.504 351.272 191.016C350.712 191.512 350.368 192.208 350.24 193.104H356.552ZM361.62 194.304C361.62 192.96 361.884 191.768 362.412 190.728C362.956 189.688 363.684 188.888 364.596 188.328C365.524 187.768 366.556 187.488 367.692 187.488C368.684 187.488 369.548 187.688 370.284 188.088C371.036 188.488 371.636 188.992 372.084 189.6V187.704H375.468V201H372.084V199.056C371.652 199.68 371.052 200.2 370.284 200.616C369.532 201.016 368.66 201.216 367.668 201.216C366.548 201.216 365.524 200.928 364.596 200.352C363.684 199.776 362.956 198.968 362.412 197.928C361.884 196.872 361.62 195.664 361.62 194.304ZM372.084 194.352C372.084 193.536 371.924 192.84 371.604 192.264C371.284 191.672 370.852 191.224 370.308 190.92C369.764 190.6 369.18 190.44 368.556 190.44C367.932 190.44 367.356 190.592 366.828 190.896C366.3 191.2 365.868 191.648 365.532 192.24C365.212 192.816 365.052 193.504 365.052 194.304C365.052 195.104 365.212 195.808 365.532 196.416C365.868 197.008 366.3 197.464 366.828 197.784C367.372 198.104 367.948 198.264 368.556 198.264C369.18 198.264 369.764 198.112 370.308 197.808C370.852 197.488 371.284 197.04 371.604 196.464C371.924 195.872 372.084 195.168 372.084 194.352ZM383.838 201.216C382.75 201.216 381.774 201.024 380.91 200.64C380.046 200.24 379.358 199.704 378.846 199.032C378.35 198.36 378.078 197.616 378.03 196.8H381.414C381.478 197.312 381.726 197.736 382.158 198.072C382.606 198.408 383.158 198.576 383.814 198.576C384.454 198.576 384.95 198.448 385.302 198.192C385.67 197.936 385.854 197.608 385.854 197.208C385.854 196.776 385.63 196.456 385.182 196.248C384.75 196.024 384.054 195.784 383.094 195.528C382.102 195.288 381.286 195.04 380.646 194.784C380.022 194.528 379.478 194.136 379.014 193.608C378.566 193.08 378.342 192.368 378.342 191.472C378.342 190.736 378.55 190.064 378.966 189.456C379.398 188.848 380.006 188.368 380.79 188.016C381.59 187.664 382.526 187.488 383.598 187.488C385.182 187.488 386.446 187.888 387.39 188.688C388.334 189.472 388.854 190.536 388.95 191.88H385.734C385.686 191.352 385.462 190.936 385.062 190.632C384.678 190.312 384.158 190.152 383.502 190.152C382.894 190.152 382.422 190.264 382.086 190.488C381.766 190.712 381.606 191.024 381.606 191.424C381.606 191.872 381.83 192.216 382.278 192.456C382.726 192.68 383.422 192.912 384.366 193.152C385.326 193.392 386.118 193.64 386.742 193.896C387.366 194.152 387.902 194.552 388.35 195.096C388.814 195.624 389.054 196.328 389.07 197.208C389.07 197.976 388.854 198.664 388.422 199.272C388.006 199.88 387.398 200.36 386.598 200.712C385.814 201.048 384.894 201.216 383.838 201.216ZM393.532 186.12C392.94 186.12 392.444 185.936 392.044 185.568C391.66 185.184 391.468 184.712 391.468 184.152C391.468 183.592 391.66 183.128 392.044 182.76C392.444 182.376 392.94 182.184 393.532 182.184C394.124 182.184 394.612 182.376 394.996 182.76C395.396 183.128 395.596 183.592 395.596 184.152C395.596 184.712 395.396 185.184 394.996 185.568C394.612 185.936 394.124 186.12 393.532 186.12ZM395.188 187.704V201H391.828V187.704H395.188ZM401.868 183.24V201H398.508V183.24H401.868ZM417.907 187.704L409.675 207.288H406.099L408.979 200.664L403.651 187.704H407.419L410.851 196.992L414.331 187.704H417.907ZM20.792 218.304C20.792 216.96 21.056 215.768 21.584 214.728C22.128 213.688 22.856 212.888 23.768 212.328C24.696 211.768 25.728 211.488 26.864 211.488C27.856 211.488 28.72 211.688 29.456 212.088C30.208 212.488 30.808 212.992 31.256 213.6V211.704H34.64V225H31.256V223.056C30.824 223.68 30.224 224.2 29.456 224.616C28.704 225.016 27.832 225.216 26.84 225.216C25.72 225.216 24.696 224.928 23.768 224.352C22.856 223.776 22.128 222.968 21.584 221.928C21.056 220.872 20.792 219.664 20.792 218.304ZM31.256 218.352C31.256 217.536 31.096 216.84 30.776 216.264C30.456 215.672 30.024 215.224 29.48 214.92C28.936 214.6 28.352 214.44 27.728 214.44C27.104 214.44 26.528 214.592 26 214.896C25.472 215.2 25.04 215.648 24.704 216.24C24.384 216.816 24.224 217.504 24.224 218.304C24.224 219.104 24.384 219.808 24.704 220.416C25.04 221.008 25.472 221.464 26 221.784C26.544 222.104 27.12 222.264 27.728 222.264C28.352 222.264 28.936 222.112 29.48 221.808C30.024 221.488 30.456 221.04 30.776 220.464C31.096 219.872 31.256 219.168 31.256 218.352ZM37.0576 218.352C37.0576 216.976 37.3376 215.776 37.8976 214.752C38.4576 213.712 39.2336 212.912 40.2256 212.352C41.2176 211.776 42.3536 211.488 43.6336 211.488C45.2816 211.488 46.6416 211.904 47.7136 212.736C48.8016 213.552 49.5296 214.704 49.8976 216.192H46.2736C46.0816 215.616 45.7536 215.168 45.2896 214.848C44.8416 214.512 44.2816 214.344 43.6096 214.344C42.6496 214.344 41.8896 214.696 41.3296 215.4C40.7696 216.088 40.4896 217.072 40.4896 218.352C40.4896 219.616 40.7696 220.6 41.3296 221.304C41.8896 221.992 42.6496 222.336 43.6096 222.336C44.9696 222.336 45.8576 221.728 46.2736 220.512H49.8976C49.5296 221.952 48.8016 223.096 47.7136 223.944C46.6256 224.792 45.2656 225.216 43.6336 225.216C42.3536 225.216 41.2176 224.936 40.2256 224.376C39.2336 223.8 38.4576 223 37.8976 221.976C37.3376 220.936 37.0576 219.728 37.0576 218.352ZM59.8471 211.512C60.8551 211.512 61.7511 211.736 62.5351 212.184C63.3191 212.616 63.9271 213.264 64.3591 214.128C64.8071 214.976 65.0311 216 65.0311 217.2V225H61.6711V217.656C61.6711 216.6 61.4071 215.792 60.8791 215.232C60.3511 214.656 59.6311 214.368 58.7191 214.368C57.7911 214.368 57.0551 214.656 56.5111 215.232C55.9831 215.792 55.7191 216.6 55.7191 217.656V225H52.3591V207.24H55.7191V213.36C56.1511 212.784 56.7271 212.336 57.4471 212.016C58.1671 211.68 58.9671 211.512 59.8471 211.512ZM69.9303 210.12C69.3383 210.12 68.8423 209.936 68.4423 209.568C68.0583 209.184 67.8663 208.712 67.8663 208.152C67.8663 207.592 68.0583 207.128 68.4423 206.76C68.8423 206.376 69.3383 206.184 69.9303 206.184C70.5223 206.184 71.0103 206.376 71.3943 206.76C71.7943 207.128 71.9943 207.592 71.9943 208.152C71.9943 208.712 71.7943 209.184 71.3943 209.568C71.0103 209.936 70.5223 210.12 69.9303 210.12ZM71.5863 211.704V225H68.2263V211.704H71.5863ZM87.266 218.064C87.266 218.544 87.234 218.976 87.17 219.36H77.45C77.53 220.32 77.866 221.072 78.458 221.616C79.05 222.16 79.778 222.432 80.642 222.432C81.89 222.432 82.778 221.896 83.306 220.824H86.93C86.546 222.104 85.81 223.16 84.722 223.992C83.634 224.808 82.298 225.216 80.714 225.216C79.434 225.216 78.282 224.936 77.258 224.376C76.25 223.8 75.458 222.992 74.882 221.952C74.322 220.912 74.042 219.712 74.042 218.352C74.042 216.976 74.322 215.768 74.882 214.728C75.442 213.688 76.226 212.888 77.234 212.328C78.242 211.768 79.402 211.488 80.714 211.488C81.978 211.488 83.106 211.76 84.098 212.304C85.106 212.848 85.882 213.624 86.426 214.632C86.986 215.624 87.266 216.768 87.266 218.064ZM83.786 217.104C83.77 216.24 83.458 215.552 82.85 215.04C82.242 214.512 81.498 214.248 80.618 214.248C79.786 214.248 79.082 214.504 78.506 215.016C77.946 215.512 77.602 216.208 77.474 217.104H83.786ZM95.2625 221.904L98.6225 211.704H102.199L97.2785 225H93.1985L88.3025 211.704H91.9025L95.2625 221.904ZM116.446 218.064C116.446 218.544 116.414 218.976 116.35 219.36H106.63C106.71 220.32 107.046 221.072 107.638 221.616C108.23 222.16 108.958 222.432 109.822 222.432C111.07 222.432 111.958 221.896 112.486 220.824H116.11C115.726 222.104 114.99 223.16 113.902 223.992C112.814 224.808 111.478 225.216 109.894 225.216C108.614 225.216 107.462 224.936 106.438 224.376C105.43 223.8 104.638 222.992 104.062 221.952C103.502 220.912 103.222 219.712 103.222 218.352C103.222 216.976 103.502 215.768 104.062 214.728C104.622 213.688 105.406 212.888 106.414 212.328C107.422 211.768 108.582 211.488 109.894 211.488C111.158 211.488 112.286 211.76 113.278 212.304C114.286 212.848 115.062 213.624 115.606 214.632C116.166 215.624 116.446 216.768 116.446 218.064ZM112.966 217.104C112.95 216.24 112.638 215.552 112.03 215.04C111.422 214.512 110.678 214.248 109.798 214.248C108.966 214.248 108.262 214.504 107.686 215.016C107.126 215.512 106.782 216.208 106.654 217.104H112.966ZM137.337 211.704L129.105 231.288H125.529L128.409 224.664L123.081 211.704H126.849L130.281 220.992L133.761 211.704H137.337ZM145.052 225.216C143.772 225.216 142.62 224.936 141.596 224.376C140.572 223.8 139.764 222.992 139.172 221.952C138.596 220.912 138.308 219.712 138.308 218.352C138.308 216.992 138.604 215.792 139.196 214.752C139.804 213.712 140.628 212.912 141.668 212.352C142.708 211.776 143.868 211.488 145.148 211.488C146.428 211.488 147.588 211.776 148.628 212.352C149.668 212.912 150.484 213.712 151.076 214.752C151.684 215.792 151.988 216.992 151.988 218.352C151.988 219.712 151.676 220.912 151.052 221.952C150.444 222.992 149.612 223.8 148.556 224.376C147.516 224.936 146.348 225.216 145.052 225.216ZM145.052 222.288C145.66 222.288 146.228 222.144 146.756 221.856C147.3 221.552 147.732 221.104 148.052 220.512C148.372 219.92 148.532 219.2 148.532 218.352C148.532 217.088 148.196 216.12 147.524 215.448C146.868 214.76 146.06 214.416 145.1 214.416C144.14 214.416 143.332 214.76 142.676 215.448C142.036 216.12 141.716 217.088 141.716 218.352C141.716 219.616 142.028 220.592 142.652 221.28C143.292 221.952 144.092 222.288 145.052 222.288ZM167.005 211.704V225H163.621V223.32C163.189 223.896 162.621 224.352 161.917 224.688C161.229 225.008 160.477 225.168 159.661 225.168C158.621 225.168 157.701 224.952 156.901 224.52C156.101 224.072 155.469 223.424 155.005 222.576C154.557 221.712 154.333 220.688 154.333 219.504V211.704H157.693V219.024C157.693 220.08 157.957 220.896 158.485 221.472C159.013 222.032 159.733 222.312 160.645 222.312C161.573 222.312 162.301 222.032 162.829 221.472C163.357 220.896 163.621 220.08 163.621 219.024V211.704H167.005ZM173.68 213.768C174.112 213.064 174.672 212.512 175.36 212.112C176.064 211.712 176.864 211.512 177.76 211.512V215.04H176.872C175.816 215.04 175.016 215.288 174.472 215.784C173.944 216.28 173.68 217.144 173.68 218.376V225H170.32V211.704H173.68V213.768ZM190.95 211.488C191.942 211.488 192.814 211.688 193.566 212.088C194.318 212.472 194.91 212.976 195.342 213.6V211.704H198.726V225.096C198.726 226.328 198.478 227.424 197.982 228.384C197.486 229.36 196.742 230.128 195.75 230.688C194.758 231.264 193.558 231.552 192.15 231.552C190.262 231.552 188.71 231.112 187.494 230.232C186.294 229.352 185.614 228.152 185.454 226.632H188.79C188.966 227.24 189.342 227.72 189.918 228.072C190.51 228.44 191.222 228.624 192.054 228.624C193.03 228.624 193.822 228.328 194.43 227.736C195.038 227.16 195.342 226.28 195.342 225.096V223.032C194.91 223.656 194.31 224.176 193.542 224.592C192.79 225.008 191.926 225.216 190.95 225.216C189.83 225.216 188.806 224.928 187.878 224.352C186.95 223.776 186.214 222.968 185.67 221.928C185.142 220.872 184.878 219.664 184.878 218.304C184.878 216.96 185.142 215.768 185.67 214.728C186.214 213.688 186.942 212.888 187.854 212.328C188.782 211.768 189.814 211.488 190.95 211.488ZM195.342 218.352C195.342 217.536 195.182 216.84 194.862 216.264C194.542 215.672 194.11 215.224 193.566 214.92C193.022 214.6 192.438 214.44 191.814 214.44C191.19 214.44 190.614 214.592 190.086 214.896C189.558 215.2 189.126 215.648 188.79 216.24C188.47 216.816 188.31 217.504 188.31 218.304C188.31 219.104 188.47 219.808 188.79 220.416C189.126 221.008 189.558 221.464 190.086 221.784C190.63 222.104 191.206 222.264 191.814 222.264C192.438 222.264 193.022 222.112 193.566 221.808C194.11 221.488 194.542 221.04 194.862 220.464C195.182 219.872 195.342 219.168 195.342 218.352ZM207.912 225.216C206.632 225.216 205.48 224.936 204.456 224.376C203.432 223.8 202.624 222.992 202.032 221.952C201.456 220.912 201.168 219.712 201.168 218.352C201.168 216.992 201.464 215.792 202.056 214.752C202.664 213.712 203.488 212.912 204.528 212.352C205.568 211.776 206.728 211.488 208.008 211.488C209.288 211.488 210.448 211.776 211.488 212.352C212.528 212.912 213.344 213.712 213.936 214.752C214.544 215.792 214.848 216.992 214.848 218.352C214.848 219.712 214.536 220.912 213.912 221.952C213.304 222.992 212.472 223.8 211.416 224.376C210.376 224.936 209.208 225.216 207.912 225.216ZM207.912 222.288C208.52 222.288 209.088 222.144 209.616 221.856C210.16 221.552 210.592 221.104 210.912 220.512C211.232 219.92 211.392 219.2 211.392 218.352C211.392 217.088 211.056 216.12 210.384 215.448C209.728 214.76 208.92 214.416 207.96 214.416C207 214.416 206.192 214.76 205.536 215.448C204.896 216.12 204.576 217.088 204.576 218.352C204.576 219.616 204.888 220.592 205.512 221.28C206.152 221.952 206.952 222.288 207.912 222.288ZM216.448 218.304C216.448 216.96 216.712 215.768 217.24 214.728C217.784 213.688 218.512 212.888 219.424 212.328C220.352 211.768 221.384 211.488 222.52 211.488C223.512 211.488 224.376 211.688 225.112 212.088C225.864 212.488 226.464 212.992 226.912 213.6V211.704H230.296V225H226.912V223.056C226.48 223.68 225.88 224.2 225.112 224.616C224.36 225.016 223.488 225.216 222.496 225.216C221.376 225.216 220.352 224.928 219.424 224.352C218.512 223.776 217.784 222.968 217.24 221.928C216.712 220.872 216.448 219.664 216.448 218.304ZM226.912 218.352C226.912 217.536 226.752 216.84 226.432 216.264C226.112 215.672 225.68 215.224 225.136 214.92C224.592 214.6 224.008 214.44 223.384 214.44C222.76 214.44 222.184 214.592 221.656 214.896C221.128 215.2 220.696 215.648 220.36 216.24C220.04 216.816 219.88 217.504 219.88 218.304C219.88 219.104 220.04 219.808 220.36 220.416C220.696 221.008 221.128 221.464 221.656 221.784C222.2 222.104 222.776 222.264 223.384 222.264C224.008 222.264 224.592 222.112 225.136 221.808C225.68 221.488 226.112 221.04 226.432 220.464C226.752 219.872 226.912 219.168 226.912 218.352ZM236.938 207.24V225H233.578V207.24H236.938ZM245.346 225.216C244.258 225.216 243.282 225.024 242.418 224.64C241.554 224.24 240.866 223.704 240.354 223.032C239.858 222.36 239.586 221.616 239.538 220.8H242.922C242.986 221.312 243.234 221.736 243.666 222.072C244.114 222.408 244.666 222.576 245.322 222.576C245.962 222.576 246.458 222.448 246.81 222.192C247.178 221.936 247.362 221.608 247.362 221.208C247.362 220.776 247.138 220.456 246.69 220.248C246.258 220.024 245.562 219.784 244.602 219.528C243.61 219.288 242.794 219.04 242.154 218.784C241.53 218.528 240.986 218.136 240.522 217.608C240.074 217.08 239.85 216.368 239.85 215.472C239.85 214.736 240.058 214.064 240.474 213.456C240.906 212.848 241.514 212.368 242.298 212.016C243.098 211.664 244.034 211.488 245.106 211.488C246.69 211.488 247.954 211.888 248.898 212.688C249.842 213.472 250.362 214.536 250.458 215.88H247.242C247.194 215.352 246.97 214.936 246.57 214.632C246.186 214.312 245.666 214.152 245.01 214.152C244.402 214.152 243.93 214.264 243.594 214.488C243.274 214.712 243.114 215.024 243.114 215.424C243.114 215.872 243.338 216.216 243.786 216.456C244.234 216.68 244.93 216.912 245.874 217.152C246.834 217.392 247.626 217.64 248.25 217.896C248.874 218.152 249.41 218.552 249.858 219.096C250.322 219.624 250.562 220.328 250.578 221.208C250.578 221.976 250.362 222.664 249.93 223.272C249.514 223.88 248.906 224.36 248.106 224.712C247.322 225.048 246.402 225.216 245.346 225.216Z" fill="white"/>
<defs>
<clipPath id="clip0_1_873">
<rect width="300" height="63" fill="white" transform="translate(20 39)"/>
</clipPath>
<clipPath id="clip1_1_873">
<rect width="141.6" height="118.303" fill="white" transform="translate(136 -23)"/>
</clipPath>
</defs>
</svg>
