<svg width="609" height="201" viewBox="0 0 609 201" fill="none" xmlns="http://www.w3.org/2000/svg">
<rect width="609" height="176" rx="20" fill="#312F2F"/>
<path d="M47.44 64.168C46.272 64.168 45.216 63.968 44.272 63.568C43.344 63.168 42.608 62.592 42.064 61.84C41.52 61.088 41.24 60.2 41.224 59.176H44.824C44.872 59.864 45.112 60.408 45.544 60.808C45.992 61.208 46.6 61.408 47.368 61.408C48.152 61.408 48.768 61.224 49.216 60.856C49.664 60.472 49.888 59.976 49.888 59.368C49.888 58.872 49.736 58.464 49.432 58.144C49.128 57.824 48.744 57.576 48.28 57.4C47.832 57.208 47.208 57 46.408 56.776C45.32 56.456 44.432 56.144 43.744 55.84C43.072 55.52 42.488 55.048 41.992 54.424C41.512 53.784 41.272 52.936 41.272 51.88C41.272 50.888 41.52 50.024 42.016 49.288C42.512 48.552 43.208 47.992 44.104 47.608C45 47.208 46.024 47.008 47.176 47.008C48.904 47.008 50.304 47.432 51.376 48.28C52.464 49.112 53.064 50.28 53.176 51.784H49.48C49.448 51.208 49.2 50.736 48.736 50.368C48.288 49.984 47.688 49.792 46.936 49.792C46.28 49.792 45.752 49.96 45.352 50.296C44.968 50.632 44.776 51.12 44.776 51.76C44.776 52.208 44.92 52.584 45.208 52.888C45.512 53.176 45.88 53.416 46.312 53.608C46.76 53.784 47.384 53.992 48.184 54.232C49.272 54.552 50.16 54.872 50.848 55.192C51.536 55.512 52.128 55.992 52.624 56.632C53.12 57.272 53.368 58.112 53.368 59.152C53.368 60.048 53.136 60.88 52.672 61.648C52.208 62.416 51.528 63.032 50.632 63.496C49.736 63.944 48.672 64.168 47.44 64.168ZM57.985 49.12C57.393 49.12 56.897 48.936 56.497 48.568C56.113 48.184 55.921 47.712 55.921 47.152C55.921 46.592 56.113 46.128 56.497 45.76C56.897 45.376 57.393 45.184 57.985 45.184C58.577 45.184 59.065 45.376 59.449 45.76C59.849 46.128 60.049 46.592 60.049 47.152C60.049 47.712 59.849 48.184 59.449 48.568C59.065 48.936 58.577 49.12 57.985 49.12ZM59.641 50.704V64H56.281V50.704H59.641ZM75.6807 50.704L67.4487 70.288H63.8727L66.7527 63.664L61.4247 50.704H65.1927L68.6247 59.992L72.1047 50.704H75.6807ZM89.8519 57.064C89.8519 57.544 89.8199 57.976 89.7559 58.36H80.0359C80.1159 59.32 80.4519 60.072 81.0439 60.616C81.6359 61.16 82.3639 61.432 83.2279 61.432C84.4759 61.432 85.3639 60.896 85.8919 59.824H89.5159C89.1319 61.104 88.3959 62.16 87.3079 62.992C86.2199 63.808 84.8839 64.216 83.2999 64.216C82.0199 64.216 80.8679 63.936 79.8439 63.376C78.8359 62.8 78.0439 61.992 77.4679 60.952C76.9079 59.912 76.6279 58.712 76.6279 57.352C76.6279 55.976 76.9079 54.768 77.4679 53.728C78.0279 52.688 78.8119 51.888 79.8199 51.328C80.8279 50.768 81.9879 50.488 83.2999 50.488C84.5639 50.488 85.6919 50.76 86.6839 51.304C87.6919 51.848 88.4679 52.624 89.0119 53.632C89.5719 54.624 89.8519 55.768 89.8519 57.064ZM86.3719 56.104C86.3559 55.24 86.0439 54.552 85.4359 54.04C84.8279 53.512 84.0839 53.248 83.2039 53.248C82.3719 53.248 81.6679 53.504 81.0919 54.016C80.5319 54.512 80.1879 55.208 80.0599 56.104H86.3719ZM97.3924 64.216C96.3044 64.216 95.3284 64.024 94.4644 63.64C93.6004 63.24 92.9124 62.704 92.4004 62.032C91.9044 61.36 91.6324 60.616 91.5844 59.8H94.9684C95.0324 60.312 95.2804 60.736 95.7124 61.072C96.1604 61.408 96.7124 61.576 97.3684 61.576C98.0084 61.576 98.5044 61.448 98.8564 61.192C99.2244 60.936 99.4084 60.608 99.4084 60.208C99.4084 59.776 99.1844 59.456 98.7364 59.248C98.3044 59.024 97.6084 58.784 96.6484 58.528C95.6564 58.288 94.8404 58.04 94.2004 57.784C93.5764 57.528 93.0324 57.136 92.5684 56.608C92.1204 56.08 91.8964 55.368 91.8964 54.472C91.8964 53.736 92.1044 53.064 92.5204 52.456C92.9524 51.848 93.5604 51.368 94.3444 51.016C95.1444 50.664 96.0804 50.488 97.1524 50.488C98.7364 50.488 100 50.888 100.944 51.688C101.888 52.472 102.408 53.536 102.504 54.88H99.2884C99.2404 54.352 99.0164 53.936 98.6164 53.632C98.2324 53.312 97.7124 53.152 97.0564 53.152C96.4484 53.152 95.9764 53.264 95.6404 53.488C95.3204 53.712 95.1604 54.024 95.1604 54.424C95.1604 54.872 95.3844 55.216 95.8324 55.456C96.2804 55.68 96.9764 55.912 97.9204 56.152C98.8804 56.392 99.6724 56.64 100.296 56.896C100.92 57.152 101.456 57.552 101.904 58.096C102.368 58.624 102.608 59.328 102.624 60.208C102.624 60.976 102.408 61.664 101.976 62.272C101.56 62.88 100.952 63.36 100.152 63.712C99.3684 64.048 98.4484 64.216 97.3924 64.216ZM111.287 64.216C110.007 64.216 108.855 63.936 107.831 63.376C106.807 62.8 105.999 61.992 105.407 60.952C104.831 59.912 104.543 58.712 104.543 57.352C104.543 55.992 104.839 54.792 105.431 53.752C106.039 52.712 106.863 51.912 107.903 51.352C108.943 50.776 110.103 50.488 111.383 50.488C112.663 50.488 113.823 50.776 114.863 51.352C115.903 51.912 116.719 52.712 117.311 53.752C117.919 54.792 118.223 55.992 118.223 57.352C118.223 58.712 117.911 59.912 117.287 60.952C116.679 61.992 115.847 62.8 114.791 63.376C113.751 63.936 112.583 64.216 111.287 64.216ZM111.287 61.288C111.895 61.288 112.463 61.144 112.991 60.856C113.535 60.552 113.967 60.104 114.287 59.512C114.607 58.92 114.767 58.2 114.767 57.352C114.767 56.088 114.431 55.12 113.759 54.448C113.103 53.76 112.295 53.416 111.335 53.416C110.375 53.416 109.567 53.76 108.911 54.448C108.271 55.12 107.951 56.088 107.951 57.352C107.951 58.616 108.263 59.592 108.887 60.28C109.527 60.952 110.327 61.288 111.287 61.288ZM128.11 49.12C127.518 49.12 127.022 48.936 126.622 48.568C126.238 48.184 126.046 47.712 126.046 47.152C126.046 46.592 126.238 46.128 126.622 45.76C127.022 45.376 127.518 45.184 128.11 45.184C128.702 45.184 129.19 45.376 129.574 45.76C129.974 46.128 130.174 46.592 130.174 47.152C130.174 47.712 129.974 48.184 129.574 48.568C129.19 48.936 128.702 49.12 128.11 49.12ZM129.766 50.704V64H126.406V50.704H129.766ZM138.174 64.216C137.086 64.216 136.11 64.024 135.246 63.64C134.382 63.24 133.694 62.704 133.182 62.032C132.686 61.36 132.414 60.616 132.366 59.8H135.75C135.814 60.312 136.062 60.736 136.494 61.072C136.942 61.408 137.494 61.576 138.15 61.576C138.79 61.576 139.286 61.448 139.638 61.192C140.006 60.936 140.19 60.608 140.19 60.208C140.19 59.776 139.966 59.456 139.518 59.248C139.086 59.024 138.39 58.784 137.43 58.528C136.438 58.288 135.622 58.04 134.982 57.784C134.358 57.528 133.814 57.136 133.35 56.608C132.902 56.08 132.678 55.368 132.678 54.472C132.678 53.736 132.886 53.064 133.302 52.456C133.734 51.848 134.342 51.368 135.126 51.016C135.926 50.664 136.862 50.488 137.934 50.488C139.518 50.488 140.782 50.888 141.726 51.688C142.67 52.472 143.19 53.536 143.286 54.88H140.07C140.022 54.352 139.798 53.936 139.398 53.632C139.014 53.312 138.494 53.152 137.838 53.152C137.23 53.152 136.758 53.264 136.422 53.488C136.102 53.712 135.942 54.024 135.942 54.424C135.942 54.872 136.166 55.216 136.614 55.456C137.062 55.68 137.758 55.912 138.702 56.152C139.662 56.392 140.454 56.64 141.078 56.896C141.702 57.152 142.238 57.552 142.686 58.096C143.15 58.624 143.39 59.328 143.406 60.208C143.406 60.976 143.19 61.664 142.758 62.272C142.342 62.88 141.734 63.36 140.934 63.712C140.15 64.048 139.23 64.216 138.174 64.216ZM151.019 57.304C151.019 55.96 151.283 54.768 151.811 53.728C152.355 52.688 153.083 51.888 153.995 51.328C154.923 50.768 155.955 50.488 157.091 50.488C158.083 50.488 158.947 50.688 159.683 51.088C160.435 51.488 161.035 51.992 161.483 52.6V50.704H164.867V64H161.483V62.056C161.051 62.68 160.451 63.2 159.683 63.616C158.931 64.016 158.059 64.216 157.067 64.216C155.947 64.216 154.923 63.928 153.995 63.352C153.083 62.776 152.355 61.968 151.811 60.928C151.283 59.872 151.019 58.664 151.019 57.304ZM161.483 57.352C161.483 56.536 161.323 55.84 161.003 55.264C160.683 54.672 160.251 54.224 159.707 53.92C159.163 53.6 158.579 53.44 157.955 53.44C157.331 53.44 156.755 53.592 156.227 53.896C155.699 54.2 155.267 54.648 154.931 55.24C154.611 55.816 154.451 56.504 154.451 57.304C154.451 58.104 154.611 58.808 154.931 59.416C155.267 60.008 155.699 60.464 156.227 60.784C156.771 61.104 157.347 61.264 157.955 61.264C158.579 61.264 159.163 61.112 159.707 60.808C160.251 60.488 160.683 60.04 161.003 59.464C161.323 58.872 161.483 58.168 161.483 57.352ZM177.779 53.464V59.896C177.779 60.344 177.883 60.672 178.091 60.88C178.315 61.072 178.683 61.168 179.195 61.168H180.755V64H178.643C175.811 64 174.395 62.624 174.395 59.872V53.464H172.811V50.704H174.395V47.416H177.779V50.704H180.755V53.464H177.779ZM186.532 52.768C186.964 52.064 187.524 51.512 188.212 51.112C188.916 50.712 189.716 50.512 190.612 50.512V54.04H189.724C188.668 54.04 187.868 54.288 187.324 54.784C186.796 55.28 186.532 56.144 186.532 57.376V64H183.172V50.704H186.532V52.768ZM205.427 50.704V64H202.043V62.32C201.611 62.896 201.043 63.352 200.339 63.688C199.651 64.008 198.899 64.168 198.083 64.168C197.043 64.168 196.123 63.952 195.323 63.52C194.523 63.072 193.891 62.424 193.427 61.576C192.979 60.712 192.755 59.688 192.755 58.504V50.704H196.115V58.024C196.115 59.08 196.379 59.896 196.907 60.472C197.435 61.032 198.155 61.312 199.067 61.312C199.995 61.312 200.723 61.032 201.251 60.472C201.779 59.896 202.043 59.08 202.043 58.024V50.704H205.427ZM213.83 64.216C212.742 64.216 211.766 64.024 210.902 63.64C210.038 63.24 209.35 62.704 208.838 62.032C208.342 61.36 208.07 60.616 208.022 59.8H211.406C211.47 60.312 211.718 60.736 212.15 61.072C212.598 61.408 213.15 61.576 213.806 61.576C214.446 61.576 214.942 61.448 215.294 61.192C215.662 60.936 215.846 60.608 215.846 60.208C215.846 59.776 215.622 59.456 215.174 59.248C214.742 59.024 214.046 58.784 213.086 58.528C212.094 58.288 211.278 58.04 210.638 57.784C210.014 57.528 209.47 57.136 209.006 56.608C208.558 56.08 208.334 55.368 208.334 54.472C208.334 53.736 208.542 53.064 208.958 52.456C209.39 51.848 209.998 51.368 210.782 51.016C211.582 50.664 212.518 50.488 213.59 50.488C215.174 50.488 216.438 50.888 217.382 51.688C218.326 52.472 218.846 53.536 218.942 54.88H215.726C215.678 54.352 215.454 53.936 215.054 53.632C214.67 53.312 214.15 53.152 213.494 53.152C212.886 53.152 212.414 53.264 212.078 53.488C211.758 53.712 211.598 54.024 211.598 54.424C211.598 54.872 211.822 55.216 212.27 55.456C212.718 55.68 213.414 55.912 214.358 56.152C215.318 56.392 216.11 56.64 216.734 56.896C217.358 57.152 217.894 57.552 218.342 58.096C218.806 58.624 219.046 59.328 219.062 60.208C219.062 60.976 218.846 61.664 218.414 62.272C217.998 62.88 217.39 63.36 216.59 63.712C215.806 64.048 214.886 64.216 213.83 64.216ZM225.732 53.464V59.896C225.732 60.344 225.836 60.672 226.044 60.88C226.268 61.072 226.636 61.168 227.148 61.168H228.708V64H226.596C223.764 64 222.348 62.624 222.348 59.872V53.464H220.764V50.704H222.348V47.416H225.732V50.704H228.708V53.464H225.732ZM243.485 57.064C243.485 57.544 243.453 57.976 243.389 58.36H233.669C233.749 59.32 234.085 60.072 234.677 60.616C235.269 61.16 235.997 61.432 236.861 61.432C238.109 61.432 238.997 60.896 239.525 59.824H243.149C242.765 61.104 242.029 62.16 240.941 62.992C239.853 63.808 238.517 64.216 236.933 64.216C235.653 64.216 234.501 63.936 233.477 63.376C232.469 62.8 231.677 61.992 231.101 60.952C230.541 59.912 230.261 58.712 230.261 57.352C230.261 55.976 230.541 54.768 231.101 53.728C231.661 52.688 232.445 51.888 233.453 51.328C234.461 50.768 235.621 50.488 236.933 50.488C238.197 50.488 239.325 50.76 240.317 51.304C241.325 51.848 242.101 52.624 242.645 53.632C243.205 54.624 243.485 55.768 243.485 57.064ZM240.005 56.104C239.989 55.24 239.677 54.552 239.069 54.04C238.461 53.512 237.717 53.248 236.837 53.248C236.005 53.248 235.301 53.504 234.725 54.016C234.165 54.512 233.821 55.208 233.693 56.104H240.005ZM245.073 57.304C245.073 55.96 245.337 54.768 245.865 53.728C246.409 52.688 247.145 51.888 248.073 51.328C249.001 50.768 250.033 50.488 251.169 50.488C252.033 50.488 252.857 50.68 253.641 51.064C254.425 51.432 255.049 51.928 255.513 52.552V46.24H258.921V64H255.513V62.032C255.097 62.688 254.513 63.216 253.761 63.616C253.009 64.016 252.137 64.216 251.145 64.216C250.025 64.216 249.001 63.928 248.073 63.352C247.145 62.776 246.409 61.968 245.865 60.928C245.337 59.872 245.073 58.664 245.073 57.304ZM255.537 57.352C255.537 56.536 255.377 55.84 255.057 55.264C254.737 54.672 254.305 54.224 253.761 53.92C253.217 53.6 252.633 53.44 252.009 53.44C251.385 53.44 250.809 53.592 250.281 53.896C249.753 54.2 249.321 54.648 248.985 55.24C248.665 55.816 248.505 56.504 248.505 57.304C248.505 58.104 248.665 58.808 248.985 59.416C249.321 60.008 249.753 60.464 250.281 60.784C250.825 61.104 251.401 61.264 252.009 61.264C252.633 61.264 253.217 61.112 253.761 60.808C254.305 60.488 254.737 60.04 255.057 59.464C255.377 58.872 255.537 58.168 255.537 57.352ZM273.01 64.216C271.922 64.216 270.946 64.024 270.082 63.64C269.218 63.24 268.53 62.704 268.018 62.032C267.522 61.36 267.25 60.616 267.202 59.8H270.586C270.65 60.312 270.898 60.736 271.33 61.072C271.778 61.408 272.33 61.576 272.986 61.576C273.626 61.576 274.122 61.448 274.474 61.192C274.842 60.936 275.026 60.608 275.026 60.208C275.026 59.776 274.802 59.456 274.354 59.248C273.922 59.024 273.226 58.784 272.266 58.528C271.274 58.288 270.458 58.04 269.818 57.784C269.194 57.528 268.65 57.136 268.186 56.608C267.738 56.08 267.514 55.368 267.514 54.472C267.514 53.736 267.722 53.064 268.138 52.456C268.57 51.848 269.178 51.368 269.962 51.016C270.762 50.664 271.698 50.488 272.77 50.488C274.354 50.488 275.618 50.888 276.562 51.688C277.506 52.472 278.026 53.536 278.122 54.88H274.906C274.858 54.352 274.634 53.936 274.234 53.632C273.85 53.312 273.33 53.152 272.674 53.152C272.066 53.152 271.594 53.264 271.258 53.488C270.938 53.712 270.778 54.024 270.778 54.424C270.778 54.872 271.002 55.216 271.45 55.456C271.898 55.68 272.594 55.912 273.538 56.152C274.498 56.392 275.29 56.64 275.914 56.896C276.538 57.152 277.074 57.552 277.522 58.096C277.986 58.624 278.226 59.328 278.242 60.208C278.242 60.976 278.026 61.664 277.594 62.272C277.178 62.88 276.57 63.36 275.77 63.712C274.986 64.048 274.066 64.216 273.01 64.216ZM286.904 64.216C285.624 64.216 284.472 63.936 283.448 63.376C282.424 62.8 281.616 61.992 281.024 60.952C280.448 59.912 280.16 58.712 280.16 57.352C280.16 55.992 280.456 54.792 281.048 53.752C281.656 52.712 282.48 51.912 283.52 51.352C284.56 50.776 285.72 50.488 287 50.488C288.28 50.488 289.44 50.776 290.48 51.352C291.52 51.912 292.336 52.712 292.928 53.752C293.536 54.792 293.84 55.992 293.84 57.352C293.84 58.712 293.528 59.912 292.904 60.952C292.296 61.992 291.464 62.8 290.408 63.376C289.368 63.936 288.2 64.216 286.904 64.216ZM286.904 61.288C287.512 61.288 288.08 61.144 288.608 60.856C289.152 60.552 289.584 60.104 289.904 59.512C290.224 58.92 290.384 58.2 290.384 57.352C290.384 56.088 290.048 55.12 289.376 54.448C288.72 53.76 287.912 53.416 286.952 53.416C285.992 53.416 285.184 53.76 284.528 54.448C283.888 55.12 283.568 56.088 283.568 57.352C283.568 58.616 283.88 59.592 284.504 60.28C285.144 60.952 285.944 61.288 286.904 61.288ZM308.856 50.704V64H305.472V62.32C305.04 62.896 304.472 63.352 303.768 63.688C303.08 64.008 302.328 64.168 301.512 64.168C300.472 64.168 299.552 63.952 298.752 63.52C297.952 63.072 297.32 62.424 296.856 61.576C296.408 60.712 296.184 59.688 296.184 58.504V50.704H299.544V58.024C299.544 59.08 299.808 59.896 300.336 60.472C300.864 61.032 301.584 61.312 302.496 61.312C303.424 61.312 304.152 61.032 304.68 60.472C305.208 59.896 305.472 59.08 305.472 58.024V50.704H308.856ZM315.532 52.768C315.964 52.064 316.524 51.512 317.212 51.112C317.916 50.712 318.716 50.512 319.612 50.512V54.04H318.724C317.668 54.04 316.868 54.288 316.324 54.784C315.796 55.28 315.532 56.144 315.532 57.376V64H312.172V50.704H315.532V52.768ZM321.011 57.352C321.011 55.976 321.291 54.776 321.851 53.752C322.411 52.712 323.187 51.912 324.179 51.352C325.171 50.776 326.307 50.488 327.587 50.488C329.235 50.488 330.595 50.904 331.667 51.736C332.755 52.552 333.483 53.704 333.851 55.192H330.227C330.035 54.616 329.707 54.168 329.243 53.848C328.795 53.512 328.235 53.344 327.563 53.344C326.603 53.344 325.843 53.696 325.283 54.4C324.723 55.088 324.443 56.072 324.443 57.352C324.443 58.616 324.723 59.6 325.283 60.304C325.843 60.992 326.603 61.336 327.563 61.336C328.923 61.336 329.811 60.728 330.227 59.512H333.851C333.483 60.952 332.755 62.096 331.667 62.944C330.579 63.792 329.219 64.216 327.587 64.216C326.307 64.216 325.171 63.936 324.179 63.376C323.187 62.8 322.411 62 321.851 60.976C321.291 59.936 321.011 58.728 321.011 57.352ZM348.672 57.064C348.672 57.544 348.64 57.976 348.576 58.36H338.856C338.936 59.32 339.272 60.072 339.864 60.616C340.456 61.16 341.184 61.432 342.048 61.432C343.296 61.432 344.184 60.896 344.712 59.824H348.336C347.952 61.104 347.216 62.16 346.128 62.992C345.04 63.808 343.704 64.216 342.12 64.216C340.84 64.216 339.688 63.936 338.664 63.376C337.656 62.8 336.864 61.992 336.288 60.952C335.728 59.912 335.448 58.712 335.448 57.352C335.448 55.976 335.728 54.768 336.288 53.728C336.848 52.688 337.632 51.888 338.64 51.328C339.648 50.768 340.808 50.488 342.12 50.488C343.384 50.488 344.512 50.76 345.504 51.304C346.512 51.848 347.288 52.624 347.832 53.632C348.392 54.624 348.672 55.768 348.672 57.064ZM345.192 56.104C345.176 55.24 344.864 54.552 344.256 54.04C343.648 53.512 342.904 53.248 342.024 53.248C341.192 53.248 340.488 53.504 339.912 54.016C339.352 54.512 339.008 55.208 338.88 56.104H345.192ZM362.94 53.464H360.612V64H357.204V53.464H355.692V50.704H357.204V50.032C357.204 48.4 357.668 47.2 358.596 46.432C359.524 45.664 360.924 45.304 362.796 45.352V48.184C361.98 48.168 361.412 48.304 361.092 48.592C360.772 48.88 360.612 49.4 360.612 50.152V50.704H362.94V53.464ZM371.021 64.216C369.741 64.216 368.589 63.936 367.565 63.376C366.541 62.8 365.733 61.992 365.141 60.952C364.565 59.912 364.277 58.712 364.277 57.352C364.277 55.992 364.573 54.792 365.165 53.752C365.773 52.712 366.597 51.912 367.637 51.352C368.677 50.776 369.837 50.488 371.117 50.488C372.397 50.488 373.557 50.776 374.597 51.352C375.637 51.912 376.453 52.712 377.045 53.752C377.653 54.792 377.957 55.992 377.957 57.352C377.957 58.712 377.645 59.912 377.021 60.952C376.413 61.992 375.581 62.8 374.525 63.376C373.485 63.936 372.317 64.216 371.021 64.216ZM371.021 61.288C371.629 61.288 372.197 61.144 372.725 60.856C373.269 60.552 373.701 60.104 374.021 59.512C374.341 58.92 374.501 58.2 374.501 57.352C374.501 56.088 374.165 55.12 373.493 54.448C372.837 53.76 372.029 53.416 371.069 53.416C370.109 53.416 369.301 53.76 368.645 54.448C368.005 55.12 367.685 56.088 367.685 57.352C367.685 58.616 367.997 59.592 368.621 60.28C369.261 60.952 370.061 61.288 371.021 61.288ZM383.782 52.768C384.214 52.064 384.774 51.512 385.462 51.112C386.166 50.712 386.966 50.512 387.862 50.512V54.04H386.974C385.918 54.04 385.118 54.288 384.574 54.784C384.046 55.28 383.782 56.144 383.782 57.376V64H380.422V50.704H383.782V52.768ZM47.752 77.464H45.424V88H42.016V77.464H40.504V74.704H42.016V74.032C42.016 72.4 42.48 71.2 43.408 70.432C44.336 69.664 45.736 69.304 47.608 69.352V72.184C46.792 72.168 46.224 72.304 45.904 72.592C45.584 72.88 45.424 73.4 45.424 74.152V74.704H47.752V77.464ZM49.0654 81.304C49.0654 79.96 49.3294 78.768 49.8574 77.728C50.4014 76.688 51.1294 75.888 52.0414 75.328C52.9694 74.768 54.0014 74.488 55.1374 74.488C56.1294 74.488 56.9934 74.688 57.7294 75.088C58.4814 75.488 59.0814 75.992 59.5294 76.6V74.704H62.9134V88H59.5294V86.056C59.0974 86.68 58.4974 87.2 57.7294 87.616C56.9774 88.016 56.1054 88.216 55.1134 88.216C53.9934 88.216 52.9694 87.928 52.0414 87.352C51.1294 86.776 50.4014 85.968 49.8574 84.928C49.3294 83.872 49.0654 82.664 49.0654 81.304ZM59.5294 81.352C59.5294 80.536 59.3694 79.84 59.0494 79.264C58.7294 78.672 58.2974 78.224 57.7534 77.92C57.2094 77.6 56.6254 77.44 56.0014 77.44C55.3774 77.44 54.8014 77.592 54.2734 77.896C53.7454 78.2 53.3134 78.648 52.9774 79.24C52.6574 79.816 52.4974 80.504 52.4974 81.304C52.4974 82.104 52.6574 82.808 52.9774 83.416C53.3134 84.008 53.7454 84.464 54.2734 84.784C54.8174 85.104 55.3934 85.264 56.0014 85.264C56.6254 85.264 57.2094 85.112 57.7534 84.808C58.2974 84.488 58.7294 84.04 59.0494 83.464C59.3694 82.872 59.5294 82.168 59.5294 81.352ZM71.2831 88.216C70.1951 88.216 69.2191 88.024 68.3551 87.64C67.4911 87.24 66.8031 86.704 66.2911 86.032C65.7951 85.36 65.5231 84.616 65.4751 83.8H68.8591C68.9231 84.312 69.1711 84.736 69.6031 85.072C70.0511 85.408 70.6031 85.576 71.2591 85.576C71.8991 85.576 72.3951 85.448 72.7471 85.192C73.1151 84.936 73.2991 84.608 73.2991 84.208C73.2991 83.776 73.0751 83.456 72.6271 83.248C72.1951 83.024 71.4991 82.784 70.5391 82.528C69.5471 82.288 68.7311 82.04 68.0911 81.784C67.4671 81.528 66.9231 81.136 66.4591 80.608C66.0111 80.08 65.7871 79.368 65.7871 78.472C65.7871 77.736 65.9951 77.064 66.4111 76.456C66.8431 75.848 67.4511 75.368 68.2351 75.016C69.0351 74.664 69.9711 74.488 71.0431 74.488C72.6271 74.488 73.8911 74.888 74.8351 75.688C75.7791 76.472 76.2991 77.536 76.3951 78.88H73.1791C73.1311 78.352 72.9071 77.936 72.5071 77.632C72.1231 77.312 71.6031 77.152 70.9471 77.152C70.3391 77.152 69.8671 77.264 69.5311 77.488C69.2111 77.712 69.0511 78.024 69.0511 78.424C69.0511 78.872 69.2751 79.216 69.7231 79.456C70.1711 79.68 70.8671 79.912 71.8111 80.152C72.7711 80.392 73.5631 80.64 74.1871 80.896C74.8111 81.152 75.3471 81.552 75.7951 82.096C76.2591 82.624 76.4991 83.328 76.5151 84.208C76.5151 84.976 76.2991 85.664 75.8671 86.272C75.4511 86.88 74.8431 87.36 74.0431 87.712C73.2591 88.048 72.3391 88.216 71.2831 88.216ZM83.1852 77.464V83.896C83.1852 84.344 83.2892 84.672 83.4972 84.88C83.7212 85.072 84.0892 85.168 84.6012 85.168H86.1612V88H84.0492C81.2172 88 79.8012 86.624 79.8012 83.872V77.464H78.2172V74.704H79.8012V71.416H83.1852V74.704H86.1612V77.464H83.1852ZM93.4326 81.304C93.4326 79.96 93.6966 78.768 94.2246 77.728C94.7686 76.688 95.4966 75.888 96.4086 75.328C97.3366 74.768 98.3686 74.488 99.5046 74.488C100.497 74.488 101.361 74.688 102.097 75.088C102.849 75.488 103.449 75.992 103.897 76.6V74.704H107.281V88H103.897V86.056C103.465 86.68 102.865 87.2 102.097 87.616C101.345 88.016 100.473 88.216 99.4806 88.216C98.3606 88.216 97.3366 87.928 96.4086 87.352C95.4966 86.776 94.7686 85.968 94.2246 84.928C93.6966 83.872 93.4326 82.664 93.4326 81.304ZM103.897 81.352C103.897 80.536 103.737 79.84 103.417 79.264C103.097 78.672 102.665 78.224 102.121 77.92C101.577 77.6 100.993 77.44 100.369 77.44C99.7446 77.44 99.1686 77.592 98.6406 77.896C98.1126 78.2 97.6806 78.648 97.3446 79.24C97.0246 79.816 96.8646 80.504 96.8646 81.304C96.8646 82.104 97.0246 82.808 97.3446 83.416C97.6806 84.008 98.1126 84.464 98.6406 84.784C99.1846 85.104 99.7606 85.264 100.369 85.264C100.993 85.264 101.577 85.112 102.121 84.808C102.665 84.488 103.097 84.04 103.417 83.464C103.737 82.872 103.897 82.168 103.897 81.352ZM117.93 74.512C119.514 74.512 120.794 75.016 121.77 76.024C122.746 77.016 123.234 78.408 123.234 80.2V88H119.874V80.656C119.874 79.6 119.61 78.792 119.082 78.232C118.554 77.656 117.834 77.368 116.922 77.368C115.994 77.368 115.258 77.656 114.714 78.232C114.186 78.792 113.922 79.6 113.922 80.656V88H110.562V74.704H113.922V76.36C114.37 75.784 114.938 75.336 115.626 75.016C116.33 74.68 117.098 74.512 117.93 74.512ZM125.565 81.304C125.565 79.96 125.829 78.768 126.357 77.728C126.901 76.688 127.637 75.888 128.565 75.328C129.493 74.768 130.525 74.488 131.661 74.488C132.525 74.488 133.349 74.68 134.133 75.064C134.917 75.432 135.541 75.928 136.005 76.552V70.24H139.413V88H136.005V86.032C135.589 86.688 135.005 87.216 134.253 87.616C133.501 88.016 132.629 88.216 131.637 88.216C130.517 88.216 129.493 87.928 128.565 87.352C127.637 86.776 126.901 85.968 126.357 84.928C125.829 83.872 125.565 82.664 125.565 81.304ZM136.029 81.352C136.029 80.536 135.869 79.84 135.549 79.264C135.229 78.672 134.797 78.224 134.253 77.92C133.709 77.6 133.125 77.44 132.501 77.44C131.877 77.44 131.301 77.592 130.773 77.896C130.245 78.2 129.813 78.648 129.477 79.24C129.157 79.816 128.997 80.504 128.997 81.304C128.997 82.104 129.157 82.808 129.477 83.416C129.813 84.008 130.245 84.464 130.773 84.784C131.317 85.104 131.893 85.264 132.501 85.264C133.125 85.264 133.709 85.112 134.253 84.808C134.797 84.488 135.229 84.04 135.549 83.464C135.869 82.872 136.029 82.168 136.029 81.352ZM151.774 76.768C152.206 76.064 152.766 75.512 153.454 75.112C154.158 74.712 154.958 74.512 155.854 74.512V78.04H154.966C153.91 78.04 153.11 78.288 152.566 78.784C152.038 79.28 151.774 80.144 151.774 81.376V88H148.414V74.704H151.774V76.768ZM170.477 81.064C170.477 81.544 170.445 81.976 170.381 82.36H160.661C160.741 83.32 161.077 84.072 161.669 84.616C162.261 85.16 162.989 85.432 163.853 85.432C165.101 85.432 165.989 84.896 166.517 83.824H170.141C169.757 85.104 169.021 86.16 167.933 86.992C166.845 87.808 165.509 88.216 163.925 88.216C162.645 88.216 161.493 87.936 160.469 87.376C159.461 86.8 158.669 85.992 158.093 84.952C157.533 83.912 157.253 82.712 157.253 81.352C157.253 79.976 157.533 78.768 158.093 77.728C158.653 76.688 159.437 75.888 160.445 75.328C161.453 74.768 162.613 74.488 163.925 74.488C165.189 74.488 166.317 74.76 167.309 75.304C168.317 75.848 169.093 76.624 169.637 77.632C170.197 78.624 170.477 79.768 170.477 81.064ZM166.997 80.104C166.981 79.24 166.669 78.552 166.061 78.04C165.453 77.512 164.709 77.248 163.829 77.248C162.997 77.248 162.293 77.504 161.717 78.016C161.157 78.512 160.813 79.208 160.685 80.104H166.997ZM176.289 70.24V88H172.929V70.24H176.289ZM181.313 73.12C180.721 73.12 180.225 72.936 179.825 72.568C179.441 72.184 179.249 71.712 179.249 71.152C179.249 70.592 179.441 70.128 179.825 69.76C180.225 69.376 180.721 69.184 181.313 69.184C181.905 69.184 182.393 69.376 182.777 69.76C183.177 70.128 183.377 70.592 183.377 71.152C183.377 71.712 183.177 72.184 182.777 72.568C182.393 72.936 181.905 73.12 181.313 73.12ZM182.969 74.704V88H179.609V74.704H182.969ZM185.425 81.304C185.425 79.96 185.689 78.768 186.217 77.728C186.761 76.688 187.489 75.888 188.401 75.328C189.329 74.768 190.361 74.488 191.497 74.488C192.489 74.488 193.353 74.688 194.089 75.088C194.841 75.488 195.441 75.992 195.889 76.6V74.704H199.273V88H195.889V86.056C195.457 86.68 194.857 87.2 194.089 87.616C193.337 88.016 192.465 88.216 191.473 88.216C190.353 88.216 189.329 87.928 188.401 87.352C187.489 86.776 186.761 85.968 186.217 84.928C185.689 83.872 185.425 82.664 185.425 81.304ZM195.889 81.352C195.889 80.536 195.729 79.84 195.409 79.264C195.089 78.672 194.657 78.224 194.113 77.92C193.569 77.6 192.985 77.44 192.361 77.44C191.737 77.44 191.161 77.592 190.633 77.896C190.105 78.2 189.673 78.648 189.337 79.24C189.017 79.816 188.857 80.504 188.857 81.304C188.857 82.104 189.017 82.808 189.337 83.416C189.673 84.008 190.105 84.464 190.633 84.784C191.177 85.104 191.753 85.264 192.361 85.264C192.985 85.264 193.569 85.112 194.113 84.808C194.657 84.488 195.089 84.04 195.409 83.464C195.729 82.872 195.889 82.168 195.889 81.352ZM205.914 76.648C206.346 76.008 206.938 75.488 207.69 75.088C208.458 74.688 209.33 74.488 210.306 74.488C211.442 74.488 212.466 74.768 213.378 75.328C214.306 75.888 215.034 76.688 215.562 77.728C216.106 78.752 216.378 79.944 216.378 81.304C216.378 82.664 216.106 83.872 215.562 84.928C215.034 85.968 214.306 86.776 213.378 87.352C212.466 87.928 211.442 88.216 210.306 88.216C209.314 88.216 208.442 88.024 207.69 87.64C206.954 87.24 206.362 86.728 205.914 86.104V88H202.554V70.24H205.914V76.648ZM212.946 81.304C212.946 80.504 212.778 79.816 212.442 79.24C212.122 78.648 211.69 78.2 211.146 77.896C210.618 77.592 210.042 77.44 209.418 77.44C208.81 77.44 208.234 77.6 207.69 77.92C207.162 78.224 206.73 78.672 206.394 79.264C206.074 79.856 205.914 80.552 205.914 81.352C205.914 82.152 206.074 82.848 206.394 83.44C206.73 84.032 207.162 84.488 207.69 84.808C208.234 85.112 208.81 85.264 209.418 85.264C210.042 85.264 210.618 85.104 211.146 84.784C211.69 84.464 212.122 84.008 212.442 83.416C212.778 82.824 212.946 82.12 212.946 81.304ZM222.18 70.24V88H218.82V70.24H222.18ZM237.86 81.064C237.86 81.544 237.828 81.976 237.764 82.36H228.044C228.124 83.32 228.46 84.072 229.052 84.616C229.644 85.16 230.372 85.432 231.236 85.432C232.484 85.432 233.372 84.896 233.9 83.824H237.524C237.14 85.104 236.404 86.16 235.316 86.992C234.228 87.808 232.892 88.216 231.308 88.216C230.028 88.216 228.876 87.936 227.852 87.376C226.844 86.8 226.052 85.992 225.476 84.952C224.916 83.912 224.636 82.712 224.636 81.352C224.636 79.976 224.916 78.768 225.476 77.728C226.036 76.688 226.82 75.888 227.828 75.328C228.836 74.768 229.996 74.488 231.308 74.488C232.572 74.488 233.7 74.76 234.692 75.304C235.7 75.848 236.476 76.624 237.02 77.632C237.58 78.624 237.86 79.768 237.86 81.064ZM234.38 80.104C234.364 79.24 234.052 78.552 233.444 78.04C232.836 77.512 232.092 77.248 231.212 77.248C230.38 77.248 229.676 77.504 229.1 78.016C228.54 78.512 228.196 79.208 228.068 80.104H234.38ZM251.119 88.216C250.031 88.216 249.055 88.024 248.191 87.64C247.327 87.24 246.639 86.704 246.127 86.032C245.631 85.36 245.359 84.616 245.311 83.8H248.695C248.759 84.312 249.007 84.736 249.439 85.072C249.887 85.408 250.439 85.576 251.095 85.576C251.735 85.576 252.231 85.448 252.583 85.192C252.951 84.936 253.135 84.608 253.135 84.208C253.135 83.776 252.911 83.456 252.463 83.248C252.031 83.024 251.335 82.784 250.375 82.528C249.383 82.288 248.567 82.04 247.927 81.784C247.303 81.528 246.759 81.136 246.295 80.608C245.847 80.08 245.623 79.368 245.623 78.472C245.623 77.736 245.831 77.064 246.247 76.456C246.679 75.848 247.287 75.368 248.071 75.016C248.871 74.664 249.807 74.488 250.879 74.488C252.463 74.488 253.727 74.888 254.671 75.688C255.615 76.472 256.135 77.536 256.231 78.88H253.015C252.967 78.352 252.743 77.936 252.343 77.632C251.959 77.312 251.439 77.152 250.783 77.152C250.175 77.152 249.703 77.264 249.367 77.488C249.047 77.712 248.887 78.024 248.887 78.424C248.887 78.872 249.111 79.216 249.559 79.456C250.007 79.68 250.703 79.912 251.647 80.152C252.607 80.392 253.399 80.64 254.023 80.896C254.647 81.152 255.183 81.552 255.631 82.096C256.095 82.624 256.335 83.328 256.351 84.208C256.351 84.976 256.135 85.664 255.703 86.272C255.287 86.88 254.679 87.36 253.879 87.712C253.095 88.048 252.175 88.216 251.119 88.216ZM265.013 88.216C263.733 88.216 262.581 87.936 261.557 87.376C260.533 86.8 259.725 85.992 259.133 84.952C258.557 83.912 258.269 82.712 258.269 81.352C258.269 79.992 258.565 78.792 259.157 77.752C259.765 76.712 260.589 75.912 261.629 75.352C262.669 74.776 263.829 74.488 265.109 74.488C266.389 74.488 267.549 74.776 268.589 75.352C269.629 75.912 270.445 76.712 271.037 77.752C271.645 78.792 271.949 79.992 271.949 81.352C271.949 82.712 271.637 83.912 271.013 84.952C270.405 85.992 269.573 86.8 268.517 87.376C267.477 87.936 266.309 88.216 265.013 88.216ZM265.013 85.288C265.621 85.288 266.189 85.144 266.717 84.856C267.261 84.552 267.693 84.104 268.013 83.512C268.333 82.92 268.493 82.2 268.493 81.352C268.493 80.088 268.157 79.12 267.485 78.448C266.829 77.76 266.021 77.416 265.061 77.416C264.101 77.416 263.293 77.76 262.637 78.448C261.997 79.12 261.677 80.088 261.677 81.352C261.677 82.616 261.989 83.592 262.613 84.28C263.253 84.952 264.053 85.288 265.013 85.288ZM280.51 77.464H278.182V88H274.774V77.464H273.262V74.704H274.774V74.032C274.774 72.4 275.238 71.2 276.166 70.432C277.094 69.664 278.494 69.304 280.366 69.352V72.184C279.55 72.168 278.982 72.304 278.662 72.592C278.342 72.88 278.182 73.4 278.182 74.152V74.704H280.51V77.464ZM286.599 77.464V83.896C286.599 84.344 286.703 84.672 286.911 84.88C287.135 85.072 287.503 85.168 288.015 85.168H289.575V88H287.463C284.631 88 283.215 86.624 283.215 83.872V77.464H281.631V74.704H283.215V71.416H286.599V74.704H289.575V77.464H286.599ZM310.424 74.704L306.536 88H302.912L300.488 78.712L298.064 88H294.416L290.504 74.704H293.912L296.264 84.832L298.808 74.704H302.36L304.856 84.808L307.208 74.704H310.424ZM311.378 81.304C311.378 79.96 311.642 78.768 312.17 77.728C312.714 76.688 313.442 75.888 314.354 75.328C315.282 74.768 316.314 74.488 317.45 74.488C318.442 74.488 319.306 74.688 320.042 75.088C320.794 75.488 321.394 75.992 321.842 76.6V74.704H325.226V88H321.842V86.056C321.41 86.68 320.81 87.2 320.042 87.616C319.29 88.016 318.418 88.216 317.426 88.216C316.306 88.216 315.282 87.928 314.354 87.352C313.442 86.776 312.714 85.968 312.17 84.928C311.642 83.872 311.378 82.664 311.378 81.304ZM321.842 81.352C321.842 80.536 321.682 79.84 321.362 79.264C321.042 78.672 320.61 78.224 320.066 77.92C319.522 77.6 318.938 77.44 318.314 77.44C317.69 77.44 317.114 77.592 316.586 77.896C316.058 78.2 315.626 78.648 315.29 79.24C314.97 79.816 314.81 80.504 314.81 81.304C314.81 82.104 314.97 82.808 315.29 83.416C315.626 84.008 316.058 84.464 316.586 84.784C317.13 85.104 317.706 85.264 318.314 85.264C318.938 85.264 319.522 85.112 320.066 84.808C320.61 84.488 321.042 84.04 321.362 83.464C321.682 82.872 321.842 82.168 321.842 81.352ZM331.868 76.768C332.3 76.064 332.86 75.512 333.548 75.112C334.252 74.712 335.052 74.512 335.948 74.512V78.04H335.06C334.004 78.04 333.204 78.288 332.66 78.784C332.132 79.28 331.868 80.144 331.868 81.376V88H328.508V74.704H331.868V76.768ZM350.571 81.064C350.571 81.544 350.539 81.976 350.475 82.36H340.755C340.835 83.32 341.171 84.072 341.763 84.616C342.355 85.16 343.083 85.432 343.947 85.432C345.195 85.432 346.083 84.896 346.611 83.824H350.235C349.851 85.104 349.115 86.16 348.027 86.992C346.939 87.808 345.603 88.216 344.019 88.216C342.739 88.216 341.587 87.936 340.563 87.376C339.555 86.8 338.763 85.992 338.187 84.952C337.627 83.912 337.347 82.712 337.347 81.352C337.347 79.976 337.627 78.768 338.187 77.728C338.747 76.688 339.531 75.888 340.539 75.328C341.547 74.768 342.707 74.488 344.019 74.488C345.283 74.488 346.411 74.76 347.403 75.304C348.411 75.848 349.187 76.624 349.731 77.632C350.291 78.624 350.571 79.768 350.571 81.064ZM347.091 80.104C347.075 79.24 346.763 78.552 346.155 78.04C345.547 77.512 344.803 77.248 343.923 77.248C343.091 77.248 342.387 77.504 341.811 78.016C341.251 78.512 340.907 79.208 340.779 80.104H347.091ZM40.792 105.304C40.792 103.96 41.056 102.768 41.584 101.728C42.128 100.688 42.856 99.888 43.768 99.328C44.696 98.768 45.728 98.488 46.864 98.488C47.856 98.488 48.72 98.688 49.456 99.088C50.208 99.488 50.808 99.992 51.256 100.6V98.704H54.64V112H51.256V110.056C50.824 110.68 50.224 111.2 49.456 111.616C48.704 112.016 47.832 112.216 46.84 112.216C45.72 112.216 44.696 111.928 43.768 111.352C42.856 110.776 42.128 109.968 41.584 108.928C41.056 107.872 40.792 106.664 40.792 105.304ZM51.256 105.352C51.256 104.536 51.096 103.84 50.776 103.264C50.456 102.672 50.024 102.224 49.48 101.92C48.936 101.6 48.352 101.44 47.728 101.44C47.104 101.44 46.528 101.592 46 101.896C45.472 102.2 45.04 102.648 44.704 103.24C44.384 103.816 44.224 104.504 44.224 105.304C44.224 106.104 44.384 106.808 44.704 107.416C45.04 108.008 45.472 108.464 46 108.784C46.544 109.104 47.12 109.264 47.728 109.264C48.352 109.264 48.936 109.112 49.48 108.808C50.024 108.488 50.456 108.04 50.776 107.464C51.096 106.872 51.256 106.168 51.256 105.352ZM65.2896 98.512C66.8736 98.512 68.1536 99.016 69.1296 100.024C70.1056 101.016 70.5936 102.408 70.5936 104.2V112H67.2336V104.656C67.2336 103.6 66.9696 102.792 66.4416 102.232C65.9136 101.656 65.1936 101.368 64.2816 101.368C63.3536 101.368 62.6176 101.656 62.0736 102.232C61.5456 102.792 61.2816 103.6 61.2816 104.656V112H57.9216V98.704H61.2816V100.36C61.7296 99.784 62.2976 99.336 62.9856 99.016C63.6896 98.68 64.4576 98.512 65.2896 98.512ZM72.9248 105.304C72.9248 103.96 73.1888 102.768 73.7168 101.728C74.2608 100.688 74.9968 99.888 75.9248 99.328C76.8528 98.768 77.8848 98.488 79.0208 98.488C79.8848 98.488 80.7088 98.68 81.4928 99.064C82.2768 99.432 82.9008 99.928 83.3648 100.552V94.24H86.7728V112H83.3648V110.032C82.9488 110.688 82.3648 111.216 81.6128 111.616C80.8608 112.016 79.9888 112.216 78.9968 112.216C77.8768 112.216 76.8528 111.928 75.9248 111.352C74.9968 110.776 74.2608 109.968 73.7168 108.928C73.1888 107.872 72.9248 106.664 72.9248 105.304ZM83.3888 105.352C83.3888 104.536 83.2288 103.84 82.9088 103.264C82.5888 102.672 82.1568 102.224 81.6128 101.92C81.0688 101.6 80.4848 101.44 79.8608 101.44C79.2368 101.44 78.6608 101.592 78.1328 101.896C77.6048 102.2 77.1728 102.648 76.8368 103.24C76.5168 103.816 76.3568 104.504 76.3568 105.304C76.3568 106.104 76.5168 106.808 76.8368 107.416C77.1728 108.008 77.6048 108.464 78.1328 108.784C78.6768 109.104 79.2528 109.264 79.8608 109.264C80.4848 109.264 81.0688 109.112 81.6128 108.808C82.1568 108.488 82.5888 108.04 82.9088 107.464C83.2288 106.872 83.3888 106.168 83.3888 105.352ZM99.6852 101.464V107.896C99.6852 108.344 99.7892 108.672 99.9972 108.88C100.221 109.072 100.589 109.168 101.101 109.168H102.661V112H100.549C97.7172 112 96.3012 110.624 96.3012 107.872V101.464H94.7172V98.704H96.3012V95.416H99.6852V98.704H102.661V101.464H99.6852ZM117.438 105.064C117.438 105.544 117.406 105.976 117.342 106.36H107.622C107.702 107.32 108.038 108.072 108.63 108.616C109.222 109.16 109.95 109.432 110.814 109.432C112.062 109.432 112.95 108.896 113.478 107.824H117.102C116.718 109.104 115.982 110.16 114.894 110.992C113.806 111.808 112.47 112.216 110.886 112.216C109.606 112.216 108.454 111.936 107.43 111.376C106.422 110.8 105.63 109.992 105.054 108.952C104.494 107.912 104.214 106.712 104.214 105.352C104.214 103.976 104.494 102.768 105.054 101.728C105.614 100.688 106.398 99.888 107.406 99.328C108.414 98.768 109.574 98.488 110.886 98.488C112.15 98.488 113.278 98.76 114.27 99.304C115.278 99.848 116.054 100.624 116.598 101.632C117.158 102.624 117.438 103.768 117.438 105.064ZM113.958 104.104C113.942 103.24 113.63 102.552 113.022 102.04C112.414 101.512 111.67 101.248 110.79 101.248C109.958 101.248 109.254 101.504 108.678 102.016C108.118 102.512 107.774 103.208 107.646 104.104H113.958ZM119.026 105.352C119.026 103.976 119.306 102.776 119.866 101.752C120.426 100.712 121.202 99.912 122.194 99.352C123.186 98.776 124.322 98.488 125.602 98.488C127.25 98.488 128.61 98.904 129.682 99.736C130.77 100.552 131.498 101.704 131.866 103.192H128.242C128.05 102.616 127.722 102.168 127.258 101.848C126.81 101.512 126.25 101.344 125.578 101.344C124.618 101.344 123.858 101.696 123.298 102.4C122.738 103.088 122.458 104.072 122.458 105.352C122.458 106.616 122.738 107.6 123.298 108.304C123.858 108.992 124.618 109.336 125.578 109.336C126.938 109.336 127.826 108.728 128.242 107.512H131.866C131.498 108.952 130.77 110.096 129.682 110.944C128.594 111.792 127.234 112.216 125.602 112.216C124.322 112.216 123.186 111.936 122.194 111.376C121.202 110.8 120.426 110 119.866 108.976C119.306 107.936 119.026 106.728 119.026 105.352ZM141.816 98.512C142.824 98.512 143.72 98.736 144.504 99.184C145.288 99.616 145.896 100.264 146.328 101.128C146.776 101.976 147 103 147 104.2V112H143.64V104.656C143.64 103.6 143.376 102.792 142.848 102.232C142.32 101.656 141.6 101.368 140.688 101.368C139.76 101.368 139.024 101.656 138.48 102.232C137.952 102.792 137.688 103.6 137.688 104.656V112H134.328V94.24H137.688V100.36C138.12 99.784 138.696 99.336 139.416 99.016C140.136 98.68 140.936 98.512 141.816 98.512ZM157.563 98.512C159.147 98.512 160.427 99.016 161.403 100.024C162.379 101.016 162.867 102.408 162.867 104.2V112H159.507V104.656C159.507 103.6 159.243 102.792 158.715 102.232C158.187 101.656 157.467 101.368 156.555 101.368C155.627 101.368 154.891 101.656 154.347 102.232C153.819 102.792 153.555 103.6 153.555 104.656V112H150.195V98.704H153.555V100.36C154.003 99.784 154.571 99.336 155.259 99.016C155.963 98.68 156.731 98.512 157.563 98.512ZM171.966 112.216C170.686 112.216 169.534 111.936 168.51 111.376C167.486 110.8 166.678 109.992 166.086 108.952C165.51 107.912 165.222 106.712 165.222 105.352C165.222 103.992 165.518 102.792 166.11 101.752C166.718 100.712 167.542 99.912 168.582 99.352C169.622 98.776 170.782 98.488 172.062 98.488C173.342 98.488 174.502 98.776 175.542 99.352C176.582 99.912 177.398 100.712 177.99 101.752C178.598 102.792 178.902 103.992 178.902 105.352C178.902 106.712 178.59 107.912 177.966 108.952C177.358 109.992 176.526 110.8 175.47 111.376C174.43 111.936 173.262 112.216 171.966 112.216ZM171.966 109.288C172.574 109.288 173.142 109.144 173.67 108.856C174.214 108.552 174.646 108.104 174.966 107.512C175.286 106.92 175.446 106.2 175.446 105.352C175.446 104.088 175.11 103.12 174.438 102.448C173.782 101.76 172.974 101.416 172.014 101.416C171.054 101.416 170.246 101.76 169.59 102.448C168.95 103.12 168.63 104.088 168.63 105.352C168.63 106.616 168.942 107.592 169.566 108.28C170.206 108.952 171.006 109.288 171.966 109.288ZM184.727 94.24V112H181.367V94.24H184.727ZM193.951 112.216C192.671 112.216 191.519 111.936 190.495 111.376C189.471 110.8 188.663 109.992 188.071 108.952C187.495 107.912 187.207 106.712 187.207 105.352C187.207 103.992 187.503 102.792 188.095 101.752C188.703 100.712 189.527 99.912 190.567 99.352C191.607 98.776 192.767 98.488 194.047 98.488C195.327 98.488 196.487 98.776 197.527 99.352C198.567 99.912 199.383 100.712 199.975 101.752C200.583 102.792 200.887 103.992 200.887 105.352C200.887 106.712 200.575 107.912 199.951 108.952C199.343 109.992 198.511 110.8 197.455 111.376C196.415 111.936 195.247 112.216 193.951 112.216ZM193.951 109.288C194.559 109.288 195.127 109.144 195.655 108.856C196.199 108.552 196.631 108.104 196.951 107.512C197.271 106.92 197.431 106.2 197.431 105.352C197.431 104.088 197.095 103.12 196.423 102.448C195.767 101.76 194.959 101.416 193.999 101.416C193.039 101.416 192.231 101.76 191.575 102.448C190.935 103.12 190.615 104.088 190.615 105.352C190.615 106.616 190.927 107.592 191.551 108.28C192.191 108.952 192.991 109.288 193.951 109.288ZM208.559 98.488C209.551 98.488 210.423 98.688 211.175 99.088C211.927 99.472 212.519 99.976 212.951 100.6V98.704H216.335V112.096C216.335 113.328 216.087 114.424 215.591 115.384C215.095 116.36 214.351 117.128 213.359 117.688C212.367 118.264 211.167 118.552 209.759 118.552C207.871 118.552 206.319 118.112 205.103 117.232C203.903 116.352 203.223 115.152 203.063 113.632H206.399C206.575 114.24 206.951 114.72 207.527 115.072C208.119 115.44 208.831 115.624 209.663 115.624C210.639 115.624 211.431 115.328 212.039 114.736C212.647 114.16 212.951 113.28 212.951 112.096V110.032C212.519 110.656 211.919 111.176 211.151 111.592C210.399 112.008 209.535 112.216 208.559 112.216C207.439 112.216 206.415 111.928 205.487 111.352C204.559 110.776 203.823 109.968 203.279 108.928C202.751 107.872 202.487 106.664 202.487 105.304C202.487 103.96 202.751 102.768 203.279 101.728C203.823 100.688 204.551 99.888 205.463 99.328C206.391 98.768 207.423 98.488 208.559 98.488ZM212.951 105.352C212.951 104.536 212.791 103.84 212.471 103.264C212.151 102.672 211.719 102.224 211.175 101.92C210.631 101.6 210.047 101.44 209.423 101.44C208.799 101.44 208.223 101.592 207.695 101.896C207.167 102.2 206.735 102.648 206.399 103.24C206.079 103.816 205.919 104.504 205.919 105.304C205.919 106.104 206.079 106.808 206.399 107.416C206.735 108.008 207.167 108.464 207.695 108.784C208.239 109.104 208.815 109.264 209.423 109.264C210.047 109.264 210.631 109.112 211.175 108.808C211.719 108.488 212.151 108.04 212.471 107.464C212.791 106.872 212.951 106.168 212.951 105.352ZM232.337 98.704L224.105 118.288H220.529L223.409 111.664L218.081 98.704H221.849L225.281 107.992L228.761 98.704H232.337ZM244.955 112.216C243.867 112.216 242.891 112.024 242.027 111.64C241.163 111.24 240.475 110.704 239.963 110.032C239.467 109.36 239.195 108.616 239.147 107.8H242.531C242.595 108.312 242.843 108.736 243.275 109.072C243.723 109.408 244.275 109.576 244.931 109.576C245.571 109.576 246.067 109.448 246.419 109.192C246.787 108.936 246.971 108.608 246.971 108.208C246.971 107.776 246.747 107.456 246.299 107.248C245.867 107.024 245.171 106.784 244.211 106.528C243.219 106.288 242.403 106.04 241.763 105.784C241.139 105.528 240.595 105.136 240.131 104.608C239.683 104.08 239.459 103.368 239.459 102.472C239.459 101.736 239.667 101.064 240.083 100.456C240.515 99.848 241.123 99.368 241.907 99.016C242.707 98.664 243.643 98.488 244.715 98.488C246.299 98.488 247.563 98.888 248.507 99.688C249.451 100.472 249.971 101.536 250.067 102.88H246.851C246.803 102.352 246.579 101.936 246.179 101.632C245.795 101.312 245.275 101.152 244.619 101.152C244.011 101.152 243.539 101.264 243.203 101.488C242.883 101.712 242.723 102.024 242.723 102.424C242.723 102.872 242.947 103.216 243.395 103.456C243.843 103.68 244.539 103.912 245.483 104.152C246.443 104.392 247.235 104.64 247.859 104.896C248.483 105.152 249.019 105.552 249.467 106.096C249.931 106.624 250.171 107.328 250.187 108.208C250.187 108.976 249.971 109.664 249.539 110.272C249.123 110.88 248.515 111.36 247.715 111.712C246.931 112.048 246.011 112.216 244.955 112.216ZM258.849 112.216C257.569 112.216 256.417 111.936 255.393 111.376C254.369 110.8 253.561 109.992 252.969 108.952C252.393 107.912 252.105 106.712 252.105 105.352C252.105 103.992 252.401 102.792 252.993 101.752C253.601 100.712 254.425 99.912 255.465 99.352C256.505 98.776 257.665 98.488 258.945 98.488C260.225 98.488 261.385 98.776 262.425 99.352C263.465 99.912 264.281 100.712 264.873 101.752C265.481 102.792 265.785 103.992 265.785 105.352C265.785 106.712 265.473 107.912 264.849 108.952C264.241 109.992 263.409 110.8 262.353 111.376C261.313 111.936 260.145 112.216 258.849 112.216ZM258.849 109.288C259.457 109.288 260.025 109.144 260.553 108.856C261.097 108.552 261.529 108.104 261.849 107.512C262.169 106.92 262.329 106.2 262.329 105.352C262.329 104.088 261.993 103.12 261.321 102.448C260.665 101.76 259.857 101.416 258.897 101.416C257.937 101.416 257.129 101.76 256.473 102.448C255.833 103.12 255.513 104.088 255.513 105.352C255.513 106.616 255.825 107.592 256.449 108.28C257.089 108.952 257.889 109.288 258.849 109.288ZM271.61 94.24V112H268.25V94.24H271.61ZM287.481 98.704V112H284.097V110.32C283.665 110.896 283.097 111.352 282.393 111.688C281.705 112.008 280.953 112.168 280.137 112.168C279.097 112.168 278.177 111.952 277.377 111.52C276.577 111.072 275.945 110.424 275.481 109.576C275.033 108.712 274.809 107.688 274.809 106.504V98.704H278.169V106.024C278.169 107.08 278.433 107.896 278.961 108.472C279.489 109.032 280.209 109.312 281.121 109.312C282.049 109.312 282.777 109.032 283.305 108.472C283.833 107.896 284.097 107.08 284.097 106.024V98.704H287.481ZM294.709 101.464V107.896C294.709 108.344 294.813 108.672 295.021 108.88C295.245 109.072 295.613 109.168 296.125 109.168H297.685V112H295.573C292.741 112 291.325 110.624 291.325 107.872V101.464H289.741V98.704H291.325V95.416H294.709V98.704H297.685V101.464H294.709ZM301.805 97.12C301.213 97.12 300.717 96.936 300.317 96.568C299.933 96.184 299.741 95.712 299.741 95.152C299.741 94.592 299.933 94.128 300.317 93.76C300.717 93.376 301.213 93.184 301.805 93.184C302.397 93.184 302.885 93.376 303.269 93.76C303.669 94.128 303.869 94.592 303.869 95.152C303.869 95.712 303.669 96.184 303.269 96.568C302.885 96.936 302.397 97.12 301.805 97.12ZM303.461 98.704V112H300.101V98.704H303.461ZM312.685 112.216C311.405 112.216 310.253 111.936 309.229 111.376C308.205 110.8 307.397 109.992 306.805 108.952C306.229 107.912 305.941 106.712 305.941 105.352C305.941 103.992 306.237 102.792 306.829 101.752C307.437 100.712 308.261 99.912 309.301 99.352C310.341 98.776 311.501 98.488 312.781 98.488C314.061 98.488 315.221 98.776 316.261 99.352C317.301 99.912 318.117 100.712 318.709 101.752C319.317 102.792 319.621 103.992 319.621 105.352C319.621 106.712 319.309 107.912 318.685 108.952C318.077 109.992 317.245 110.8 316.189 111.376C315.149 111.936 313.981 112.216 312.685 112.216ZM312.685 109.288C313.293 109.288 313.861 109.144 314.389 108.856C314.933 108.552 315.365 108.104 315.685 107.512C316.005 106.92 316.165 106.2 316.165 105.352C316.165 104.088 315.829 103.12 315.157 102.448C314.501 101.76 313.693 101.416 312.733 101.416C311.773 101.416 310.965 101.76 310.309 102.448C309.669 103.12 309.349 104.088 309.349 105.352C309.349 106.616 309.661 107.592 310.285 108.28C310.925 108.952 311.725 109.288 312.685 109.288ZM329.454 98.512C331.038 98.512 332.318 99.016 333.294 100.024C334.27 101.016 334.758 102.408 334.758 104.2V112H331.398V104.656C331.398 103.6 331.134 102.792 330.606 102.232C330.078 101.656 329.358 101.368 328.446 101.368C327.518 101.368 326.782 101.656 326.238 102.232C325.71 102.792 325.446 103.6 325.446 104.656V112H322.086V98.704H325.446V100.36C325.894 99.784 326.462 99.336 327.15 99.016C327.854 98.68 328.622 98.512 329.454 98.512ZM343.041 112.216C341.953 112.216 340.977 112.024 340.113 111.64C339.249 111.24 338.561 110.704 338.049 110.032C337.553 109.36 337.281 108.616 337.233 107.8H340.617C340.681 108.312 340.929 108.736 341.361 109.072C341.809 109.408 342.361 109.576 343.017 109.576C343.657 109.576 344.153 109.448 344.505 109.192C344.873 108.936 345.057 108.608 345.057 108.208C345.057 107.776 344.833 107.456 344.385 107.248C343.953 107.024 343.257 106.784 342.297 106.528C341.305 106.288 340.489 106.04 339.849 105.784C339.225 105.528 338.681 105.136 338.217 104.608C337.769 104.08 337.545 103.368 337.545 102.472C337.545 101.736 337.753 101.064 338.169 100.456C338.601 99.848 339.209 99.368 339.993 99.016C340.793 98.664 341.729 98.488 342.801 98.488C344.385 98.488 345.649 98.888 346.593 99.688C347.537 100.472 348.057 101.536 348.153 102.88H344.937C344.889 102.352 344.665 101.936 344.265 101.632C343.881 101.312 343.361 101.152 342.705 101.152C342.097 101.152 341.625 101.264 341.289 101.488C340.969 101.712 340.809 102.024 340.809 102.424C340.809 102.872 341.033 103.216 341.481 103.456C341.929 103.68 342.625 103.912 343.569 104.152C344.529 104.392 345.321 104.64 345.945 104.896C346.569 105.152 347.105 105.552 347.553 106.096C348.017 106.624 348.257 107.328 348.273 108.208C348.273 108.976 348.057 109.664 347.625 110.272C347.209 110.88 346.601 111.36 345.801 111.712C345.017 112.048 344.097 112.216 343.041 112.216ZM362.846 101.464H360.518V112H357.11V101.464H355.598V98.704H357.11V98.032C357.11 96.4 357.574 95.2 358.502 94.432C359.43 93.664 360.83 93.304 362.702 93.352V96.184C361.886 96.168 361.318 96.304 360.998 96.592C360.678 96.88 360.518 97.4 360.518 98.152V98.704H362.846V101.464ZM370.927 112.216C369.647 112.216 368.495 111.936 367.471 111.376C366.447 110.8 365.639 109.992 365.047 108.952C364.471 107.912 364.183 106.712 364.183 105.352C364.183 103.992 364.479 102.792 365.071 101.752C365.679 100.712 366.503 99.912 367.543 99.352C368.583 98.776 369.743 98.488 371.023 98.488C372.303 98.488 373.463 98.776 374.503 99.352C375.543 99.912 376.359 100.712 376.951 101.752C377.559 102.792 377.863 103.992 377.863 105.352C377.863 106.712 377.551 107.912 376.927 108.952C376.319 109.992 375.487 110.8 374.431 111.376C373.391 111.936 372.223 112.216 370.927 112.216ZM370.927 109.288C371.535 109.288 372.103 109.144 372.631 108.856C373.175 108.552 373.607 108.104 373.927 107.512C374.247 106.92 374.407 106.2 374.407 105.352C374.407 104.088 374.071 103.12 373.399 102.448C372.743 101.76 371.935 101.416 370.975 101.416C370.015 101.416 369.207 101.76 368.551 102.448C367.911 103.12 367.591 104.088 367.591 105.352C367.591 106.616 367.903 107.592 368.527 108.28C369.167 108.952 369.967 109.288 370.927 109.288ZM383.688 100.768C384.12 100.064 384.68 99.512 385.368 99.112C386.072 98.712 386.872 98.512 387.768 98.512V102.04H386.88C385.824 102.04 385.024 102.288 384.48 102.784C383.952 103.28 383.688 104.144 383.688 105.376V112H380.328V98.704H383.688V100.768ZM54.376 122.704L46.144 142.288H42.568L45.448 135.664L40.12 122.704H43.888L47.32 131.992L50.8 122.704H54.376ZM62.0913 136.216C60.8113 136.216 59.6593 135.936 58.6353 135.376C57.6113 134.8 56.8033 133.992 56.2113 132.952C55.6353 131.912 55.3473 130.712 55.3473 129.352C55.3473 127.992 55.6433 126.792 56.2353 125.752C56.8433 124.712 57.6673 123.912 58.7073 123.352C59.7473 122.776 60.9073 122.488 62.1873 122.488C63.4673 122.488 64.6273 122.776 65.6673 123.352C66.7073 123.912 67.5233 124.712 68.1153 125.752C68.7233 126.792 69.0273 127.992 69.0273 129.352C69.0273 130.712 68.7153 131.912 68.0912 132.952C67.4833 133.992 66.6513 134.8 65.5953 135.376C64.5553 135.936 63.3873 136.216 62.0913 136.216ZM62.0913 133.288C62.6993 133.288 63.2673 133.144 63.7953 132.856C64.3393 132.552 64.7713 132.104 65.0913 131.512C65.4113 130.92 65.5713 130.2 65.5713 129.352C65.5713 128.088 65.2353 127.12 64.5633 126.448C63.9073 125.76 63.0993 125.416 62.1393 125.416C61.1793 125.416 60.3713 125.76 59.7153 126.448C59.0753 127.12 58.7553 128.088 58.7553 129.352C58.7553 130.616 59.0673 131.592 59.6913 132.28C60.3313 132.952 61.1313 133.288 62.0913 133.288ZM84.0439 122.704V136H80.6599V134.32C80.2279 134.896 79.6599 135.352 78.9559 135.688C78.2679 136.008 77.5159 136.168 76.6999 136.168C75.6599 136.168 74.7399 135.952 73.9399 135.52C73.1399 135.072 72.5079 134.424 72.0439 133.576C71.5959 132.712 71.3719 131.688 71.3719 130.504V122.704H74.7319V130.024C74.7319 131.08 74.9959 131.896 75.5239 132.472C76.0519 133.032 76.7719 133.312 77.6839 133.312C78.6119 133.312 79.3399 133.032 79.8679 132.472C80.3959 131.896 80.6599 131.08 80.6599 130.024V122.704H84.0439ZM90.7191 124.768C91.1511 124.064 91.7111 123.512 92.3991 123.112C93.1031 122.712 93.9031 122.512 94.7991 122.512V126.04H93.9111C92.8551 126.04 92.0551 126.288 91.5111 126.784C90.9831 127.28 90.7191 128.144 90.7191 129.376V136H87.3591V122.704H90.7191V124.768ZM101.917 129.352C101.917 127.976 102.197 126.776 102.757 125.752C103.317 124.712 104.093 123.912 105.085 123.352C106.077 122.776 107.213 122.488 108.493 122.488C110.141 122.488 111.501 122.904 112.573 123.736C113.661 124.552 114.389 125.704 114.757 127.192H111.133C110.941 126.616 110.613 126.168 110.149 125.848C109.701 125.512 109.141 125.344 108.469 125.344C107.509 125.344 106.749 125.696 106.189 126.4C105.629 127.088 105.349 128.072 105.349 129.352C105.349 130.616 105.629 131.6 106.189 132.304C106.749 132.992 107.509 133.336 108.469 133.336C109.829 133.336 110.717 132.728 111.133 131.512H114.757C114.389 132.952 113.661 134.096 112.573 134.944C111.485 135.792 110.125 136.216 108.493 136.216C107.213 136.216 106.077 135.936 105.085 135.376C104.093 134.8 103.317 134 102.757 132.976C102.197 131.936 101.917 130.728 101.917 129.352ZM123.123 136.216C121.843 136.216 120.691 135.936 119.667 135.376C118.643 134.8 117.835 133.992 117.243 132.952C116.667 131.912 116.379 130.712 116.379 129.352C116.379 127.992 116.675 126.792 117.267 125.752C117.875 124.712 118.699 123.912 119.739 123.352C120.779 122.776 121.939 122.488 123.219 122.488C124.499 122.488 125.659 122.776 126.699 123.352C127.739 123.912 128.555 124.712 129.147 125.752C129.755 126.792 130.059 127.992 130.059 129.352C130.059 130.712 129.747 131.912 129.122 132.952C128.515 133.992 127.683 134.8 126.627 135.376C125.587 135.936 124.419 136.216 123.123 136.216ZM123.123 133.288C123.731 133.288 124.299 133.144 124.827 132.856C125.371 132.552 125.803 132.104 126.123 131.512C126.443 130.92 126.603 130.2 126.603 129.352C126.603 128.088 126.267 127.12 125.595 126.448C124.939 125.76 124.131 125.416 123.171 125.416C122.211 125.416 121.403 125.76 120.747 126.448C120.107 127.12 119.787 128.088 119.787 129.352C119.787 130.616 120.099 131.592 120.723 132.28C121.363 132.952 122.163 133.288 123.123 133.288ZM149.035 122.512C150.667 122.512 151.979 123.016 152.971 124.024C153.979 125.016 154.483 126.408 154.483 128.2V136H151.123V128.656C151.123 127.616 150.859 126.824 150.331 126.28C149.803 125.72 149.083 125.44 148.171 125.44C147.259 125.44 146.531 125.72 145.987 126.28C145.459 126.824 145.195 127.616 145.195 128.656V136H141.835V128.656C141.835 127.616 141.571 126.824 141.043 126.28C140.515 125.72 139.795 125.44 138.883 125.44C137.955 125.44 137.219 125.72 136.675 126.28C136.147 126.824 135.883 127.616 135.883 128.656V136H132.523V122.704H135.883V124.312C136.315 123.752 136.867 123.312 137.539 122.992C138.227 122.672 138.979 122.512 139.795 122.512C140.835 122.512 141.763 122.736 142.579 123.184C143.395 123.616 144.027 124.24 144.475 125.056C144.907 124.288 145.531 123.672 146.347 123.208C147.179 122.744 148.075 122.512 149.035 122.512ZM161.032 124.624C161.464 124.016 162.056 123.512 162.808 123.112C163.576 122.696 164.448 122.488 165.424 122.488C166.56 122.488 167.584 122.768 168.496 123.328C169.424 123.888 170.152 124.688 170.68 125.728C171.224 126.752 171.496 127.944 171.496 129.304C171.496 130.664 171.224 131.872 170.68 132.928C170.152 133.968 169.424 134.776 168.496 135.352C167.584 135.928 166.56 136.216 165.424 136.216C164.448 136.216 163.584 136.016 162.832 135.616C162.096 135.216 161.496 134.712 161.032 134.104V142.336H157.672V122.704H161.032V124.624ZM168.064 129.304C168.064 128.504 167.896 127.816 167.56 127.24C167.24 126.648 166.808 126.2 166.264 125.896C165.736 125.592 165.16 125.44 164.536 125.44C163.928 125.44 163.352 125.6 162.808 125.92C162.28 126.224 161.848 126.672 161.512 127.264C161.192 127.856 161.032 128.552 161.032 129.352C161.032 130.152 161.192 130.848 161.512 131.44C161.848 132.032 162.28 132.488 162.808 132.808C163.352 133.112 163.928 133.264 164.536 133.264C165.16 133.264 165.736 133.104 166.264 132.784C166.808 132.464 167.24 132.008 167.56 131.416C167.896 130.824 168.064 130.12 168.064 129.304ZM173.073 129.304C173.073 127.96 173.337 126.768 173.865 125.728C174.409 124.688 175.137 123.888 176.049 123.328C176.977 122.768 178.009 122.488 179.145 122.488C180.137 122.488 181.001 122.688 181.737 123.088C182.489 123.488 183.089 123.992 183.537 124.6V122.704H186.921V136H183.537V134.056C183.105 134.68 182.505 135.2 181.737 135.616C180.985 136.016 180.113 136.216 179.121 136.216C178.001 136.216 176.977 135.928 176.049 135.352C175.137 134.776 174.409 133.968 173.865 132.928C173.337 131.872 173.073 130.664 173.073 129.304ZM183.537 129.352C183.537 128.536 183.377 127.84 183.057 127.264C182.737 126.672 182.305 126.224 181.761 125.92C181.217 125.6 180.633 125.44 180.009 125.44C179.385 125.44 178.809 125.592 178.281 125.896C177.753 126.2 177.321 126.648 176.985 127.24C176.665 127.816 176.505 128.504 176.505 129.304C176.505 130.104 176.665 130.808 176.985 131.416C177.321 132.008 177.753 132.464 178.281 132.784C178.825 133.104 179.401 133.264 180.009 133.264C180.633 133.264 181.217 133.112 181.761 132.808C182.305 132.488 182.737 132.04 183.057 131.464C183.377 130.872 183.537 130.168 183.537 129.352ZM197.571 122.512C199.155 122.512 200.435 123.016 201.411 124.024C202.387 125.016 202.875 126.408 202.875 128.2V136H199.515V128.656C199.515 127.6 199.251 126.792 198.723 126.232C198.195 125.656 197.475 125.368 196.563 125.368C195.635 125.368 194.899 125.656 194.355 126.232C193.827 126.792 193.563 127.6 193.563 128.656V136H190.203V122.704H193.563V124.36C194.011 123.784 194.579 123.336 195.267 123.016C195.971 122.68 196.739 122.512 197.571 122.512ZM218.79 122.704L210.558 142.288H206.982L209.862 135.664L204.534 122.704H208.302L211.734 131.992L215.214 122.704H218.79Z" fill="white"/>
<path d="M482.394 16.9369V12.8708H459.159V16.9369V30.3073V31.5264C460.097 32.7599 461.258 33.8429 462.603 34.7124C464.909 36.2108 467.731 37.0962 470.777 37.0962C475.59 37.0962 479.847 34.894 482.394 31.5264V30.3073V16.9369Z" fill="#656D78"/>
<path d="M470.796 41.6216C460.271 41.6216 451.709 33.8142 451.709 24.2162C451.709 23.7977 452.08 23.4595 452.539 23.4595C452.998 23.4595 453.369 23.7977 453.369 24.2162C453.369 32.9787 461.187 40.1081 470.796 40.1081C471.255 40.1081 471.626 40.4464 471.626 40.8649C471.626 41.2834 471.255 41.6216 470.796 41.6216Z" fill="#CCD1D9"/>
<path d="M489.052 24.973C488.593 24.973 488.222 24.6347 488.222 24.2162C488.222 15.4537 480.404 8.32431 470.796 8.32431C470.337 8.32431 469.966 7.98604 469.966 7.56755C469.966 7.14906 470.337 6.81079 470.796 6.81079C481.321 6.81079 489.882 14.6183 489.882 24.2162C489.882 24.6347 489.511 24.973 489.052 24.973Z" fill="#CCD1D9"/>
<path d="M479.923 9.84387L482.413 12.8709H459.177L461.667 9.84387H479.923Z" fill="#545C66"/>
<path d="M470.795 37.0796C467.749 37.0796 464.928 36.1942 462.621 34.6958C461.277 33.8263 460.114 32.7434 459.177 31.5098V31.0331H482.413V31.5098C479.865 34.8774 475.608 37.0796 470.795 37.0796Z" fill="#545C66"/>
<path d="M482.413 18.9249H459.177V24.979H482.413V18.9249Z" fill="#545C66"/>
<path d="M479.95 16.6547C479.491 16.6547 479.116 16.3165 479.116 15.898C479.116 15.4795 479.482 15.1412 479.94 15.1412H479.95C480.408 15.1412 480.779 15.4795 480.779 15.898C480.779 16.3165 480.408 16.6547 479.95 16.6547Z" fill="#5D9CEC"/>
<path d="M462.477 17.4281C462.265 17.4281 462.053 17.3539 461.891 17.2064C461.566 16.9105 461.566 16.4322 461.891 16.1363L463.55 14.6228C463.875 14.3269 464.399 14.3269 464.724 14.6228C465.048 14.9187 465.048 15.397 464.724 15.6929L463.064 17.2064C462.901 17.3547 462.689 17.4281 462.477 17.4281Z" fill="#545C66"/>
<path d="M466.645 17.4115C466.432 17.4115 466.22 17.3373 466.058 17.1898C465.734 16.8939 465.734 16.4156 466.058 16.1197L467.718 14.6062C468.042 14.3103 468.567 14.3103 468.891 14.6062C469.216 14.9021 469.216 15.3804 468.891 15.6763L467.232 17.1898C467.07 17.3373 466.857 17.4115 466.645 17.4115Z" fill="#545C66"/>
<path d="M470.794 17.4115C470.582 17.4115 470.369 17.3373 470.207 17.1898C469.883 16.8939 469.883 16.4156 470.207 16.1197L471.867 14.6062C472.191 14.3103 472.716 14.3103 473.04 14.6062C473.365 14.9021 473.365 15.3804 473.04 15.6763L471.381 17.1898C471.219 17.3373 471.006 17.4115 470.794 17.4115Z" fill="#545C66"/>
<path d="M479.95 22.7087C479.491 22.7087 479.116 22.3704 479.116 21.9519C479.116 21.5335 479.482 21.1952 479.94 21.1952H479.95C480.408 21.1952 480.779 21.5335 480.779 21.9519C480.779 22.3704 480.408 22.7087 479.95 22.7087Z" fill="#5D9CEC"/>
<path d="M462.496 23.4654C462.283 23.4654 462.071 23.3913 461.909 23.2437C461.585 22.9478 461.585 22.4696 461.909 22.1737L463.569 20.6602C463.893 20.3643 464.418 20.3643 464.742 20.6602C465.066 20.956 465.066 21.4343 464.742 21.7302L463.082 23.2437C462.921 23.3913 462.708 23.4654 462.496 23.4654Z" fill="#434A54"/>
<path d="M466.645 23.4654C466.432 23.4654 466.22 23.3913 466.058 23.2437C465.734 22.9478 465.734 22.4696 466.058 22.1737L467.718 20.6602C468.042 20.3643 468.567 20.3643 468.891 20.6602C469.216 20.956 469.216 21.4343 468.891 21.7302L467.232 23.2437C467.07 23.3913 466.857 23.4654 466.645 23.4654Z" fill="#434A54"/>
<path d="M470.794 23.4654C470.582 23.4654 470.369 23.3913 470.207 23.2437C469.883 22.9478 469.883 22.4696 470.207 22.1737L471.867 20.6602C472.191 20.3643 472.716 20.3643 473.04 20.6602C473.365 20.956 473.365 21.4343 473.04 21.7302L471.381 23.2437C471.219 23.3913 471.006 23.4654 470.794 23.4654Z" fill="#434A54"/>
<path d="M479.95 28.7628C479.491 28.7628 479.116 28.4245 479.116 28.006C479.116 27.5875 479.482 27.2493 479.94 27.2493H479.95C480.408 27.2493 480.779 27.5875 480.779 28.006C480.779 28.4245 480.408 28.7628 479.95 28.7628Z" fill="#5D9CEC"/>
<path d="M462.496 29.5195C462.283 29.5195 462.071 29.4454 461.909 29.2978C461.585 29.0019 461.585 28.5236 461.909 28.2277L463.569 26.7142C463.893 26.4183 464.418 26.4183 464.742 26.7142C465.066 27.0101 465.066 27.4884 464.742 27.7843L463.082 29.2978C462.921 29.4454 462.708 29.5195 462.496 29.5195Z" fill="#545C66"/>
<path d="M466.645 29.5195C466.432 29.5195 466.22 29.4454 466.058 29.2978C465.734 29.0019 465.734 28.5236 466.058 28.2277L467.718 26.7142C468.042 26.4183 468.567 26.4183 468.891 26.7142C469.216 27.0101 469.216 27.4884 468.891 27.7843L467.232 29.2978C467.07 29.4454 466.857 29.5195 466.645 29.5195Z" fill="#545C66"/>
<path d="M470.794 29.5195C470.582 29.5195 470.369 29.4454 470.207 29.2978C469.883 29.0019 469.883 28.5236 470.207 28.2277L471.867 26.7142C472.191 26.4183 472.716 26.4183 473.04 26.7142C473.365 27.0101 473.365 27.4884 473.04 27.7843L471.381 29.2978C471.219 29.4454 471.006 29.5195 470.794 29.5195Z" fill="#545C66"/>
<path d="M466.645 35.5736C466.432 35.5736 466.22 35.4994 466.058 35.3519C465.734 35.056 465.734 34.5777 466.058 34.2818L467.718 32.7683C468.042 32.4724 468.567 32.4724 468.891 32.7683C469.216 33.0642 469.216 33.5425 468.891 33.8384L467.232 35.3519C467.07 35.4994 466.857 35.5736 466.645 35.5736Z" fill="#434A54"/>
<path d="M470.794 35.5736C470.582 35.5736 470.369 35.4994 470.207 35.3519C469.883 35.056 469.883 34.5777 470.207 34.2818L471.867 32.7683C472.191 32.4724 472.716 32.4724 473.04 32.7683C473.365 33.0642 473.365 33.5425 473.04 33.8384L471.381 35.3519C471.219 35.4994 471.006 35.5736 470.794 35.5736Z" fill="#434A54"/>
<path d="M463.569 32.7683L462.038 34.1638C462.014 34.1865 462.003 34.2167 461.982 34.2425C462.193 34.3961 462.401 34.5535 462.622 34.6965C462.852 34.8463 463.092 34.9863 463.334 35.1233L464.742 33.8391C465.066 33.5432 465.066 33.0649 464.742 32.7691C464.418 32.4732 463.893 32.4724 463.569 32.7683Z" fill="#434A54"/>
<path d="M479.95 33.3033H479.94C479.482 33.3033 479.116 33.6416 479.116 34.0601C479.116 34.2213 479.184 34.362 479.278 34.4846C479.714 34.185 480.13 33.8626 480.525 33.519C480.376 33.3858 480.175 33.3033 479.95 33.3033Z" fill="#5D9CEC"/>
<path d="M510.482 57.5571H510.418H494.72C494.64 57.5727 494.544 57.5727 494.464 57.5727H492.867H476.897H464.105H446.554C446.474 57.5727 446.394 57.5727 446.316 57.5571H430.568C428.811 57.5571 427.374 58.9416 427.374 60.6682V108.889H459.314H481.672H513.613V60.6682C513.613 58.9571 512.223 57.5882 510.482 57.5571Z" fill="#5D9CEC"/>
<path d="M427.376 62.2206C426.493 62.2206 425.779 61.5253 425.779 60.6651C425.779 58.0922 427.928 55.9984 430.57 55.9984C431.453 55.9984 432.167 56.6937 432.167 57.554C432.167 58.4142 431.453 59.1095 430.57 59.1095C429.688 59.1095 428.973 59.8064 428.973 60.6651C428.973 61.5253 428.259 62.2206 427.376 62.2206Z" fill="#545C66"/>
<path d="M427.376 110.437C426.493 110.437 425.779 109.741 425.779 108.881V60.6652C425.779 59.805 426.493 59.1096 427.376 59.1096C428.259 59.1096 428.973 59.805 428.973 60.6652V108.881C428.973 109.741 428.259 110.437 427.376 110.437Z" fill="#545C66"/>
<path d="M513.614 62.2208C512.731 62.2208 512.017 61.5254 512.017 60.6652C512.017 59.8065 511.301 59.1096 510.42 59.1096C509.537 59.1096 508.823 58.4143 508.823 57.5541C508.823 56.6939 509.537 55.9985 510.42 55.9985C513.061 55.9985 515.211 58.0923 515.211 60.6652C515.211 61.5254 514.497 62.2208 513.614 62.2208Z" fill="#545C66"/>
<path d="M513.614 110.437C512.731 110.437 512.017 109.741 512.017 108.881V60.6651C512.017 59.8048 512.731 59.1095 513.614 59.1095C514.497 59.1095 515.211 59.8048 515.211 60.6651V108.881C515.211 109.741 514.497 110.437 513.614 110.437Z" fill="#545C66"/>
<path d="M510.486 59.1095H430.57C429.687 59.1095 428.973 58.4142 428.973 57.554C428.973 56.6937 429.687 55.9984 430.57 55.9984H510.486C511.369 55.9984 512.083 56.6937 512.083 57.554C512.083 58.4142 511.369 59.1095 510.486 59.1095Z" fill="#545C66"/>
<path d="M456.373 83.8542H456.394V97.4411H438V83.8542H456.373Z" fill="#E6E9ED"/>
<path d="M456.373 81.7745V83.8543H438H437.978V81.764V81.7536C437.978 81.1798 438.428 80.7189 439.001 80.7189H439.011H455.33C455.913 80.7189 456.363 81.1798 456.374 81.764V81.7745H456.373Z" fill="#CCD1D9"/>
<path d="M478.881 84.9203V86.9897H460.496H460.486V84.8994C460.486 84.3256 460.936 83.8542 461.499 83.8542H461.519H477.838C478.412 83.8542 478.871 84.3256 478.882 84.8994V84.9203H478.881Z" fill="#CCD1D9"/>
<path d="M501.389 83.8542H501.41V97.4411H483.004V83.8542H501.389Z" fill="#E6E9ED"/>
<path d="M501.389 81.7745V83.8543H483.004H482.994V81.764V81.7536C482.994 81.1798 483.444 80.7189 484.007 80.7189H484.027H500.346C500.929 80.7189 501.379 81.1798 501.39 81.764V81.7745H501.389Z" fill="#CCD1D9"/>
<path d="M478.881 86.9897H478.902V100.577H460.496V86.9897H478.881Z" fill="#E6E9ED"/>
<path d="M500.353 98.4883H484.033C483.468 98.4883 483.01 98.0212 483.01 97.4432C483.01 96.8652 483.468 96.3981 484.033 96.3981H500.353C500.919 96.3981 501.376 96.8652 501.376 97.4432C501.376 98.0212 500.919 98.4883 500.353 98.4883Z" fill="#E6E9ED"/>
<path d="M477.862 101.622H461.543C460.977 101.622 460.52 101.154 460.52 100.577C460.52 99.9985 460.977 99.5314 461.543 99.5314H477.862C478.428 99.5314 478.885 99.9985 478.885 100.577C478.885 101.154 478.428 101.622 477.862 101.622Z" fill="#E6E9ED"/>
<path d="M455.356 98.4883H439.037C438.471 98.4883 438.014 98.0212 438.014 97.4432C438.014 96.8652 438.471 96.3981 439.037 96.3981H455.356C455.922 96.3981 456.379 96.8652 456.379 97.4432C456.379 98.0212 455.922 98.4883 455.356 98.4883Z" fill="#E6E9ED"/>
<path d="M497.315 89.0779H487.084C486.519 89.0779 486.061 88.6108 486.061 88.0328C486.061 87.4548 486.519 86.9877 487.084 86.9877H497.315C497.881 86.9877 498.338 87.4548 498.338 88.0328C498.338 88.6108 497.881 89.0779 497.315 89.0779Z" fill="#CCD1D9"/>
<path d="M497.315 92.2133H487.084C486.519 92.2133 486.061 91.7461 486.061 91.1682C486.061 90.5902 486.519 90.123 487.084 90.123H497.315C497.881 90.123 498.338 90.5902 498.338 91.1682C498.338 91.7461 497.881 92.2133 497.315 92.2133Z" fill="#CCD1D9"/>
<path d="M494.243 95.3487H490.157C489.591 95.3487 489.134 94.8815 489.134 94.3036C489.134 93.7256 489.591 93.2584 490.157 93.2584H494.243C494.809 93.2584 495.266 93.7256 495.266 94.3036C495.266 94.8815 494.809 95.3487 494.243 95.3487Z" fill="#CCD1D9"/>
<path d="M474.807 92.2175H464.576C464.011 92.2175 463.553 91.7503 463.553 91.1723C463.553 90.5944 464.011 90.1272 464.576 90.1272H474.807C475.373 90.1272 475.83 90.5944 475.83 91.1723C475.83 91.7503 475.373 92.2175 474.807 92.2175Z" fill="#CCD1D9"/>
<path d="M474.807 95.353H464.576C464.011 95.353 463.553 94.8858 463.553 94.3078C463.553 93.7299 464.011 93.2627 464.576 93.2627H474.807C475.373 93.2627 475.83 93.7299 475.83 94.3078C475.83 94.8858 475.373 95.353 474.807 95.353Z" fill="#CCD1D9"/>
<path d="M471.735 98.4883H467.649C467.083 98.4883 466.626 98.0212 466.626 97.4432C466.626 96.8652 467.083 96.3981 467.649 96.3981H471.735C472.301 96.3981 472.758 96.8652 472.758 97.4432C472.758 98.0212 472.301 98.4883 471.735 98.4883Z" fill="#CCD1D9"/>
<path d="M452.301 89.0779H442.07C441.505 89.0779 441.047 88.6108 441.047 88.0328C441.047 87.4548 441.505 86.9877 442.07 86.9877H452.301C452.867 86.9877 453.324 87.4548 453.324 88.0328C453.324 88.6108 452.867 89.0779 452.301 89.0779Z" fill="#CCD1D9"/>
<path d="M452.301 92.2133H442.07C441.505 92.2133 441.047 91.7461 441.047 91.1682C441.047 90.5902 441.505 90.123 442.07 90.123H452.301C452.867 90.123 453.324 90.5902 453.324 91.1682C453.324 91.7461 452.867 92.2133 452.301 92.2133Z" fill="#CCD1D9"/>
<path d="M449.229 95.3487H445.143C444.577 95.3487 444.12 94.8815 444.12 94.3036C444.12 93.7256 444.577 93.2584 445.143 93.2584H449.229C449.795 93.2584 450.252 93.7256 450.252 94.3036C450.252 94.8815 449.795 95.3487 449.229 95.3487Z" fill="#CCD1D9"/>
<path d="M469.703 80.721C469.137 80.721 468.68 80.2538 468.68 79.6758V68.1814C468.68 67.6034 469.137 67.1362 469.703 67.1362C470.269 67.1362 470.726 67.6034 470.726 68.1814V79.6758C470.726 80.2538 470.269 80.721 469.703 80.721Z" fill="#656D78"/>
<path d="M492.203 77.5855C491.637 77.5855 491.18 77.1184 491.18 76.5404V72.3598C491.18 71.7819 491.637 71.3147 492.203 71.3147C492.769 71.3147 493.226 71.7819 493.226 72.3598V76.5404C493.226 77.1184 492.769 77.5855 492.203 77.5855Z" fill="#656D78"/>
<path d="M492.203 73.405H475.833C475.268 73.405 474.81 72.9378 474.81 72.3598C474.81 71.7819 475.268 71.3147 475.833 71.3147H492.203C492.769 71.3147 493.226 71.7819 493.226 72.3598C493.226 72.9378 492.769 73.405 492.203 73.405Z" fill="#656D78"/>
<path d="M475.833 73.405C475.268 73.405 474.81 72.9378 474.81 72.3598V68.1814C474.81 67.6034 475.268 67.1362 475.833 67.1362C476.399 67.1362 476.856 67.6034 476.856 68.1814V72.3598C476.856 72.9378 476.399 73.405 475.833 73.405Z" fill="#656D78"/>
<path d="M447.159 77.5855C446.593 77.5855 446.136 77.1184 446.136 76.5404V72.3598C446.136 71.7819 446.593 71.3147 447.159 71.3147C447.725 71.3147 448.182 71.7819 448.182 72.3598V76.5404C448.182 77.1184 447.724 77.5855 447.159 77.5855Z" fill="#656D78"/>
<path d="M463.529 73.405H447.159C446.593 73.405 446.136 72.9378 446.136 72.3598C446.136 71.7819 446.593 71.3147 447.159 71.3147H463.529C464.094 71.3147 464.552 71.7819 464.552 72.3598C464.552 72.9378 464.093 73.405 463.529 73.405Z" fill="#656D78"/>
<path d="M463.529 73.405C462.963 73.405 462.506 72.9378 462.506 72.3598V68.1814C462.506 67.6034 462.963 67.1362 463.529 67.1362C464.094 67.1362 464.552 67.6034 464.552 68.1814V72.3598C464.552 72.9378 464.093 73.405 463.529 73.405Z" fill="#656D78"/>
<path d="M513.612 108.889H481.672H459.313H427.373H422.585L420.985 110.438V115.111C420.985 116.838 422.422 118.222 424.179 118.222H516.806C518.579 118.222 520 116.838 520 115.111V110.438L518.403 108.889H513.612Z" fill="#656D78"/>
<path d="M481.672 108.888V110.443C481.672 111.299 480.953 111.999 480.075 111.999H460.91C460.032 111.999 459.313 111.299 459.313 110.443V108.888" fill="#545C66"/>
<path d="M464.108 66.8954C463.225 66.8954 462.511 66.2 462.511 65.3398V46.6793C462.511 45.8191 463.225 45.1238 464.108 45.1238C464.991 45.1238 465.705 45.8191 465.705 46.6793V65.3398C465.705 66.2 464.991 66.8954 464.108 66.8954Z" fill="#E6E9ED"/>
<path d="M467.299 51.3429C466.891 51.3429 466.482 51.1905 466.17 50.8871L462.979 47.7791C462.355 47.1709 462.355 46.1878 462.979 45.5796C463.604 44.9714 464.613 44.9714 465.238 45.5796L468.428 48.6876C469.053 49.2958 469.053 50.2789 468.428 50.8871C468.117 51.1905 467.708 51.3429 467.299 51.3429Z" fill="#E6E9ED"/>
<path d="M460.918 51.3429C460.509 51.3429 460.101 51.1905 459.789 50.8871C459.165 50.2789 459.165 49.2958 459.789 48.6876L462.98 45.5796C463.604 44.9714 464.614 44.9714 465.238 45.5796C465.863 46.1878 465.863 47.1709 465.238 47.7791L462.047 50.8871C461.736 51.1905 461.327 51.3429 460.918 51.3429Z" fill="#E6E9ED"/>
<path d="M476.896 66.8954C476.013 66.8954 475.299 66.2 475.299 65.3398V46.6793C475.299 45.8191 476.013 45.1238 476.896 45.1238C477.779 45.1238 478.493 45.8191 478.493 46.6793V65.3398C478.493 66.2 477.779 66.8954 476.896 66.8954Z" fill="#E6E9ED"/>
<path d="M476.897 66.8955C476.488 66.8955 476.079 66.7431 475.768 66.4398L472.577 63.3318C471.953 62.7235 471.953 61.7404 472.577 61.1322C473.202 60.524 474.211 60.524 474.835 61.1322L478.026 64.2402C478.651 64.8484 478.651 65.8315 478.026 66.4398C477.713 66.7431 477.306 66.8955 476.897 66.8955Z" fill="#E6E9ED"/>
<path d="M476.897 66.8955C476.488 66.8955 476.079 66.7431 475.768 66.4398C475.143 65.8315 475.143 64.8484 475.768 64.2402L478.958 61.1322C479.583 60.524 480.592 60.524 481.217 61.1322C481.841 61.7404 481.841 62.7235 481.217 63.3318L478.026 66.4398C477.713 66.7431 477.305 66.8955 476.897 66.8955Z" fill="#E6E9ED"/>
<path d="M422.583 111.993C423.465 111.993 424.18 111.296 424.18 110.437C424.18 109.578 423.465 108.881 422.583 108.881C421.701 108.881 420.986 109.578 420.986 110.437C420.986 111.296 421.701 111.993 422.583 111.993Z" fill="#656D78"/>
<path d="M427.376 124.444H413V166.445H427.376C428.253 166.445 428.973 165.743 428.973 164.889C428.973 164.032 428.973 162.632 428.973 161.778V129.111C428.973 128.254 428.973 126.854 428.973 126C428.973 125.143 428.253 124.444 427.376 124.444Z" fill="#656D78"/>
<path d="M473.687 138.444L504.541 133.873C504.891 133.809 505.258 133.778 505.627 133.778C509.155 133.778 512.015 136.561 512.015 140C512.015 142.302 510.736 144.309 508.821 145.384L465.701 168L428.97 163.333V127.556H443.343L468.399 132.317C471.403 132.815 473.687 135.363 473.687 138.444Z" fill="#EAC6BB"/>
<path d="M421.032 163.333C420.148 163.333 419.428 162.638 419.428 161.778C419.428 160.918 420.132 160.222 421.016 160.222H421.032C421.915 160.222 422.629 160.918 422.629 161.778C422.629 162.638 421.915 163.333 421.032 163.333Z" fill="#FFCE54"/>
<path d="M476.837 137.976L473.686 138.445C473.686 141.881 470.826 144.667 467.298 144.667C467.118 144.667 466.936 144.651 466.758 144.639C466.755 144.636 466.755 144.636 466.752 144.636L446.661 143.113C445.788 143.058 445.015 143.69 444.943 144.544C444.878 145.401 445.532 146.148 446.412 146.215L466.35 147.725V147.731C466.664 147.762 466.982 147.776 467.298 147.776C472.583 147.776 476.88 143.59 476.88 138.443C476.88 138.283 476.847 138.135 476.837 137.976Z" fill="#D3B1A9"/>
</svg>
