<svg width="1700" height="800" viewBox="0 0 1700 800" fill="none" xmlns="http://www.w3.org/2000/svg">
<path d="M0 26.4778L1700 26C1700 393.411 1700 466.033 1700 466.033L0 800V26.4778Z" fill="#9D9D9D" fill-opacity="0.5"/>
<path d="M0 0.470988L1700 0C1700 362.19 1700 433.78 1700 433.78L0 763V0.470988Z" fill="url(#paint0_linear_25_1205)"/>
<g opacity="0.3" filter="url(#filter0_b_25_1205)">
<mask id="path-3-inside-1_25_1205" fill="white">
<path d="M1385.84 242.818H1388.78L1387.8 246.453L1371.11 257.359L1353.45 269.173L1336.76 280.988L1319.09 293.711L1302.4 306.434L1287.68 318.249L1273.94 329.154L1259.22 341.878L1249.4 350.057L1236.64 361.871L1228.79 368.233L1217.99 379.139L1209.16 387.318L1200.32 397.315L1186.58 412.764L1173.82 429.123L1158.11 450.025L1146.34 468.201L1136.52 483.651L1121.8 509.098L1111 528.182L1106.09 530L1102.17 524.547L1093.33 506.371L1084.5 490.921L1070.76 470.019L1058 453.661L1048.18 441.846L1037.38 430.032L1025.6 418.217L1011.86 404.585L996.157 390.953L985.359 381.865L971.617 371.868L951.986 358.236L937.263 349.148L916.65 337.334L898.982 327.337L898 324.61H905.853L942.17 331.881L971.617 340.06L1001.06 350.057L1033.46 364.598L1051.12 373.686L1066.83 383.683L1079.59 392.771L1093.33 403.676L1110.02 419.126L1118.85 429.123L1120.82 430.94L1138.48 406.403L1148.3 394.588L1156.15 385.5L1166.95 373.686L1200.32 342.787L1208.17 336.425L1221.92 325.519L1240.57 312.796L1257.25 301.89L1275.9 290.985L1290.63 282.806L1314.18 270.991L1344.61 257.359L1377 245.545L1385.84 242.818Z"/>
</mask>
<path d="M1385.84 242.818H1388.78L1387.8 246.453L1371.11 257.359L1353.45 269.173L1336.76 280.988L1319.09 293.711L1302.4 306.434L1287.68 318.249L1273.94 329.154L1259.22 341.878L1249.4 350.057L1236.64 361.871L1228.79 368.233L1217.99 379.139L1209.16 387.318L1200.32 397.315L1186.58 412.764L1173.82 429.123L1158.11 450.025L1146.34 468.201L1136.52 483.651L1121.8 509.098L1111 528.182L1106.09 530L1102.17 524.547L1093.33 506.371L1084.5 490.921L1070.76 470.019L1058 453.661L1048.18 441.846L1037.38 430.032L1025.6 418.217L1011.86 404.585L996.157 390.953L985.359 381.865L971.617 371.868L951.986 358.236L937.263 349.148L916.65 337.334L898.982 327.337L898 324.61H905.853L942.17 331.881L971.617 340.06L1001.06 350.057L1033.46 364.598L1051.12 373.686L1066.83 383.683L1079.59 392.771L1093.33 403.676L1110.02 419.126L1118.85 429.123L1120.82 430.94L1138.48 406.403L1148.3 394.588L1156.15 385.5L1166.95 373.686L1200.32 342.787L1208.17 336.425L1221.92 325.519L1240.57 312.796L1257.25 301.89L1275.9 290.985L1290.63 282.806L1314.18 270.991L1344.61 257.359L1377 245.545L1385.84 242.818Z" fill="url(#paint1_linear_25_1205)" fill-opacity="0.5"/>
<path d="M1385.84 242.818V240.818H1385.54L1385.25 240.907L1385.84 242.818ZM1388.78 242.818L1390.71 243.34L1391.39 240.818H1388.78V242.818ZM1387.8 246.453L1388.9 248.128L1389.53 247.711L1389.73 246.975L1387.8 246.453ZM1371.11 257.359L1370.02 255.685L1370.01 255.691L1370 255.696L1371.11 257.359ZM1353.45 269.173L1352.33 267.511L1352.31 267.526L1352.29 267.541L1353.45 269.173ZM1336.76 280.988L1335.6 279.356L1335.6 279.36L1335.59 279.365L1336.76 280.988ZM1319.09 293.711L1317.92 292.088L1317.9 292.104L1317.88 292.121L1319.09 293.711ZM1302.4 306.434L1301.19 304.844L1301.17 304.859L1301.15 304.875L1302.4 306.434ZM1287.68 318.249L1288.92 319.815L1288.93 319.809L1287.68 318.249ZM1273.94 329.154L1272.7 327.588L1272.66 327.614L1272.63 327.641L1273.94 329.154ZM1259.22 341.878L1260.5 343.414L1260.51 343.403L1260.52 343.391L1259.22 341.878ZM1249.4 350.057L1248.12 348.52L1248.08 348.554L1248.04 348.589L1249.4 350.057ZM1236.64 361.871L1237.9 363.425L1237.95 363.384L1238 363.339L1236.64 361.871ZM1228.79 368.233L1227.53 366.679L1227.44 366.748L1227.37 366.826L1228.79 368.233ZM1217.99 379.139L1219.35 380.606L1219.38 380.577L1219.41 380.546L1217.99 379.139ZM1209.16 387.318L1207.8 385.85L1207.72 385.918L1207.66 385.994L1209.16 387.318ZM1200.32 397.315L1201.82 398.644L1201.82 398.639L1200.32 397.315ZM1186.58 412.764L1185.09 411.435L1185.04 411.483L1185 411.534L1186.58 412.764ZM1173.82 429.123L1172.24 427.893L1172.23 427.907L1172.22 427.921L1173.82 429.123ZM1158.11 450.025L1156.52 448.824L1156.47 448.879L1156.44 448.938L1158.11 450.025ZM1146.34 468.201L1144.66 467.114L1144.65 467.121L1144.65 467.129L1146.34 468.201ZM1136.52 483.651L1134.83 482.579L1134.81 482.614L1134.79 482.649L1136.52 483.651ZM1121.8 509.098L1120.07 508.096L1120.06 508.104L1120.06 508.113L1121.8 509.098ZM1111 528.182L1111.69 530.058L1112.38 529.804L1112.74 529.167L1111 528.182ZM1106.09 530L1104.47 531.169L1105.36 532.404L1106.79 531.876L1106.09 530ZM1102.17 524.547L1100.37 525.421L1100.44 525.576L1100.54 525.716L1102.17 524.547ZM1093.33 506.371L1095.13 505.497L1095.1 505.437L1095.07 505.378L1093.33 506.371ZM1084.5 490.921L1086.23 489.929L1086.2 489.875L1086.17 489.823L1084.5 490.921ZM1070.76 470.019L1072.43 468.92L1072.38 468.853L1072.33 468.789L1070.76 470.019ZM1058 453.661L1059.57 452.43L1059.55 452.406L1059.53 452.382L1058 453.661ZM1048.18 441.846L1049.72 440.568L1049.69 440.532L1049.66 440.497L1048.18 441.846ZM1037.38 430.032L1038.86 428.682L1038.83 428.65L1038.8 428.62L1037.38 430.032ZM1025.6 418.217L1027.02 416.805L1027.01 416.797L1025.6 418.217ZM1011.86 404.585L1013.27 403.165L1013.22 403.118L1013.17 403.075L1011.86 404.585ZM996.157 390.953L997.468 389.443L997.456 389.433L997.444 389.423L996.157 390.953ZM985.359 381.865L986.647 380.335L986.593 380.289L986.536 380.248L985.359 381.865ZM971.617 371.868L972.794 370.251L972.776 370.238L972.758 370.225L971.617 371.868ZM951.986 358.236L953.127 356.593L953.083 356.563L953.037 356.534L951.986 358.236ZM937.263 349.148L938.313 347.446L938.285 347.429L938.257 347.413L937.263 349.148ZM916.65 337.334L917.644 335.599L917.635 335.593L916.65 337.334ZM898.982 327.337L897.1 328.014L897.351 328.712L897.997 329.078L898.982 327.337ZM898 324.61V322.61H895.154L896.118 325.288L898 324.61ZM905.853 324.61L906.245 322.649L906.051 322.61H905.853V324.61ZM942.17 331.881L942.706 329.954L942.635 329.934L942.563 329.92L942.17 331.881ZM971.617 340.06L972.26 338.166L972.207 338.148L972.153 338.133L971.617 340.06ZM1001.06 350.057L1001.88 348.232L1001.8 348.194L1001.71 348.163L1001.06 350.057ZM1033.46 364.598L1034.37 362.819L1034.32 362.795L1034.28 362.773L1033.46 364.598ZM1051.12 373.686L1052.2 371.999L1052.12 371.949L1052.04 371.907L1051.12 373.686ZM1066.83 383.683L1067.99 382.054L1067.95 382.023L1067.9 381.996L1066.83 383.683ZM1079.59 392.771L1080.83 391.204L1080.79 391.172L1080.75 391.142L1079.59 392.771ZM1093.33 403.676L1094.69 402.209L1094.63 402.157L1094.57 402.11L1093.33 403.676ZM1110.02 419.126L1111.52 417.802L1111.45 417.727L1111.38 417.658L1110.02 419.126ZM1118.85 429.123L1117.35 430.447L1117.42 430.522L1117.49 430.59L1118.85 429.123ZM1120.82 430.94L1119.46 432.408L1121.12 433.945L1122.44 432.109L1120.82 430.94ZM1138.48 406.403L1136.95 405.125L1136.9 405.178L1136.86 405.234L1138.48 406.403ZM1148.3 394.588L1146.79 393.281L1146.77 393.295L1146.76 393.31L1148.3 394.588ZM1156.15 385.5L1154.68 384.151L1154.66 384.172L1154.64 384.193L1156.15 385.5ZM1166.95 373.686L1165.59 372.218L1165.53 372.275L1165.47 372.337L1166.95 373.686ZM1200.32 342.787L1199.06 341.233L1199.01 341.274L1198.96 341.319L1200.32 342.787ZM1208.17 336.425L1206.93 334.858L1206.92 334.865L1206.92 334.871L1208.17 336.425ZM1221.92 325.519L1220.79 323.867L1220.73 323.908L1220.67 323.953L1221.92 325.519ZM1240.57 312.796L1239.47 311.122L1239.46 311.133L1239.44 311.144L1240.57 312.796ZM1257.25 301.89L1256.24 300.164L1256.2 300.189L1256.16 300.216L1257.25 301.89ZM1275.9 290.985L1274.93 289.236L1274.91 289.247L1274.89 289.258L1275.9 290.985ZM1290.63 282.806L1289.73 281.018L1289.69 281.037L1289.65 281.057L1290.63 282.806ZM1314.18 270.991L1313.37 269.166L1313.33 269.184L1313.29 269.203L1314.18 270.991ZM1344.61 257.359L1343.93 255.48L1343.86 255.505L1343.79 255.534L1344.61 257.359ZM1377 245.545L1376.41 243.634L1376.37 243.648L1376.32 243.666L1377 245.545ZM1385.84 244.818H1388.78V240.818H1385.84V244.818ZM1386.85 242.297L1385.87 245.932L1389.73 246.975L1390.71 243.34L1386.85 242.297ZM1386.71 244.779L1370.02 255.685L1372.21 259.033L1388.9 248.128L1386.71 244.779ZM1370 255.696L1352.33 267.511L1354.56 270.836L1372.23 259.022L1370 255.696ZM1352.29 267.541L1335.6 279.356L1337.92 282.62L1354.6 270.806L1352.29 267.541ZM1335.59 279.365L1317.92 292.088L1320.26 295.334L1337.93 282.611L1335.59 279.365ZM1317.88 292.121L1301.19 304.844L1303.62 308.025L1320.3 295.302L1317.88 292.121ZM1301.15 304.875L1286.43 316.689L1288.93 319.809L1303.66 307.994L1301.15 304.875ZM1286.44 316.682L1272.7 327.588L1275.18 330.721L1288.92 319.815L1286.44 316.682ZM1272.63 327.641L1257.91 340.364L1260.52 343.391L1275.25 330.668L1272.63 327.641ZM1257.94 340.341L1248.12 348.52L1250.68 351.593L1260.5 343.414L1257.94 340.341ZM1248.04 348.589L1235.28 360.404L1238 363.339L1250.76 351.525L1248.04 348.589ZM1235.38 360.317L1227.53 366.679L1230.05 369.787L1237.9 363.425L1235.38 360.317ZM1227.37 366.826L1216.57 377.732L1219.41 380.546L1230.21 369.64L1227.37 366.826ZM1216.63 377.671L1207.8 385.85L1210.51 388.785L1219.35 380.606L1216.63 377.671ZM1207.66 385.994L1198.82 395.99L1201.82 398.639L1210.65 388.642L1207.66 385.994ZM1198.83 395.986L1185.09 411.435L1188.07 414.094L1201.82 398.644L1198.83 395.986ZM1185 411.534L1172.24 427.893L1175.4 430.353L1188.16 413.995L1185 411.534ZM1172.22 427.921L1156.52 448.824L1159.71 451.227L1175.42 430.324L1172.22 427.921ZM1156.44 448.938L1144.66 467.114L1148.01 469.289L1159.79 451.113L1156.44 448.938ZM1144.65 467.129L1134.83 482.579L1138.21 484.724L1148.02 469.274L1144.65 467.129ZM1134.79 482.649L1120.07 508.096L1123.53 510.099L1138.25 484.653L1134.79 482.649ZM1120.06 508.113L1109.26 527.198L1112.74 529.167L1123.54 510.082L1120.06 508.113ZM1110.31 526.307L1105.4 528.125L1106.79 531.876L1111.69 530.058L1110.31 526.307ZM1107.71 528.831L1103.79 523.379L1100.54 525.716L1104.47 531.169L1107.71 528.831ZM1103.96 523.673L1095.13 505.497L1091.53 507.245L1100.37 525.421L1103.96 523.673ZM1095.07 505.378L1086.23 489.929L1082.76 491.914L1091.6 507.364L1095.07 505.378ZM1086.17 489.823L1072.43 468.92L1069.08 471.118L1082.83 492.02L1086.17 489.823ZM1072.33 468.789L1059.57 452.43L1056.42 454.891L1069.18 471.249L1072.33 468.789ZM1059.53 452.382L1049.72 440.568L1046.64 443.124L1056.46 454.939L1059.53 452.382ZM1049.66 440.497L1038.86 428.682L1035.91 431.381L1046.7 443.195L1049.66 440.497ZM1038.8 428.62L1027.02 416.805L1024.19 419.629L1035.97 431.444L1038.8 428.62ZM1027.01 416.797L1013.27 403.165L1010.45 406.005L1024.19 419.637L1027.01 416.797ZM1013.17 403.075L997.468 389.443L994.846 392.464L1010.55 406.096L1013.17 403.075ZM997.444 389.423L986.647 380.335L984.071 383.395L994.869 392.483L997.444 389.423ZM986.536 380.248L972.794 370.251L970.441 373.486L984.183 383.482L986.536 380.248ZM972.758 370.225L953.127 356.593L950.845 359.879L970.477 373.511L972.758 370.225ZM953.037 356.534L938.313 347.446L936.212 350.85L950.936 359.938L953.037 356.534ZM938.257 347.413L917.644 335.599L915.655 339.069L936.268 350.883L938.257 347.413ZM917.635 335.593L899.966 325.596L897.997 329.078L915.665 339.074L917.635 335.593ZM900.863 326.659L899.882 323.933L896.118 325.288L897.1 328.014L900.863 326.659ZM898 326.61H905.853V322.61H898V326.61ZM905.46 326.572L941.778 333.842L942.563 329.92L906.245 322.649L905.46 326.572ZM941.635 333.808L971.082 341.987L972.153 338.133L942.706 329.954L941.635 333.808ZM970.974 341.954L1000.42 351.951L1001.71 348.163L972.26 338.166L970.974 341.954ZM1000.25 351.882L1032.64 366.422L1034.28 362.773L1001.88 348.232L1000.25 351.882ZM1032.54 366.376L1050.21 375.464L1052.04 371.907L1034.37 362.819L1032.54 366.376ZM1050.05 375.373L1065.76 385.37L1067.9 381.996L1052.2 371.999L1050.05 375.373ZM1065.67 385.312L1078.43 394.4L1080.75 391.142L1067.99 382.054L1065.67 385.312ZM1078.35 394.337L1092.09 405.243L1094.57 402.11L1080.83 391.204L1078.35 394.337ZM1091.97 405.144L1108.66 420.594L1111.38 417.658L1094.69 402.209L1091.97 405.144ZM1108.52 420.45L1117.35 430.447L1120.35 427.798L1111.52 417.802L1108.52 420.45ZM1117.49 430.59L1119.46 432.408L1122.17 429.473L1120.21 427.655L1117.49 430.59ZM1122.44 432.109L1140.11 407.571L1136.86 405.234L1119.19 429.772L1122.44 432.109ZM1140.02 407.681L1149.84 395.866L1146.76 393.31L1136.95 405.125L1140.02 407.681ZM1149.81 395.896L1157.67 386.808L1154.64 384.193L1146.79 393.281L1149.81 395.896ZM1157.63 386.85L1168.43 375.035L1165.47 372.337L1154.68 384.151L1157.63 386.85ZM1168.31 375.153L1201.68 344.254L1198.96 341.319L1165.59 372.218L1168.31 375.153ZM1201.58 344.341L1209.43 337.979L1206.92 334.871L1199.06 341.233L1201.58 344.341ZM1209.42 337.992L1223.16 327.086L1220.67 323.953L1206.93 334.858L1209.42 337.992ZM1223.04 327.171L1241.69 314.448L1239.44 311.144L1220.79 323.867L1223.04 327.171ZM1241.66 314.47L1258.35 303.565L1256.16 300.216L1239.47 311.122L1241.66 314.47ZM1258.26 303.617L1276.91 292.711L1274.89 289.258L1256.24 300.164L1258.26 303.617ZM1276.87 292.733L1291.6 284.554L1289.65 281.057L1274.93 289.236L1276.87 292.733ZM1291.52 284.593L1315.08 272.779L1313.29 269.203L1289.73 281.018L1291.52 284.593ZM1315 272.816L1345.43 259.184L1343.79 255.534L1313.37 269.166L1315 272.816ZM1345.3 259.238L1377.69 247.424L1376.32 243.666L1343.93 255.48L1345.3 259.238ZM1377.59 247.456L1386.43 244.729L1385.25 240.907L1376.41 243.634L1377.59 247.456Z" fill="url(#paint2_linear_25_1205)" fill-opacity="0.5" mask="url(#path-3-inside-1_25_1205)"/>
<path d="M1133.03 26L1135.98 26.9072L1126.14 71.3589L1119.24 110.367L1115.31 140.304L1113.34 159.355L1112.35 176.591L1113.34 204.714L1116.29 233.744L1122.2 266.402L1125.15 280.917L1124.17 284.545L1119.24 283.638L1096.6 275.474L1069.03 268.216L1040.48 262.773L1017.84 260.052L1006.03 259.144H954.833L924.314 261.866H914.469L919.392 257.33L941.05 247.351L965.663 238.279L987.322 231.929L1013.9 226.486L1038.52 223.765H1056.24L1074.94 225.579L1084.79 228.3L1082.82 216.507L1081.83 201.085V175.684L1083.8 152.098L1088.72 125.789L1096.6 99.4813L1105.46 75.8947L1115.31 55.0297L1127.12 33.2574L1133.03 26Z" fill="url(#paint3_linear_25_1205)" fill-opacity="0.5"/>
<path d="M1133.38 27.1537L1134.8 27.5921L1125.16 71.1426L1125.15 71.1637L1125.15 71.1849L1118.26 110.193L1118.26 110.215L1118.25 110.237L1114.31 140.174L1114.31 140.188L1114.31 140.201L1112.34 159.252L1112.34 159.275L1112.34 159.298L1111.35 176.534L1111.35 176.58L1111.35 176.626L1112.34 204.749L1112.34 204.782L1112.34 204.815L1115.3 233.845L1115.3 233.883L1115.31 233.922L1121.21 266.58L1121.22 266.591L1121.22 266.601L1124.12 280.884L1123.44 283.395L1119.51 282.67L1096.94 274.533L1096.9 274.518L1096.85 274.507L1069.29 267.249L1069.26 267.24L1069.22 267.234L1040.67 261.791L1040.64 261.784L1040.6 261.78L1017.96 259.059L1017.94 259.056L1017.92 259.055L1006.1 258.147L1006.07 258.144H1006.03H954.833H954.789L954.745 258.148L924.27 260.866H917.03L919.953 258.172L941.433 248.276L965.977 239.229L987.563 232.9L1014.06 227.475L1038.57 224.765H1056.19L1074.76 226.566L1084.52 229.264L1086.03 229.682L1085.77 228.136L1083.81 216.393L1082.83 201.053V175.726L1084.79 152.232L1089.7 126.026L1097.55 99.8011L1106.38 76.2845L1116.2 55.4819L1127.95 33.8164L1133.38 27.1537Z" stroke="url(#paint4_linear_25_1205)" stroke-opacity="0.5" stroke-width="2"/>
<path d="M898 324.636H905.836L942.075 331.906L971.459 340.084L1000.84 350.08L1033.16 364.619L1050.79 373.706L1066.46 383.701L1079.2 392.788L1092.91 403.692L1109.56 419.14L1118.38 429.136L1120.33 430.953V438.222L1114.46 479.113L1107.6 530L1104.66 529.091L1097.81 516.37L1088.01 497.287L1075.28 477.296L1065.49 463.666L1052.75 447.309L1041.98 435.496L1035.12 428.227L1026.31 419.14L1011.62 404.601L995.945 390.971L985.171 381.884L971.459 371.888L951.87 358.258L937.178 349.171L916.609 337.358L898.979 327.362L898 324.636Z" fill="url(#paint5_linear_25_1205)" fill-opacity="0.5"/>
<path d="M1117.63 429.797L1117.66 429.835L1117.7 429.869L1119.33 431.389V438.151L1113.47 478.971L1113.47 478.98L1106.77 528.696L1105.35 528.257L1098.7 515.913L1098.69 515.895L1088.9 496.831L1088.88 496.789L1088.86 496.75L1076.12 476.759L1076.11 476.735L1076.09 476.712L1066.3 463.082L1066.29 463.067L1066.27 463.051L1053.54 446.695L1053.52 446.664L1053.49 446.635L1042.72 434.823L1042.71 434.816L1042.71 434.81L1035.85 427.541L1035.84 427.531L1027.03 418.444L1027.02 418.436L1027.01 418.429L1012.32 403.89L1012.3 403.868L1012.27 403.846L996.601 390.216L996.595 390.211L996.589 390.206L985.815 381.119L985.788 381.096L985.76 381.076L972.048 371.08L972.039 371.074L972.03 371.067L952.441 357.437L952.419 357.422L952.396 357.407L937.704 348.32L937.69 348.312L937.676 348.304L917.108 336.491L917.108 336.491L917.103 336.488L899.795 326.675L899.422 325.636H905.736L941.842 332.879L971.163 341.04L1000.47 351.011L1032.73 365.52L1050.29 374.573L1065.91 384.53L1078.6 393.587L1092.26 404.451L1108.84 419.839L1117.63 429.797Z" stroke="url(#paint6_linear_25_1205)" stroke-opacity="0.5" stroke-width="2"/>
<path d="M1038.1 224H1055.77L1074.41 225.807L1084.22 228.518L1091.09 236.651L1103.85 254.725L1121.51 279.123L1124.45 280.931L1123.47 284.545L1118.56 283.642L1096 275.509L1068.52 268.28L1040.07 262.858L1017.5 260.147L1005.72 259.243H954.699L924.281 261.954H914.469L919.375 257.436L940.962 247.495L965.493 238.459L987.08 232.133L1013.57 226.711L1038.1 224Z" fill="url(#paint7_linear_25_1205)" fill-opacity="0.5"/>
<path d="M1103.03 255.301L1103.04 255.311L1120.7 279.71L1120.81 279.871L1120.98 279.976L1123.29 281.391L1122.75 283.395L1118.83 282.673L1096.34 274.568L1096.29 274.553L1096.25 274.542L1068.78 267.312L1068.74 267.304L1068.71 267.297L1040.25 261.875L1040.22 261.869L1040.19 261.865L1017.62 259.154L1017.6 259.151L1017.57 259.149L1005.8 258.246L1005.76 258.243H1005.72H954.699H954.655L954.611 258.247L924.237 260.954H917.031L919.937 258.278L941.345 248.42L965.807 239.409L987.321 233.104L1013.73 227.7L1038.16 225H1055.72L1074.23 226.794L1083.66 229.4L1090.3 237.263L1103.03 255.301Z" stroke="url(#paint8_linear_25_1205)" stroke-opacity="0.5" stroke-width="2"/>
</g>
<defs>
<filter id="filter0_b_25_1205" x="894" y="22" width="498.783" height="512" filterUnits="userSpaceOnUse" color-interpolation-filters="sRGB">
<feFlood flood-opacity="0" result="BackgroundImageFix"/>
<feGaussianBlur in="BackgroundImageFix" stdDeviation="2"/>
<feComposite in2="SourceAlpha" operator="in" result="effect1_backgroundBlur_25_1205"/>
<feBlend mode="normal" in="SourceGraphic" in2="effect1_backgroundBlur_25_1205" result="shape"/>
</filter>
<linearGradient id="paint0_linear_25_1205" x1="6.08129e-05" y1="-89.9587" x2="761.087" y2="736.713" gradientUnits="userSpaceOnUse">
<stop stop-color="#B6CEFF"/>
<stop offset="0.4" stop-color="#9BB8FF"/>
<stop offset="0.845" stop-color="#427AFF"/>
</linearGradient>
<linearGradient id="paint1_linear_25_1205" x1="1143.39" y1="242.818" x2="1143.39" y2="530" gradientUnits="userSpaceOnUse">
<stop stop-color="white" stop-opacity="0.3"/>
<stop offset="1" stop-color="white"/>
</linearGradient>
<linearGradient id="paint2_linear_25_1205" x1="1143.39" y1="242.818" x2="1143.39" y2="530" gradientUnits="userSpaceOnUse">
<stop stop-color="white"/>
<stop offset="1" stop-color="white" stop-opacity="0.5"/>
</linearGradient>
<linearGradient id="paint3_linear_25_1205" x1="1025.22" y1="26" x2="1025.22" y2="284.545" gradientUnits="userSpaceOnUse">
<stop stop-color="white" stop-opacity="0.3"/>
<stop offset="1" stop-color="white"/>
</linearGradient>
<linearGradient id="paint4_linear_25_1205" x1="1025.22" y1="26" x2="1025.22" y2="284.545" gradientUnits="userSpaceOnUse">
<stop stop-color="white"/>
<stop offset="1" stop-color="white" stop-opacity="0.5"/>
</linearGradient>
<linearGradient id="paint5_linear_25_1205" x1="1009.17" y1="324.636" x2="1009.17" y2="530" gradientUnits="userSpaceOnUse">
<stop stop-color="white" stop-opacity="0.3"/>
<stop offset="1" stop-color="white"/>
</linearGradient>
<linearGradient id="paint6_linear_25_1205" x1="1009.17" y1="324.636" x2="1009.17" y2="530" gradientUnits="userSpaceOnUse">
<stop stop-color="white"/>
<stop offset="1" stop-color="white" stop-opacity="0.5"/>
</linearGradient>
<linearGradient id="paint7_linear_25_1205" x1="1019.46" y1="224" x2="1019.46" y2="284.545" gradientUnits="userSpaceOnUse">
<stop stop-color="white" stop-opacity="0.3"/>
<stop offset="1" stop-color="white"/>
</linearGradient>
<linearGradient id="paint8_linear_25_1205" x1="1019.46" y1="224" x2="1019.46" y2="284.545" gradientUnits="userSpaceOnUse">
<stop stop-color="white"/>
<stop offset="1" stop-color="white" stop-opacity="0.5"/>
</linearGradient>
</defs>
</svg>
