<svg width="473" height="485" viewBox="0 0 473 485" fill="none" xmlns="http://www.w3.org/2000/svg">
<g opacity="0.3" filter="url(#filter0_b_0_28)">
<path d="M470.162 208.644H473L472.054 212.143L455.972 222.637L438.944 234.006L422.862 245.375L405.834 257.619L389.752 269.862L375.562 281.232L362.318 291.726L348.128 303.97L338.668 311.841L326.37 323.21L318.802 329.331L308.396 339.826L299.882 347.697L291.368 357.317L278.124 372.184L265.826 387.926L250.69 408.04L239.338 425.531L229.878 440.398L215.688 464.886L205.282 483.251L200.552 485L196.768 479.753L188.254 462.262L179.74 447.395L166.496 427.28L154.198 411.538L144.738 400.169L134.332 388.8L122.98 377.431L109.736 364.313L94.6 351.195L84.194 342.45L70.95 332.83L52.03 319.711L37.84 310.966L17.974 299.597L0.946 289.977L0 287.353H7.568L42.57 294.35L70.95 302.221L99.33 311.841L130.548 325.833L147.576 334.579L162.712 344.199L175.01 352.944L188.254 363.439L204.336 378.306L212.85 387.926L214.742 389.675L231.77 366.062L241.23 354.693L248.798 345.948L259.204 334.579L291.368 304.844L298.936 298.722L312.18 288.228L330.154 275.984L346.236 265.49L364.21 254.995L378.4 247.124L401.104 235.755L430.43 222.637L461.648 211.268L470.162 208.644Z" fill="url(#paint0_linear_0_28)" fill-opacity="0.5"/>
<path d="M455.425 221.8L455.417 221.805L438.389 233.175L438.378 233.182L438.367 233.19L422.285 244.559L422.278 244.563L405.25 256.807L405.239 256.815L405.228 256.823L389.146 269.067L389.136 269.074L389.127 269.082L374.941 280.448L374.937 280.451L361.697 290.942L361.681 290.955L361.665 290.969L347.488 303.201L347.475 303.213L338.028 311.072L338.008 311.089L337.989 311.106L325.715 322.453L318.173 328.554L318.13 328.588L318.092 328.627L307.702 339.106L299.203 346.962L299.166 346.997L299.133 347.034L290.621 356.652L290.619 356.654L277.377 371.519L277.356 371.543L277.336 371.568L265.038 387.31L265.032 387.317L265.027 387.324L249.891 407.439L249.87 407.467L249.851 407.496L238.499 424.987L238.494 424.994L229.034 439.861L229.023 439.879L229.013 439.897L214.823 464.384L214.818 464.393L204.592 482.44L200.918 483.798L197.63 479.238L189.153 461.824L189.138 461.794L189.122 461.765L180.608 446.898L180.592 446.871L180.575 446.845L167.331 426.73L167.309 426.696L167.284 426.665L154.986 410.923L154.977 410.911L154.967 410.899L145.507 399.53L145.492 399.512L145.476 399.494L135.07 388.125L135.055 388.109L135.04 388.094L123.688 376.725L123.684 376.721L110.44 363.603L110.416 363.579L110.391 363.557L95.2549 350.439L95.2492 350.434L95.2434 350.429L84.8374 341.684L84.8103 341.661L84.7817 341.64L71.5377 332.02L71.5288 332.014L71.5198 332.008L52.5998 318.89L52.5776 318.874L52.5547 318.86L38.3647 310.115L38.3508 310.106L38.3367 310.098L18.4707 298.729L18.4659 298.726L1.76088 289.289L1.42359 288.353H7.46902L42.3382 295.323L70.6556 303.177L98.9641 312.772L130.115 326.735L147.078 335.447L162.154 345.029L174.409 353.744L187.603 364.199L203.62 379.006L212.101 388.589L212.134 388.626L212.171 388.66L214.063 390.409L214.893 391.176L215.553 390.26L232.561 366.675L241.986 355.348L241.999 355.333L249.545 346.612L249.554 346.602L259.913 335.285L292.023 305.601L299.557 299.506L299.565 299.5L312.773 289.034L330.701 276.822L330.717 276.811L346.762 266.341L364.695 255.87L364.714 255.859L378.866 248.009L401.532 236.659L430.806 223.565L461.967 212.216L470.313 209.644H471.694L471.188 211.514L455.425 221.8Z" stroke="url(#paint1_linear_0_28)" stroke-opacity="0.5" stroke-width="2"/>
<path d="M226.511 0L229.357 0.872978L219.869 43.6489L213.227 81.1869L209.432 109.995L207.534 128.328L206.586 144.914L207.534 171.977L210.381 199.912L216.074 231.339L218.92 245.307L217.972 248.799L213.227 247.926L191.405 240.069L164.837 233.085L137.322 227.847L115.499 225.228L104.113 224.355H54.7742L25.3607 226.974H15.8725L20.6166 222.609L41.4907 213.007L65.2112 204.277L86.0853 198.166L111.703 192.928L135.424 190.309H152.503L170.53 192.055L180.019 194.674L178.121 183.325L177.172 168.485V144.041L179.07 121.344L183.814 96.0276L191.405 70.7112L199.944 48.0138L209.432 27.9353L220.818 6.98382L226.511 0Z" fill="url(#paint2_linear_0_28)" fill-opacity="0.5"/>
<path d="M181.005 194.509L179.116 183.211L178.172 168.453V144.083L180.062 121.478L184.787 96.2639L192.353 71.0311L200.865 48.4042L210.324 28.388L221.652 7.54333L226.861 1.15332L228.181 1.5582L218.893 43.4323L218.888 43.4534L218.884 43.4747L212.243 81.0127L212.239 81.0344L212.236 81.0563L208.441 109.865L208.439 109.878L208.437 109.892L206.54 128.225L206.537 128.248L206.536 128.271L205.587 144.857L205.585 144.903L205.586 144.949L206.535 172.012L206.536 172.045L206.54 172.078L209.386 200.013L209.39 200.052L209.397 200.09L215.09 231.517L215.092 231.528L215.094 231.539L217.893 245.274L217.248 247.649L213.489 246.957L191.743 239.128L191.702 239.113L191.659 239.102L165.092 232.118L165.058 232.109L165.024 232.103L137.509 226.865L137.475 226.858L137.441 226.854L115.618 224.235L115.597 224.233L115.575 224.231L104.189 223.358L104.151 223.355H104.113H54.7742H54.7297L54.6855 223.359L25.3162 225.974H18.4363L21.1777 223.452L41.8729 213.932L65.5248 205.227L86.3262 199.137L111.859 193.917L135.479 191.309H152.454L170.348 193.042L179.753 195.638L181.263 196.055L181.005 194.509Z" stroke="url(#paint3_linear_0_28)" stroke-opacity="0.5" stroke-width="2"/>
<path d="M0 287.378H7.55167L42.4781 294.374L70.7969 302.244L99.1156 311.862L130.266 325.853L147.257 334.598L162.361 344.216L174.632 352.961L187.848 363.454L203.895 378.319L212.391 387.938L214.279 389.687V396.682L208.615 436.032L202.007 485L199.175 484.126L192.567 471.883L183.128 453.52L170.856 434.283L161.417 421.166L149.145 405.427L138.762 394.059L132.154 387.064L123.659 378.319L109.499 364.328L94.3958 351.212L84.0123 342.467L70.7969 332.849L51.9177 319.732L37.7583 310.988L17.9352 299.62L0.943958 290.002L0 287.378Z" fill="url(#paint4_linear_0_28)" fill-opacity="0.5"/>
<path d="M211.641 388.6L211.674 388.638L211.711 388.672L213.279 390.124V396.611L207.625 435.889L207.624 435.898L201.174 483.696L199.861 483.291L193.457 471.426L193.447 471.409L184.017 453.063L183.996 453.022L183.971 452.983L171.7 433.745L171.684 433.721L171.668 433.699L162.229 420.582L162.217 420.567L162.206 420.552L149.934 404.812L149.91 404.781L149.884 404.752L139.5 393.385L139.495 393.378L139.489 393.372L132.881 386.377L132.871 386.367L124.376 377.622L124.369 377.615L124.361 377.608L110.202 363.617L110.179 363.594L110.155 363.573L95.0515 350.457L95.0458 350.452L95.04 350.447L84.6564 341.703L84.6294 341.68L84.6008 341.659L71.3853 332.04L71.3765 332.034L71.3674 332.027L52.4883 318.911L52.4661 318.896L52.4431 318.881L38.2838 310.137L38.2699 310.129L38.2558 310.12L18.4327 298.753L18.4327 298.753L18.4278 298.75L1.75933 289.314L1.42261 288.378H7.45251L42.2457 295.347L70.5019 303.2L98.7491 312.794L129.832 326.755L146.759 335.466L161.802 345.046L174.031 353.76L187.196 364.213L203.179 379.019L211.641 388.6Z" stroke="url(#paint5_linear_0_28)" stroke-opacity="0.5" stroke-width="2"/>
<path d="M135.027 190.536H152.049L170.017 192.275L179.474 194.884L186.094 202.71L198.387 220.102L215.41 243.581L218.247 245.32L217.301 248.799L212.573 247.929L190.822 240.103L164.343 233.146L136.919 227.928L115.168 225.32L103.82 224.45H54.6451L25.3292 227.059H15.8725L20.6009 222.711L41.4057 213.145L65.0475 204.449L85.8523 198.362L111.386 193.144L135.027 190.536Z" fill="url(#paint6_linear_0_28)" fill-opacity="0.5"/>
<path d="M197.571 220.679L197.578 220.689L214.6 244.168L214.717 244.329L214.887 244.434L217.085 245.781L216.577 247.649L212.834 246.96L191.161 239.162L191.119 239.147L191.076 239.136L164.597 232.179L164.564 232.17L164.53 232.164L137.106 226.946L137.072 226.94L137.038 226.935L115.287 224.327L115.266 224.324L115.245 224.322L103.897 223.453L103.858 223.45H103.82H54.6451H54.6007L54.5565 223.454L25.2848 226.059H18.4373L21.1617 223.554L41.7877 214.07L65.3609 205.399L86.0933 199.334L111.541 194.133L135.082 191.536H152.001L169.835 193.262L178.91 195.765L185.302 203.323L197.571 220.679Z" stroke="url(#paint7_linear_0_28)" stroke-opacity="0.5" stroke-width="2"/>
</g>
<defs>
<filter id="filter0_b_0_28" x="-4" y="-4" width="481" height="493" filterUnits="userSpaceOnUse" color-interpolation-filters="sRGB">
<feFlood flood-opacity="0" result="BackgroundImageFix"/>
<feGaussianBlur in="BackgroundImageFix" stdDeviation="2"/>
<feComposite in2="SourceAlpha" operator="in" result="effect1_backgroundBlur_0_28"/>
<feBlend mode="normal" in="SourceGraphic" in2="effect1_backgroundBlur_0_28" result="shape"/>
</filter>
<linearGradient id="paint0_linear_0_28" x1="236.5" y1="208.644" x2="236.5" y2="485" gradientUnits="userSpaceOnUse">
<stop stop-color="white" stop-opacity="0.3"/>
<stop offset="1" stop-color="white"/>
</linearGradient>
<linearGradient id="paint1_linear_0_28" x1="236.5" y1="208.644" x2="236.5" y2="485" gradientUnits="userSpaceOnUse">
<stop stop-color="white"/>
<stop offset="1" stop-color="white" stop-opacity="0.5"/>
</linearGradient>
<linearGradient id="paint2_linear_0_28" x1="122.615" y1="0" x2="122.615" y2="248.799" gradientUnits="userSpaceOnUse">
<stop stop-color="white" stop-opacity="0.3"/>
<stop offset="1" stop-color="white"/>
</linearGradient>
<linearGradient id="paint3_linear_0_28" x1="122.615" y1="0" x2="122.615" y2="248.799" gradientUnits="userSpaceOnUse">
<stop stop-color="white"/>
<stop offset="1" stop-color="white" stop-opacity="0.5"/>
</linearGradient>
<linearGradient id="paint4_linear_0_28" x1="107.139" y1="287.378" x2="107.139" y2="485" gradientUnits="userSpaceOnUse">
<stop stop-color="white" stop-opacity="0.3"/>
<stop offset="1" stop-color="white"/>
</linearGradient>
<linearGradient id="paint5_linear_0_28" x1="107.139" y1="287.378" x2="107.139" y2="485" gradientUnits="userSpaceOnUse">
<stop stop-color="white"/>
<stop offset="1" stop-color="white" stop-opacity="0.5"/>
</linearGradient>
<linearGradient id="paint6_linear_0_28" x1="117.06" y1="190.536" x2="117.06" y2="248.799" gradientUnits="userSpaceOnUse">
<stop stop-color="white" stop-opacity="0.3"/>
<stop offset="1" stop-color="white"/>
</linearGradient>
<linearGradient id="paint7_linear_0_28" x1="117.06" y1="190.536" x2="117.06" y2="248.799" gradientUnits="userSpaceOnUse">
<stop stop-color="white"/>
<stop offset="1" stop-color="white" stop-opacity="0.5"/>
</linearGradient>
</defs>
</svg>
