<svg width="472" height="268" viewBox="0 0 472 268" fill="none" xmlns="http://www.w3.org/2000/svg">
<rect width="472" height="268" rx="20" fill="#F33E33"/>
<g clip-path="url(#clip0_1_1287)">
<path opacity="0.6" d="M123.937 71.002C126.915 70.284 129.956 69.6993 133.019 69.3816L133.593 69.3195C133.784 69.2998 133.975 69.2866 134.167 69.2698L135.314 69.1748L136.46 69.1071C136.651 69.0969 136.842 69.0822 137.033 69.0757L137.604 69.0552C139.13 68.9883 140.645 68.9935 142.155 69.0076L143.353 69.0366L143.952 69.0519L144.548 69.0761L145.742 69.1243L146.936 69.1952L147.533 69.2319L148.125 69.2823C148.519 69.3172 148.915 69.3461 149.308 69.3854C150.09 69.472 150.877 69.5441 151.649 69.6495C152.516 69.7512 153.369 69.8849 154.225 70.0121L155.498 70.2242C155.923 70.2938 156.341 70.3774 156.762 70.4534C158.443 70.7684 160.103 71.1223 161.748 71.4978C162.162 71.5885 162.569 71.688 162.979 71.7839C163.389 71.8802 163.799 71.9766 164.205 72.0779L166.651 72.6729C167.465 72.8722 168.286 73.0619 169.095 73.2672L171.526 73.8773C171.639 73.9057 171.738 73.9539 171.815 74.0181C171.892 74.0822 171.945 74.1605 171.97 74.2467C171.995 74.3329 171.991 74.4245 171.959 74.5141C171.926 74.6038 171.866 74.689 171.783 74.763L171.744 74.7969C170.26 76.1037 168.814 77.4304 167.526 78.8347L167.465 78.9003L167.45 78.9167C167.45 78.9167 167.442 78.9252 167.446 78.9218L167.457 78.9097C167.497 78.8622 167.524 78.8105 167.537 78.7576C167.55 78.7046 167.549 78.6515 167.534 78.6012C167.51 78.5241 167.453 78.4571 167.371 78.4096C167.282 78.359 167.17 78.3327 167.051 78.3347C167.022 78.3342 166.993 78.3363 166.965 78.3409C166.939 78.3434 166.914 78.348 166.889 78.3546L166.98 78.332L167.187 78.2811L167.603 78.1783C168.157 78.0431 168.712 77.9118 169.268 77.7844C170.381 77.5301 171.498 77.2927 172.62 77.0721C173.741 76.8495 174.865 76.6438 175.993 76.455C177.119 76.2594 178.249 76.0816 179.381 75.9215C180.535 75.7445 181.695 75.6192 182.854 75.5465C184.075 75.4661 185.284 75.5273 186.435 75.7277L185.306 76.8047L183.82 75.1034C183.154 74.3568 182.53 73.5887 181.891 72.8285L180.933 71.6874L180.455 71.1167L179.96 70.5543C178.634 69.0579 177.257 67.5876 175.932 66.0908L173.936 63.8497L172.938 62.7291L172.439 62.1687L172.408 62.1337L172.392 62.1162L172.388 62.1118C172.407 63.1371 175.052 61.0558 174.061 61.4262L174.065 61.4368L174.103 61.5224L174.178 61.6935C174.231 61.807 174.273 61.9234 174.318 62.0391C174.502 62.5006 174.647 62.9729 174.753 63.4535C174.862 63.9341 174.926 64.4231 174.944 64.9173C174.973 65.9082 174.841 66.9116 174.55 67.9068C174.515 68.024 174.442 68.1363 174.337 68.2339C174.232 68.3314 174.098 68.4111 173.948 68.4658C173.797 68.5205 173.635 68.5485 173.474 68.5473C173.314 68.5461 173.162 68.5158 173.03 68.459L173.019 68.4537C172.484 68.2194 171.959 67.9733 171.413 67.7509C171.142 67.6379 170.873 67.522 170.599 67.4113L170.392 67.3303C170.402 67.3153 170.391 67.3245 170.392 67.3205L170.385 67.3176L170.373 67.312L170.348 67.3007L170.298 67.2781L170.199 67.2328L169.8 67.0517C169.273 66.8052 168.716 66.592 168.159 66.3798C167.6 66.1692 167.028 65.9753 166.447 65.7935C165.294 65.4177 164.113 65.08 162.926 64.7538C162.327 64.5985 161.734 64.4353 161.128 64.292C160.825 64.2189 160.525 64.1429 160.222 64.0721L159.309 63.8635C159.006 63.7911 158.7 63.725 158.394 63.6597L157.475 63.4623L156.549 63.2783L156.086 63.1862L155.619 63.1012L154.686 62.9311L153.748 62.7715C153.124 62.6605 152.491 62.5715 151.862 62.4722C149.335 62.1011 146.768 61.8291 144.171 61.6573C141.094 61.4586 137.982 61.3992 134.851 61.4797C131.887 61.571 129.957 61.6476 128.746 61.6309C127.864 61.6177 127.853 61.5023 128.605 61.3117C129.16 61.1767 129.723 61.0691 130.289 60.9896C130.475 60.9621 130.672 60.9331 130.879 60.9024C131.086 60.8722 131.304 60.8502 131.533 60.821C131.99 60.771 132.489 60.714 133.027 60.6755C134.389 60.5575 135.813 60.4968 137.245 60.4607C138.676 60.4302 140.112 60.4465 141.502 60.4878C144.42 60.5876 147.31 60.8054 150.158 61.1402L150.692 61.2019L151.223 61.2715L152.284 61.4118C152.987 61.5157 153.693 61.6133 154.39 61.7308C155.789 61.9533 157.169 62.2181 158.538 62.5033C161.273 63.0787 163.941 63.7751 166.528 64.5888C167.172 64.7965 167.816 65.0033 168.452 65.2222C168.774 65.3262 169.098 65.4278 169.414 65.5391L169.653 65.6209C169.692 65.6355 169.733 65.6484 169.774 65.6597L169.892 65.7023C170.053 65.7552 170.217 65.8043 170.379 65.8555L171.342 66.1758L171.358 66.1808C171.362 66.179 171.358 66.1884 171.37 66.1774L171.377 66.1802L171.407 66.1913L171.465 66.2136L171.582 66.2579C171.661 66.2867 171.737 66.3179 171.814 66.3486L172.277 66.5332C172.897 66.7743 173.5 67.0371 174.108 67.293L172.757 67.7757C172.855 67.3945 172.935 67.0126 172.987 66.6307C173.037 66.2488 173.058 65.8676 173.058 65.4886C173.053 64.879 172.991 64.2751 172.872 63.681C172.837 63.533 172.809 63.3831 172.765 63.2366L172.704 63.0157L172.634 62.7972L172.561 62.579L172.477 62.3643C172.45 62.2923 172.416 62.2227 172.385 62.1518L172.339 62.0459L172.316 61.993L172.31 61.9797C172.346 61.9262 172.251 62.1661 172.3 61.5954C172.341 61.489 172.415 61.3885 172.517 61.3023C172.619 61.2161 172.745 61.1468 172.884 61.1004C173.024 61.054 173.174 61.0317 173.32 61.0356C173.466 61.0394 173.604 61.0692 173.724 61.1225C174.212 61.4724 173.86 61.2203 173.969 61.2988L173.971 61.3003L173.976 61.3064L173.998 61.3307C174.918 62.3669 175.822 63.4019 176.669 64.4153C178.322 66.3633 179.928 68.341 181.621 70.2763C182.483 71.2358 183.364 72.1865 184.239 73.1406L184.57 73.497L184.891 73.8586L185.533 74.5813L186.819 76.0265C186.906 76.1246 186.946 76.2436 186.934 76.3672C186.921 76.4908 186.857 76.613 186.75 76.7171C186.642 76.8212 186.497 76.9021 186.334 76.9487C186.17 76.9953 185.997 77.0054 185.837 76.9775L185.824 76.9752C184.871 76.8164 183.875 76.7637 182.868 76.8187C181.813 76.8768 180.756 76.9791 179.703 77.1253C178.627 77.2642 177.553 77.4182 176.48 77.5871C175.408 77.7571 174.34 77.9486 173.274 78.1503C172.144 78.3646 171.017 78.6019 169.894 78.8548C169.332 78.981 168.772 79.1123 168.213 79.2485C167.933 79.3155 167.654 79.3861 167.375 79.4559L167.271 79.4816C167.271 79.4816 167.193 79.5001 167.141 79.5091C167.083 79.5197 167.025 79.5267 166.966 79.5298C166.722 79.5446 166.487 79.4994 166.299 79.4015C166.118 79.3061 165.99 79.1671 165.935 79.0048C165.878 78.8372 165.902 78.6539 166.004 78.4842C166.028 78.4443 166.056 78.4055 166.088 78.3682L166.111 78.3406L166.121 78.33L166.137 78.3125L166.202 78.2426L166.332 78.1026L166.595 77.8237C166.771 77.6384 166.95 77.454 167.131 77.2706C167.492 76.9038 167.863 76.5413 168.242 76.183C168.432 76.004 168.624 75.826 168.817 75.649L169.11 75.3847L169.413 75.1261C169.818 74.7825 170.232 74.444 170.653 74.1105L170.847 74.928L166.105 73.5396L164.913 73.2047C164.515 73.0942 164.111 72.9927 163.711 72.8863C163.311 72.7796 162.908 72.6781 162.505 72.5765C162.102 72.4753 161.7 72.3704 161.295 72.2745C159.642 71.8624 157.961 71.5028 156.267 71.1739C155.422 71.0056 154.565 70.8622 153.71 70.716L152.418 70.5178C151.988 70.451 151.551 70.4006 151.118 70.3412C150.901 70.3135 150.685 70.2815 150.466 70.2574L149.81 70.1858C149.373 70.1392 148.936 70.0875 148.494 70.0554C148.053 70.0203 147.613 69.9794 147.171 69.949L145.84 69.8726C145.396 69.8478 144.945 69.8374 144.498 69.8191L143.826 69.7943L143.153 69.7795C142.704 69.7716 142.255 69.7585 141.806 69.7548L140.455 69.7521C138.654 69.7647 136.846 69.8306 135.038 69.9713L133.682 70.0906L132.328 70.2433C131.426 70.36 130.523 70.476 129.625 70.628C127.827 70.9213 126.038 71.2834 124.263 71.7032C123.377 71.9185 122.49 72.1329 121.613 72.3801C120.732 72.6141 119.859 72.8713 118.984 73.1228C118.939 73.1358 118.894 73.1489 118.85 73.1613C118.751 73.1898 118.644 73.1899 118.554 73.1609C118.464 73.132 118.398 73.0767 118.37 73.0072C118.353 72.9629 118.352 72.9148 118.366 72.8674C118.381 72.8199 118.412 72.7746 118.455 72.7355C120.36 71.0415 121.886 69.2189 123.201 67.4269C123.859 66.5299 124.457 65.6357 125.027 64.7584L125.448 64.1031L125.654 63.7779C125.719 63.6693 125.777 63.56 125.839 63.4516L126.204 62.8043C126.262 62.6949 126.329 62.5877 126.406 62.4834C126.487 62.3815 126.582 62.2851 126.689 62.196C126.859 62.0562 127.063 61.9404 127.287 61.8557C127.438 61.798 127.599 61.759 127.762 61.7406C127.852 61.7275 127.942 61.7284 128.027 61.7431C128.078 61.7544 128.095 61.7716 128.079 61.7934C128.048 61.838 127.886 61.8927 127.649 62.0113C127.324 62.176 127.067 62.4052 126.914 62.667C126.858 62.7608 126.775 62.9609 126.7 63.1229L126.468 63.6317L126.352 63.8872C126.309 63.9709 126.264 64.053 126.22 64.1361L125.949 64.6344C125.582 65.2999 125.193 65.9691 124.771 66.6352C123.928 67.9829 122.957 69.2949 121.866 70.5606C121.075 71.4752 120.198 72.3534 119.243 73.188L118.554 72.4451C119.441 72.1996 120.325 71.9433 121.223 71.7137C121.672 71.5977 122.116 71.474 122.568 71.3668C123.017 71.2517 123.465 71.1367 123.912 71.0218C123.92 71.0153 123.927 71.0092 123.937 71.002Z" fill="black"/>
<g clip-path="url(#clip1_1_1287)">
<path d="M270.949 41.6877H213.424C210.991 41.6877 208.999 43.3514 208.999 45.3847V76.809H209.112H275.374V45.3847C275.374 43.3514 273.387 41.6877 270.949 41.6877Z" fill="#E6E9ED"/>
<path d="M252.143 84.2029L254.356 93.4453H230.018L232.231 84.2029H252.143Z" fill="#545C66"/>
<path d="M209.112 76.809H275.374V80.5059C275.374 82.5393 273.387 84.2029 270.949 84.2029H251.037H233.337H213.424C210.991 84.2029 208.999 82.5393 208.999 80.5059V76.809H209.112Z" fill="#656D78"/>
<path d="M270.954 86.0551H213.438C209.778 86.0551 206.8 83.567 206.8 80.5096V45.394C206.8 42.3366 209.778 39.8485 213.438 39.8485H270.954C274.613 39.8485 277.591 42.3366 277.591 45.394V80.5096C277.591 83.567 274.613 86.0551 270.954 86.0551ZM213.438 43.5455C212.214 43.5455 211.225 44.3736 211.225 45.394V80.5096C211.225 81.53 212.214 82.3581 213.438 82.3581H270.954C272.173 82.3581 273.166 81.53 273.166 80.5096V45.394C273.166 44.3736 272.173 43.5455 270.954 43.5455H213.438Z" fill="#656D78"/>
<path d="M257.679 95.2976H226.704C225.48 95.2976 224.491 94.4713 224.491 93.4491C224.491 92.4269 225.48 91.6006 226.704 91.6006H257.679C258.902 91.6006 259.891 92.4269 259.891 93.4491C259.891 94.4713 258.902 95.2976 257.679 95.2976Z" fill="#656D78"/>
<path d="M248.846 67.5646H235.576C234.352 67.5646 233.363 66.7384 233.363 65.7162C233.363 64.6939 234.352 63.8677 235.576 63.8677H248.846C250.07 63.8677 251.059 64.6939 251.059 65.7162C251.059 66.7384 250.07 67.5646 248.846 67.5646Z" fill="#CCD1D9"/>
<path d="M242.26 83.2824C241.036 83.2824 240.034 82.4561 240.034 81.4339C240.034 80.4117 241.014 79.5854 242.233 79.5854H242.26C243.479 79.5854 244.472 80.4117 244.472 81.4339C244.472 82.4561 243.479 83.2824 242.26 83.2824Z" fill="#545C66"/>
<path d="M242.191 54.6309C240.972 54.6309 238.981 54.6309 237.766 54.6309H222.288C221.068 54.6309 220.075 55.4627 220.075 56.4793V58.326C220.075 59.3427 221.068 60.1745 222.288 60.1745H244.404C245.618 60.1745 254.256 60.1745 255.471 60.1745H262.095C263.314 60.1745 264.307 59.3427 264.307 58.326V56.4793C264.307 55.4627 263.314 54.6309 262.095 54.6309H242.191Z" fill="#CCD1D9"/>
<path d="M237.766 54.6309H222.288C221.068 54.6309 220.075 55.4627 220.075 56.4793V58.326C220.075 59.3427 221.068 60.1745 222.288 60.1745H244.404C245.012 60.1745 245.813 60.1745 246.616 60.1745L239.979 54.6309C239.176 54.6309 238.372 54.6309 237.766 54.6309Z" fill="#5D9CEC"/>
</g>
<path d="M296.631 69.7H268V94H296.631V69.7Z" fill="#656D78"/>
<path d="M296.631 69.7H268L271.368 67H293.262L296.631 69.7Z" fill="#545C66"/>
<path d="M273.053 80.5C273.987 80.5 274.737 81.1008 274.737 81.85C274.737 82.5925 273.987 83.2 273.053 83.2C272.126 83.2 271.369 82.5925 271.369 81.85C271.369 81.1008 272.126 80.5 273.053 80.5Z" fill="#5D9CEC"/>
<path d="M273.053 72.3999C273.987 72.3999 274.737 73.0007 274.737 73.7499C274.737 74.4924 273.987 75.0999 273.053 75.0999C272.126 75.0999 271.369 74.4924 271.369 73.7499C271.369 73.0007 272.126 72.3999 273.053 72.3999Z" fill="#5D9CEC"/>
<path d="M273.053 88.6001C273.987 88.6001 274.737 89.2008 274.737 89.9501C274.737 90.6926 273.987 91.3001 273.053 91.3001C272.126 91.3001 271.369 90.6926 271.369 89.9501C271.369 89.2008 272.126 88.6001 273.053 88.6001Z" fill="#5D9CEC"/>
<path d="M296.631 81.85V85.9H268.842H268V77.8H296.631V81.85ZM274.737 81.85C274.737 81.1008 273.987 80.5 273.052 80.5C272.126 80.5 271.368 81.1008 271.368 81.85C271.368 82.5925 272.126 83.2 273.052 83.2C273.987 83.2 274.737 82.5925 274.737 81.85Z" fill="#545C66"/>
<path d="M285.684 75.0986C285.557 75.0986 285.428 75.0757 285.308 75.0278C284.892 74.861 284.724 74.4554 284.932 74.1219L285.774 72.7719C285.983 72.4385 286.487 72.3041 286.904 72.4702C287.32 72.6369 287.488 73.0426 287.28 73.376L286.438 74.726C286.29 74.9623 285.993 75.0986 285.684 75.0986Z" fill="#545C66"/>
<path d="M289.052 75.0986C288.926 75.0986 288.797 75.0757 288.677 75.0278C288.261 74.861 288.092 74.4554 288.3 74.1219L289.142 72.7719C289.351 72.4385 289.857 72.3041 290.272 72.4702C290.688 72.6369 290.857 73.0426 290.649 73.376L289.807 74.726C289.658 74.9623 289.361 75.0986 289.052 75.0986Z" fill="#545C66"/>
<path d="M292.42 75.0986C292.294 75.0986 292.165 75.0757 292.044 75.0278C291.628 74.861 291.46 74.4554 291.668 74.1219L292.51 72.7719C292.718 72.4385 293.224 72.3041 293.64 72.4702C294.056 72.6369 294.225 73.0426 294.017 73.376L293.174 74.726C293.026 74.9623 292.729 75.0986 292.42 75.0986Z" fill="#545C66"/>
<path d="M285.684 83.1986C285.557 83.1986 285.428 83.1757 285.308 83.1277C284.892 82.961 284.724 82.5553 284.932 82.2219L285.774 80.8719C285.983 80.5384 286.487 80.4041 286.904 80.5702C287.32 80.7369 287.488 81.1426 287.28 81.476L286.438 82.826C286.29 83.0623 285.993 83.1986 285.684 83.1986Z" fill="#434A54"/>
<path d="M289.052 83.1986C288.926 83.1986 288.797 83.1757 288.677 83.1277C288.261 82.961 288.092 82.5553 288.3 82.2219L289.142 80.8719C289.351 80.5384 289.857 80.4041 290.272 80.5702C290.688 80.7369 290.857 81.1426 290.649 81.476L289.807 82.826C289.658 83.0623 289.361 83.1986 289.052 83.1986Z" fill="#434A54"/>
<path d="M292.42 83.1986C292.294 83.1986 292.165 83.1757 292.044 83.1277C291.628 82.961 291.46 82.5553 291.668 82.2219L292.51 80.8719C292.718 80.5384 293.224 80.4041 293.64 80.5702C294.056 80.7369 294.225 81.1426 294.017 81.476L293.174 82.826C293.026 83.0623 292.729 83.1986 292.42 83.1986Z" fill="#434A54"/>
<path d="M285.684 91.2986C285.557 91.2986 285.428 91.2756 285.308 91.2277C284.892 91.061 284.724 90.6553 284.932 90.3219L285.774 88.9719C285.983 88.6384 286.487 88.5041 286.904 88.6701C287.32 88.8369 287.488 89.2425 287.28 89.576L286.438 90.926C286.29 91.1622 285.993 91.2986 285.684 91.2986Z" fill="#545C66"/>
<path d="M289.052 91.2986C288.926 91.2986 288.797 91.2756 288.677 91.2277C288.261 91.061 288.092 90.6553 288.3 90.3219L289.142 88.9719C289.351 88.6384 289.857 88.5041 290.272 88.6701C290.688 88.8369 290.857 89.2425 290.649 89.576L289.807 90.926C289.658 91.1622 289.361 91.2986 289.052 91.2986Z" fill="#545C66"/>
<path d="M292.42 91.2986C292.294 91.2986 292.165 91.2756 292.044 91.2277C291.628 91.061 291.46 90.6553 291.668 90.3219L292.51 88.9719C292.718 88.6384 293.224 88.5041 293.64 88.6701C294.056 88.8369 294.225 89.2425 294.017 89.576L293.174 90.926C293.026 91.1622 292.729 91.2986 292.42 91.2986Z" fill="#545C66"/>
<path d="M304.781 48.8125H286.219C285.771 48.8125 285.342 48.931 285.026 49.142C284.709 49.353 284.531 49.6391 284.531 49.9375V60.0625C284.531 60.3609 284.709 60.647 285.026 60.858C285.342 61.069 285.771 61.1875 286.219 61.1875H304.781C305.229 61.1875 305.658 61.069 305.974 60.858C306.291 60.647 306.469 60.3609 306.469 60.0625V49.9375C306.469 49.6391 306.291 49.353 305.974 49.142C305.658 48.931 305.229 48.8125 304.781 48.8125ZM291.788 56.2375C291.967 56.327 292.085 56.4603 292.117 56.6079C292.148 56.7556 292.091 56.9057 291.956 57.025C291.822 57.1443 291.622 57.2232 291.401 57.2443C291.179 57.2654 290.954 57.227 290.775 57.1375L287.4 55.45C287.295 55.3976 287.21 55.3297 287.152 55.2516C287.093 55.1735 287.062 55.0873 287.062 55C287.062 54.9127 287.093 54.8265 287.152 54.7484C287.21 54.6703 287.295 54.6024 287.4 54.55L290.775 52.8625C290.954 52.773 291.179 52.7346 291.401 52.7557C291.622 52.7768 291.822 52.8557 291.956 52.975C292.091 53.0943 292.148 53.2444 292.117 53.392C292.085 53.5397 291.967 53.673 291.788 53.7625L289.312 55L291.788 56.2375ZM297.999 51.2172L294.624 59.0922C294.595 59.1645 294.545 59.2322 294.476 59.2914C294.408 59.3506 294.322 59.4002 294.225 59.4371C294.127 59.474 294.019 59.4976 293.908 59.5065C293.797 59.5154 293.684 59.5093 293.576 59.4888C293.468 59.4682 293.367 59.4335 293.28 59.3867C293.192 59.3399 293.12 59.2819 293.066 59.2162C293.013 59.1505 292.98 59.0783 292.968 59.0039C292.957 58.9294 292.969 58.8543 293.001 58.7828L296.376 50.9078C296.441 50.767 296.586 50.6488 296.781 50.5785C296.975 50.5083 297.203 50.4916 297.415 50.5321C297.628 50.5727 297.808 50.6671 297.917 50.7952C298.026 50.9233 298.055 51.0748 297.999 51.2172ZM303.6 55.45L300.225 57.1375C300.046 57.227 299.821 57.2654 299.599 57.2443C299.378 57.2232 299.178 57.1443 299.044 57.025C298.909 56.9057 298.852 56.7556 298.883 56.6079C298.915 56.4603 299.033 56.327 299.212 56.2375L301.688 55L299.212 53.7625C299.124 53.7182 299.049 53.6627 298.993 53.5991C298.936 53.5355 298.899 53.4652 298.883 53.392C298.868 53.3189 298.874 53.2445 298.901 53.1729C298.929 53.1013 298.977 53.0341 299.044 52.975C299.11 52.9159 299.194 52.8661 299.289 52.8285C299.384 52.7908 299.49 52.7661 299.599 52.7557C299.709 52.7452 299.821 52.7493 299.928 52.7676C300.035 52.7859 300.136 52.8182 300.225 52.8625L303.6 54.55C303.705 54.6024 303.79 54.6703 303.848 54.7484C303.907 54.8265 303.938 54.9127 303.938 55C303.938 55.0873 303.907 55.1735 303.848 55.2516C303.79 55.3297 303.705 55.3976 303.6 55.45Z" fill="#343330"/>
<path d="M189.75 51.375V52.625C189.75 52.9565 189.566 53.2745 189.237 53.5089C188.909 53.7433 188.464 53.875 188 53.875V50.125C188.464 50.125 188.909 50.2567 189.237 50.4911C189.566 50.7255 189.75 51.0435 189.75 51.375ZM208.125 47.625V56.375C208.125 56.7065 207.941 57.0245 207.612 57.2589C207.284 57.4933 206.839 57.625 206.375 57.625H183.625C183.161 57.625 182.716 57.4933 182.388 57.2589C182.059 57.0245 181.875 56.7065 181.875 56.375V47.625C181.875 47.2935 182.059 46.9755 182.388 46.7411C182.716 46.5067 183.161 46.375 183.625 46.375H206.375C206.839 46.375 207.284 46.5067 207.612 46.7411C207.941 46.9755 208.125 47.2935 208.125 47.625ZM191.5 51.375C191.5 50.712 191.131 50.0761 190.475 49.6072C189.818 49.1384 188.928 48.875 188 48.875H187.125C186.893 48.875 186.67 48.9408 186.506 49.0581C186.342 49.1753 186.25 49.3342 186.25 49.5V54.5C186.25 54.6658 186.342 54.8247 186.506 54.9419C186.67 55.0592 186.893 55.125 187.125 55.125H188C188.928 55.125 189.818 54.8616 190.475 54.3928C191.131 53.9239 191.5 53.288 191.5 52.625V51.375ZM195 51.375V50.125H196.75C196.982 50.125 197.205 50.0592 197.369 49.9419C197.533 49.8247 197.625 49.6658 197.625 49.5C197.625 49.3342 197.533 49.1753 197.369 49.0581C197.205 48.9408 196.982 48.875 196.75 48.875H194.125C193.893 48.875 193.67 48.9408 193.506 49.0581C193.342 49.1753 193.25 49.3342 193.25 49.5V54.5C193.25 54.6658 193.342 54.8247 193.506 54.9419C193.67 55.0592 193.893 55.125 194.125 55.125H196.75C196.982 55.125 197.205 55.0592 197.369 54.9419C197.533 54.8247 197.625 54.6658 197.625 54.5C197.625 54.3342 197.533 54.1753 197.369 54.0581C197.205 53.9408 196.982 53.875 196.75 53.875H195V52.625H195.875C196.107 52.625 196.33 52.5592 196.494 52.4419C196.658 52.3247 196.75 52.1658 196.75 52C196.75 51.8342 196.658 51.6753 196.494 51.5581C196.33 51.4408 196.107 51.375 195.875 51.375H195ZM203.987 48.8984C203.764 48.8535 203.525 48.8737 203.322 48.9548C203.12 49.0358 202.971 49.1709 202.908 49.3305L201.781 52.1914L200.655 49.3305C200.591 49.1715 200.442 49.0371 200.24 48.9566C200.037 48.8761 199.799 48.8561 199.576 48.9009C199.353 48.9458 199.165 49.0518 199.051 49.1959C198.937 49.3399 198.908 49.5102 198.97 49.6695L200.939 54.6695C200.991 54.8006 201.101 54.9161 201.253 54.9983C201.405 55.0805 201.591 55.125 201.781 55.125C201.972 55.125 202.157 55.0805 202.309 54.9983C202.461 54.9161 202.572 54.8006 202.623 54.6695L204.592 49.6695C204.655 49.51 204.627 49.3391 204.513 49.1945C204.4 49.0499 204.211 48.9434 203.987 48.8984Z" fill="#343330"/>
<path d="M203 81.5938C199.636 81.5938 197 83.2273 197 85.3125V91.6875C197 93.7727 199.636 95.4062 203 95.4062C206.364 95.4062 209 93.7727 209 91.6875V85.3125C209 83.2273 206.364 81.5938 203 81.5938ZM208 88.5C208 89.1388 207.507 89.7903 206.649 90.2877C205.683 90.8475 204.387 91.1562 203 91.1562C201.613 91.1562 200.317 90.8475 199.351 90.2877C198.493 89.7903 198 89.1388 198 88.5V87.395C199.066 88.3911 200.889 89.0312 203 89.0312C205.111 89.0312 206.934 88.3884 208 87.395V88.5ZM206.649 93.4752C205.683 94.035 204.387 94.3438 203 94.3438C201.613 94.3438 200.317 94.035 199.351 93.4752C198.493 92.9778 198 92.3263 198 91.6875V90.5825C199.066 91.5786 200.889 92.2188 203 92.2188C205.111 92.2188 206.934 91.5759 208 90.5825V91.6875C208 92.3263 207.507 92.9778 206.649 93.4752Z" fill="#343330"/>
<circle cx="81" cy="71" r="25" fill="#F5F3F3"/>
<path d="M73.015 72.4749C73.0184 72.5427 73.008 72.6104 72.9844 72.674C72.9608 72.7376 72.9245 72.7957 72.8777 72.8448C72.8309 72.8939 72.7747 72.933 72.7123 72.9596C72.65 72.9863 72.5828 73 72.515 72.9999H67C66.7743 73.0003 66.5551 72.9243 66.3781 72.7842C66.2011 72.6442 66.0766 72.4484 66.025 72.2287C65.9929 72.0783 65.9943 71.9227 66.0294 71.7729C66.0644 71.6232 66.132 71.483 66.2275 71.3624C67.1098 70.1924 68.2804 69.2712 69.625 68.6887C69.0347 68.1505 68.5819 67.4786 68.3046 66.7294C68.0273 65.9802 67.9336 65.1754 68.0313 64.3825C68.129 63.5896 68.4152 62.8317 68.8661 62.1722C69.3169 61.5127 69.9192 60.9708 70.6226 60.5919C71.3259 60.2131 72.1098 60.0082 72.9085 59.9946C73.7073 59.981 74.4977 60.159 75.2135 60.5136C75.9294 60.8683 76.5498 61.3893 77.0229 62.0331C77.4959 62.6769 77.8079 63.4246 77.9325 64.2137C77.9486 64.3198 77.9296 64.4283 77.8784 64.5226C77.8272 64.6169 77.7465 64.6919 77.6488 64.7362C76.2618 65.3774 75.0871 66.402 74.2634 67.689C73.4397 68.9761 73.0013 70.4719 73 71.9999C73 72.1599 73 72.3174 73.015 72.4749ZM95.765 71.3612C94.8848 70.1925 93.7169 69.2718 92.375 68.6887C92.9654 68.1505 93.4181 67.4786 93.6954 66.7294C93.9727 65.9802 94.0664 65.1754 93.9687 64.3825C93.8711 63.5896 93.5848 62.8317 93.134 62.1722C92.6831 61.5127 92.0808 60.9708 91.3775 60.5919C90.6741 60.2131 89.8903 60.0082 89.0915 59.9946C88.2927 59.981 87.5023 60.159 86.7865 60.5136C86.0707 60.8683 85.4502 61.3893 84.9772 62.0331C84.5041 62.6769 84.1922 63.4246 84.0675 64.2137C84.0514 64.3198 84.0704 64.4283 84.1216 64.5226C84.1729 64.6169 84.2535 64.6919 84.3513 64.7362C85.7383 65.3774 86.9129 66.402 87.7366 67.689C88.5603 68.9761 88.9987 70.4719 89 71.9999C89 72.1599 89 72.3174 88.985 72.4749C88.9816 72.5427 88.992 72.6104 89.0157 72.674C89.0393 72.7376 89.0755 72.7957 89.1223 72.8448C89.1691 72.8939 89.2254 72.933 89.2877 72.9596C89.3501 72.9863 89.4172 73 89.485 72.9999H95C95.2257 73.0003 95.4449 72.9243 95.6219 72.7842C95.7989 72.6442 95.9234 72.4484 95.975 72.2287C96.0074 72.078 96.0059 71.9221 95.9706 71.772C95.9354 71.622 95.8673 71.4817 95.7713 71.3612H95.765ZM84.64 76.7587C85.6357 75.9962 86.3674 74.9408 86.7323 73.7409C87.0972 72.541 87.0769 71.257 86.6744 70.0692C86.2718 68.8814 85.5071 67.8497 84.4879 67.1189C83.4686 66.3882 82.246 65.9952 80.9919 65.9952C79.7377 65.9952 78.5151 66.3882 77.4959 67.1189C76.4766 67.8497 75.712 68.8814 75.3094 70.0692C74.9068 71.257 74.8866 72.541 75.2515 73.7409C75.6164 74.9408 76.3481 75.9962 77.3438 76.7587C75.5769 77.5242 74.1016 78.8353 73.1338 80.4999C73.046 80.652 72.9998 80.8244 72.9998 81C72.9998 81.1756 73.046 81.348 73.1338 81.5C73.2216 81.6521 73.3479 81.7783 73.4999 81.8661C73.652 81.9538 73.8245 82 74 81.9999H88C88.1756 82 88.348 81.9538 88.5001 81.8661C88.6521 81.7783 88.7784 81.6521 88.8662 81.5C88.954 81.348 89.0002 81.1756 89.0002 81C89.0002 80.8244 88.954 80.652 88.8663 80.4999C87.8964 78.8342 86.4183 77.523 84.6488 76.7587H84.64Z" fill="#343330"/>
</g>
<path d="M32.7246 132.781V147H30.2734L23.8965 136.814V147H21.4453V132.781H23.8965L30.293 142.986V132.781H32.7246ZM37.9297 136.434V147H35.5664V136.434H37.9297ZM35.4102 133.66C35.4102 133.302 35.5273 133.006 35.7617 132.771C36.0026 132.531 36.3346 132.41 36.7578 132.41C37.1745 132.41 37.5033 132.531 37.7441 132.771C37.985 133.006 38.1055 133.302 38.1055 133.66C38.1055 134.012 37.985 134.305 37.7441 134.539C37.5033 134.773 37.1745 134.891 36.7578 134.891C36.3346 134.891 36.0026 134.773 35.7617 134.539C35.5273 134.305 35.4102 134.012 35.4102 133.66ZM45.3516 136.434V138.152H39.3945V136.434H45.3516ZM41.1133 133.846H43.4668V144.08C43.4668 144.406 43.5124 144.656 43.6035 144.832C43.7012 145.001 43.8346 145.115 44.0039 145.174C44.1732 145.232 44.3717 145.262 44.5996 145.262C44.7624 145.262 44.9186 145.252 45.0684 145.232C45.2181 145.213 45.3385 145.193 45.4297 145.174L45.4395 146.971C45.2441 147.029 45.0163 147.081 44.7559 147.127C44.502 147.173 44.209 147.195 43.877 147.195C43.3366 147.195 42.8581 147.101 42.4414 146.912C42.0247 146.717 41.6992 146.401 41.4648 145.965C41.2305 145.529 41.1133 144.949 41.1133 144.227V133.846ZM51.8262 147.195C51.0449 147.195 50.3385 147.068 49.707 146.814C49.082 146.554 48.5482 146.193 48.1055 145.73C47.6693 145.268 47.334 144.725 47.0996 144.1C46.8652 143.475 46.748 142.801 46.748 142.078V141.688C46.748 140.861 46.8685 140.112 47.1094 139.441C47.3503 138.771 47.6855 138.198 48.1152 137.723C48.5449 137.241 49.0527 136.873 49.6387 136.619C50.2246 136.365 50.8594 136.238 51.543 136.238C52.2982 136.238 52.959 136.365 53.5254 136.619C54.0918 136.873 54.5605 137.231 54.9316 137.693C55.3092 138.149 55.5892 138.693 55.7715 139.324C55.9603 139.956 56.0547 140.652 56.0547 141.414V142.42H47.8906V140.73H53.7305V140.545C53.7174 140.122 53.6328 139.725 53.4766 139.354C53.3268 138.982 53.0957 138.683 52.7832 138.455C52.4707 138.227 52.054 138.113 51.5332 138.113C51.1426 138.113 50.7943 138.198 50.4883 138.367C50.1888 138.53 49.9382 138.768 49.7363 139.08C49.5345 139.393 49.3783 139.77 49.2676 140.213C49.1634 140.649 49.1113 141.141 49.1113 141.688V142.078C49.1113 142.54 49.1732 142.97 49.2969 143.367C49.4271 143.758 49.6159 144.1 49.8633 144.393C50.1107 144.686 50.4102 144.917 50.7617 145.086C51.1133 145.249 51.5137 145.33 51.9629 145.33C52.5293 145.33 53.0339 145.216 53.4766 144.988C53.9193 144.76 54.3034 144.438 54.6289 144.021L55.8691 145.223C55.6413 145.555 55.3451 145.874 54.9805 146.18C54.6159 146.479 54.1699 146.723 53.6426 146.912C53.1217 147.101 52.5163 147.195 51.8262 147.195ZM60.4102 132V147H58.0469V132H60.4102ZM65.5078 136.434V147H63.1445V136.434H65.5078ZM62.9883 133.66C62.9883 133.302 63.1055 133.006 63.3398 132.771C63.5807 132.531 63.9128 132.41 64.3359 132.41C64.7526 132.41 65.0814 132.531 65.3223 132.771C65.5632 133.006 65.6836 133.302 65.6836 133.66C65.6836 134.012 65.5632 134.305 65.3223 134.539C65.0814 134.773 64.7526 134.891 64.3359 134.891C63.9128 134.891 63.5807 134.773 63.3398 134.539C63.1055 134.305 62.9883 134.012 62.9883 133.66ZM70.459 132V147H68.0957V132H70.459ZM77.0215 136.434L72.4219 141.531L69.9023 144.109L69.2871 142.117L71.1914 139.764L74.1797 136.434H77.0215ZM74.6875 147L71.2598 142.039L72.7441 140.389L77.4121 147H74.6875Z" fill="white"/>
<path d="M33.056 163.248V165.96H28.592V180H25.232V165.96H20.768V163.248H33.056ZM34.6436 173.304C34.6436 171.96 34.9076 170.768 35.4356 169.728C35.9796 168.688 36.7076 167.888 37.6196 167.328C38.5476 166.768 39.5796 166.488 40.7156 166.488C41.7076 166.488 42.5716 166.688 43.3076 167.088C44.0596 167.488 44.6596 167.992 45.1076 168.6V166.704H48.4916V180H45.1076V178.056C44.6756 178.68 44.0756 179.2 43.3076 179.616C42.5556 180.016 41.6836 180.216 40.6916 180.216C39.5716 180.216 38.5476 179.928 37.6196 179.352C36.7076 178.776 35.9796 177.968 35.4356 176.928C34.9076 175.872 34.6436 174.664 34.6436 173.304ZM45.1076 173.352C45.1076 172.536 44.9476 171.84 44.6276 171.264C44.3076 170.672 43.8756 170.224 43.3316 169.92C42.7876 169.6 42.2036 169.44 41.5796 169.44C40.9556 169.44 40.3796 169.592 39.8516 169.896C39.3236 170.2 38.8916 170.648 38.5556 171.24C38.2356 171.816 38.0756 172.504 38.0756 173.304C38.0756 174.104 38.2356 174.808 38.5556 175.416C38.8916 176.008 39.3236 176.464 39.8516 176.784C40.3956 177.104 40.9716 177.264 41.5796 177.264C42.2036 177.264 42.7876 177.112 43.3316 176.808C43.8756 176.488 44.3076 176.04 44.6276 175.464C44.9476 174.872 45.1076 174.168 45.1076 173.352ZM59.6452 180L55.1332 174.336V180H51.7732V162.24H55.1332V172.344L59.5972 166.704H63.9652L58.1092 173.376L64.0132 180H59.6452ZM69.2928 166.704V180H65.9328V166.704H69.2928ZM89.2618 166.512C90.8938 166.512 92.2058 167.016 93.1978 168.024C94.2058 169.016 94.7098 170.408 94.7098 172.2V180H91.3498V172.656C91.3498 171.616 91.0858 170.824 90.5578 170.28C90.0298 169.72 89.3098 169.44 88.3978 169.44C87.4858 169.44 86.7578 169.72 86.2138 170.28C85.6858 170.824 85.4218 171.616 85.4218 172.656V180H82.0618V172.656C82.0618 171.616 81.7978 170.824 81.2698 170.28C80.7418 169.72 80.0218 169.44 79.1098 169.44C78.1818 169.44 77.4458 169.72 76.9018 170.28C76.3738 170.824 76.1098 171.616 76.1098 172.656V180H72.7498V166.704H76.1098V168.312C76.5418 167.752 77.0938 167.312 77.7658 166.992C78.4538 166.672 79.2058 166.512 80.0218 166.512C81.0618 166.512 81.9898 166.736 82.8058 167.184C83.6218 167.616 84.2538 168.24 84.7018 169.056C85.1338 168.288 85.7578 167.672 86.5738 167.208C87.4058 166.744 88.3018 166.512 89.2618 166.512ZM109.305 177.336C110.665 177.336 111.553 176.728 111.969 175.512H115.593C115.257 176.808 114.633 177.864 113.721 178.68C112.825 179.496 111.697 179.984 110.337 180.144V181.08C111.217 181.08 111.953 181.304 112.545 181.752C113.153 182.2 113.457 182.848 113.457 183.696C113.457 184.56 113.145 185.224 112.521 185.688C111.913 186.152 111.161 186.384 110.265 186.384H106.857V184.416H109.713C110.097 184.416 110.385 184.36 110.577 184.248C110.785 184.136 110.889 183.936 110.889 183.648C110.889 183.36 110.785 183.16 110.577 183.048C110.385 182.952 110.097 182.904 109.713 182.904H108.225V180.144C107.137 179.984 106.177 179.608 105.345 179.016C104.529 178.408 103.889 177.624 103.425 176.664C102.977 175.688 102.753 174.584 102.753 173.352C102.753 171.976 103.033 170.776 103.593 169.752C104.153 168.712 104.929 167.912 105.921 167.352C106.913 166.776 108.049 166.488 109.329 166.488C110.977 166.488 112.337 166.904 113.409 167.736C114.497 168.552 115.225 169.704 115.593 171.192H111.969C111.777 170.616 111.449 170.168 110.985 169.848C110.537 169.512 109.977 169.344 109.305 169.344C108.345 169.344 107.585 169.696 107.025 170.4C106.465 171.088 106.185 172.072 106.185 173.352C106.185 174.616 106.465 175.6 107.025 176.304C107.585 176.992 108.345 177.336 109.305 177.336ZM117.19 173.304C117.19 171.96 117.454 170.768 117.982 169.728C118.526 168.688 119.254 167.888 120.166 167.328C121.094 166.768 122.126 166.488 123.262 166.488C124.254 166.488 125.118 166.688 125.854 167.088C126.606 167.488 127.206 167.992 127.654 168.6V166.704H131.038V180H127.654V178.056C127.222 178.68 126.622 179.2 125.854 179.616C125.102 180.016 124.23 180.216 123.238 180.216C122.118 180.216 121.094 179.928 120.166 179.352C119.254 178.776 118.526 177.968 117.982 176.928C117.454 175.872 117.19 174.664 117.19 173.304ZM127.654 173.352C127.654 172.536 127.494 171.84 127.174 171.264C126.854 170.672 126.422 170.224 125.878 169.92C125.334 169.6 124.75 169.44 124.126 169.44C123.502 169.44 122.926 169.592 122.398 169.896C121.87 170.2 121.438 170.648 121.102 171.24C120.782 171.816 120.622 172.504 120.622 173.304C120.622 174.104 120.782 174.808 121.102 175.416C121.438 176.008 121.87 176.464 122.398 176.784C122.942 177.104 123.518 177.264 124.126 177.264C124.75 177.264 125.334 177.112 125.878 176.808C126.422 176.488 126.854 176.04 127.174 175.464C127.494 174.872 127.654 174.168 127.654 173.352ZM137.68 162.24V180H134.32V162.24H137.68ZM144.504 166.704V180H141.144V166.704H144.504ZM154.105 181.08C154.985 181.08 155.721 181.304 156.313 181.752C156.921 182.2 157.225 182.848 157.225 183.696C157.225 184.56 156.913 185.224 156.289 185.688C155.681 186.152 154.929 186.384 154.033 186.384H150.625V184.416H153.481C153.865 184.416 154.153 184.36 154.345 184.248C154.553 184.136 154.657 183.936 154.657 183.648C154.657 183.36 154.553 183.16 154.345 183.048C154.153 182.952 153.865 182.904 153.481 182.904H151.993V180.144C150.617 179.968 149.497 179.48 148.633 178.68C147.769 177.88 147.305 176.92 147.241 175.8H150.625C150.689 176.312 150.937 176.736 151.369 177.072C151.817 177.408 152.369 177.576 153.025 177.576C153.665 177.576 154.161 177.448 154.513 177.192C154.881 176.936 155.065 176.608 155.065 176.208C155.065 175.776 154.841 175.456 154.393 175.248C153.961 175.024 153.265 174.784 152.305 174.528C151.313 174.288 150.497 174.04 149.857 173.784C149.233 173.528 148.689 173.136 148.225 172.608C147.777 172.08 147.553 171.368 147.553 170.472C147.553 169.736 147.761 169.064 148.177 168.456C148.609 167.848 149.217 167.368 150.001 167.016C150.801 166.664 151.737 166.488 152.809 166.488C154.393 166.488 155.657 166.888 156.601 167.688C157.545 168.472 158.065 169.536 158.161 170.88H154.945C154.897 170.352 154.673 169.936 154.273 169.632C153.889 169.312 153.369 169.152 152.713 169.152C152.105 169.152 151.633 169.264 151.297 169.488C150.977 169.712 150.817 170.024 150.817 170.424C150.817 170.872 151.041 171.216 151.489 171.456C151.937 171.68 152.633 171.912 153.577 172.152C154.537 172.392 155.329 172.64 155.953 172.896C156.577 173.152 157.113 173.552 157.561 174.096C158.025 174.624 158.265 175.328 158.281 176.208C158.281 177.232 157.905 178.104 157.153 178.824C156.417 179.544 155.401 179.984 154.105 180.144V181.08ZM177.551 166.512C179.183 166.512 180.495 167.016 181.487 168.024C182.495 169.016 182.999 170.408 182.999 172.2V180H179.639V172.656C179.639 171.616 179.375 170.824 178.847 170.28C178.319 169.72 177.599 169.44 176.687 169.44C175.775 169.44 175.047 169.72 174.503 170.28C173.975 170.824 173.711 171.616 173.711 172.656V180H170.351V172.656C170.351 171.616 170.087 170.824 169.559 170.28C169.031 169.72 168.311 169.44 167.399 169.44C166.471 169.44 165.735 169.72 165.191 170.28C164.663 170.824 164.399 171.616 164.399 172.656V180H161.039V166.704H164.399V168.312C164.831 167.752 165.383 167.312 166.055 166.992C166.743 166.672 167.495 166.512 168.311 166.512C169.351 166.512 170.279 166.736 171.095 167.184C171.911 167.616 172.543 168.24 172.991 169.056C173.423 168.288 174.047 167.672 174.863 167.208C175.695 166.744 176.591 166.512 177.551 166.512ZM185.323 173.304C185.323 171.96 185.587 170.768 186.115 169.728C186.659 168.688 187.387 167.888 188.299 167.328C189.227 166.768 190.259 166.488 191.395 166.488C192.387 166.488 193.251 166.688 193.987 167.088C194.739 167.488 195.339 167.992 195.787 168.6V166.704H199.171V180H195.787V178.056C195.355 178.68 194.755 179.2 193.987 179.616C193.235 180.016 192.363 180.216 191.371 180.216C190.251 180.216 189.227 179.928 188.299 179.352C187.387 178.776 186.659 177.968 186.115 176.928C185.587 175.872 185.323 174.664 185.323 173.304ZM195.787 173.352C195.787 172.536 195.627 171.84 195.307 171.264C194.987 170.672 194.555 170.224 194.011 169.92C193.467 169.6 192.883 169.44 192.259 169.44C191.635 169.44 191.059 169.592 190.531 169.896C190.003 170.2 189.571 170.648 189.235 171.24C188.915 171.816 188.755 172.504 188.755 173.304C188.755 174.104 188.915 174.808 189.235 175.416C189.571 176.008 190.003 176.464 190.531 176.784C191.075 177.104 191.651 177.264 192.259 177.264C192.883 177.264 193.467 177.112 194.011 176.808C194.555 176.488 194.987 176.04 195.307 175.464C195.627 174.872 195.787 174.168 195.787 173.352ZM207.541 180.216C206.453 180.216 205.477 180.024 204.613 179.64C203.749 179.24 203.061 178.704 202.549 178.032C202.053 177.36 201.781 176.616 201.733 175.8H205.117C205.181 176.312 205.429 176.736 205.861 177.072C206.309 177.408 206.861 177.576 207.517 177.576C208.157 177.576 208.653 177.448 209.005 177.192C209.373 176.936 209.557 176.608 209.557 176.208C209.557 175.776 209.333 175.456 208.885 175.248C208.453 175.024 207.757 174.784 206.797 174.528C205.805 174.288 204.989 174.04 204.349 173.784C203.725 173.528 203.181 173.136 202.717 172.608C202.269 172.08 202.045 171.368 202.045 170.472C202.045 169.736 202.253 169.064 202.669 168.456C203.101 167.848 203.709 167.368 204.493 167.016C205.293 166.664 206.229 166.488 207.301 166.488C208.885 166.488 210.149 166.888 211.093 167.688C212.037 168.472 212.557 169.536 212.653 170.88H209.437C209.389 170.352 209.165 169.936 208.765 169.632C208.381 169.312 207.861 169.152 207.205 169.152C206.597 169.152 206.125 169.264 205.789 169.488C205.469 169.712 205.309 170.024 205.309 170.424C205.309 170.872 205.533 171.216 205.981 171.456C206.429 171.68 207.125 171.912 208.069 172.152C209.029 172.392 209.821 172.64 210.445 172.896C211.069 173.152 211.605 173.552 212.053 174.096C212.517 174.624 212.757 175.328 212.773 176.208C212.773 176.976 212.557 177.664 212.125 178.272C211.709 178.88 211.101 179.36 210.301 179.712C209.517 180.048 208.597 180.216 207.541 180.216ZM219.035 166.704V180H215.675V166.704H219.035ZM229.86 166.512C231.444 166.512 232.724 167.016 233.7 168.024C234.676 169.016 235.164 170.408 235.164 172.2V180H231.804V172.656C231.804 171.6 231.54 170.792 231.012 170.232C230.484 169.656 229.764 169.368 228.852 169.368C227.924 169.368 227.188 169.656 226.644 170.232C226.116 170.792 225.852 171.6 225.852 172.656V180H222.492V166.704H225.852V168.36C226.3 167.784 226.868 167.336 227.556 167.016C228.26 166.68 229.028 166.512 229.86 166.512ZM241.863 166.704V180H238.503V166.704H241.863ZM258.911 180L254.399 174.336V180H251.039V162.24H254.399V172.344L258.863 166.704H263.231L257.375 173.376L263.279 180H258.911ZM270.958 180.216C269.678 180.216 268.526 179.936 267.502 179.376C266.478 178.8 265.67 177.992 265.078 176.952C264.502 175.912 264.214 174.712 264.214 173.352C264.214 171.992 264.51 170.792 265.102 169.752C265.71 168.712 266.534 167.912 267.574 167.352C268.614 166.776 269.774 166.488 271.054 166.488C272.334 166.488 273.494 166.776 274.534 167.352C275.574 167.912 276.39 168.712 276.982 169.752C277.59 170.792 277.894 171.992 277.894 173.352C277.894 174.712 277.582 175.912 276.958 176.952C276.35 177.992 275.518 178.8 274.462 179.376C273.422 179.936 272.254 180.216 270.958 180.216ZM270.958 177.288C271.566 177.288 272.134 177.144 272.662 176.856C273.206 176.552 273.638 176.104 273.958 175.512C274.278 174.92 274.438 174.2 274.438 173.352C274.438 172.088 274.102 171.12 273.43 170.448C272.774 169.76 271.966 169.416 271.006 169.416C270.046 169.416 269.238 169.76 268.582 170.448C267.942 171.12 267.622 172.088 267.622 173.352C267.622 174.616 267.934 175.592 268.558 176.28C269.198 176.952 269.998 177.288 270.958 177.288ZM283.719 162.24V180H280.359V162.24H283.719ZM286.175 173.304C286.175 171.96 286.439 170.768 286.967 169.728C287.511 168.688 288.239 167.888 289.151 167.328C290.079 166.768 291.111 166.488 292.247 166.488C293.239 166.488 294.103 166.688 294.839 167.088C295.591 167.488 296.191 167.992 296.639 168.6V166.704H300.023V180H296.639V178.056C296.207 178.68 295.607 179.2 294.839 179.616C294.087 180.016 293.215 180.216 292.223 180.216C291.103 180.216 290.079 179.928 289.151 179.352C288.239 178.776 287.511 177.968 286.967 176.928C286.439 175.872 286.175 174.664 286.175 173.304ZM296.639 173.352C296.639 172.536 296.479 171.84 296.159 171.264C295.839 170.672 295.407 170.224 294.863 169.92C294.319 169.6 293.735 169.44 293.111 169.44C292.487 169.44 291.911 169.592 291.383 169.896C290.855 170.2 290.423 170.648 290.087 171.24C289.767 171.816 289.607 172.504 289.607 173.304C289.607 174.104 289.767 174.808 290.087 175.416C290.423 176.008 290.855 176.464 291.383 176.784C291.927 177.104 292.503 177.264 293.111 177.264C293.735 177.264 294.319 177.112 294.863 176.808C295.407 176.488 295.839 176.04 296.159 175.464C296.479 174.872 296.639 174.168 296.639 173.352ZM316.024 166.704L307.792 186.288H304.216L307.096 179.664L301.768 166.704H305.536L308.968 175.992L312.448 166.704H316.024ZM321.196 162.24V180H317.836V162.24H321.196ZM328.019 166.704V180H324.659V166.704H328.019ZM339.348 180L334.836 174.336V180H331.476V162.24H334.836V172.344L339.3 166.704H343.668L337.812 173.376L343.716 180H339.348ZM348.852 162.24V180H345.492V162.24H348.852ZM351.308 173.304C351.308 171.96 351.572 170.768 352.1 169.728C352.644 168.688 353.372 167.888 354.284 167.328C355.212 166.768 356.244 166.488 357.38 166.488C358.372 166.488 359.236 166.688 359.972 167.088C360.724 167.488 361.324 167.992 361.772 168.6V166.704H365.156V180H361.772V178.056C361.34 178.68 360.74 179.2 359.972 179.616C359.22 180.016 358.348 180.216 357.356 180.216C356.236 180.216 355.212 179.928 354.284 179.352C353.372 178.776 352.644 177.968 352.1 176.928C351.572 175.872 351.308 174.664 351.308 173.304ZM361.772 173.352C361.772 172.536 361.612 171.84 361.292 171.264C360.972 170.672 360.54 170.224 359.996 169.92C359.452 169.6 358.868 169.44 358.244 169.44C357.62 169.44 357.044 169.592 356.516 169.896C355.988 170.2 355.556 170.648 355.22 171.24C354.9 171.816 354.74 172.504 354.74 173.304C354.74 174.104 354.9 174.808 355.22 175.416C355.556 176.008 355.988 176.464 356.516 176.784C357.06 177.104 357.636 177.264 358.244 177.264C358.868 177.264 359.452 177.112 359.996 176.808C360.54 176.488 360.972 176.04 361.292 175.464C361.612 174.872 361.772 174.168 361.772 173.352ZM27.56 204.216C26.28 204.216 25.128 203.936 24.104 203.376C23.08 202.8 22.272 201.992 21.68 200.952C21.104 199.912 20.816 198.712 20.816 197.352C20.816 195.992 21.112 194.792 21.704 193.752C22.312 192.712 23.136 191.912 24.176 191.352C25.216 190.776 26.376 190.488 27.656 190.488C28.936 190.488 30.096 190.776 31.136 191.352C32.176 191.912 32.992 192.712 33.584 193.752C34.192 194.792 34.496 195.992 34.496 197.352C34.496 198.712 34.184 199.912 33.56 200.952C32.952 201.992 32.12 202.8 31.064 203.376C30.024 203.936 28.856 204.216 27.56 204.216ZM27.56 201.288C28.168 201.288 28.736 201.144 29.264 200.856C29.808 200.552 30.24 200.104 30.56 199.512C30.88 198.92 31.04 198.2 31.04 197.352C31.04 196.088 30.704 195.12 30.032 194.448C29.376 193.76 28.568 193.416 27.608 193.416C26.648 193.416 25.84 193.76 25.184 194.448C24.544 195.12 24.224 196.088 24.224 197.352C24.224 198.616 24.536 199.592 25.16 200.28C25.8 200.952 26.6 201.288 27.56 201.288ZM40.3207 192.624C40.7527 192.016 41.3447 191.512 42.0967 191.112C42.8647 190.696 43.7367 190.488 44.7127 190.488C45.8487 190.488 46.8727 190.768 47.7847 191.328C48.7127 191.888 49.4407 192.688 49.9687 193.728C50.5127 194.752 50.7847 195.944 50.7847 197.304C50.7847 198.664 50.5127 199.872 49.9687 200.928C49.4407 201.968 48.7127 202.776 47.7847 203.352C46.8727 203.928 45.8487 204.216 44.7127 204.216C43.7367 204.216 42.8727 204.016 42.1207 203.616C41.3847 203.216 40.7847 202.712 40.3207 202.104V210.336H36.9607V190.704H40.3207V192.624ZM47.3527 197.304C47.3527 196.504 47.1847 195.816 46.8487 195.24C46.5287 194.648 46.0967 194.2 45.5527 193.896C45.0247 193.592 44.4487 193.44 43.8247 193.44C43.2167 193.44 42.6407 193.6 42.0967 193.92C41.5687 194.224 41.1367 194.672 40.8007 195.264C40.4807 195.856 40.3207 196.552 40.3207 197.352C40.3207 198.152 40.4807 198.848 40.8007 199.44C41.1367 200.032 41.5687 200.488 42.0967 200.808C42.6407 201.112 43.2167 201.264 43.8247 201.264C44.4487 201.264 45.0247 201.104 45.5527 200.784C46.0967 200.464 46.5287 200.008 46.8487 199.416C47.1847 198.824 47.3527 198.12 47.3527 197.304ZM57.1383 193.464V199.896C57.1383 200.344 57.2423 200.672 57.4503 200.88C57.6743 201.072 58.0423 201.168 58.5543 201.168H60.1143V204H58.0023C55.1703 204 53.7543 202.624 53.7543 199.872V193.464H52.1703V190.704H53.7543V187.416H57.1383V190.704H60.1143V193.464H57.1383ZM64.235 189.12C63.643 189.12 63.147 188.936 62.747 188.568C62.363 188.184 62.171 187.712 62.171 187.152C62.171 186.592 62.363 186.128 62.747 185.76C63.147 185.376 63.643 185.184 64.235 185.184C64.827 185.184 65.315 185.376 65.699 185.76C66.099 186.128 66.299 186.592 66.299 187.152C66.299 187.712 66.099 188.184 65.699 188.568C65.315 188.936 64.827 189.12 64.235 189.12ZM65.891 190.704V204H62.531V190.704H65.891ZM85.7227 190.512C87.3547 190.512 88.6667 191.016 89.6587 192.024C90.6667 193.016 91.1707 194.408 91.1707 196.2V204H87.8107V196.656C87.8107 195.616 87.5467 194.824 87.0187 194.28C86.4907 193.72 85.7707 193.44 84.8587 193.44C83.9467 193.44 83.2187 193.72 82.6747 194.28C82.1467 194.824 81.8827 195.616 81.8827 196.656V204H78.5227V196.656C78.5227 195.616 78.2587 194.824 77.7307 194.28C77.2027 193.72 76.4827 193.44 75.5707 193.44C74.6427 193.44 73.9067 193.72 73.3627 194.28C72.8347 194.824 72.5707 195.616 72.5707 196.656V204H69.2107V190.704H72.5707V192.312C73.0027 191.752 73.5547 191.312 74.2267 190.992C74.9147 190.672 75.6667 190.512 76.4827 190.512C77.5227 190.512 78.4507 190.736 79.2667 191.184C80.0827 191.616 80.7147 192.24 81.1627 193.056C81.5947 192.288 82.2187 191.672 83.0347 191.208C83.8667 190.744 84.7627 190.512 85.7227 190.512ZM96.0631 189.12C95.4711 189.12 94.9751 188.936 94.5751 188.568C94.1911 188.184 93.9991 187.712 93.9991 187.152C93.9991 186.592 94.1911 186.128 94.5751 185.76C94.9751 185.376 95.4711 185.184 96.0631 185.184C96.6551 185.184 97.1431 185.376 97.5271 185.76C97.9271 186.128 98.1271 186.592 98.1271 187.152C98.1271 187.712 97.9271 188.184 97.5271 188.568C97.1431 188.936 96.6551 189.12 96.0631 189.12ZM97.7191 190.704V204H94.3591V190.704H97.7191ZM104.111 201.24H110.039V204H100.295V201.288L106.103 193.464H100.319V190.704H109.967V193.416L104.111 201.24ZM125 197.064C125 197.544 124.968 197.976 124.904 198.36H115.184C115.264 199.32 115.6 200.072 116.192 200.616C116.784 201.16 117.512 201.432 118.376 201.432C119.624 201.432 120.512 200.896 121.04 199.824H124.664C124.28 201.104 123.544 202.16 122.456 202.992C121.368 203.808 120.032 204.216 118.448 204.216C117.168 204.216 116.016 203.936 114.992 203.376C113.984 202.8 113.192 201.992 112.616 200.952C112.056 199.912 111.776 198.712 111.776 197.352C111.776 195.976 112.056 194.768 112.616 193.728C113.176 192.688 113.96 191.888 114.968 191.328C115.976 190.768 117.136 190.488 118.448 190.488C119.712 190.488 120.84 190.76 121.832 191.304C122.84 191.848 123.616 192.624 124.16 193.632C124.72 194.624 125 195.768 125 197.064ZM121.52 196.104C121.504 195.24 121.192 194.552 120.584 194.04C119.976 193.512 119.232 193.248 118.352 193.248C117.52 193.248 116.816 193.504 116.24 194.016C115.68 194.512 115.336 195.208 115.208 196.104H121.52ZM145.532 197.064C145.532 197.544 145.5 197.976 145.436 198.36H135.716C135.796 199.32 136.132 200.072 136.724 200.616C137.316 201.16 138.044 201.432 138.908 201.432C140.156 201.432 141.044 200.896 141.572 199.824H145.196C144.812 201.104 144.076 202.16 142.988 202.992C141.9 203.808 140.564 204.216 138.98 204.216C137.7 204.216 136.548 203.936 135.524 203.376C134.516 202.8 133.724 201.992 133.148 200.952C132.588 199.912 132.308 198.712 132.308 197.352C132.308 195.976 132.588 194.768 133.148 193.728C133.708 192.688 134.492 191.888 135.5 191.328C136.508 190.768 137.668 190.488 138.98 190.488C140.244 190.488 141.372 190.76 142.364 191.304C143.372 191.848 144.148 192.624 144.692 193.632C145.252 194.624 145.532 195.768 145.532 197.064ZM142.052 196.104C142.036 195.24 141.724 194.552 141.116 194.04C140.508 193.512 139.764 193.248 138.884 193.248C138.052 193.248 137.348 193.504 136.772 194.016C136.212 194.512 135.868 195.208 135.74 196.104H142.052ZM147.12 197.304C147.12 195.96 147.384 194.768 147.912 193.728C148.456 192.688 149.192 191.888 150.12 191.328C151.048 190.768 152.08 190.488 153.216 190.488C154.08 190.488 154.904 190.68 155.688 191.064C156.472 191.432 157.096 191.928 157.56 192.552V186.24H160.968V204H157.56V202.032C157.144 202.688 156.56 203.216 155.808 203.616C155.056 204.016 154.184 204.216 153.192 204.216C152.072 204.216 151.048 203.928 150.12 203.352C149.192 202.776 148.456 201.968 147.912 200.928C147.384 199.872 147.12 198.664 147.12 197.304ZM157.584 197.352C157.584 196.536 157.424 195.84 157.104 195.264C156.784 194.672 156.352 194.224 155.808 193.92C155.264 193.6 154.68 193.44 154.056 193.44C153.432 193.44 152.856 193.592 152.328 193.896C151.8 194.2 151.368 194.648 151.032 195.24C150.712 195.816 150.552 196.504 150.552 197.304C150.552 198.104 150.712 198.808 151.032 199.416C151.368 200.008 151.8 200.464 152.328 200.784C152.872 201.104 153.448 201.264 154.056 201.264C154.68 201.264 155.264 201.112 155.808 200.808C156.352 200.488 156.784 200.04 157.104 199.464C157.424 198.872 157.584 198.168 157.584 197.352ZM165.954 189.12C165.362 189.12 164.866 188.936 164.466 188.568C164.082 188.184 163.89 187.712 163.89 187.152C163.89 186.592 164.082 186.128 164.466 185.76C164.866 185.376 165.362 185.184 165.954 185.184C166.546 185.184 167.034 185.376 167.418 185.76C167.818 186.128 168.018 186.592 168.018 187.152C168.018 187.712 167.818 188.184 167.418 188.568C167.034 188.936 166.546 189.12 165.954 189.12ZM167.61 190.704V204H164.25V190.704H167.61ZM178.297 190.512C179.881 190.512 181.161 191.016 182.137 192.024C183.113 193.016 183.601 194.408 183.601 196.2V204H180.241V196.656C180.241 195.6 179.977 194.792 179.449 194.232C178.921 193.656 178.201 193.368 177.289 193.368C176.361 193.368 175.625 193.656 175.081 194.232C174.553 194.792 174.289 195.6 174.289 196.656V204H170.929V190.704H174.289V192.36C174.737 191.784 175.305 191.336 175.993 191.016C176.697 190.68 177.465 190.512 178.297 190.512ZM190.469 200.472L187.661 207.216H185.501L187.061 200.472H190.469ZM211.161 190.704V204H207.777V202.32C207.345 202.896 206.777 203.352 206.073 203.688C205.385 204.008 204.633 204.168 203.817 204.168C202.777 204.168 201.857 203.952 201.057 203.52C200.257 203.072 199.625 202.424 199.161 201.576C198.713 200.712 198.489 199.688 198.489 198.504V190.704H201.849V198.024C201.849 199.08 202.113 199.896 202.641 200.472C203.169 201.032 203.889 201.312 204.801 201.312C205.729 201.312 206.457 201.032 206.985 200.472C207.513 199.896 207.777 199.08 207.777 198.024V190.704H211.161ZM202.665 189.12C202.217 189.12 201.841 188.968 201.537 188.664C201.233 188.36 201.081 187.984 201.081 187.536C201.081 187.088 201.233 186.712 201.537 186.408C201.841 186.088 202.217 185.928 202.665 185.928C203.113 185.928 203.489 186.088 203.793 186.408C204.113 186.712 204.273 187.088 204.273 187.536C204.273 187.984 204.113 188.36 203.793 188.664C203.489 188.968 203.113 189.12 202.665 189.12ZM207.105 189.12C206.657 189.12 206.281 188.968 205.977 188.664C205.673 188.36 205.521 187.984 205.521 187.536C205.521 187.088 205.673 186.712 205.977 186.408C206.281 186.088 206.657 185.928 207.105 185.928C207.553 185.928 207.929 186.088 208.233 186.408C208.553 186.712 208.713 187.088 208.713 187.536C208.713 187.984 208.553 188.36 208.233 188.664C207.929 188.968 207.553 189.12 207.105 189.12ZM217.836 192.768C218.268 192.064 218.828 191.512 219.516 191.112C220.22 190.712 221.02 190.512 221.916 190.512V194.04H221.028C219.972 194.04 219.172 194.288 218.628 194.784C218.1 195.28 217.836 196.144 217.836 197.376V204H214.476V190.704H217.836V192.768ZM236.539 197.064C236.539 197.544 236.507 197.976 236.443 198.36H226.723C226.803 199.32 227.139 200.072 227.731 200.616C228.323 201.16 229.051 201.432 229.915 201.432C231.163 201.432 232.051 200.896 232.579 199.824H236.203C235.819 201.104 235.083 202.16 233.995 202.992C232.907 203.808 231.571 204.216 229.987 204.216C228.707 204.216 227.555 203.936 226.531 203.376C225.523 202.8 224.731 201.992 224.155 200.952C223.595 199.912 223.315 198.712 223.315 197.352C223.315 195.976 223.595 194.768 224.155 193.728C224.715 192.688 225.499 191.888 226.507 191.328C227.515 190.768 228.675 190.488 229.987 190.488C231.251 190.488 232.379 190.76 233.371 191.304C234.379 191.848 235.155 192.624 235.699 193.632C236.259 194.624 236.539 195.768 236.539 197.064ZM233.059 196.104C233.043 195.24 232.731 194.552 232.123 194.04C231.515 193.512 230.771 193.248 229.891 193.248C229.059 193.248 228.355 193.504 227.779 194.016C227.219 194.512 226.875 195.208 226.747 196.104H233.059ZM242.904 193.464V199.896C242.904 200.344 243.008 200.672 243.216 200.88C243.44 201.072 243.808 201.168 244.32 201.168H245.88V204H243.768C240.936 204 239.52 202.624 239.52 199.872V193.464H237.936V190.704H239.52V187.416H242.904V190.704H245.88V193.464H242.904ZM256.169 204L251.657 198.336V204H248.297V186.24H251.657V196.344L256.121 190.704H260.489L254.633 197.376L260.537 204H256.169ZM274.672 197.064C274.672 197.544 274.64 197.976 274.576 198.36H264.856C264.936 199.32 265.272 200.072 265.864 200.616C266.456 201.16 267.184 201.432 268.048 201.432C269.296 201.432 270.184 200.896 270.712 199.824H274.336C273.952 201.104 273.216 202.16 272.128 202.992C271.04 203.808 269.704 204.216 268.12 204.216C266.84 204.216 265.688 203.936 264.664 203.376C263.656 202.8 262.864 201.992 262.288 200.952C261.728 199.912 261.448 198.712 261.448 197.352C261.448 195.976 261.728 194.768 262.288 193.728C262.848 192.688 263.632 191.888 264.64 191.328C265.648 190.768 266.808 190.488 268.12 190.488C269.384 190.488 270.512 190.76 271.504 191.304C272.512 191.848 273.288 192.624 273.832 193.632C274.392 194.624 274.672 195.768 274.672 197.064ZM271.192 196.104C271.176 195.24 270.864 194.552 270.256 194.04C269.648 193.512 268.904 193.248 268.024 193.248C267.192 193.248 266.488 193.504 265.912 194.016C265.352 194.512 265.008 195.208 264.88 196.104H271.192ZM284.493 190.512C286.077 190.512 287.357 191.016 288.333 192.024C289.309 193.016 289.797 194.408 289.797 196.2V204H286.437V196.656C286.437 195.6 286.173 194.792 285.645 194.232C285.117 193.656 284.397 193.368 283.485 193.368C282.557 193.368 281.821 193.656 281.277 194.232C280.749 194.792 280.485 195.6 280.485 196.656V204H277.125V190.704H280.485V192.36C280.933 191.784 281.501 191.336 282.189 191.016C282.893 190.68 283.661 190.512 284.493 190.512ZM296.352 186.24V204H292.992V186.24H296.352ZM301.376 189.12C300.784 189.12 300.288 188.936 299.888 188.568C299.504 188.184 299.312 187.712 299.312 187.152C299.312 186.592 299.504 186.128 299.888 185.76C300.288 185.376 300.784 185.184 301.376 185.184C301.968 185.184 302.456 185.376 302.84 185.76C303.24 186.128 303.44 186.592 303.44 187.152C303.44 187.712 303.24 188.184 302.84 188.568C302.456 188.936 301.968 189.12 301.376 189.12ZM303.032 190.704V204H299.672V190.704H303.032ZM311.559 190.488C312.551 190.488 313.423 190.688 314.175 191.088C314.927 191.472 315.519 191.976 315.951 192.6V190.704H319.335V204.096C319.335 205.328 319.087 206.424 318.591 207.384C318.095 208.36 317.351 209.128 316.359 209.688C315.367 210.264 314.167 210.552 312.759 210.552C310.871 210.552 309.319 210.112 308.103 209.232C306.903 208.352 306.223 207.152 306.063 205.632H309.399C309.575 206.24 309.951 206.72 310.527 207.072C311.119 207.44 311.831 207.624 312.663 207.624C313.639 207.624 314.431 207.328 315.039 206.736C315.647 206.16 315.951 205.28 315.951 204.096V202.032C315.519 202.656 314.919 203.176 314.151 203.592C313.399 204.008 312.535 204.216 311.559 204.216C310.439 204.216 309.415 203.928 308.487 203.352C307.559 202.776 306.823 201.968 306.279 200.928C305.751 199.872 305.487 198.664 305.487 197.304C305.487 195.96 305.751 194.768 306.279 193.728C306.823 192.688 307.551 191.888 308.463 191.328C309.391 190.768 310.423 190.488 311.559 190.488ZM315.951 197.352C315.951 196.536 315.791 195.84 315.471 195.264C315.151 194.672 314.719 194.224 314.175 193.92C313.631 193.6 313.047 193.44 312.423 193.44C311.799 193.44 311.223 193.592 310.695 193.896C310.167 194.2 309.735 194.648 309.399 195.24C309.079 195.816 308.919 196.504 308.919 197.304C308.919 198.104 309.079 198.808 309.399 199.416C309.735 200.008 310.167 200.464 310.695 200.784C311.239 201.104 311.815 201.264 312.423 201.264C313.047 201.264 313.631 201.112 314.175 200.808C314.719 200.488 315.151 200.04 315.471 199.464C315.791 198.872 315.951 198.168 315.951 197.352ZM316.719 185.952C316.719 187.104 316.375 188.008 315.687 188.664C314.999 189.32 314.063 189.648 312.879 189.648C311.727 189.648 310.799 189.32 310.095 188.664C309.407 187.992 309.063 187.08 309.063 185.928V185.448H310.839C310.839 185.992 310.991 186.408 311.295 186.696C311.599 186.968 312.127 187.104 312.879 187.104C313.631 187.104 314.159 186.968 314.463 186.696C314.767 186.408 314.919 185.992 314.919 185.448H316.719V185.952ZM324.321 189.12C323.729 189.12 323.233 188.936 322.833 188.568C322.449 188.184 322.257 187.712 322.257 187.152C322.257 186.592 322.449 186.128 322.833 185.76C323.233 185.376 323.729 185.184 324.321 185.184C324.913 185.184 325.401 185.376 325.785 185.76C326.185 186.128 326.385 186.592 326.385 187.152C326.385 187.712 326.185 188.184 325.785 188.568C325.401 188.936 324.913 189.12 324.321 189.12ZM325.977 190.704V204H322.617V190.704H325.977ZM334.151 197.304C334.151 195.96 334.415 194.768 334.943 193.728C335.487 192.688 336.215 191.888 337.127 191.328C338.055 190.768 339.087 190.488 340.223 190.488C341.215 190.488 342.079 190.688 342.815 191.088C343.567 191.488 344.167 191.992 344.615 192.6V190.704H347.999V204H344.615V202.056C344.183 202.68 343.583 203.2 342.815 203.616C342.063 204.016 341.191 204.216 340.199 204.216C339.079 204.216 338.055 203.928 337.127 203.352C336.215 202.776 335.487 201.968 334.943 200.928C334.415 199.872 334.151 198.664 334.151 197.304ZM344.615 197.352C344.615 196.536 344.455 195.84 344.135 195.264C343.815 194.672 343.383 194.224 342.839 193.92C342.295 193.6 341.711 193.44 341.087 193.44C340.463 193.44 339.887 193.592 339.359 193.896C338.831 194.2 338.399 194.648 338.063 195.24C337.743 195.816 337.583 196.504 337.583 197.304C337.583 198.104 337.743 198.808 338.063 199.416C338.399 200.008 338.831 200.464 339.359 200.784C339.903 201.104 340.479 201.264 341.087 201.264C341.711 201.264 342.295 201.112 342.839 200.808C343.383 200.488 343.815 200.04 344.135 199.464C344.455 198.872 344.615 198.168 344.615 197.352ZM354.641 192.768C355.073 192.064 355.633 191.512 356.321 191.112C357.025 190.712 357.825 190.512 358.721 190.512V194.04H357.833C356.777 194.04 355.977 194.288 355.433 194.784C354.905 195.28 354.641 196.144 354.641 197.376V204H351.281V190.704H354.641V192.768ZM364.896 193.464V199.896C364.896 200.344 365 200.672 365.208 200.88C365.432 201.072 365.8 201.168 366.312 201.168H367.872V204H365.76C362.928 204 361.512 202.624 361.512 199.872V193.464H359.928V190.704H361.512V187.416H364.896V190.704H367.872V193.464H364.896ZM373.793 190.704V204H370.433V190.704H373.793ZM380.61 192.768C381.042 192.064 381.602 191.512 382.29 191.112C382.994 190.712 383.794 190.512 384.69 190.512V194.04H383.802C382.746 194.04 381.946 194.288 381.402 194.784C380.874 195.28 380.61 196.144 380.61 197.376V204H377.25V190.704H380.61V192.768ZM390.457 190.704V204H387.097V190.704H390.457ZM401.282 190.512C402.866 190.512 404.146 191.016 405.122 192.024C406.098 193.016 406.586 194.408 406.586 196.2V204H403.226V196.656C403.226 195.6 402.962 194.792 402.434 194.232C401.906 193.656 401.186 193.368 400.274 193.368C399.346 193.368 398.61 193.656 398.066 194.232C397.538 194.792 397.274 195.6 397.274 196.656V204H393.914V190.704H397.274V192.36C397.722 191.784 398.29 191.336 398.978 191.016C399.682 190.68 400.45 190.512 401.282 190.512ZM421.044 200.904L424.404 190.704H427.98L423.06 204H418.98L414.084 190.704H417.684L421.044 200.904ZM442.227 197.064C442.227 197.544 442.195 197.976 442.131 198.36H432.411C432.491 199.32 432.827 200.072 433.419 200.616C434.011 201.16 434.739 201.432 435.603 201.432C436.851 201.432 437.739 200.896 438.267 199.824H441.891C441.507 201.104 440.771 202.16 439.683 202.992C438.595 203.808 437.259 204.216 435.675 204.216C434.395 204.216 433.243 203.936 432.219 203.376C431.211 202.8 430.419 201.992 429.843 200.952C429.283 199.912 429.003 198.712 429.003 197.352C429.003 195.976 429.283 194.768 429.843 193.728C430.403 192.688 431.187 191.888 432.195 191.328C433.203 190.768 434.363 190.488 435.675 190.488C436.939 190.488 438.067 190.76 439.059 191.304C440.067 191.848 440.843 192.624 441.387 193.632C441.947 194.624 442.227 195.768 442.227 197.064ZM438.747 196.104C438.731 195.24 438.419 194.552 437.811 194.04C437.203 193.512 436.459 193.248 435.579 193.248C434.747 193.248 434.043 193.504 433.467 194.016C432.907 194.512 432.563 195.208 432.435 196.104H438.747ZM29.144 214.512C30.152 214.512 31.048 214.736 31.832 215.184C32.616 215.616 33.224 216.264 33.656 217.128C34.104 217.976 34.328 219 34.328 220.2V228H30.968V220.656C30.968 219.6 30.704 218.792 30.176 218.232C29.648 217.656 28.928 217.368 28.016 217.368C27.088 217.368 26.352 217.656 25.808 218.232C25.28 218.792 25.016 219.6 25.016 220.656V228H21.656V210.24H25.016V216.36C25.448 215.784 26.024 215.336 26.744 215.016C27.464 214.68 28.264 214.512 29.144 214.512ZM49.8832 221.064C49.8832 221.544 49.8512 221.976 49.7872 222.36H40.0672C40.1472 223.32 40.4832 224.072 41.0752 224.616C41.6672 225.16 42.3952 225.432 43.2592 225.432C44.5072 225.432 45.3952 224.896 45.9232 223.824H49.5472C49.1632 225.104 48.4272 226.16 47.3392 226.992C46.2512 227.808 44.9152 228.216 43.3312 228.216C42.0512 228.216 40.8992 227.936 39.8752 227.376C38.8672 226.8 38.0752 225.992 37.4992 224.952C36.9392 223.912 36.6592 222.712 36.6592 221.352C36.6592 219.976 36.9392 218.768 37.4992 217.728C38.0592 216.688 38.8432 215.888 39.8512 215.328C40.8592 214.768 42.0192 214.488 43.3312 214.488C44.5952 214.488 45.7232 214.76 46.7152 215.304C47.7232 215.848 48.4992 216.624 49.0432 217.632C49.6032 218.624 49.8832 219.768 49.8832 221.064ZM46.4032 220.104C46.3872 219.24 46.0752 218.552 45.4672 218.04C44.8592 217.512 44.1152 217.248 43.2352 217.248C42.4032 217.248 41.6992 217.504 41.1232 218.016C40.5632 218.512 40.2192 219.208 40.0912 220.104H46.4032ZM51.4717 221.304C51.4717 219.96 51.7357 218.768 52.2637 217.728C52.8077 216.688 53.5437 215.888 54.4717 215.328C55.3997 214.768 56.4317 214.488 57.5677 214.488C58.4317 214.488 59.2557 214.68 60.0397 215.064C60.8237 215.432 61.4477 215.928 61.9117 216.552V210.24H65.3197V228H61.9117V226.032C61.4957 226.688 60.9117 227.216 60.1597 227.616C59.4077 228.016 58.5357 228.216 57.5437 228.216C56.4237 228.216 55.3997 227.928 54.4717 227.352C53.5437 226.776 52.8077 225.968 52.2637 224.928C51.7357 223.872 51.4717 222.664 51.4717 221.304ZM61.9357 221.352C61.9357 220.536 61.7757 219.84 61.4557 219.264C61.1357 218.672 60.7037 218.224 60.1597 217.92C59.6157 217.6 59.0317 217.44 58.4077 217.44C57.7837 217.44 57.2077 217.592 56.6797 217.896C56.1517 218.2 55.7197 218.648 55.3837 219.24C55.0637 219.816 54.9037 220.504 54.9037 221.304C54.9037 222.104 55.0637 222.808 55.3837 223.416C55.7197 224.008 56.1517 224.464 56.6797 224.784C57.2237 225.104 57.7997 225.264 58.4077 225.264C59.0317 225.264 59.6157 225.112 60.1597 224.808C60.7037 224.488 61.1357 224.04 61.4557 223.464C61.7757 222.872 61.9357 222.168 61.9357 221.352ZM80.9613 221.064C80.9613 221.544 80.9293 221.976 80.8653 222.36H71.1453C71.2253 223.32 71.5613 224.072 72.1533 224.616C72.7453 225.16 73.4733 225.432 74.3373 225.432C75.5853 225.432 76.4733 224.896 77.0013 223.824H80.6253C80.2413 225.104 79.5053 226.16 78.4173 226.992C77.3293 227.808 75.9933 228.216 74.4093 228.216C73.1293 228.216 71.9773 227.936 70.9533 227.376C69.9453 226.8 69.1533 225.992 68.5773 224.952C68.0173 223.912 67.7373 222.712 67.7373 221.352C67.7373 219.976 68.0173 218.768 68.5773 217.728C69.1373 216.688 69.9213 215.888 70.9293 215.328C71.9373 214.768 73.0973 214.488 74.4093 214.488C75.6733 214.488 76.8013 214.76 77.7933 215.304C78.8013 215.848 79.5773 216.624 80.1213 217.632C80.6813 218.624 80.9613 219.768 80.9613 221.064ZM77.4813 220.104C77.4653 219.24 77.1533 218.552 76.5453 218.04C75.9373 217.512 75.1933 217.248 74.3133 217.248C73.4813 217.248 72.7773 217.504 72.2013 218.016C71.6413 218.512 71.2973 219.208 71.1693 220.104H77.4813ZM89.5098 217.464H87.1818V228H83.7738V217.464H82.2618V214.704H83.7738V214.032C83.7738 212.4 84.2378 211.2 85.1658 210.432C86.0938 209.664 87.4938 209.304 89.3658 209.352V212.184C88.5498 212.168 87.9818 212.304 87.6618 212.592C87.3418 212.88 87.1818 213.4 87.1818 214.152V214.704H89.5098V217.464ZM95.0473 210.24V228H91.6873V210.24H95.0473ZM110.727 221.064C110.727 221.544 110.695 221.976 110.631 222.36H100.911C100.991 223.32 101.327 224.072 101.919 224.616C102.511 225.16 103.239 225.432 104.103 225.432C105.351 225.432 106.239 224.896 106.767 223.824H110.391C110.007 225.104 109.271 226.16 108.183 226.992C107.095 227.808 105.759 228.216 104.175 228.216C102.895 228.216 101.743 227.936 100.719 227.376C99.7109 226.8 98.9189 225.992 98.3429 224.952C97.7829 223.912 97.5029 222.712 97.5029 221.352C97.5029 219.976 97.7829 218.768 98.3429 217.728C98.9029 216.688 99.6869 215.888 100.695 215.328C101.703 214.768 102.863 214.488 104.175 214.488C105.439 214.488 106.567 214.76 107.559 215.304C108.567 215.848 109.343 216.624 109.887 217.632C110.447 218.624 110.727 219.768 110.727 221.064ZM107.247 220.104C107.231 219.24 106.919 218.552 106.311 218.04C105.703 217.512 104.959 217.248 104.079 217.248C103.247 217.248 102.543 217.504 101.967 218.016C101.407 218.512 101.063 219.208 100.935 220.104H107.247ZM116.539 216.768C116.971 216.064 117.531 215.512 118.219 215.112C118.923 214.712 119.723 214.512 120.619 214.512V218.04H119.731C118.675 218.04 117.875 218.288 117.331 218.784C116.803 219.28 116.539 220.144 116.539 221.376V228H113.179V214.704H116.539V216.768ZM124.587 213.12C123.995 213.12 123.499 212.936 123.099 212.568C122.715 212.184 122.523 211.712 122.523 211.152C122.523 210.592 122.715 210.128 123.099 209.76C123.499 209.376 123.995 209.184 124.587 209.184C125.179 209.184 125.667 209.376 126.051 209.76C126.451 210.128 126.651 210.592 126.651 211.152C126.651 211.712 126.451 212.184 126.051 212.568C125.667 212.936 125.179 213.12 124.587 213.12ZM126.243 214.704V228H122.883V214.704H126.243ZM136.93 214.512C138.514 214.512 139.794 215.016 140.77 216.024C141.746 217.016 142.234 218.408 142.234 220.2V228H138.874V220.656C138.874 219.6 138.61 218.792 138.082 218.232C137.554 217.656 136.834 217.368 135.922 217.368C134.994 217.368 134.258 217.656 133.714 218.232C133.186 218.792 132.922 219.6 132.922 220.656V228H129.562V214.704H132.922V216.36C133.37 215.784 133.938 215.336 134.626 215.016C135.33 214.68 136.098 214.512 136.93 214.512ZM147.133 213.12C146.541 213.12 146.045 212.936 145.645 212.568C145.261 212.184 145.069 211.712 145.069 211.152C145.069 210.592 145.261 210.128 145.645 209.76C146.045 209.376 146.541 209.184 147.133 209.184C147.725 209.184 148.213 209.376 148.597 209.76C148.997 210.128 149.197 210.592 149.197 211.152C149.197 211.712 148.997 212.184 148.597 212.568C148.213 212.936 147.725 213.12 147.133 213.12ZM148.789 214.704V228H145.429V214.704H148.789ZM155.181 225.24H161.109V228H151.365V225.288L157.173 217.464H151.389V214.704H161.037V217.416L155.181 225.24ZM176.071 221.064C176.071 221.544 176.039 221.976 175.975 222.36H166.255C166.335 223.32 166.671 224.072 167.263 224.616C167.855 225.16 168.583 225.432 169.447 225.432C170.695 225.432 171.583 224.896 172.111 223.824H175.735C175.351 225.104 174.615 226.16 173.527 226.992C172.439 227.808 171.103 228.216 169.519 228.216C168.239 228.216 167.087 227.936 166.063 227.376C165.055 226.8 164.263 225.992 163.687 224.952C163.127 223.912 162.847 222.712 162.847 221.352C162.847 219.976 163.127 218.768 163.687 217.728C164.247 216.688 165.031 215.888 166.039 215.328C167.047 214.768 168.207 214.488 169.519 214.488C170.783 214.488 171.911 214.76 172.903 215.304C173.911 215.848 174.687 216.624 175.231 217.632C175.791 218.624 176.071 219.768 176.071 221.064ZM172.591 220.104C172.575 219.24 172.263 218.552 171.655 218.04C171.047 217.512 170.303 217.248 169.423 217.248C168.591 217.248 167.887 217.504 167.311 218.016C166.751 218.512 166.407 219.208 166.279 220.104H172.591ZM192.114 228L187.602 222.336V228H184.242V210.24H187.602V220.344L192.066 214.704H196.434L190.578 221.376L196.482 228H192.114ZM204.162 228.216C202.882 228.216 201.73 227.936 200.706 227.376C199.682 226.8 198.874 225.992 198.282 224.952C197.706 223.912 197.418 222.712 197.418 221.352C197.418 219.992 197.714 218.792 198.306 217.752C198.914 216.712 199.738 215.912 200.778 215.352C201.818 214.776 202.978 214.488 204.258 214.488C205.538 214.488 206.698 214.776 207.738 215.352C208.778 215.912 209.594 216.712 210.186 217.752C210.794 218.792 211.098 219.992 211.098 221.352C211.098 222.712 210.786 223.912 210.162 224.952C209.554 225.992 208.722 226.8 207.666 227.376C206.626 227.936 205.458 228.216 204.162 228.216ZM204.162 225.288C204.77 225.288 205.338 225.144 205.866 224.856C206.41 224.552 206.842 224.104 207.162 223.512C207.482 222.92 207.642 222.2 207.642 221.352C207.642 220.088 207.306 219.12 206.634 218.448C205.978 217.76 205.17 217.416 204.21 217.416C203.25 217.416 202.442 217.76 201.786 218.448C201.146 219.12 200.826 220.088 200.826 221.352C200.826 222.616 201.138 223.592 201.762 224.28C202.402 224.952 203.202 225.288 204.162 225.288ZM216.922 210.24V228H213.562V210.24H216.922ZM219.378 221.304C219.378 219.96 219.642 218.768 220.17 217.728C220.714 216.688 221.442 215.888 222.354 215.328C223.282 214.768 224.314 214.488 225.45 214.488C226.442 214.488 227.306 214.688 228.042 215.088C228.794 215.488 229.394 215.992 229.842 216.6V214.704H233.226V228H229.842V226.056C229.41 226.68 228.81 227.2 228.042 227.616C227.29 228.016 226.418 228.216 225.426 228.216C224.306 228.216 223.282 227.928 222.354 227.352C221.442 226.776 220.714 225.968 220.17 224.928C219.642 223.872 219.378 222.664 219.378 221.304ZM229.842 221.352C229.842 220.536 229.682 219.84 229.362 219.264C229.042 218.672 228.61 218.224 228.066 217.92C227.522 217.6 226.938 217.44 226.314 217.44C225.69 217.44 225.114 217.592 224.586 217.896C224.058 218.2 223.626 218.648 223.29 219.24C222.97 219.816 222.81 220.504 222.81 221.304C222.81 222.104 222.97 222.808 223.29 223.416C223.626 224.008 224.058 224.464 224.586 224.784C225.13 225.104 225.706 225.264 226.314 225.264C226.938 225.264 227.522 225.112 228.066 224.808C228.61 224.488 229.042 224.04 229.362 223.464C229.682 222.872 229.842 222.168 229.842 221.352ZM249.228 214.704L240.996 234.288H237.42L240.3 227.664L234.972 214.704H238.74L242.172 223.992L245.652 214.704H249.228ZM250.175 221.352C250.175 219.976 250.455 218.776 251.015 217.752C251.575 216.712 252.351 215.912 253.343 215.352C254.335 214.776 255.471 214.488 256.751 214.488C258.399 214.488 259.759 214.904 260.831 215.736C261.919 216.552 262.647 217.704 263.015 219.192H259.391C259.199 218.616 258.871 218.168 258.407 217.848C257.959 217.512 257.399 217.344 256.727 217.344C255.767 217.344 255.007 217.696 254.447 218.4C253.887 219.088 253.607 220.072 253.607 221.352C253.607 222.616 253.887 223.6 254.447 224.304C255.007 224.992 255.767 225.336 256.727 225.336C258.087 225.336 258.975 224.728 259.391 223.512H263.015C262.647 224.952 261.919 226.096 260.831 226.944C259.743 227.792 258.383 228.216 256.751 228.216C255.471 228.216 254.335 227.936 253.343 227.376C252.351 226.8 251.575 226 251.015 224.976C250.455 223.936 250.175 222.728 250.175 221.352ZM264.612 221.304C264.612 219.96 264.876 218.768 265.404 217.728C265.948 216.688 266.676 215.888 267.588 215.328C268.516 214.768 269.548 214.488 270.684 214.488C271.676 214.488 272.54 214.688 273.276 215.088C274.028 215.488 274.628 215.992 275.076 216.6V214.704H278.46V228H275.076V226.056C274.644 226.68 274.044 227.2 273.276 227.616C272.524 228.016 271.652 228.216 270.66 228.216C269.54 228.216 268.516 227.928 267.588 227.352C266.676 226.776 265.948 225.968 265.404 224.928C264.876 223.872 264.612 222.664 264.612 221.304ZM275.076 221.352C275.076 220.536 274.916 219.84 274.596 219.264C274.276 218.672 273.844 218.224 273.3 217.92C272.756 217.6 272.172 217.44 271.548 217.44C270.924 217.44 270.348 217.592 269.82 217.896C269.292 218.2 268.86 218.648 268.524 219.24C268.204 219.816 268.044 220.504 268.044 221.304C268.044 222.104 268.204 222.808 268.524 223.416C268.86 224.008 269.292 224.464 269.82 224.784C270.364 225.104 270.94 225.264 271.548 225.264C272.172 225.264 272.756 225.112 273.3 224.808C273.844 224.488 274.276 224.04 274.596 223.464C274.916 222.872 275.076 222.168 275.076 221.352ZM300.013 214.704V228H296.629V226.32C296.197 226.896 295.629 227.352 294.925 227.688C294.237 228.008 293.485 228.168 292.669 228.168C291.629 228.168 290.709 227.952 289.909 227.52C289.109 227.072 288.477 226.424 288.013 225.576C287.565 224.712 287.341 223.688 287.341 222.504V214.704H290.701V222.024C290.701 223.08 290.965 223.896 291.493 224.472C292.021 225.032 292.741 225.312 293.653 225.312C294.581 225.312 295.309 225.032 295.837 224.472C296.365 223.896 296.629 223.08 296.629 222.024V214.704H300.013ZM306.688 210.24V228H303.328V210.24H306.688ZM309.144 221.304C309.144 219.96 309.408 218.768 309.936 217.728C310.48 216.688 311.208 215.888 312.12 215.328C313.048 214.768 314.08 214.488 315.216 214.488C316.208 214.488 317.072 214.688 317.808 215.088C318.56 215.488 319.16 215.992 319.608 216.6V214.704H322.992V228H319.608V226.056C319.176 226.68 318.576 227.2 317.808 227.616C317.056 228.016 316.184 228.216 315.192 228.216C314.072 228.216 313.048 227.928 312.12 227.352C311.208 226.776 310.48 225.968 309.936 224.928C309.408 223.872 309.144 222.664 309.144 221.304ZM319.608 221.352C319.608 220.536 319.448 219.84 319.128 219.264C318.808 218.672 318.376 218.224 317.832 217.92C317.288 217.6 316.704 217.44 316.08 217.44C315.456 217.44 314.88 217.592 314.352 217.896C313.824 218.2 313.392 218.648 313.056 219.24C312.736 219.816 312.576 220.504 312.576 221.304C312.576 222.104 312.736 222.808 313.056 223.416C313.392 224.008 313.824 224.464 314.352 224.784C314.896 225.104 315.472 225.264 316.08 225.264C316.704 225.264 317.288 225.112 317.832 224.808C318.376 224.488 318.808 224.04 319.128 223.464C319.448 222.872 319.608 222.168 319.608 221.352ZM332.417 229.08C333.297 229.08 334.033 229.304 334.625 229.752C335.233 230.2 335.537 230.848 335.537 231.696C335.537 232.56 335.225 233.224 334.601 233.688C333.993 234.152 333.241 234.384 332.345 234.384H328.937V232.416H331.793C332.177 232.416 332.465 232.36 332.657 232.248C332.865 232.136 332.969 231.936 332.969 231.648C332.969 231.36 332.865 231.16 332.657 231.048C332.465 230.952 332.177 230.904 331.793 230.904H330.305V228.144C328.929 227.968 327.809 227.48 326.945 226.68C326.081 225.88 325.617 224.92 325.553 223.8H328.937C329.001 224.312 329.249 224.736 329.681 225.072C330.129 225.408 330.681 225.576 331.337 225.576C331.977 225.576 332.473 225.448 332.825 225.192C333.193 224.936 333.377 224.608 333.377 224.208C333.377 223.776 333.153 223.456 332.705 223.248C332.273 223.024 331.577 222.784 330.617 222.528C329.625 222.288 328.809 222.04 328.169 221.784C327.545 221.528 327.001 221.136 326.537 220.608C326.089 220.08 325.865 219.368 325.865 218.472C325.865 217.736 326.073 217.064 326.489 216.456C326.921 215.848 327.529 215.368 328.313 215.016C329.113 214.664 330.049 214.488 331.121 214.488C332.705 214.488 333.969 214.888 334.913 215.688C335.857 216.472 336.377 217.536 336.473 218.88H333.257C333.209 218.352 332.985 217.936 332.585 217.632C332.201 217.312 331.681 217.152 331.025 217.152C330.417 217.152 329.945 217.264 329.609 217.488C329.289 217.712 329.129 218.024 329.129 218.424C329.129 218.872 329.353 219.216 329.801 219.456C330.249 219.68 330.945 219.912 331.889 220.152C332.849 220.392 333.641 220.64 334.265 220.896C334.889 221.152 335.425 221.552 335.873 222.096C336.337 222.624 336.577 223.328 336.593 224.208C336.593 225.232 336.217 226.104 335.465 226.824C334.729 227.544 333.713 227.984 332.417 228.144V229.08ZM342.855 214.704V228H339.495V214.704H342.855ZM353.68 214.512C355.264 214.512 356.544 215.016 357.52 216.024C358.496 217.016 358.984 218.408 358.984 220.2V228H355.624V220.656C355.624 219.6 355.36 218.792 354.832 218.232C354.304 217.656 353.584 217.368 352.672 217.368C351.744 217.368 351.008 217.656 350.464 218.232C349.936 218.792 349.672 219.6 349.672 220.656V228H346.312V214.704H349.672V216.36C350.12 215.784 350.688 215.336 351.376 215.016C352.08 214.68 352.848 214.512 353.68 214.512Z" fill="white"/>
<defs>
<clipPath id="clip0_1_1287">
<rect width="300" height="63" fill="white" transform="translate(20 39)"/>
</clipPath>
<clipPath id="clip1_1_1287">
<rect width="141.6" height="118.303" fill="white" transform="translate(136 -23)"/>
</clipPath>
</defs>
</svg>
