<svg width="609" height="201" viewBox="0 0 609 201" fill="none" xmlns="http://www.w3.org/2000/svg">
<rect width="609" height="176" rx="20" fill="#312F2F"/>
<path d="M53.368 59.152C53.368 59.952 53.176 60.704 52.792 61.408C52.424 62.112 51.872 62.704 51.136 63.184C50.416 63.664 49.552 63.968 48.544 64.096V65.2C49.424 65.2 50.16 65.424 50.752 65.872C51.36 66.32 51.664 66.968 51.664 67.816C51.664 68.68 51.352 69.344 50.728 69.808C50.12 70.272 49.368 70.504 48.472 70.504H45.064V68.536H47.92C48.304 68.536 48.592 68.48 48.784 68.368C48.992 68.256 49.096 68.056 49.096 67.768C49.096 67.48 48.992 67.28 48.784 67.168C48.592 67.072 48.304 67.024 47.92 67.024H46.432V64.12C44.896 63.944 43.648 63.424 42.688 62.56C41.728 61.696 41.24 60.568 41.224 59.176H44.824C44.872 59.864 45.112 60.408 45.544 60.808C45.992 61.208 46.6 61.408 47.368 61.408C48.152 61.408 48.768 61.224 49.216 60.856C49.664 60.472 49.888 59.976 49.888 59.368C49.888 58.872 49.736 58.464 49.432 58.144C49.128 57.824 48.744 57.576 48.28 57.4C47.832 57.208 47.208 57 46.408 56.776C45.32 56.456 44.432 56.144 43.744 55.84C43.072 55.52 42.488 55.048 41.992 54.424C41.512 53.784 41.272 52.936 41.272 51.88C41.272 50.888 41.52 50.024 42.016 49.288C42.512 48.552 43.208 47.992 44.104 47.608C45 47.208 46.024 47.008 47.176 47.008C48.904 47.008 50.304 47.432 51.376 48.28C52.464 49.112 53.064 50.28 53.176 51.784H49.48C49.448 51.208 49.2 50.736 48.736 50.368C48.288 49.984 47.688 49.792 46.936 49.792C46.28 49.792 45.752 49.96 45.352 50.296C44.968 50.632 44.776 51.12 44.776 51.76C44.776 52.208 44.92 52.584 45.208 52.888C45.512 53.176 45.88 53.416 46.312 53.608C46.76 53.784 47.384 53.992 48.184 54.232C49.272 54.552 50.16 54.872 50.848 55.192C51.536 55.512 52.128 55.992 52.624 56.632C53.12 57.272 53.368 58.112 53.368 59.152ZM57.985 49.12C57.393 49.12 56.897 48.936 56.497 48.568C56.113 48.184 55.921 47.712 55.921 47.152C55.921 46.592 56.113 46.128 56.497 45.76C56.897 45.376 57.393 45.184 57.985 45.184C58.577 45.184 59.065 45.376 59.449 45.76C59.849 46.128 60.049 46.592 60.049 47.152C60.049 47.712 59.849 48.184 59.449 48.568C59.065 48.936 58.577 49.12 57.985 49.12ZM59.641 50.704V64H56.281V50.704H59.641ZM66.3207 52.768C66.7527 52.064 67.3127 51.512 68.0007 51.112C68.7047 50.712 69.5047 50.512 70.4007 50.512V54.04H69.5127C68.4567 54.04 67.6567 54.288 67.1127 54.784C66.5847 55.28 66.3207 56.144 66.3207 57.376V64H62.9607V50.704H66.3207V52.768ZM80.5358 64L76.0238 58.336V64H72.6638V46.24H76.0238V56.344L80.4878 50.704H84.8558L78.9998 57.376L84.9038 64H80.5358ZM99.0394 57.064C99.0394 57.544 99.0074 57.976 98.9434 58.36H89.2234C89.3034 59.32 89.6394 60.072 90.2314 60.616C90.8234 61.16 91.5514 61.432 92.4154 61.432C93.6634 61.432 94.5514 60.896 95.0794 59.824H98.7034C98.3194 61.104 97.5834 62.16 96.4954 62.992C95.4074 63.808 94.0714 64.216 92.4874 64.216C91.2074 64.216 90.0554 63.936 89.0314 63.376C88.0234 62.8 87.2314 61.992 86.6554 60.952C86.0954 59.912 85.8154 58.712 85.8154 57.352C85.8154 55.976 86.0954 54.768 86.6554 53.728C87.2154 52.688 87.9994 51.888 89.0074 51.328C90.0154 50.768 91.1754 50.488 92.4874 50.488C93.7514 50.488 94.8794 50.76 95.8714 51.304C96.8794 51.848 97.6554 52.624 98.1994 53.632C98.7594 54.624 99.0394 55.768 99.0394 57.064ZM95.5594 56.104C95.5434 55.24 95.2314 54.552 94.6234 54.04C94.0154 53.512 93.2714 53.248 92.3914 53.248C91.5594 53.248 90.8554 53.504 90.2794 54.016C89.7194 54.512 89.3754 55.208 89.2474 56.104H95.5594ZM105.404 53.464V59.896C105.404 60.344 105.508 60.672 105.716 60.88C105.94 61.072 106.308 61.168 106.82 61.168H108.38V64H106.268C103.436 64 102.02 62.624 102.02 59.872V53.464H100.436V50.704H102.02V47.416H105.404V50.704H108.38V53.464H105.404ZM112.501 49.12C111.909 49.12 111.413 48.936 111.013 48.568C110.629 48.184 110.437 47.712 110.437 47.152C110.437 46.592 110.629 46.128 111.013 45.76C111.413 45.376 111.909 45.184 112.501 45.184C113.093 45.184 113.581 45.376 113.965 45.76C114.365 46.128 114.565 46.592 114.565 47.152C114.565 47.712 114.365 48.184 113.965 48.568C113.581 48.936 113.093 49.12 112.501 49.12ZM114.157 50.704V64H110.797V50.704H114.157ZM124.844 50.512C126.428 50.512 127.708 51.016 128.684 52.024C129.66 53.016 130.148 54.408 130.148 56.2V64H126.788V56.656C126.788 55.6 126.524 54.792 125.996 54.232C125.468 53.656 124.748 53.368 123.836 53.368C122.908 53.368 122.172 53.656 121.628 54.232C121.1 54.792 120.836 55.6 120.836 56.656V64H117.476V50.704H120.836V52.36C121.284 51.784 121.852 51.336 122.54 51.016C123.244 50.68 124.012 50.512 124.844 50.512ZM135.048 49.12C134.456 49.12 133.96 48.936 133.56 48.568C133.176 48.184 132.984 47.712 132.984 47.152C132.984 46.592 133.176 46.128 133.56 45.76C133.96 45.376 134.456 45.184 135.048 45.184C135.64 45.184 136.128 45.376 136.512 45.76C136.912 46.128 137.112 46.592 137.112 47.152C137.112 47.712 136.912 48.184 136.512 48.568C136.128 48.936 135.64 49.12 135.048 49.12ZM136.704 50.704V64H133.344V50.704H136.704ZM143.095 61.24H149.023V64H139.279V61.288L145.087 53.464H139.303V50.704H148.951V53.416L143.095 61.24ZM159.048 49.12C158.456 49.12 157.96 48.936 157.56 48.568C157.176 48.184 156.984 47.712 156.984 47.152C156.984 46.592 157.176 46.128 157.56 45.76C157.96 45.376 158.456 45.184 159.048 45.184C159.64 45.184 160.128 45.376 160.512 45.76C160.912 46.128 161.112 46.592 161.112 47.152C161.112 47.712 160.912 48.184 160.512 48.568C160.128 48.936 159.64 49.12 159.048 49.12ZM160.704 50.704V64H157.344V50.704H160.704ZM169.711 61.336C171.071 61.336 171.959 60.728 172.375 59.512H175.999C175.663 60.808 175.039 61.864 174.127 62.68C173.231 63.496 172.103 63.984 170.743 64.144V65.08C171.623 65.08 172.359 65.304 172.951 65.752C173.559 66.2 173.863 66.848 173.863 67.696C173.863 68.56 173.551 69.224 172.927 69.688C172.319 70.152 171.567 70.384 170.671 70.384H167.263V68.416H170.119C170.503 68.416 170.791 68.36 170.983 68.248C171.191 68.136 171.295 67.936 171.295 67.648C171.295 67.36 171.191 67.16 170.983 67.048C170.791 66.952 170.503 66.904 170.119 66.904H168.631V64.144C167.543 63.984 166.583 63.608 165.751 63.016C164.935 62.408 164.295 61.624 163.831 60.664C163.383 59.688 163.159 58.584 163.159 57.352C163.159 55.976 163.439 54.776 163.999 53.752C164.559 52.712 165.335 51.912 166.327 51.352C167.319 50.776 168.455 50.488 169.735 50.488C171.383 50.488 172.743 50.904 173.815 51.736C174.903 52.552 175.631 53.704 175.999 55.192H172.375C172.183 54.616 171.855 54.168 171.391 53.848C170.943 53.512 170.383 53.344 169.711 53.344C168.751 53.344 167.991 53.696 167.431 54.4C166.871 55.088 166.591 56.072 166.591 57.352C166.591 58.616 166.871 59.6 167.431 60.304C167.991 60.992 168.751 61.336 169.711 61.336ZM180.165 49.12C179.573 49.12 179.077 48.936 178.677 48.568C178.293 48.184 178.101 47.712 178.101 47.152C178.101 46.592 178.293 46.128 178.677 45.76C179.077 45.376 179.573 45.184 180.165 45.184C180.757 45.184 181.245 45.376 181.629 45.76C182.029 46.128 182.229 46.592 182.229 47.152C182.229 47.712 182.029 48.184 181.629 48.568C181.245 48.936 180.757 49.12 180.165 49.12ZM181.821 50.704V64H178.461V50.704H181.821ZM192.508 50.512C194.092 50.512 195.372 51.016 196.348 52.024C197.324 53.016 197.812 54.408 197.812 56.2V64H194.452V56.656C194.452 55.6 194.188 54.792 193.66 54.232C193.132 53.656 192.412 53.368 191.5 53.368C190.572 53.368 189.836 53.656 189.292 54.232C188.764 54.792 188.5 55.6 188.5 56.656V64H185.14V50.704H188.5V52.36C188.948 51.784 189.516 51.336 190.204 51.016C190.908 50.68 191.676 50.512 192.508 50.512ZM214.214 50.512C215.222 50.512 216.118 50.736 216.902 51.184C217.686 51.616 218.294 52.264 218.726 53.128C219.174 53.976 219.398 55 219.398 56.2V64H216.038V56.656C216.038 55.6 215.774 54.792 215.246 54.232C214.718 53.656 213.998 53.368 213.086 53.368C212.158 53.368 211.422 53.656 210.878 54.232C210.35 54.792 210.086 55.6 210.086 56.656V64H206.726V46.24H210.086V52.36C210.518 51.784 211.094 51.336 211.814 51.016C212.534 50.68 213.334 50.512 214.214 50.512ZM226.098 50.704V64H222.738V50.704H226.098ZM232.626 61.24H238.554V64H228.81V61.288L234.618 53.464H228.834V50.704H238.482V53.416L232.626 61.24ZM244.516 46.24V64H241.156V46.24H244.516ZM251.34 50.704V64H247.98V50.704H251.34ZM266.059 60.904L269.419 50.704H272.995L268.075 64H263.995L259.099 50.704H262.699L266.059 60.904ZM287.243 57.064C287.243 57.544 287.211 57.976 287.147 58.36H277.427C277.507 59.32 277.843 60.072 278.435 60.616C279.027 61.16 279.755 61.432 280.619 61.432C281.867 61.432 282.755 60.896 283.283 59.824H286.907C286.523 61.104 285.787 62.16 284.699 62.992C283.611 63.808 282.275 64.216 280.691 64.216C279.411 64.216 278.259 63.936 277.235 63.376C276.227 62.8 275.435 61.992 274.859 60.952C274.299 59.912 274.019 58.712 274.019 57.352C274.019 55.976 274.299 54.768 274.859 53.728C275.419 52.688 276.203 51.888 277.211 51.328C278.219 50.768 279.379 50.488 280.691 50.488C281.955 50.488 283.083 50.76 284.075 51.304C285.083 51.848 285.859 52.624 286.403 53.632C286.963 54.624 287.243 55.768 287.243 57.064ZM283.763 56.104C283.747 55.24 283.435 54.552 282.827 54.04C282.219 53.512 281.475 53.248 280.595 53.248C279.763 53.248 279.059 53.504 278.483 54.016C277.923 54.512 277.579 55.208 277.451 56.104H283.763ZM46.864 74.488C47.856 74.488 48.728 74.688 49.48 75.088C50.232 75.472 50.824 75.976 51.256 76.6V74.704H54.64V88.096C54.64 89.328 54.392 90.424 53.896 91.384C53.4 92.36 52.656 93.128 51.664 93.688C50.672 94.264 49.472 94.552 48.064 94.552C46.176 94.552 44.624 94.112 43.408 93.232C42.208 92.352 41.528 91.152 41.368 89.632H44.704C44.88 90.24 45.256 90.72 45.832 91.072C46.424 91.44 47.136 91.624 47.968 91.624C48.944 91.624 49.736 91.328 50.344 90.736C50.952 90.16 51.256 89.28 51.256 88.096V86.032C50.824 86.656 50.224 87.176 49.456 87.592C48.704 88.008 47.84 88.216 46.864 88.216C45.744 88.216 44.72 87.928 43.792 87.352C42.864 86.776 42.128 85.968 41.584 84.928C41.056 83.872 40.792 82.664 40.792 81.304C40.792 79.96 41.056 78.768 41.584 77.728C42.128 76.688 42.856 75.888 43.768 75.328C44.696 74.768 45.728 74.488 46.864 74.488ZM51.256 81.352C51.256 80.536 51.096 79.84 50.776 79.264C50.456 78.672 50.024 78.224 49.48 77.92C48.936 77.6 48.352 77.44 47.728 77.44C47.104 77.44 46.528 77.592 46 77.896C45.472 78.2 45.04 78.648 44.704 79.24C44.384 79.816 44.224 80.504 44.224 81.304C44.224 82.104 44.384 82.808 44.704 83.416C45.04 84.008 45.472 84.464 46 84.784C46.544 85.104 47.12 85.264 47.728 85.264C48.352 85.264 48.936 85.112 49.48 84.808C50.024 84.488 50.456 84.04 50.776 83.464C51.096 82.872 51.256 82.168 51.256 81.352ZM70.4736 74.704V88H67.0896V86.32C66.6576 86.896 66.0896 87.352 65.3856 87.688C64.6976 88.008 63.9456 88.168 63.1296 88.168C62.0896 88.168 61.1696 87.952 60.3696 87.52C59.5696 87.072 58.9376 86.424 58.4736 85.576C58.0256 84.712 57.8016 83.688 57.8016 82.504V74.704H61.1616V82.024C61.1616 83.08 61.4256 83.896 61.9536 84.472C62.4816 85.032 63.2016 85.312 64.1136 85.312C65.0416 85.312 65.7696 85.032 66.2976 84.472C66.8256 83.896 67.0896 83.08 67.0896 82.024V74.704H70.4736ZM61.9776 73.12C61.5296 73.12 61.1536 72.968 60.8496 72.664C60.5456 72.36 60.3936 71.984 60.3936 71.536C60.3936 71.088 60.5456 70.712 60.8496 70.408C61.1536 70.088 61.5296 69.928 61.9776 69.928C62.4256 69.928 62.8016 70.088 63.1056 70.408C63.4256 70.712 63.5856 71.088 63.5856 71.536C63.5856 71.984 63.4256 72.36 63.1056 72.664C62.8016 72.968 62.4256 73.12 61.9776 73.12ZM66.4176 73.12C65.9696 73.12 65.5936 72.968 65.2896 72.664C64.9856 72.36 64.8336 71.984 64.8336 71.536C64.8336 71.088 64.9856 70.712 65.2896 70.408C65.5936 70.088 65.9696 69.928 66.4176 69.928C66.8656 69.928 67.2416 70.088 67.5456 70.408C67.8656 70.712 68.0256 71.088 68.0256 71.536C68.0256 71.984 67.8656 72.36 67.5456 72.664C67.2416 72.968 66.8656 73.12 66.4176 73.12ZM79.3328 84.904L82.6928 74.704H86.2688L81.3488 88H77.2688L72.3728 74.704H75.9728L79.3328 84.904ZM100.516 81.064C100.516 81.544 100.484 81.976 100.42 82.36H90.7C90.78 83.32 91.116 84.072 91.708 84.616C92.3 85.16 93.028 85.432 93.892 85.432C95.14 85.432 96.028 84.896 96.556 83.824H100.18C99.796 85.104 99.06 86.16 97.972 86.992C96.884 87.808 95.548 88.216 93.964 88.216C92.684 88.216 91.532 87.936 90.508 87.376C89.5 86.8 88.708 85.992 88.132 84.952C87.572 83.912 87.292 82.712 87.292 81.352C87.292 79.976 87.572 78.768 88.132 77.728C88.692 76.688 89.476 75.888 90.484 75.328C91.492 74.768 92.652 74.488 93.964 74.488C95.228 74.488 96.356 74.76 97.348 75.304C98.356 75.848 99.132 76.624 99.676 77.632C100.236 78.624 100.516 79.768 100.516 81.064ZM97.036 80.104C97.02 79.24 96.708 78.552 96.1 78.04C95.492 77.512 94.748 77.248 93.868 77.248C93.036 77.248 92.332 77.504 91.756 78.016C91.196 78.512 90.852 79.208 90.724 80.104H97.036ZM110.337 74.512C111.921 74.512 113.201 75.016 114.177 76.024C115.153 77.016 115.641 78.408 115.641 80.2V88H112.281V80.656C112.281 79.6 112.017 78.792 111.489 78.232C110.961 77.656 110.241 77.368 109.329 77.368C108.401 77.368 107.665 77.656 107.121 78.232C106.593 78.792 106.329 79.6 106.329 80.656V88H102.969V74.704H106.329V76.36C106.777 75.784 107.345 75.336 108.033 75.016C108.737 74.68 109.505 74.512 110.337 74.512ZM120.54 73.12C119.948 73.12 119.452 72.936 119.052 72.568C118.668 72.184 118.476 71.712 118.476 71.152C118.476 70.592 118.668 70.128 119.052 69.76C119.452 69.376 119.948 69.184 120.54 69.184C121.132 69.184 121.62 69.376 122.004 69.76C122.404 70.128 122.604 70.592 122.604 71.152C122.604 71.712 122.404 72.184 122.004 72.568C121.62 72.936 121.132 73.12 120.54 73.12ZM122.196 74.704V88H118.836V74.704H122.196ZM128.875 70.24V88H125.515V70.24H128.875ZM133.899 73.12C133.307 73.12 132.811 72.936 132.411 72.568C132.027 72.184 131.835 71.712 131.835 71.152C131.835 70.592 132.027 70.128 132.411 69.76C132.811 69.376 133.307 69.184 133.899 69.184C134.491 69.184 134.979 69.376 135.363 69.76C135.763 70.128 135.963 70.592 135.963 71.152C135.963 71.712 135.763 72.184 135.363 72.568C134.979 72.936 134.491 73.12 133.899 73.12ZM135.555 74.704V88H132.195V74.704H135.555ZM142.235 76.768C142.667 76.064 143.227 75.512 143.915 75.112C144.619 74.712 145.419 74.512 146.315 74.512V78.04H145.427C144.371 78.04 143.571 78.288 143.027 78.784C142.499 79.28 142.235 80.144 142.235 81.376V88H138.875V74.704H142.235V76.768ZM167.017 74.704L158.785 94.288H155.209L158.089 87.664L152.761 74.704H156.529L159.961 83.992L163.441 74.704H167.017ZM167.964 81.304C167.964 79.96 168.228 78.768 168.756 77.728C169.3 76.688 170.028 75.888 170.94 75.328C171.868 74.768 172.9 74.488 174.036 74.488C175.028 74.488 175.892 74.688 176.628 75.088C177.38 75.488 177.98 75.992 178.428 76.6V74.704H181.812V88H178.428V86.056C177.996 86.68 177.396 87.2 176.628 87.616C175.876 88.016 175.004 88.216 174.012 88.216C172.892 88.216 171.868 87.928 170.94 87.352C170.028 86.776 169.3 85.968 168.756 84.928C168.228 83.872 167.964 82.664 167.964 81.304ZM178.428 81.352C178.428 80.536 178.268 79.84 177.948 79.264C177.628 78.672 177.196 78.224 176.652 77.92C176.108 77.6 175.524 77.44 174.9 77.44C174.276 77.44 173.7 77.592 173.172 77.896C172.644 78.2 172.212 78.648 171.876 79.24C171.556 79.816 171.396 80.504 171.396 81.304C171.396 82.104 171.556 82.808 171.876 83.416C172.212 84.008 172.644 84.464 173.172 84.784C173.716 85.104 174.292 85.264 174.9 85.264C175.524 85.264 176.108 85.112 176.652 84.808C177.196 84.488 177.628 84.04 177.948 83.464C178.268 82.872 178.428 82.168 178.428 81.352ZM188.166 85.24H194.094V88H184.35V85.288L190.158 77.464H184.374V74.704H194.022V77.416L188.166 85.24ZM200.199 74.704V88H196.839V74.704H200.199ZM207.016 70.24V88H203.656V70.24H207.016ZM213.84 74.704V88H210.48V74.704H213.84ZM233.809 74.512C235.441 74.512 236.753 75.016 237.745 76.024C238.753 77.016 239.257 78.408 239.257 80.2V88H235.897V80.656C235.897 79.616 235.633 78.824 235.105 78.28C234.577 77.72 233.857 77.44 232.945 77.44C232.033 77.44 231.305 77.72 230.761 78.28C230.233 78.824 229.969 79.616 229.969 80.656V88H226.609V80.656C226.609 79.616 226.345 78.824 225.817 78.28C225.289 77.72 224.569 77.44 223.657 77.44C222.729 77.44 221.993 77.72 221.449 78.28C220.921 78.824 220.657 79.616 220.657 80.656V88H217.297V74.704H220.657V76.312C221.089 75.752 221.641 75.312 222.313 74.992C223.001 74.672 223.753 74.512 224.569 74.512C225.609 74.512 226.537 74.736 227.353 75.184C228.169 75.616 228.801 76.24 229.249 77.056C229.681 76.288 230.305 75.672 231.121 75.208C231.953 74.744 232.849 74.512 233.809 74.512ZM253.708 84.904L257.068 74.704H260.644L255.724 88H251.644L246.748 74.704H250.348L253.708 84.904ZM274.891 81.064C274.891 81.544 274.859 81.976 274.795 82.36H265.075C265.155 83.32 265.491 84.072 266.083 84.616C266.675 85.16 267.403 85.432 268.267 85.432C269.515 85.432 270.403 84.896 270.931 83.824H274.555C274.171 85.104 273.435 86.16 272.347 86.992C271.259 87.808 269.923 88.216 268.339 88.216C267.059 88.216 265.907 87.936 264.883 87.376C263.875 86.8 263.083 85.992 262.507 84.952C261.947 83.912 261.667 82.712 261.667 81.352C261.667 79.976 261.947 78.768 262.507 77.728C263.067 76.688 263.851 75.888 264.859 75.328C265.867 74.768 267.027 74.488 268.339 74.488C269.603 74.488 270.731 74.76 271.723 75.304C272.731 75.848 273.507 76.624 274.051 77.632C274.611 78.624 274.891 79.768 274.891 81.064ZM271.411 80.104C271.395 79.24 271.083 78.552 270.475 78.04C269.867 77.512 269.123 77.248 268.243 77.248C267.411 77.248 266.707 77.504 266.131 78.016C265.571 78.512 265.227 79.208 265.099 80.104H271.411ZM286.974 77.464V83.896C286.974 84.344 287.078 84.672 287.286 84.88C287.51 85.072 287.878 85.168 288.39 85.168H289.95V88H287.838C285.006 88 283.59 86.624 283.59 83.872V77.464H282.006V74.704H283.59V71.416H286.974V74.704H289.95V77.464H286.974ZM304.727 81.064C304.727 81.544 304.695 81.976 304.631 82.36H294.911C294.991 83.32 295.327 84.072 295.919 84.616C296.511 85.16 297.239 85.432 298.103 85.432C299.351 85.432 300.239 84.896 300.767 83.824H304.391C304.007 85.104 303.271 86.16 302.183 86.992C301.095 87.808 299.759 88.216 298.175 88.216C296.895 88.216 295.743 87.936 294.719 87.376C293.711 86.8 292.919 85.992 292.343 84.952C291.783 83.912 291.503 82.712 291.503 81.352C291.503 79.976 291.783 78.768 292.343 77.728C292.903 76.688 293.687 75.888 294.695 75.328C295.703 74.768 296.863 74.488 298.175 74.488C299.439 74.488 300.567 74.76 301.559 75.304C302.567 75.848 303.343 76.624 303.887 77.632C304.447 78.624 304.727 79.768 304.727 81.064ZM301.247 80.104C301.231 79.24 300.919 78.552 300.311 78.04C299.703 77.512 298.959 77.248 298.079 77.248C297.247 77.248 296.543 77.504 295.967 78.016C295.407 78.512 295.063 79.208 294.935 80.104H301.247ZM315.051 88L310.539 82.336V88H307.179V70.24H310.539V80.344L315.003 74.704H319.371L313.515 81.376L319.419 88H315.051ZM328.563 74.512C330.147 74.512 331.427 75.016 332.403 76.024C333.379 77.016 333.867 78.408 333.867 80.2V88H330.507V80.656C330.507 79.6 330.243 78.792 329.715 78.232C329.187 77.656 328.467 77.368 327.555 77.368C326.627 77.368 325.891 77.656 325.347 78.232C324.819 78.792 324.555 79.6 324.555 80.656V88H321.195V74.704H324.555V76.36C325.003 75.784 325.571 75.336 326.259 75.016C326.963 74.68 327.731 74.512 328.563 74.512ZM342.966 88.216C341.686 88.216 340.534 87.936 339.51 87.376C338.486 86.8 337.678 85.992 337.086 84.952C336.51 83.912 336.222 82.712 336.222 81.352C336.222 79.992 336.518 78.792 337.11 77.752C337.718 76.712 338.542 75.912 339.582 75.352C340.622 74.776 341.782 74.488 343.062 74.488C344.342 74.488 345.502 74.776 346.542 75.352C347.582 75.912 348.398 76.712 348.99 77.752C349.598 78.792 349.902 79.992 349.902 81.352C349.902 82.712 349.59 83.912 348.966 84.952C348.358 85.992 347.526 86.8 346.47 87.376C345.43 87.936 344.262 88.216 342.966 88.216ZM342.966 85.288C343.574 85.288 344.142 85.144 344.67 84.856C345.214 84.552 345.646 84.104 345.966 83.512C346.286 82.92 346.446 82.2 346.446 81.352C346.446 80.088 346.11 79.12 345.438 78.448C344.782 77.76 343.974 77.416 343.014 77.416C342.054 77.416 341.246 77.76 340.59 78.448C339.95 79.12 339.63 80.088 339.63 81.352C339.63 82.616 339.942 83.592 340.566 84.28C341.206 84.952 342.006 85.288 342.966 85.288ZM355.727 70.24V88H352.367V70.24H355.727ZM364.951 88.216C363.671 88.216 362.519 87.936 361.495 87.376C360.471 86.8 359.663 85.992 359.071 84.952C358.495 83.912 358.207 82.712 358.207 81.352C358.207 79.992 358.503 78.792 359.095 77.752C359.703 76.712 360.527 75.912 361.567 75.352C362.607 74.776 363.767 74.488 365.047 74.488C366.327 74.488 367.487 74.776 368.527 75.352C369.567 75.912 370.383 76.712 370.975 77.752C371.583 78.792 371.887 79.992 371.887 81.352C371.887 82.712 371.575 83.912 370.951 84.952C370.343 85.992 369.511 86.8 368.455 87.376C367.415 87.936 366.247 88.216 364.951 88.216ZM364.951 85.288C365.559 85.288 366.127 85.144 366.655 84.856C367.199 84.552 367.631 84.104 367.951 83.512C368.271 82.92 368.431 82.2 368.431 81.352C368.431 80.088 368.095 79.12 367.423 78.448C366.767 77.76 365.959 77.416 364.999 77.416C364.039 77.416 363.231 77.76 362.575 78.448C361.935 79.12 361.615 80.088 361.615 81.352C361.615 82.616 361.927 83.592 362.551 84.28C363.191 84.952 363.991 85.288 364.951 85.288ZM376.055 73.12C375.447 73.12 374.943 72.936 374.543 72.568C374.159 72.184 373.967 71.712 373.967 71.152C373.967 70.592 374.159 70.128 374.543 69.76C374.943 69.376 375.447 69.184 376.055 69.184C376.647 69.184 377.135 69.376 377.519 69.76C377.903 70.128 378.095 70.592 378.095 71.152C378.095 71.712 377.903 72.184 377.519 72.568C377.135 72.936 376.647 73.12 376.055 73.12ZM377.711 90.184C377.711 91.656 377.343 92.712 376.607 93.352C375.887 94.008 374.847 94.336 373.487 94.336H371.999V91.48H372.959C373.471 91.48 373.831 91.376 374.039 91.168C374.247 90.976 374.351 90.656 374.351 90.208V74.704H377.711V90.184ZM382.735 73.12C382.143 73.12 381.647 72.936 381.247 72.568C380.863 72.184 380.671 71.712 380.671 71.152C380.671 70.592 380.863 70.128 381.247 69.76C381.647 69.376 382.143 69.184 382.735 69.184C383.327 69.184 383.815 69.376 384.199 69.76C384.599 70.128 384.799 70.592 384.799 71.152C384.799 71.712 384.599 72.184 384.199 72.568C383.815 72.936 383.327 73.12 382.735 73.12ZM384.391 74.704V88H381.031V74.704H384.391ZM47.344 109.336C48.704 109.336 49.592 108.728 50.008 107.512H53.632C53.296 108.808 52.672 109.864 51.76 110.68C50.864 111.496 49.736 111.984 48.376 112.144V113.08C49.256 113.08 49.992 113.304 50.584 113.752C51.192 114.2 51.496 114.848 51.496 115.696C51.496 116.56 51.184 117.224 50.56 117.688C49.952 118.152 49.2 118.384 48.304 118.384H44.896V116.416H47.752C48.136 116.416 48.424 116.36 48.616 116.248C48.824 116.136 48.928 115.936 48.928 115.648C48.928 115.36 48.824 115.16 48.616 115.048C48.424 114.952 48.136 114.904 47.752 114.904H46.264V112.144C45.176 111.984 44.216 111.608 43.384 111.016C42.568 110.408 41.928 109.624 41.464 108.664C41.016 107.688 40.792 106.584 40.792 105.352C40.792 103.976 41.072 102.776 41.632 101.752C42.192 100.712 42.968 99.912 43.96 99.352C44.952 98.776 46.088 98.488 47.368 98.488C49.016 98.488 50.376 98.904 51.448 99.736C52.536 100.552 53.264 101.704 53.632 103.192H50.008C49.816 102.616 49.488 102.168 49.024 101.848C48.576 101.512 48.016 101.344 47.344 101.344C46.384 101.344 45.624 101.696 45.064 102.4C44.504 103.088 44.224 104.072 44.224 105.352C44.224 106.616 44.504 107.6 45.064 108.304C45.624 108.992 46.384 109.336 47.344 109.336ZM61.9975 112.216C60.7175 112.216 59.5655 111.936 58.5415 111.376C57.5175 110.8 56.7095 109.992 56.1175 108.952C55.5415 107.912 55.2535 106.712 55.2535 105.352C55.2535 103.992 55.5495 102.792 56.1415 101.752C56.7495 100.712 57.5735 99.912 58.6135 99.352C59.6535 98.776 60.8135 98.488 62.0935 98.488C63.3735 98.488 64.5335 98.776 65.5735 99.352C66.6135 99.912 67.4295 100.712 68.0215 101.752C68.6295 102.792 68.9335 103.992 68.9335 105.352C68.9335 106.712 68.6215 107.912 67.9975 108.952C67.3895 109.992 66.5575 110.8 65.5015 111.376C64.4615 111.936 63.2935 112.216 61.9975 112.216ZM61.9975 109.288C62.6055 109.288 63.1735 109.144 63.7015 108.856C64.2455 108.552 64.6775 108.104 64.9975 107.512C65.3175 106.92 65.4775 106.2 65.4775 105.352C65.4775 104.088 65.1415 103.12 64.4695 102.448C63.8135 101.76 63.0055 101.416 62.0455 101.416C61.0855 101.416 60.2775 101.76 59.6215 102.448C58.9815 103.12 58.6615 104.088 58.6615 105.352C58.6615 106.616 58.9735 107.592 59.5975 108.28C60.2375 108.952 61.0375 109.288 61.9975 109.288ZM60.0055 96.952C59.5575 96.952 59.1815 96.8 58.8775 96.496C58.5735 96.192 58.4215 95.816 58.4215 95.368C58.4215 94.92 58.5735 94.544 58.8775 94.24C59.1815 93.92 59.5575 93.76 60.0055 93.76C60.4535 93.76 60.8295 93.92 61.1335 94.24C61.4535 94.544 61.6135 94.92 61.6135 95.368C61.6135 95.816 61.4535 96.192 61.1335 96.496C60.8295 96.8 60.4535 96.952 60.0055 96.952ZM64.4455 96.952C63.9975 96.952 63.6215 96.8 63.3175 96.496C63.0135 96.192 62.8615 95.816 62.8615 95.368C62.8615 94.92 63.0135 94.544 63.3175 94.24C63.6215 93.92 63.9975 93.76 64.4455 93.76C64.8935 93.76 65.2695 93.92 65.5735 94.24C65.8935 94.544 66.0535 94.92 66.0535 95.368C66.0535 95.816 65.8935 96.192 65.5735 96.496C65.2695 96.8 64.8935 96.952 64.4455 96.952ZM74.4702 109.24H80.3982V112H70.6542V109.288L76.4622 101.464H70.6782V98.704H80.3262V101.416L74.4702 109.24ZM95.5518 98.704V112H92.1678V110.32C91.7358 110.896 91.1678 111.352 90.4638 111.688C89.7758 112.008 89.0238 112.168 88.2078 112.168C87.1678 112.168 86.2478 111.952 85.4478 111.52C84.6478 111.072 84.0158 110.424 83.5518 109.576C83.1038 108.712 82.8798 107.688 82.8798 106.504V98.704H86.2398V106.024C86.2398 107.08 86.5038 107.896 87.0318 108.472C87.5598 109.032 88.2798 109.312 89.1918 109.312C90.1198 109.312 90.8478 109.032 91.3758 108.472C91.9038 107.896 92.1678 107.08 92.1678 106.024V98.704H95.5518ZM87.0558 97.12C86.6078 97.12 86.2318 96.968 85.9278 96.664C85.6238 96.36 85.4718 95.984 85.4718 95.536C85.4718 95.088 85.6238 94.712 85.9278 94.408C86.2318 94.088 86.6078 93.928 87.0558 93.928C87.5038 93.928 87.8798 94.088 88.1838 94.408C88.5038 94.712 88.6638 95.088 88.6638 95.536C88.6638 95.984 88.5038 96.36 88.1838 96.664C87.8798 96.968 87.5038 97.12 87.0558 97.12ZM91.4958 97.12C91.0478 97.12 90.6718 96.968 90.3678 96.664C90.0638 96.36 89.9118 95.984 89.9118 95.536C89.9118 95.088 90.0638 94.712 90.3678 94.408C90.6718 94.088 91.0478 93.928 91.4958 93.928C91.9438 93.928 92.3198 94.088 92.6238 94.408C92.9438 94.712 93.1038 95.088 93.1038 95.536C93.1038 95.984 92.9438 96.36 92.6238 96.664C92.3198 96.968 91.9438 97.12 91.4958 97.12ZM115.379 98.512C117.011 98.512 118.323 99.016 119.315 100.024C120.323 101.016 120.827 102.408 120.827 104.2V112H117.467V104.656C117.467 103.616 117.203 102.824 116.675 102.28C116.147 101.72 115.427 101.44 114.515 101.44C113.603 101.44 112.875 101.72 112.331 102.28C111.803 102.824 111.539 103.616 111.539 104.656V112H108.179V104.656C108.179 103.616 107.915 102.824 107.387 102.28C106.859 101.72 106.139 101.44 105.227 101.44C104.299 101.44 103.563 101.72 103.019 102.28C102.491 102.824 102.227 103.616 102.227 104.656V112H98.8669V98.704H102.227V100.312C102.659 99.752 103.211 99.312 103.883 98.992C104.571 98.672 105.323 98.512 106.139 98.512C107.179 98.512 108.107 98.736 108.923 99.184C109.739 99.616 110.371 100.24 110.819 101.056C111.251 100.288 111.875 99.672 112.691 99.208C113.523 98.744 114.419 98.512 115.379 98.512ZM127.375 94.24V112H124.015V94.24H127.375ZM143.055 105.064C143.055 105.544 143.023 105.976 142.959 106.36H133.239C133.319 107.32 133.655 108.072 134.247 108.616C134.839 109.16 135.567 109.432 136.431 109.432C137.679 109.432 138.567 108.896 139.095 107.824H142.719C142.335 109.104 141.599 110.16 140.511 110.992C139.423 111.808 138.087 112.216 136.503 112.216C135.223 112.216 134.071 111.936 133.047 111.376C132.039 110.8 131.247 109.992 130.671 108.952C130.111 107.912 129.831 106.712 129.831 105.352C129.831 103.976 130.111 102.768 130.671 101.728C131.231 100.688 132.015 99.888 133.023 99.328C134.031 98.768 135.191 98.488 136.503 98.488C137.767 98.488 138.895 98.76 139.887 99.304C140.895 99.848 141.671 100.624 142.215 101.632C142.775 102.624 143.055 103.768 143.055 105.064ZM139.575 104.104C139.559 103.24 139.247 102.552 138.639 102.04C138.031 101.512 137.287 101.248 136.407 101.248C135.575 101.248 134.871 101.504 134.295 102.016C133.735 102.512 133.391 103.208 133.263 104.104H139.575ZM148.868 100.768C149.3 100.064 149.86 99.512 150.548 99.112C151.252 98.712 152.052 98.512 152.948 98.512V102.04H152.06C151.004 102.04 150.204 102.288 149.66 102.784C149.132 103.28 148.868 104.144 148.868 105.376V112H145.508V98.704H148.868V100.768ZM156.915 97.12C156.323 97.12 155.827 96.936 155.427 96.568C155.043 96.184 154.851 95.712 154.851 95.152C154.851 94.592 155.043 94.128 155.427 93.76C155.827 93.376 156.323 93.184 156.915 93.184C157.507 93.184 157.995 93.376 158.379 93.76C158.779 94.128 158.979 94.592 158.979 95.152C158.979 95.712 158.779 96.184 158.379 96.568C157.995 96.936 157.507 97.12 156.915 97.12ZM158.571 98.704V112H155.211V98.704H158.571ZM169.258 98.512C170.842 98.512 172.122 99.016 173.098 100.024C174.074 101.016 174.562 102.408 174.562 104.2V112H171.202V104.656C171.202 103.6 170.938 102.792 170.41 102.232C169.882 101.656 169.162 101.368 168.25 101.368C167.322 101.368 166.586 101.656 166.042 102.232C165.514 102.792 165.25 103.6 165.25 104.656V112H161.89V98.704H165.25V100.36C165.698 99.784 166.266 99.336 166.954 99.016C167.658 98.68 168.426 98.512 169.258 98.512ZM176.894 105.304C176.894 103.96 177.158 102.768 177.686 101.728C178.23 100.688 178.966 99.888 179.894 99.328C180.822 98.768 181.854 98.488 182.99 98.488C183.854 98.488 184.678 98.68 185.462 99.064C186.246 99.432 186.87 99.928 187.334 100.552V94.24H190.742V112H187.334V110.032C186.918 110.688 186.334 111.216 185.582 111.616C184.83 112.016 183.958 112.216 182.966 112.216C181.846 112.216 180.822 111.928 179.894 111.352C178.966 110.776 178.23 109.968 177.686 108.928C177.158 107.872 176.894 106.664 176.894 105.304ZM187.358 105.352C187.358 104.536 187.198 103.84 186.878 103.264C186.558 102.672 186.126 102.224 185.582 101.92C185.038 101.6 184.454 101.44 183.83 101.44C183.206 101.44 182.63 101.592 182.102 101.896C181.574 102.2 181.142 102.648 180.806 103.24C180.486 103.816 180.326 104.504 180.326 105.304C180.326 106.104 180.486 106.808 180.806 107.416C181.142 108.008 181.574 108.464 182.102 108.784C182.646 109.104 183.222 109.264 183.83 109.264C184.454 109.264 185.038 109.112 185.582 108.808C186.126 108.488 186.558 108.04 186.878 107.464C187.198 106.872 187.358 106.168 187.358 105.352ZM206.383 105.064C206.383 105.544 206.351 105.976 206.287 106.36H196.567C196.647 107.32 196.983 108.072 197.575 108.616C198.167 109.16 198.895 109.432 199.759 109.432C201.007 109.432 201.895 108.896 202.423 107.824H206.047C205.663 109.104 204.927 110.16 203.839 110.992C202.751 111.808 201.415 112.216 199.831 112.216C198.551 112.216 197.399 111.936 196.375 111.376C195.367 110.8 194.575 109.992 193.999 108.952C193.439 107.912 193.159 106.712 193.159 105.352C193.159 103.976 193.439 102.768 193.999 101.728C194.559 100.688 195.343 99.888 196.351 99.328C197.359 98.768 198.519 98.488 199.831 98.488C201.095 98.488 202.223 98.76 203.215 99.304C204.223 99.848 204.999 100.624 205.543 101.632C206.103 102.624 206.383 103.768 206.383 105.064ZM202.903 104.104C202.887 103.24 202.575 102.552 201.967 102.04C201.359 101.512 200.615 101.248 199.735 101.248C198.903 101.248 198.199 101.504 197.623 102.016C197.063 102.512 196.719 103.208 196.591 104.104H202.903ZM219.762 98.488C220.754 98.488 221.626 98.688 222.378 99.088C223.13 99.472 223.722 99.976 224.154 100.6V98.704H227.538V112.096C227.538 113.328 227.29 114.424 226.794 115.384C226.298 116.36 225.554 117.128 224.562 117.688C223.57 118.264 222.37 118.552 220.962 118.552C219.074 118.552 217.522 118.112 216.306 117.232C215.106 116.352 214.426 115.152 214.266 113.632H217.602C217.778 114.24 218.154 114.72 218.73 115.072C219.322 115.44 220.034 115.624 220.866 115.624C221.842 115.624 222.634 115.328 223.242 114.736C223.85 114.16 224.154 113.28 224.154 112.096V110.032C223.722 110.656 223.122 111.176 222.354 111.592C221.602 112.008 220.738 112.216 219.762 112.216C218.642 112.216 217.618 111.928 216.69 111.352C215.762 110.776 215.026 109.968 214.482 108.928C213.954 107.872 213.69 106.664 213.69 105.304C213.69 103.96 213.954 102.768 214.482 101.728C215.026 100.688 215.754 99.888 216.666 99.328C217.594 98.768 218.626 98.488 219.762 98.488ZM224.154 105.352C224.154 104.536 223.994 103.84 223.674 103.264C223.354 102.672 222.922 102.224 222.378 101.92C221.834 101.6 221.25 101.44 220.626 101.44C220.002 101.44 219.426 101.592 218.898 101.896C218.37 102.2 217.938 102.648 217.602 103.24C217.282 103.816 217.122 104.504 217.122 105.304C217.122 106.104 217.282 106.808 217.602 107.416C217.938 108.008 218.37 108.464 218.898 108.784C219.442 109.104 220.018 109.264 220.626 109.264C221.25 109.264 221.834 109.112 222.378 108.808C222.922 108.488 223.354 108.04 223.674 107.464C223.994 106.872 224.154 106.168 224.154 105.352ZM243.372 98.704V112H239.988V110.32C239.556 110.896 238.988 111.352 238.284 111.688C237.596 112.008 236.844 112.168 236.028 112.168C234.988 112.168 234.068 111.952 233.268 111.52C232.468 111.072 231.836 110.424 231.372 109.576C230.924 108.712 230.7 107.688 230.7 106.504V98.704H234.06V106.024C234.06 107.08 234.324 107.896 234.852 108.472C235.38 109.032 236.1 109.312 237.012 109.312C237.94 109.312 238.668 109.032 239.196 108.472C239.724 107.896 239.988 107.08 239.988 106.024V98.704H243.372ZM234.876 97.12C234.428 97.12 234.052 96.968 233.748 96.664C233.444 96.36 233.292 95.984 233.292 95.536C233.292 95.088 233.444 94.712 233.748 94.408C234.052 94.088 234.428 93.928 234.876 93.928C235.324 93.928 235.7 94.088 236.004 94.408C236.324 94.712 236.484 95.088 236.484 95.536C236.484 95.984 236.324 96.36 236.004 96.664C235.7 96.968 235.324 97.12 234.876 97.12ZM239.316 97.12C238.868 97.12 238.492 96.968 238.188 96.664C237.884 96.36 237.732 95.984 237.732 95.536C237.732 95.088 237.884 94.712 238.188 94.408C238.492 94.088 238.868 93.928 239.316 93.928C239.764 93.928 240.14 94.088 240.444 94.408C240.764 94.712 240.924 95.088 240.924 95.536C240.924 95.984 240.764 96.36 240.444 96.664C240.14 96.968 239.764 97.12 239.316 97.12ZM252.231 108.904L255.591 98.704H259.167L254.247 112H250.167L245.271 98.704H248.871L252.231 108.904ZM273.414 105.064C273.414 105.544 273.382 105.976 273.318 106.36H263.598C263.678 107.32 264.014 108.072 264.606 108.616C265.198 109.16 265.926 109.432 266.79 109.432C268.038 109.432 268.926 108.896 269.454 107.824H273.078C272.694 109.104 271.958 110.16 270.87 110.992C269.782 111.808 268.446 112.216 266.862 112.216C265.582 112.216 264.43 111.936 263.406 111.376C262.398 110.8 261.606 109.992 261.03 108.952C260.47 107.912 260.19 106.712 260.19 105.352C260.19 103.976 260.47 102.768 261.03 101.728C261.59 100.688 262.374 99.888 263.382 99.328C264.39 98.768 265.55 98.488 266.862 98.488C268.126 98.488 269.254 98.76 270.246 99.304C271.254 99.848 272.03 100.624 272.574 101.632C273.134 102.624 273.414 103.768 273.414 105.064ZM269.934 104.104C269.918 103.24 269.606 102.552 268.998 102.04C268.39 101.512 267.646 101.248 266.766 101.248C265.934 101.248 265.23 101.504 264.654 102.016C264.094 102.512 263.75 103.208 263.622 104.104H269.934ZM283.235 98.512C284.819 98.512 286.099 99.016 287.075 100.024C288.051 101.016 288.539 102.408 288.539 104.2V112H285.179V104.656C285.179 103.6 284.915 102.792 284.387 102.232C283.859 101.656 283.139 101.368 282.227 101.368C281.299 101.368 280.563 101.656 280.019 102.232C279.491 102.792 279.227 103.6 279.227 104.656V112H275.867V98.704H279.227V100.36C279.675 99.784 280.243 99.336 280.931 99.016C281.635 98.68 282.403 98.512 283.235 98.512ZM293.438 97.12C292.846 97.12 292.35 96.936 291.95 96.568C291.566 96.184 291.374 95.712 291.374 95.152C291.374 94.592 291.566 94.128 291.95 93.76C292.35 93.376 292.846 93.184 293.438 93.184C294.03 93.184 294.518 93.376 294.902 93.76C295.302 94.128 295.502 94.592 295.502 95.152C295.502 95.712 295.302 96.184 294.902 96.568C294.518 96.936 294.03 97.12 293.438 97.12ZM295.094 98.704V112H291.734V98.704H295.094ZM301.774 94.24V112H298.414V94.24H301.774ZM306.798 97.12C306.206 97.12 305.71 96.936 305.31 96.568C304.926 96.184 304.734 95.712 304.734 95.152C304.734 94.592 304.926 94.128 305.31 93.76C305.71 93.376 306.206 93.184 306.798 93.184C307.39 93.184 307.878 93.376 308.262 93.76C308.662 94.128 308.862 94.592 308.862 95.152C308.862 95.712 308.662 96.184 308.262 96.568C307.878 96.936 307.39 97.12 306.798 97.12ZM308.454 98.704V112H305.094V98.704H308.454ZM315.133 100.768C315.565 100.064 316.125 99.512 316.813 99.112C317.517 98.712 318.317 98.512 319.213 98.512V102.04H318.325C317.269 102.04 316.469 102.288 315.925 102.784C315.397 103.28 315.133 104.144 315.133 105.376V112H311.773V98.704H315.133V100.768ZM40.792 129.304C40.792 127.96 41.056 126.768 41.584 125.728C42.128 124.688 42.856 123.888 43.768 123.328C44.696 122.768 45.728 122.488 46.864 122.488C47.856 122.488 48.72 122.688 49.456 123.088C50.208 123.488 50.808 123.992 51.256 124.6V122.704H54.64V136H51.256V134.056C50.824 134.68 50.224 135.2 49.456 135.616C48.704 136.016 47.832 136.216 46.84 136.216C45.72 136.216 44.696 135.928 43.768 135.352C42.856 134.776 42.128 133.968 41.584 132.928C41.056 131.872 40.792 130.664 40.792 129.304ZM51.256 129.352C51.256 128.536 51.096 127.84 50.776 127.264C50.456 126.672 50.024 126.224 49.48 125.92C48.936 125.6 48.352 125.44 47.728 125.44C47.104 125.44 46.528 125.592 46 125.896C45.472 126.2 45.04 126.648 44.704 127.24C44.384 127.816 44.224 128.504 44.224 129.304C44.224 130.104 44.384 130.808 44.704 131.416C45.04 132.008 45.472 132.464 46 132.784C46.544 133.104 47.12 133.264 47.728 133.264C48.352 133.264 48.936 133.112 49.48 132.808C50.024 132.488 50.456 132.04 50.776 131.464C51.096 130.872 51.256 130.168 51.256 129.352ZM57.0576 129.304C57.0576 127.96 57.3216 126.768 57.8496 125.728C58.3936 124.688 59.1296 123.888 60.0576 123.328C60.9856 122.768 62.0176 122.488 63.1536 122.488C64.0176 122.488 64.8416 122.68 65.6256 123.064C66.4096 123.432 67.0336 123.928 67.4976 124.552V118.24H70.9056V136H67.4976V134.032C67.0816 134.688 66.4976 135.216 65.7456 135.616C64.9936 136.016 64.1216 136.216 63.1296 136.216C62.0096 136.216 60.9856 135.928 60.0576 135.352C59.1296 134.776 58.3936 133.968 57.8496 132.928C57.3216 131.872 57.0576 130.664 57.0576 129.304ZM67.5216 129.352C67.5216 128.536 67.3616 127.84 67.0416 127.264C66.7216 126.672 66.2896 126.224 65.7456 125.92C65.2016 125.6 64.6176 125.44 63.9936 125.44C63.3696 125.44 62.7936 125.592 62.2656 125.896C61.7376 126.2 61.3056 126.648 60.9696 127.24C60.6496 127.816 60.4896 128.504 60.4896 129.304C60.4896 130.104 60.6496 130.808 60.9696 131.416C61.3056 132.008 61.7376 132.464 62.2656 132.784C62.8096 133.104 63.3856 133.264 63.9936 133.264C64.6176 133.264 65.2016 133.112 65.7456 132.808C66.2896 132.488 66.7216 132.04 67.0416 131.464C67.3616 130.872 67.5216 130.168 67.5216 129.352ZM77.5473 124.768C77.9793 124.064 78.5393 123.512 79.2273 123.112C79.9313 122.712 80.7313 122.512 81.6273 122.512V126.04H80.7393C79.6833 126.04 78.8833 126.288 78.3393 126.784C77.8113 127.28 77.5473 128.144 77.5473 129.376V136H74.1873V122.704H77.5473V124.768ZM96.2504 129.064C96.2504 129.544 96.2184 129.976 96.1544 130.36H86.4344C86.5144 131.32 86.8504 132.072 87.4424 132.616C88.0344 133.16 88.7624 133.432 89.6264 133.432C90.8744 133.432 91.7624 132.896 92.2904 131.824H95.9144C95.5304 133.104 94.7944 134.16 93.7064 134.992C92.6184 135.808 91.2824 136.216 89.6984 136.216C88.4184 136.216 87.2664 135.936 86.2424 135.376C85.2344 134.8 84.4424 133.992 83.8664 132.952C83.3064 131.912 83.0264 130.712 83.0264 129.352C83.0264 127.976 83.3064 126.768 83.8664 125.728C84.4264 124.688 85.2104 123.888 86.2184 123.328C87.2264 122.768 88.3864 122.488 89.6984 122.488C90.9624 122.488 92.0904 122.76 93.0824 123.304C94.0904 123.848 94.8664 124.624 95.4104 125.632C95.9704 126.624 96.2504 127.768 96.2504 129.064ZM92.7704 128.104C92.7544 127.24 92.4424 126.552 91.8344 126.04C91.2264 125.512 90.4824 125.248 89.6024 125.248C88.7704 125.248 88.0664 125.504 87.4904 126.016C86.9304 126.512 86.5864 127.208 86.4584 128.104H92.7704ZM103.791 136.216C102.703 136.216 101.727 136.024 100.863 135.64C99.9989 135.24 99.3109 134.704 98.7989 134.032C98.3029 133.36 98.0309 132.616 97.9829 131.8H101.367C101.431 132.312 101.679 132.736 102.111 133.072C102.559 133.408 103.111 133.576 103.767 133.576C104.407 133.576 104.903 133.448 105.255 133.192C105.623 132.936 105.807 132.608 105.807 132.208C105.807 131.776 105.583 131.456 105.135 131.248C104.703 131.024 104.007 130.784 103.047 130.528C102.055 130.288 101.239 130.04 100.599 129.784C99.9749 129.528 99.4309 129.136 98.9669 128.608C98.5189 128.08 98.2949 127.368 98.2949 126.472C98.2949 125.736 98.5029 125.064 98.9189 124.456C99.3509 123.848 99.9589 123.368 100.743 123.016C101.543 122.664 102.479 122.488 103.551 122.488C105.135 122.488 106.399 122.888 107.343 123.688C108.287 124.472 108.807 125.536 108.903 126.88H105.687C105.639 126.352 105.415 125.936 105.015 125.632C104.631 125.312 104.111 125.152 103.455 125.152C102.847 125.152 102.375 125.264 102.039 125.488C101.719 125.712 101.559 126.024 101.559 126.424C101.559 126.872 101.783 127.216 102.231 127.456C102.679 127.68 103.375 127.912 104.319 128.152C105.279 128.392 106.071 128.64 106.695 128.896C107.319 129.152 107.855 129.552 108.303 130.096C108.767 130.624 109.007 131.328 109.023 132.208C109.023 132.976 108.807 133.664 108.375 134.272C107.959 134.88 107.351 135.36 106.551 135.712C105.767 136.048 104.847 136.216 103.791 136.216Z" fill="white"/>
<path d="M482.394 16.9369V12.8708H459.159V16.9369V30.3073V31.5264C460.097 32.7599 461.258 33.8429 462.603 34.7124C464.909 36.2108 467.731 37.0962 470.777 37.0962C475.59 37.0962 479.847 34.894 482.394 31.5264V30.3073V16.9369Z" fill="#656D78"/>
<path d="M470.796 41.6216C460.271 41.6216 451.709 33.8142 451.709 24.2162C451.709 23.7977 452.08 23.4595 452.539 23.4595C452.998 23.4595 453.369 23.7977 453.369 24.2162C453.369 32.9787 461.187 40.1081 470.796 40.1081C471.255 40.1081 471.626 40.4464 471.626 40.8649C471.626 41.2834 471.255 41.6216 470.796 41.6216Z" fill="#CCD1D9"/>
<path d="M489.052 24.973C488.593 24.973 488.222 24.6347 488.222 24.2162C488.222 15.4537 480.404 8.32431 470.796 8.32431C470.337 8.32431 469.966 7.98604 469.966 7.56755C469.966 7.14906 470.337 6.81079 470.796 6.81079C481.32 6.81079 489.882 14.6183 489.882 24.2162C489.882 24.6347 489.511 24.973 489.052 24.973Z" fill="#CCD1D9"/>
<path d="M479.923 9.84387L482.413 12.8709H459.177L461.667 9.84387H479.923Z" fill="#545C66"/>
<path d="M470.795 37.0796C467.749 37.0796 464.928 36.1942 462.621 34.6958C461.277 33.8263 460.114 32.7434 459.177 31.5098V31.0331H482.413V31.5098C479.865 34.8774 475.608 37.0796 470.795 37.0796Z" fill="#545C66"/>
<path d="M482.413 18.9249H459.177V24.979H482.413V18.9249Z" fill="#545C66"/>
<path d="M479.95 16.6547C479.491 16.6547 479.116 16.3165 479.116 15.898C479.116 15.4795 479.483 15.1412 479.941 15.1412H479.95C480.408 15.1412 480.78 15.4795 480.78 15.898C480.78 16.3165 480.408 16.6547 479.95 16.6547Z" fill="#5D9CEC"/>
<path d="M462.477 17.4281C462.265 17.4281 462.053 17.3539 461.891 17.2064C461.566 16.9105 461.566 16.4322 461.891 16.1363L463.55 14.6228C463.875 14.3269 464.399 14.3269 464.724 14.6228C465.048 14.9187 465.048 15.397 464.724 15.6929L463.064 17.2064C462.901 17.3547 462.689 17.4281 462.477 17.4281Z" fill="#545C66"/>
<path d="M466.645 17.4115C466.432 17.4115 466.22 17.3373 466.058 17.1898C465.734 16.8939 465.734 16.4156 466.058 16.1197L467.718 14.6062C468.042 14.3103 468.567 14.3103 468.891 14.6062C469.216 14.9021 469.216 15.3804 468.891 15.6763L467.232 17.1898C467.07 17.3373 466.857 17.4115 466.645 17.4115Z" fill="#545C66"/>
<path d="M470.794 17.4115C470.582 17.4115 470.369 17.3373 470.207 17.1898C469.883 16.8939 469.883 16.4156 470.207 16.1197L471.867 14.6062C472.191 14.3103 472.716 14.3103 473.04 14.6062C473.365 14.9021 473.365 15.3804 473.04 15.6763L471.381 17.1898C471.219 17.3373 471.006 17.4115 470.794 17.4115Z" fill="#545C66"/>
<path d="M479.95 22.7087C479.491 22.7087 479.116 22.3704 479.116 21.9519C479.116 21.5335 479.483 21.1952 479.941 21.1952H479.95C480.408 21.1952 480.78 21.5335 480.78 21.9519C480.78 22.3704 480.408 22.7087 479.95 22.7087Z" fill="#5D9CEC"/>
<path d="M462.496 23.4654C462.283 23.4654 462.071 23.3913 461.909 23.2437C461.585 22.9478 461.585 22.4696 461.909 22.1737L463.569 20.6602C463.893 20.3643 464.418 20.3643 464.742 20.6602C465.067 20.956 465.067 21.4343 464.742 21.7302L463.082 23.2437C462.921 23.3913 462.708 23.4654 462.496 23.4654Z" fill="#434A54"/>
<path d="M466.645 23.4654C466.432 23.4654 466.22 23.3913 466.058 23.2437C465.734 22.9478 465.734 22.4696 466.058 22.1737L467.718 20.6602C468.042 20.3643 468.567 20.3643 468.891 20.6602C469.216 20.956 469.216 21.4343 468.891 21.7302L467.232 23.2437C467.07 23.3913 466.857 23.4654 466.645 23.4654Z" fill="#434A54"/>
<path d="M470.794 23.4654C470.582 23.4654 470.369 23.3913 470.207 23.2437C469.883 22.9478 469.883 22.4696 470.207 22.1737L471.867 20.6602C472.191 20.3643 472.716 20.3643 473.04 20.6602C473.365 20.956 473.365 21.4343 473.04 21.7302L471.381 23.2437C471.219 23.3913 471.006 23.4654 470.794 23.4654Z" fill="#434A54"/>
<path d="M479.95 28.7628C479.491 28.7628 479.116 28.4245 479.116 28.006C479.116 27.5875 479.483 27.2493 479.941 27.2493H479.95C480.408 27.2493 480.78 27.5875 480.78 28.006C480.78 28.4245 480.408 28.7628 479.95 28.7628Z" fill="#5D9CEC"/>
<path d="M462.496 29.5195C462.283 29.5195 462.071 29.4454 461.909 29.2978C461.585 29.0019 461.585 28.5236 461.909 28.2277L463.569 26.7142C463.893 26.4183 464.418 26.4183 464.742 26.7142C465.067 27.0101 465.067 27.4884 464.742 27.7843L463.082 29.2978C462.921 29.4454 462.708 29.5195 462.496 29.5195Z" fill="#545C66"/>
<path d="M466.645 29.5195C466.432 29.5195 466.22 29.4454 466.058 29.2978C465.734 29.0019 465.734 28.5236 466.058 28.2277L467.718 26.7142C468.042 26.4183 468.567 26.4183 468.891 26.7142C469.216 27.0101 469.216 27.4884 468.891 27.7843L467.232 29.2978C467.07 29.4454 466.857 29.5195 466.645 29.5195Z" fill="#545C66"/>
<path d="M470.794 29.5195C470.582 29.5195 470.369 29.4454 470.207 29.2978C469.883 29.0019 469.883 28.5236 470.207 28.2277L471.867 26.7142C472.191 26.4183 472.716 26.4183 473.04 26.7142C473.365 27.0101 473.365 27.4884 473.04 27.7843L471.381 29.2978C471.219 29.4454 471.006 29.5195 470.794 29.5195Z" fill="#545C66"/>
<path d="M466.645 35.5736C466.432 35.5736 466.22 35.4994 466.058 35.3519C465.734 35.056 465.734 34.5777 466.058 34.2818L467.718 32.7683C468.042 32.4724 468.567 32.4724 468.891 32.7683C469.216 33.0642 469.216 33.5425 468.891 33.8384L467.232 35.3519C467.07 35.4994 466.857 35.5736 466.645 35.5736Z" fill="#434A54"/>
<path d="M470.794 35.5736C470.582 35.5736 470.369 35.4994 470.207 35.3519C469.883 35.056 469.883 34.5777 470.207 34.2818L471.867 32.7683C472.191 32.4724 472.716 32.4724 473.04 32.7683C473.365 33.0642 473.365 33.5425 473.04 33.8384L471.381 35.3519C471.219 35.4994 471.006 35.5736 470.794 35.5736Z" fill="#434A54"/>
<path d="M463.569 32.7683L462.038 34.1638C462.014 34.1865 462.003 34.2167 461.982 34.2425C462.193 34.3961 462.401 34.5535 462.622 34.6965C462.853 34.8463 463.092 34.9863 463.334 35.1233L464.742 33.8391C465.067 33.5432 465.067 33.0649 464.742 32.7691C464.418 32.4732 463.893 32.4724 463.569 32.7683Z" fill="#434A54"/>
<path d="M479.95 33.3033H479.941C479.483 33.3033 479.116 33.6416 479.116 34.0601C479.116 34.2213 479.184 34.362 479.278 34.4846C479.714 34.185 480.13 33.8626 480.525 33.519C480.376 33.3858 480.175 33.3033 479.95 33.3033Z" fill="#5D9CEC"/>
<path d="M510.482 57.5571H510.418H494.72C494.64 57.5727 494.544 57.5727 494.464 57.5727H492.867H476.897H464.105H446.554C446.474 57.5727 446.394 57.5727 446.316 57.5571H430.568C428.811 57.5571 427.374 58.9416 427.374 60.6682V108.889H459.314H481.672H513.613V60.6682C513.613 58.9571 512.223 57.5882 510.482 57.5571Z" fill="#5D9CEC"/>
<path d="M427.376 62.2206C426.493 62.2206 425.779 61.5253 425.779 60.6651C425.779 58.0922 427.928 55.9984 430.57 55.9984C431.453 55.9984 432.167 56.6937 432.167 57.554C432.167 58.4142 431.453 59.1095 430.57 59.1095C429.688 59.1095 428.973 59.8064 428.973 60.6651C428.973 61.5253 428.259 62.2206 427.376 62.2206Z" fill="#545C66"/>
<path d="M427.376 110.437C426.493 110.437 425.779 109.741 425.779 108.881V60.6652C425.779 59.805 426.493 59.1096 427.376 59.1096C428.259 59.1096 428.973 59.805 428.973 60.6652V108.881C428.973 109.741 428.259 110.437 427.376 110.437Z" fill="#545C66"/>
<path d="M513.614 62.2208C512.731 62.2208 512.017 61.5254 512.017 60.6652C512.017 59.8065 511.301 59.1096 510.42 59.1096C509.537 59.1096 508.823 58.4143 508.823 57.5541C508.823 56.6939 509.537 55.9985 510.42 55.9985C513.061 55.9985 515.211 58.0923 515.211 60.6652C515.211 61.5254 514.497 62.2208 513.614 62.2208Z" fill="#545C66"/>
<path d="M513.614 110.437C512.731 110.437 512.017 109.741 512.017 108.881V60.6651C512.017 59.8048 512.731 59.1095 513.614 59.1095C514.497 59.1095 515.211 59.8048 515.211 60.6651V108.881C515.211 109.741 514.497 110.437 513.614 110.437Z" fill="#545C66"/>
<path d="M510.486 59.1095H430.57C429.687 59.1095 428.973 58.4142 428.973 57.554C428.973 56.6937 429.687 55.9984 430.57 55.9984H510.486C511.369 55.9984 512.083 56.6937 512.083 57.554C512.083 58.4142 511.369 59.1095 510.486 59.1095Z" fill="#545C66"/>
<path d="M456.373 83.8542H456.394V97.4411H438V83.8542H456.373Z" fill="#E6E9ED"/>
<path d="M456.373 81.7745V83.8543H438H437.978V81.764V81.7536C437.978 81.1798 438.428 80.7189 439.001 80.7189H439.011H455.33C455.913 80.7189 456.363 81.1798 456.374 81.764V81.7745H456.373Z" fill="#CCD1D9"/>
<path d="M478.881 84.9203V86.9897H460.496H460.486V84.8994C460.486 84.3256 460.936 83.8542 461.499 83.8542H461.519H477.838C478.412 83.8542 478.871 84.3256 478.882 84.8994V84.9203H478.881Z" fill="#CCD1D9"/>
<path d="M501.389 83.8542H501.41V97.4411H483.004V83.8542H501.389Z" fill="#E6E9ED"/>
<path d="M501.389 81.7745V83.8543H483.004H482.994V81.764V81.7536C482.994 81.1798 483.444 80.7189 484.007 80.7189H484.027H500.346C500.929 80.7189 501.379 81.1798 501.39 81.764V81.7745H501.389Z" fill="#CCD1D9"/>
<path d="M478.881 86.9897H478.902V100.577H460.496V86.9897H478.881Z" fill="#E6E9ED"/>
<path d="M500.353 98.4883H484.033C483.468 98.4883 483.01 98.0212 483.01 97.4432C483.01 96.8652 483.468 96.3981 484.033 96.3981H500.353C500.919 96.3981 501.376 96.8652 501.376 97.4432C501.376 98.0212 500.919 98.4883 500.353 98.4883Z" fill="#E6E9ED"/>
<path d="M477.862 101.622H461.543C460.977 101.622 460.52 101.154 460.52 100.577C460.52 99.9985 460.977 99.5314 461.543 99.5314H477.862C478.428 99.5314 478.885 99.9985 478.885 100.577C478.885 101.154 478.428 101.622 477.862 101.622Z" fill="#E6E9ED"/>
<path d="M455.356 98.4883H439.037C438.471 98.4883 438.014 98.0212 438.014 97.4432C438.014 96.8652 438.471 96.3981 439.037 96.3981H455.356C455.922 96.3981 456.379 96.8652 456.379 97.4432C456.379 98.0212 455.922 98.4883 455.356 98.4883Z" fill="#E6E9ED"/>
<path d="M497.315 89.0779H487.084C486.518 89.0779 486.061 88.6108 486.061 88.0328C486.061 87.4548 486.518 86.9877 487.084 86.9877H497.315C497.881 86.9877 498.338 87.4548 498.338 88.0328C498.338 88.6108 497.881 89.0779 497.315 89.0779Z" fill="#CCD1D9"/>
<path d="M497.315 92.2133H487.084C486.518 92.2133 486.061 91.7461 486.061 91.1682C486.061 90.5902 486.518 90.123 487.084 90.123H497.315C497.881 90.123 498.338 90.5902 498.338 91.1682C498.338 91.7461 497.881 92.2133 497.315 92.2133Z" fill="#CCD1D9"/>
<path d="M494.243 95.3487H490.157C489.591 95.3487 489.134 94.8815 489.134 94.3036C489.134 93.7256 489.591 93.2584 490.157 93.2584H494.243C494.809 93.2584 495.266 93.7256 495.266 94.3036C495.266 94.8815 494.809 95.3487 494.243 95.3487Z" fill="#CCD1D9"/>
<path d="M474.807 92.2175H464.576C464.011 92.2175 463.553 91.7503 463.553 91.1723C463.553 90.5944 464.011 90.1272 464.576 90.1272H474.807C475.373 90.1272 475.83 90.5944 475.83 91.1723C475.83 91.7503 475.373 92.2175 474.807 92.2175Z" fill="#CCD1D9"/>
<path d="M474.807 95.353H464.576C464.011 95.353 463.553 94.8858 463.553 94.3078C463.553 93.7299 464.011 93.2627 464.576 93.2627H474.807C475.373 93.2627 475.83 93.7299 475.83 94.3078C475.83 94.8858 475.373 95.353 474.807 95.353Z" fill="#CCD1D9"/>
<path d="M471.735 98.4883H467.649C467.083 98.4883 466.626 98.0212 466.626 97.4432C466.626 96.8652 467.083 96.3981 467.649 96.3981H471.735C472.301 96.3981 472.758 96.8652 472.758 97.4432C472.758 98.0212 472.301 98.4883 471.735 98.4883Z" fill="#CCD1D9"/>
<path d="M452.301 89.0779H442.07C441.505 89.0779 441.047 88.6108 441.047 88.0328C441.047 87.4548 441.505 86.9877 442.07 86.9877H452.301C452.867 86.9877 453.324 87.4548 453.324 88.0328C453.324 88.6108 452.867 89.0779 452.301 89.0779Z" fill="#CCD1D9"/>
<path d="M452.301 92.2133H442.07C441.505 92.2133 441.047 91.7461 441.047 91.1682C441.047 90.5902 441.505 90.123 442.07 90.123H452.301C452.867 90.123 453.324 90.5902 453.324 91.1682C453.324 91.7461 452.867 92.2133 452.301 92.2133Z" fill="#CCD1D9"/>
<path d="M449.229 95.3487H445.143C444.577 95.3487 444.12 94.8815 444.12 94.3036C444.12 93.7256 444.577 93.2584 445.143 93.2584H449.229C449.795 93.2584 450.252 93.7256 450.252 94.3036C450.252 94.8815 449.795 95.3487 449.229 95.3487Z" fill="#CCD1D9"/>
<path d="M469.703 80.721C469.137 80.721 468.68 80.2538 468.68 79.6758V68.1814C468.68 67.6034 469.137 67.1362 469.703 67.1362C470.269 67.1362 470.726 67.6034 470.726 68.1814V79.6758C470.726 80.2538 470.269 80.721 469.703 80.721Z" fill="#656D78"/>
<path d="M492.203 77.5855C491.637 77.5855 491.18 77.1184 491.18 76.5404V72.3598C491.18 71.7819 491.637 71.3147 492.203 71.3147C492.769 71.3147 493.226 71.7819 493.226 72.3598V76.5404C493.226 77.1184 492.769 77.5855 492.203 77.5855Z" fill="#656D78"/>
<path d="M492.203 73.405H475.833C475.268 73.405 474.81 72.9378 474.81 72.3598C474.81 71.7819 475.268 71.3147 475.833 71.3147H492.203C492.769 71.3147 493.226 71.7819 493.226 72.3598C493.226 72.9378 492.769 73.405 492.203 73.405Z" fill="#656D78"/>
<path d="M475.833 73.405C475.268 73.405 474.81 72.9378 474.81 72.3598V68.1814C474.81 67.6034 475.268 67.1362 475.833 67.1362C476.399 67.1362 476.856 67.6034 476.856 68.1814V72.3598C476.856 72.9378 476.399 73.405 475.833 73.405Z" fill="#656D78"/>
<path d="M447.159 77.5855C446.593 77.5855 446.136 77.1184 446.136 76.5404V72.3598C446.136 71.7819 446.593 71.3147 447.159 71.3147C447.725 71.3147 448.182 71.7819 448.182 72.3598V76.5404C448.182 77.1184 447.724 77.5855 447.159 77.5855Z" fill="#656D78"/>
<path d="M463.529 73.405H447.159C446.593 73.405 446.136 72.9378 446.136 72.3598C446.136 71.7819 446.593 71.3147 447.159 71.3147H463.529C464.094 71.3147 464.552 71.7819 464.552 72.3598C464.552 72.9378 464.093 73.405 463.529 73.405Z" fill="#656D78"/>
<path d="M463.529 73.405C462.963 73.405 462.506 72.9378 462.506 72.3598V68.1814C462.506 67.6034 462.963 67.1362 463.529 67.1362C464.094 67.1362 464.552 67.6034 464.552 68.1814V72.3598C464.552 72.9378 464.093 73.405 463.529 73.405Z" fill="#656D78"/>
<path d="M513.612 108.889H481.672H459.313H427.373H422.585L420.985 110.438V115.111C420.985 116.838 422.422 118.222 424.179 118.222H516.806C518.579 118.222 520 116.838 520 115.111V110.438L518.403 108.889H513.612Z" fill="#656D78"/>
<path d="M481.671 108.888V110.443C481.671 111.299 480.953 111.999 480.074 111.999H460.91C460.032 111.999 459.313 111.299 459.313 110.443V108.888" fill="#545C66"/>
<path d="M464.108 66.8954C463.225 66.8954 462.511 66.2 462.511 65.3398V46.6793C462.511 45.8191 463.225 45.1238 464.108 45.1238C464.991 45.1238 465.705 45.8191 465.705 46.6793V65.3398C465.705 66.2 464.991 66.8954 464.108 66.8954Z" fill="#E6E9ED"/>
<path d="M467.299 51.3429C466.891 51.3429 466.482 51.1905 466.17 50.8871L462.979 47.7791C462.355 47.1709 462.355 46.1878 462.979 45.5796C463.604 44.9714 464.613 44.9714 465.238 45.5796L468.428 48.6876C469.053 49.2958 469.053 50.2789 468.428 50.8871C468.117 51.1905 467.708 51.3429 467.299 51.3429Z" fill="#E6E9ED"/>
<path d="M460.918 51.3429C460.509 51.3429 460.101 51.1905 459.789 50.8871C459.165 50.2789 459.165 49.2958 459.789 48.6876L462.98 45.5796C463.604 44.9714 464.614 44.9714 465.238 45.5796C465.863 46.1878 465.863 47.1709 465.238 47.7791L462.047 50.8871C461.736 51.1905 461.327 51.3429 460.918 51.3429Z" fill="#E6E9ED"/>
<path d="M476.896 66.8954C476.013 66.8954 475.299 66.2 475.299 65.3398V46.6793C475.299 45.8191 476.013 45.1238 476.896 45.1238C477.779 45.1238 478.493 45.8191 478.493 46.6793V65.3398C478.493 66.2 477.779 66.8954 476.896 66.8954Z" fill="#E6E9ED"/>
<path d="M476.897 66.8955C476.488 66.8955 476.079 66.7431 475.768 66.4398L472.577 63.3318C471.953 62.7235 471.953 61.7404 472.577 61.1322C473.202 60.524 474.211 60.524 474.835 61.1322L478.026 64.2402C478.651 64.8484 478.651 65.8315 478.026 66.4398C477.713 66.7431 477.306 66.8955 476.897 66.8955Z" fill="#E6E9ED"/>
<path d="M476.897 66.8955C476.488 66.8955 476.079 66.7431 475.768 66.4398C475.143 65.8315 475.143 64.8484 475.768 64.2402L478.958 61.1322C479.583 60.524 480.592 60.524 481.217 61.1322C481.841 61.7404 481.841 62.7235 481.217 63.3318L478.026 66.4398C477.713 66.7431 477.305 66.8955 476.897 66.8955Z" fill="#E6E9ED"/>
<path d="M422.583 111.993C423.465 111.993 424.18 111.296 424.18 110.437C424.18 109.578 423.465 108.881 422.583 108.881C421.701 108.881 420.986 109.578 420.986 110.437C420.986 111.296 421.701 111.993 422.583 111.993Z" fill="#656D78"/>
<path d="M427.376 124.444H413V166.445H427.376C428.253 166.445 428.973 165.743 428.973 164.889C428.973 164.032 428.973 162.632 428.973 161.778V129.111C428.973 128.254 428.973 126.854 428.973 126C428.973 125.143 428.253 124.444 427.376 124.444Z" fill="#656D78"/>
<path d="M473.687 138.444L504.541 133.873C504.891 133.809 505.258 133.778 505.627 133.778C509.155 133.778 512.015 136.561 512.015 140C512.015 142.302 510.736 144.309 508.821 145.384L465.702 168L428.97 163.333V127.556H443.343L468.399 132.317C471.403 132.815 473.687 135.363 473.687 138.444Z" fill="#EAC6BB"/>
<path d="M421.032 163.333C420.148 163.333 419.428 162.638 419.428 161.778C419.428 160.918 420.132 160.222 421.016 160.222H421.032C421.915 160.222 422.629 160.918 422.629 161.778C422.629 162.638 421.915 163.333 421.032 163.333Z" fill="#FFCE54"/>
<path d="M476.837 137.976L473.686 138.445C473.686 141.881 470.826 144.667 467.298 144.667C467.118 144.667 466.936 144.651 466.758 144.639C466.755 144.636 466.755 144.636 466.752 144.636L446.661 143.113C445.788 143.058 445.015 143.69 444.943 144.544C444.878 145.401 445.532 146.148 446.412 146.215L466.35 147.725V147.731C466.664 147.762 466.982 147.776 467.298 147.776C472.583 147.776 476.88 143.59 476.88 138.443C476.88 138.283 476.847 138.135 476.837 137.976Z" fill="#D3B1A9"/>
</svg>
